<svg xmlns="http://www.w3.org/2000/svg" viewBox="0 0 56 56"><defs><style>.cls-1{fill:#8264b4;}</style></defs><g id="Layer_4" data-name="Layer 4"><path class="cls-1" d="M42,37.66c0,1.79,0,3.58,0,5.38A13.11,13.11,0,0,1,29.12,56c-3.83.09-7.39-.48-10.39-3A12.5,12.5,0,0,1,14,43.39c-.07-4.07,0-8.14,0-12.21,0-.47-.15-1.1.37-1.33s1,.19,1.4.53a3.86,3.86,0,0,1,1.51,3.06c-.05,3.09,0,6.18,0,9.28a9.64,9.64,0,0,0,.41,3c.24.78.58.78,1.06.19a6.1,6.1,0,0,0,1.42-3.7c0-3.09.09-6.19,0-9.28-.12-3.44-3.6-6.37-7.06-6.23C11,26.79,9,27,7.33,28.54a6.45,6.45,0,0,0-2.24,4.83c0,2.89-.09,5.78,0,8.67a6.76,6.76,0,0,0,6,6.48c.86.11,2.63,2.18,2.57,3,0,.49-.43.41-.74.43A10.35,10.35,0,0,1,1.88,43.19a46.18,46.18,0,0,1,0-11.45c.53-4.44,5.16-8.21,10-8.37a11.86,11.86,0,0,1,4.11.42,1.14,1.14,0,0,0,1.38-.45c4.86-6,16.56-6,21.35,0,.48.59,1,.53,1.61.38,5.56-1.35,10.8.91,13,5.57a9.71,9.71,0,0,1,1,3.89,65.85,65.85,0,0,1-.09,9.63,10.48,10.48,0,0,1-11,9.16c-1-.06-1-.39-.57-1.11a7,7,0,0,0,.68-1.3,1.56,1.56,0,0,1,1.47-1,6.78,6.78,0,0,0,6.17-7c0-2.61,0-5.21,0-7.82-.05-4-2.87-6.66-6.84-7-4.18-.35-6.87,1.9-7.88,4.45a5.7,5.7,0,0,0-.42,2.14q0,4.34,0,8.67a6.33,6.33,0,0,0,1.46,3.93c.5.63.83.53,1.06-.22a10.08,10.08,0,0,0,.4-2.89c0-3.13,0-6.27,0-9.4a3.6,3.6,0,0,1,1.9-3.31c1-.6,1.32-.43,1.34.71,0,2.28,0,4.56,0,6.84Zm-14,15a9.87,9.87,0,0,0,7.25-2.26c.64-.52.88-.93.15-1.65a9.54,9.54,0,0,1-2.95-6.64c-.12-3-.16-5.94,0-8.9a9.71,9.71,0,0,1,3.13-6.82c.63-.58.64-1,0-1.55-3.87-3.56-11.18-3.61-15.08-.09-.62.56-.82.94-.1,1.64a9.64,9.64,0,0,1,3.12,6.81c.08,3,.1,5.94,0,8.9a9.46,9.46,0,0,1-2.85,6.56c-.8.79-.59,1.23.16,1.82A9.91,9.91,0,0,0,28,52.65Z"/><path class="cls-1" d="M28.21,0a8.14,8.14,0,0,1,7.84,8.2,8,8,0,1,1-16-.37A8.13,8.13,0,0,1,28.21,0Z"/><path class="cls-1" d="M6.46,14.37a6.3,6.3,0,0,1,6.22-6.1,6.24,6.24,0,0,1,6.14,6.41,6.18,6.18,0,1,1-12.36-.31Z"/><path class="cls-1" d="M49.6,14.61a6.19,6.19,0,1,1-6.1-6.32A6.26,6.26,0,0,1,49.6,14.61Z"/></g></svg>