<svg xmlns="http://www.w3.org/2000/svg" viewBox="0 0 56 56"><defs><style>.cls-1{fill:#8264b4;stroke:#8264b4;stroke-miterlimit:10;stroke-width:0.7px;}</style></defs><g id="Layer_4" data-name="Layer 4"><path class="cls-1" d="M45.86,13.27c.55-.58,1.1-1.18,1.67-1.76a2.59,2.59,0,0,1,4,0l3.29,3.29a2.47,2.47,0,0,1,.11,3.57c-1.6,1.66-3.16,3.36-4.86,4.92-1.44,1.32-2.77,2.75-4.16,4.12a1,1,0,0,0-.22.82V48.06c0,1.32,0,4.62,0,5.94,0,.58-.18.84-.79.84q-16.84,0-33.69,0c-.61,0-.81-.25-.8-.83,0-1.53,0-5,0-6.57,0-.5-.14-.64-.63-.64-2.84,0-5.67,0-8.5,0-.9,0-.95-.05-.95-.91v-43c0-.84.06-.91.89-.91H34.73c.79,0,.88.08.88.86,0,1.51,0,5,0,6.51,0,.54.16.66.68.66,2.83,0,5.66,0,8.49,0,.84,0,.91.07.91.89v2.24ZM32.11,39.72a1.18,1.18,0,0,0,.48-.4L48.8,23.12l.42-.45a6.28,6.28,0,0,1-.79-.75c-.3-.38-.48-.33-.81,0-3.63,3.67-7.29,7.31-10.94,11a3.78,3.78,0,0,1-.41.39.45.45,0,0,1-.67,0,.47.47,0,0,1,0-.68c.12-.14.26-.27.4-.41L46.84,21.32a5.83,5.83,0,0,1,.58-.43c-1.25-1.24-2.41-2.37-3.53-3.53-.35-.37-.52-.32-.85,0Q35,25.47,26.89,33.54c-.16.16-.37.29-.44.53q-.93,2.63-1.87,5.25a.54.54,0,0,0,.16.66c.5.48,1,1,1.46,1.47a.53.53,0,0,0,.62.17ZM8.4,29.71l-1.25,0A1.56,1.56,0,0,1,5.39,28q0-2.33,0-4.65A1.55,1.55,0,0,1,6.9,21.66a12.46,12.46,0,0,1,1.5-.06l1.19,0c.83,0,.83,0,.83-.82,0-1.19,0-1.19-1.2-1.19l-.82,0-1.25,0a1.56,1.56,0,0,1-1.76-1.69q0-2.33,0-4.65A1.56,1.56,0,0,1,6.9,11.58a12.46,12.46,0,0,1,1.5-.05c.48,0,1,0,1.45,0s.63-.11.58-.59c-.09-.77.09-.94,1-.94H32.7c.62,0,1.5.28,1.8-.12s.07-3.22.08-3.86,0-1.56,0-2.33c0-.59-.16-.71-.71-.71Q18,3,2.05,3c-.58,0-.71.15-.71.72,0,13.13,0,28.24,0,41.37,0,.11,0,.21,0,.32,0,.29.08.39.38.39l6.67,0c.53,0,1,0,1.57,0,.36,0,.47-.09.46-.45,0-1.07,0-2.14,0-3.21,0-.61.28-1.49-.12-1.78s-1.24-.08-1.89-.09l-1.25,0a1.56,1.56,0,0,1-1.76-1.68c0-1.55,0-3.1,0-4.66A1.56,1.56,0,0,1,6.9,32.23a14.93,14.93,0,0,1,1.5,0c.48,0,1,0,1.44,0s.64-.1.59-.58.27-1.51-.15-1.85S9.05,29.71,8.4,29.71Zm31-10.1c1.13-1.12,2.27-2.23,3.39-3.36.64-.64,1.5-1.19,1.81-2a8.71,8.71,0,0,0,.1-2.67c0-.5-.15-.57-.6-.57Q28,11.06,12,11c-.49,0-.57.14-.57.6,0,13.21,0,28.41,0,41.62,0,.48.12.59.58.58H44.1c.31,0,.59.09.59-.44,0-5.14,0-12.26,0-17.4v-7.3l-.57.55c-3.32,3.32-6.67,6.61-10,10a7.88,7.88,0,0,1-3.41,2.08c-2,.64-4,1.32-6,2.11l-.24.06-.15.07c-.38,0-.35.25-.36.51,0,1.25-.58,1.76-1.85,1.76-1.43,0-2.85,0-4.28,0S16,45.24,16,43.9V39.75c0-1.39.61-2,2-2h4a2.23,2.23,0,0,1,1.93.77c.46-1.3.92-2.53,1.31-3.78a4.88,4.88,0,0,1,1.44-2.3c.57-.5,1.06-1.07,1.59-1.61l1.13-1.14,8.94-8.94ZM20,44.8h2.45c.31,0,.53-.11.58-.45s-.25-.28-.46-.3a.44.44,0,0,1-.42-.57,3.89,3.89,0,0,1,.21-.66A7.64,7.64,0,0,0,23,39.48c-.05-.46-.18-.72-.66-.72H17.65a.62.62,0,0,0-.68.71v4.65c0,.52.25.71.74.69C18.47,44.78,19.22,44.8,20,44.8ZM49.51,11.6a1.63,1.63,0,0,0-1.08.47c-.42.41-.81.85-1.26,1.23s-.24.41,0,.67c1.33,1.3,2.63,2.64,4,3.94.48.46.91,1.36,1.46,1.25s1-.9,1.52-1.43a1.48,1.48,0,0,0,0-2.19c-1.13-1.15-2.28-2.28-3.42-3.42A1.85,1.85,0,0,0,49.51,11.6Zm-39.1,4c0-.86,0-1.72,0-2.58,0-.31-.07-.46-.42-.45H7.11c-.5,0-.72.23-.72.73,0,1.55,0,3.1,0,4.65,0,.43.18.67.64.66,1,0,2,0,3,0,.33,0,.44-.11.44-.44C10.4,17.31,10.41,16.45,10.41,15.59Zm0,10.11c0-.88,0-1.76,0-2.64,0-.27-.05-.43-.38-.42-1,0-2,0-3,0-.44,0-.64.25-.64.68V28a.56.56,0,0,0,.66.64c1,0,1.93,0,2.89,0,.42,0,.49-.17.48-.53C10.4,27.34,10.41,26.52,10.41,25.7Zm0,10.58c0-.88,0-1.76,0-2.64,0-.28-.06-.43-.38-.43-1,0-2,0-3,0a.57.57,0,0,0-.63.62v4.78c0,.44.22.64.67.64,1,0,1.92,0,2.89,0,.35,0,.48-.1.47-.46C10.4,38,10.41,37.12,10.41,36.28Zm33.74-20c1.86,1.85,3.68,3.67,5.5,5.5.22.23.32.19.52,0,.55-.57,1.13-1.12,1.71-1.68-1.86-1.86-3.69-3.68-5.5-5.51-.22-.22-.32-.19-.52,0C45.31,15.14,44.73,15.69,44.15,16.26Z"/><path class="cls-1" d="M24.53,43.46l-.15.07Z"/><path class="cls-1" d="M19.93,25.65c-.73,0-1.47,0-2.2,0A1.55,1.55,0,0,1,16,24q0-2.32,0-4.65a1.47,1.47,0,0,1,1.44-1.66,28,28,0,0,1,5.26,0A1.4,1.4,0,0,1,24,19.22c0,1.61,0,3.23,0,4.84a1.49,1.49,0,0,1-1.63,1.59C21.56,25.67,20.75,25.65,19.93,25.65ZM23,20.3c0-.44,0-.73,0-1,0-.45-.2-.67-.64-.67H17.6a.57.57,0,0,0-.63.62c0,1.62,0,3.23,0,4.85a.5.5,0,0,0,.53.56h5a.46.46,0,0,0,.53-.49c0-1.16,0-2.32,0-3.38-.94.89-1.91,1.81-2.87,2.74-.25.23-.51.46-.82.21a20.29,20.29,0,0,1-1.52-1.41.44.44,0,0,1,.06-.67.43.43,0,0,1,.62,0,8.06,8.06,0,0,1,.74.68c.25.28.43.3.7,0,.64-.69,1.33-1.34,2-2C22.23,20,22.56,19.81,23,20.3Z"/><path class="cls-1" d="M20,35.73h-2.2C16.6,35.72,16,35.18,16,34c0-1.53,0-3.06,0-4.59,0-1,.47-1.63,1.47-1.7a29.41,29.41,0,0,1,5.14,0A1.54,1.54,0,0,1,24,29.43c0,1.56,0,3.11,0,4.66a1.52,1.52,0,0,1-1.66,1.64C21.56,35.74,20.77,35.73,20,35.73Zm0-1c.77,0,1.55,0,2.32,0,.48,0,.69-.18.69-.67q0-2.3,0-4.59c0-.52-.24-.79-.75-.79H17.62c-.44,0-.65.24-.65.68v4.71c0,.48.24.67.71.66C18.46,34.71,19.23,34.72,20,34.72Z"/><path class="cls-1" d="M31,38.59c-.24.14-.49.27-.74,0s-.15-.49,0-.74l2.86-2.82c.26-.26.54-.56.9-.18s0,.64-.22.9Z"/><path class="cls-1" d="M22.91,30.65a.68.68,0,0,1-.27.54c-.85.84-1.69,1.68-2.53,2.53a.61.61,0,0,1-1,0l-1.19-1.12c-.26-.25-.38-.53-.1-.82s.54-.08.77.13l.09.08c.9.8.9.8,1.74,0l1.61-1.59a.5.5,0,0,1,.62-.16A.41.41,0,0,1,22.91,30.65Z"/></g></svg>