<svg xmlns="http://www.w3.org/2000/svg" viewBox="0 0 620 365"><defs><style>.cls-1{opacity:0.5;}.cls-2{fill:#f1f2f2;}.cls-3{fill:#2e3a42;}.cls-4{fill:#50bfa5;}.cls-5{fill:#050505;}.cls-6{fill:#525c62;}.cls-7{fill:#414d54;}.cls-8{fill:#505a61;}.cls-9{fill:#5a6369;}.cls-10{fill:#49535a;}.cls-11{fill:#323e46;}.cls-12{fill:#36424a;}.cls-13{fill:#52c0a6;}.cls-14{fill:#eeaf08;}.cls-15{fill:#4e595f;}.cls-16,.cls-43{fill:#eeb00b;}.cls-17{fill:#414c53;}.cls-18{fill:#fefefe;}.cls-19{fill:#e2e3e4;}.cls-20{fill:#fbfbfc;}.cls-21{fill:#e0e1e2;}.cls-22{fill:#adb1b4;}.cls-23{fill:#dadcdd;}.cls-24{fill:#fcfdfd;}.cls-25{fill:#f4f4f5;}.cls-26{fill:#f0f1f1;}.cls-27{fill:#dcdddf;}.cls-28{fill:#f9f9f9;}.cls-29{fill:#f7f8f8;}.cls-30{fill:#475158;}.cls-31{fill:#4c575d;}.cls-32{fill:#787f83;}.cls-33{fill:#f47458;}.cls-34{fill:#344048;}.cls-35{fill:#3b474e;}.cls-36{fill:#d9dbdc;}.cls-37{fill:#566066;}.cls-38{fill:#455056;}.cls-39{fill:#f4755a;}.cls-40{fill:#4b555c;}.cls-41{fill:#6f767b;}.cls-42{fill:#f5f5f6;}.cls-43,.cls-44{stroke:#2e3a42;stroke-miterlimit:10;stroke-width:2px;}.cls-44{fill:#fff;}</style></defs><g id="Layer_4" data-name="Layer 4"><path class="cls-2" d="M142.51,323.68c-4.7,0-9.41,0-14.12,0a2.29,2.29,0,0,0-1.65.59c-.51-.6-1.22-.42-1.86-.42h-.18a2.75,2.75,0,0,1,2,.41c-.36.54-.92.34-1.4.34H107.07a2,2,0,0,1-1.91-.67c-.38-.5-1.06-.25-1.61-.25q-16.89,0-33.78,0c-.49,0-1.15.27-1.43-.21s.33-.91.59-1.3a62.73,62.73,0,0,0,9.16-21.24,29.66,29.66,0,0,0,.16-11.65,28.65,28.65,0,0,1,1.17-13.41,49.23,49.23,0,0,1,9.78-17.69,56.8,56.8,0,0,1,25.35-17.25,35.73,35.73,0,0,1,15.69-1.48c9.4,1,18,4.47,26.81,7.67,4.58,1.68,9.15,3.61,14.06,4,4.66.36,7.74-1.61,8.51-7.28.83-6-.12-12-.84-17.94-.61-5-1.31-10-1.68-15a57.48,57.48,0,0,1,1.89-21,43.22,43.22,0,0,1,8.77-15.8c6.28-7.3,14.07-12.49,22.67-16.61a36.08,36.08,0,0,1,19.47-3.59,37.05,37.05,0,0,1,15,5.43c5.19,3.07,9.92,6.8,15,10.09.38.25.78.47,1.18.7-1.32,2-.61,4.34-.73,6.52-.06,1.05.9,1.58,2.21,1.57,4.22,0,8.44-.14,12.66,0a1.8,1.8,0,0,0,1.78-.63,4.84,4.84,0,0,1,.91-1c.44.29.52.94,1.2,1a21.56,21.56,0,0,0,6.85-.09c.31-.42.78-.38,1.22-.43a4.91,4.91,0,0,1,.66.06,1.36,1.36,0,0,0,1.16-.32,1.09,1.09,0,0,1,.5.6c.05.12.1.24.14.37.94,1.16,2,.19,3,.2a3.57,3.57,0,0,1,1.42.1c1.86.39,3.75,0,5.62,0a51,51,0,0,0,7.62,0c1.55-.2,3.14.4,4.7-.1a3.53,3.53,0,0,1,1.55.06c.24,0,.51.2.74.14,2.26-.53,4.53.13,6.79-.11a44.09,44.09,0,0,1,5,.08c3.09,0,6.2-.29,9.29.15.94.13,1.27.65,1,1.48-.45,1.3-.6,2.7-1.15,4a4.9,4.9,0,0,0-.34,3,1.11,1.11,0,0,1-.54.59c-2.33.63-3.23,2.52-3.89,4.54a10.69,10.69,0,0,0-.63,3.46c0,.91-.46,1.3-1.31,1.34-.67,0-1.33,0-2,0H305.32c-2.39,0-2.43-.09-2.39-2.38.05-3.88,0-7.77,0-11.66,0-1.92-.14-2-2.12-2-3,0-6,0-9.05,0a3.69,3.69,0,0,1-1.79-.33c-.62-.34-.94,0-1.22.51a3.83,3.83,0,0,0-.26,2c0,3.77,0,7.55,0,11.32a4.5,4.5,0,0,1-.22,2c-.46.64-1.17.56-1.82.56H255.59a4.3,4.3,0,0,1-1.8-.3c-.29-.13-.6-.23-.85,0s-.07.54.08.82a3.16,3.16,0,0,1,0,3.35c-.16.28-.3.58-.05.85s.58.07.84-.05a1.63,1.63,0,0,1,2,.55,1.48,1.48,0,0,1,.19,1.94c-.62,1.19-.3,2.51-.35,3.78,0,.82-.14,1.63-.11,2.45,0,1.22.52,1.53,1.66,1.09a3.84,3.84,0,0,1,1.49-.29c.91,0,1.51.42,1.49,1.37,0,1.38.38,2.81-.9,4-.75.71-.2,2-.65,2.94a7.14,7.14,0,0,0-.08,3.7c.1.4,0,.86.19,1.2.65,1.27.84,2.39-.33,3.54-.51.49,0,1.22.23,1.84.94,2.24,1.24,4.47-.29,6.61a1.59,1.59,0,0,0-.35,1.14,9.1,9.1,0,0,1-.36,3,14.29,14.29,0,0,0,0,5,13.62,13.62,0,0,0,.61,6.4,4.19,4.19,0,0,1-.91,4.58c-.56.54-.29,1.24.18,1.79a1.55,1.55,0,0,1,.27,2c-1.41,1.79-1,3.88-1.11,5.87a5.91,5.91,0,0,1-.15,1.51,4.7,4.7,0,0,0,.43,3.53c.77,1.76,1,3.63-.37,5.31a1.31,1.31,0,0,0-.22,1.68c1.32,2.08.79,4.3.5,6.5-1.53,1.7-2,5.7-.91,7.82.77,1.48,1,2.88-.34,4.2a1.62,1.62,0,0,0-.14,2,7.43,7.43,0,0,1-.17,7,10.86,10.86,0,0,0-.84,6.43,8.23,8.23,0,0,0,.73,3.12c.36.61,0,1.07-.42,1.5a1.78,1.78,0,0,0-.15,2.38,4,4,0,0,1,.57,1.08c.7,2.63,0,3.62-2.73,3.62H229.14a6.36,6.36,0,0,1-1.69-.1c-1.52-.4-1.9-1.54-.93-2.8a3.13,3.13,0,0,0,.75-2.43c-.24-1.38.49-2.86-.48-4.18-.26-.35.11-.74.37-1.08a6.5,6.5,0,0,0,.74-6.38c-.17-.51-.37-.93,0-1.43,1.4-2,1.5-4.3,1.4-6.6-.06-1.56-.55-1.81-1.92-1.14a6,6,0,0,1-2.71.33c-1.44,0-2.87,0-4.3,0s-1.63-.29-1.21-1.65a11.8,11.8,0,0,1,.5-1.45c.61-1.26,1-1.38,2.26-.68,2.29,1.29,7.75-.93,8.45-3.48a4.89,4.89,0,0,0-.16-3.18,1.89,1.89,0,0,0-2.57-1.28c-1.43.53-2.7-.39-4.07-.21a.29.29,0,0,1-.26-.15c-.53-1,0-2,.26-2.93a1.15,1.15,0,0,1,1.64-.69c2.63,1,5,.38,7.32-.92a3.93,3.93,0,0,0,1.85-4.33c-.38-1.62-1.68-2.47-3.46-2.65a7.83,7.83,0,0,0-4.94,1.26,1.63,1.63,0,0,1-1.73.18c-.52-.29-.84-.84-.41-1.25,1-.91.91-2.13,1.24-3.23s.86-1.61,2-1.42a2.39,2.39,0,0,0,1.63-.29,2,2,0,0,1,2,0c1.72.81,4.52-.77,5.34-2.95a3.73,3.73,0,0,0-2.43-4.65,7.27,7.27,0,0,0-5.08.59c-2.45,1-2.64.85-2.28-1.74.06-.4.13-.81.21-1.21.3-1.35.73-1.69,2-1.33a2.93,2.93,0,0,0,2.77-.22,1.31,1.31,0,0,1,1.32.05c1.72.73,3.54,0,5-2,1.1-1.5,1-2.88-.3-4.48a13.38,13.38,0,0,1-1.16-1.22.86.86,0,0,1,0-1,.7.7,0,0,1,1-.18,2.09,2.09,0,0,0,2,.33,9.73,9.73,0,0,0,3-2.13c.71-.8.5-3.66-.18-4.51a1.77,1.77,0,0,0-2.57-.46,1.74,1.74,0,0,1-1.21,0c-1.71-1.29-1.71-1.29-.83-3a.62.62,0,0,1,.44-.08c1.44,1.18,3,.48,4.32,0a12.67,12.67,0,0,0,3.74-2.64l.21-.22c.26-.33.62-.9.4-1.09-1.31-1.11.59-2.53-.46-3.66-1.7-1.84-3.31-2.23-5.12-1.11a11.31,11.31,0,0,0-5.31,6.66,7.15,7.15,0,0,1-1.74,2.67c-.61.72-1.08.58-1.4-.33a9.46,9.46,0,0,0-2.36-4.05c-.75-.69-1.29-.66-2,0-.75.48-1.8.09-2.44.86a1.59,1.59,0,0,1-.33.25c-1.56,1.13-1.77,2.16-.71,3.52a2.13,2.13,0,0,1,.43.47,10.32,10.32,0,0,0,2.42,3.65c.43,1.22,1.76,1.6,2.43,2.59a3.08,3.08,0,0,1-1.2,2.34c-.68.27-.82,1-1.19,1.49-.8,1.12-1.09,1.14-1.88,0-.22-.32-.55-.4-.82-.61-.75-.88-1.15-2-2.12-2.71-.67-1-1.76-.69-2.68-.89-1.51,0-1.74.2-1.84,1.89,0,1.23-.2,2.5.5,3.64a19.42,19.42,0,0,1,2,2.2c.64.94,1.92.48,2.7,1.17a2,2,0,0,1,.34.25c.49.31,1.16.26,1.55.77.28.7-.08,1.37-.07,2.06a3.07,3.07,0,0,1-.69,1.73c-.48.82-.93,1.73-2.13,1-.47-.44-.71-1.05-1.18-1.49s-1-1-1.82-.9-1.62-.11-2.3.49a9.63,9.63,0,0,1-.79.6,1.72,1.72,0,0,0-.86.74c-.65,1.77.34,4.36,2.19,5.66a4.31,4.31,0,0,0,1.63.81,1.81,1.81,0,0,1,.37.18,2,2,0,0,0,2.28.84,1.42,1.42,0,0,1,1.19.53,28.53,28.53,0,0,1-.19,3.58c-.17.49-.62.8-.79,1.29-.44,1.3-1.17,1.17-2,.42-.63-.4-1.08-1.05-1.82-1.31-.65-.41-1.45-.16-2.12-.46-.7-.56-1.47.53-2.17-.08-.66-1.37-1.42-2.6-3.26-2.45a2.24,2.24,0,0,0-1.62.7,7.81,7.81,0,0,1-1.16,1c-1,.45-1.27,1.53-1.64,2.4-.65,1.5-.71,1.61-2.3,1a1,1,0,0,1-.25-.36c-.2-1.74-1.27-3.11-2-4.62-.84-1.74-.73-2.15,1.2-2.44a2.72,2.72,0,0,0,1.6-1.07,1.43,1.43,0,0,1,.37-.23c1.61-1,3.43-1.81,3.81-4a12,12,0,0,0,0-1.47c-.49-1.83-1.59-2.63-3-2.14-.52.22-1.1.23-1.63.42-.78.18-1.21.89-1.89,1.23-1.08.63-1.44,1.77-1.95,2.8a10.24,10.24,0,0,0-.05,1.66c-.08.91-.5,1.18-1.31.65a2.21,2.21,0,0,1-.51-.71,3.46,3.46,0,0,1-.53-1.64,2.81,2.81,0,0,0-.53-2.26,12.86,12.86,0,0,1-.77-2.1c-.33-.85.22-1.38.71-1.93a2,2,0,0,1,.54-.38c2.44-.46,4-2.13,5.51-3.92a4.57,4.57,0,0,0-.19-3.39c-.2-.19-.39-.38-.6-.56s-.64-.49-.95-.77c-1.15-.87-1.84,0-2.58.68a5.25,5.25,0,0,1-1.44,1.6,2.93,2.93,0,0,1-.39.21c-.65.3-.89.94-1.23,1.49s-.69,1.06-1.42.49a1.79,1.79,0,0,1-.07-1.4,1.89,1.89,0,0,0,.14-1.87,2.3,2.3,0,0,1,0-2.19,1.45,1.45,0,0,1,1.07-.51,8,8,0,0,0,5.2-2,1.83,1.83,0,0,0,1.78-2.29,6.76,6.76,0,0,1,0-1.8,1.16,1.16,0,0,0-.13-1c-1-1.29-4.27-1.28-5.22,0-.52.71-1.05,1.5-2.1.73s-1-1.62-.2-2.61c.52-.6,1.37-.93,1.5-1.86a10.25,10.25,0,0,1,1.54-2.06,7.74,7.74,0,0,0,1.23-2.91,3,3,0,0,0-1-3.15,2.34,2.34,0,0,0-3.08.06,4.78,4.78,0,0,1-.8.44,2.68,2.68,0,0,0-1.3,3.12,6.79,6.79,0,0,1,.09,2.73c-.21,1.25-.3,2.39.69,3.4a1.14,1.14,0,0,1,.09,1.31,9.56,9.56,0,0,0-1.24,2.92c-.1.54-.63.6-1.12.44a2,2,0,0,1-1.07-.83c-1.23-2-3.23-2.07-5.23-2.12-1.05,0-1.25.65-1.05,1.54.24,3.37,1.59,4.85,5.16,5.63a14,14,0,0,0,2.74.15,1.58,1.58,0,0,1,1.7,1.73,36,36,0,0,0,.72,6.79c.1.47.2,1.06-.57,1.16-.67-.11-1-.65-1.41-1.1a9.17,9.17,0,0,0-4.21-2.66,2.64,2.64,0,0,0-3.51,1.27,2.81,2.81,0,0,0,1.43,3.48,9.79,9.79,0,0,0,1.8.83,10.37,10.37,0,0,0,5.07-.25,2.66,2.66,0,0,1,.47-.11,1.59,1.59,0,0,1,1.94,1.27,54.52,54.52,0,0,0,2.15,5.53c.25.55.54,1.15-.15,1.63-.65.13-1-.36-1.48-.67a6.79,6.79,0,0,0-4.26-1.5,2.09,2.09,0,0,0-2,1.18,2.3,2.3,0,0,0,.28,2.6,5.67,5.67,0,0,0,5.79,1.93c.3-.06.62,0,.91-.1,3.68-.86,3.23-.2,4.52,2.23.87,1.66,1.67,3.37,2.45,5.08.18.41.48.92.11,1.29s-.91-.08-1.35-.25c-1.43-1.1-2.9-2.06-4.82-2a2.06,2.06,0,0,0-2.08,1.25,2.39,2.39,0,0,0,.34,2.57,5.73,5.73,0,0,0,5.18,2,22.55,22.55,0,0,0,3.45-.65c.88-.06,1.19.57,1.49,1.22.53,1.14.75,2.39,1.23,3.54s.6,2.49.92,3.73c.12.47.37,1.1-.26,1.35s-.89-.37-1.16-.79a10.14,10.14,0,0,0-3.22-3.23c-1.81-1.12-3.62-1-4.39.3s0,3.13,1.78,4.17a9.4,9.4,0,0,0,4.92.88c2.71,0,2.88.14,3.45,2.81.8,3.71.6,3.95-3.16,3.95-2,0-4.09,0-6.14,0-.86,0-1.16.27-1,1.18.52,4.31,1,8.62,1.46,12.93.36,3.09.7,6.19,1,9.28.2,1.91-.32,2.4-2.23,2.41H143.73A3.88,3.88,0,0,1,142.51,323.68Z"/><path class="cls-2" d="M66.45,118.29C78.65,118,89.71,128.58,89.23,142a22.84,22.84,0,1,1-22.78-23.71Z"/><path class="cls-2" d="M290.82,175c.53.81,1.13.76,1.92.32a25.54,25.54,0,0,0,8.81-8.63c3.6-5.51,6-11.6,8.41-17.69.65-1.63-.57-1.19-1.26-1.19q-14.61,0-29.22,0a9.91,9.91,0,0,0-1.09,0c-1.25.14-1.71-.43-1.61-1.64a16.67,16.67,0,0,0,0-1.87,6.27,6.27,0,0,0-.12-2.31c-.39-.86-1.4-.3-2.12-.44a1,1,0,0,1-.88-.93c0-.47,0-.94,0-1.41q0-38.36,0-76.7c0-.63-.33-1.37.38-1.88a4,4,0,0,1,.37,2.57q0,37.41,0,74.81a5.86,5.86,0,0,0,.19,2.32c.26.51.76.41,1.21.46s1.15.06,1.51.62a10.92,10.92,0,0,1,.28,3.86c0,1.18.5,1.74,1.68,1.7.47,0,.94,0,1.41,0h77.17c2.79,0,2.79,0,2.79-2.86V77.45c0-.31,0-.62,0-.94,0-2-.09-2.08-2.07-2.25a2.88,2.88,0,0,1-1.49-.38,1.56,1.56,0,0,1-.4-1.14c0-3.86-.15-7.72.08-11.58a1.74,1.74,0,0,1,.32-.52c.57.42.34,1,.34,1.58,0,3.28.05,6.55,0,9.83,0,1.09.41,1.21,1.4,1.45,2.91.71,5.26-.58,7.75-1.62A1.68,1.68,0,0,0,367.76,70q-.06-10.12,0-20.26c0-.57-.44-1.44.65-1.62l.12.28v.31c0,25.52,0,51.05,0,76.57a18.29,18.29,0,0,0,.06,2.34,1.13,1.13,0,0,0,.26.45c.89.62,2.23-.23,2.95.92a7.78,7.78,0,0,1,.26,2.63,1.16,1.16,0,0,0,1.25,1.27q.78,0,1.56,0h77c2.91,0,2.92,0,2.92-2.94V63.33c0-.42,0-.84,0-1.25,0-1-.37-1.55-1.45-1.57-.64,0-1.39.08-1.79-.67a1.19,1.19,0,0,1,.29-.12c3.8-.42,3.8-.42,3.8,3.34a35.37,35.37,0,0,1,0,4.37c-.21,1.7.52,2.27,2.06,2.71a144.89,144.89,0,0,1,28.91,11.92,131.34,131.34,0,0,1,21.71,14.75A128.62,128.62,0,0,1,521,109.14a119.67,119.67,0,0,1,16.43,23c5,9.1,9.12,18.56,11.35,28.74,1,4.38,1.59,8.84,2.12,13.31.56,4.77,1.24,9.53,1.79,14.3.31,2.68.49,5.36.69,8.05q.65,8.43,1.23,16.88c.16,2.32.09,4.66.27,7,.33,4.25.24,8.52.39,12.78.43,12.38.43,24.77.23,37.15-.08,5,0,10-.27,15-.25,5.44-.47,10.88-.63,16.33-.17,5.9-.57,11.8-.93,17.7-.06.92-.27,1.83-.31,2.77,0,1.11.36,1.42,1.44,1.41,4.94,0,9.89,0,14.84,0v1.57l-.34,0a1.8,1.8,0,0,0-1.5-.67c-.73-.05-1.46-.05-2.19-.05H512.34a11.35,11.35,0,0,1-2.79-.15c-.88-.28-.69-.95-.46-1.53.67-1.64,1.32-3.28,2-4.91a1.64,1.64,0,0,1,2-1.06,15.34,15.34,0,0,0,3.58.13,4.48,4.48,0,0,0,3.27-1.63,2.18,2.18,0,0,0,.26-2.49,1.83,1.83,0,0,0-2-.92,6.59,6.59,0,0,0-4.09,2.37c-.47.47-.85,1.57-1.62,1.07s0-1.35.22-2a35,35,0,0,0,1.49-5.41c.42-2.1.69-2.26,2.72-1.75,1.78.44,3.57.8,5.33-.12a2.58,2.58,0,0,0,1.54-1.65,1.83,1.83,0,0,0-1.77-2.5,7,7,0,0,0-5.3,2.26c-.46.45-.87,1.4-1.56,1s-.27-1.32-.17-2c.38-2.47.5-5,.87-7.43.16-1,.64-1.21,1.49-1s1.88.61,2.86.79a5.12,5.12,0,0,0,4.25-1.07,2,2,0,0,0,.8-2.49,2,2,0,0,0-2.44-1.22,8.29,8.29,0,0,0-4.77,2.48c-.26.26-.45.57-.73.81s-.63.66-1.08.39-.25-.65-.19-1c.39-2.41.76-4.82,1.37-7.19.46-1.76.65-1.84,2.4-1.33s3.19,1,4.88.39a4.48,4.48,0,0,0,1.53-.76,2.12,2.12,0,0,0,.81-2.62,2.05,2.05,0,0,0-2.45-1.22,8.71,8.71,0,0,0-4.43,2.18c-.26.25-.47.56-.74.8s-.57.74-1,.4-.1-.65,0-1a43.32,43.32,0,0,1,2.08-4.48c-.88,1.57-1.56,3.22-2.34,4.84,0,.09-.14.12-.28.13-.57-.36-.46-1-.58-1.52a9.87,9.87,0,0,0-2-4.51,2.29,2.29,0,0,0-2.92-.73,2.36,2.36,0,0,0-.79,2.92,6.45,6.45,0,0,0,3.63,3.47c.57.26,1.18.41,1.73.7s1,.73.77,1.38c-.77,2.43-1,5-1.64,7.44,0,.1-.12.16-.25.22-.7-.24-.68-1-.89-1.5a8,8,0,0,0-2.17-3.38,2,2,0,0,0-2.45-.29,2,2,0,0,0-.91,2.45c.56,2.05,2.12,3.13,3.94,3.94,2.45,1.08,2.48,1.08,2.26,3.65-.15,1.81-.34,3.63-.63,5.42-.08.51-.17,1.19-.75,1.22s-.58-.65-.73-1.07a7.91,7.91,0,0,0-2.13-3.58,1.91,1.91,0,0,0-2.54-.41,2.16,2.16,0,0,0-.86,2.75,5.87,5.87,0,0,0,3.11,3.34c.61.28,1.25.52,1.87.79a1.63,1.63,0,0,1,1.06,2,36.48,36.48,0,0,1-2.15,6.69c-.15.37-.36.89-.85.74s-.38-.68-.35-1.1c.19-2.22-.7-4.2-1.54-6.15a2,2,0,0,0-3.58-.45,6.73,6.73,0,0,0-1.71,4.58c0,.49.06,1.2-.6,1.26s-.74-.63-.85-1.13a51.44,51.44,0,0,0-2.21-6.84c-.52-1.41-.36-1.72,1.07-2.16a8.36,8.36,0,0,0,4.31-2.38,4.83,4.83,0,0,0,.9-1.45,2.13,2.13,0,0,0-.72-2.65,2,2,0,0,0-2.72.25,8.25,8.25,0,0,0-2.51,4.41c-.06.26-.07.52-.12.78s-.11.89-.61,1-.81-.4-1-.82c-.64-1.48-1.48-2.87-2.18-4.32a24.14,24.14,0,0,0-1.41-2.78c-.69-1.07-.19-1.55.74-1.85a25.73,25.73,0,0,0,2.93-1.08,5.17,5.17,0,0,0,2.59-2.6,2.28,2.28,0,0,0-.6-2.95,2.12,2.12,0,0,0-2.84.36,8.74,8.74,0,0,0-2.59,5.22c-.08.49.05,1.21-.56,1.32s-.89-.56-1.11-1.1c-.83-2-1.78-3.87-2.44-5.9-.1-.84-1.18-1.74.14-2.51.93-.32,1.91-.51,2.82-.9a5.56,5.56,0,0,0,3.25-3.19,2.14,2.14,0,0,0-.8-2.76,2.05,2.05,0,0,0-2.71.36,8.47,8.47,0,0,0-2.5,4.59c-.3.68,0,1.58-.8,2.24a19.88,19.88,0,0,1-1.17-5.79c0-.52,0-1-.13-1.55-.32-1.72-.19-1.89,1.58-2.29a11.35,11.35,0,0,0,3.54-1.17,4.54,4.54,0,0,0,2.05-2.47,2.09,2.09,0,0,0-.66-2.4,1.91,1.91,0,0,0-2.33-.08,7.57,7.57,0,0,0-3.27,4.22c-.27.69-.38,1.6-1.48,1.51-1-1.39-1.57-3.15-3-4.25a8.07,8.07,0,0,0-1.52-1.08,2.09,2.09,0,0,0-2.8.53,2.14,2.14,0,0,0,.16,2.73c1.21,1.68,3,2.17,4.89,2.32,2.58.32,2.71.31,2.89,2.77.16,2.2.63,4.35.86,6.53-.86.35-1-.44-1.39-.88a8.4,8.4,0,0,0-4.15-2.86c-1.46-.45-2.63-.06-3.12.95s0,2.33,1.34,3.11a5.69,5.69,0,0,0,3.89.73c1.07-.16,2.11-.52,3.2-.58,1.11.44.85,1.63,1.33,2.41.53,1.63,1.28,3.17,1.94,4.75.14.32.45.71.13,1s-.79,0-1.09-.26a9.38,9.38,0,0,0-3.64-2,2.1,2.1,0,0,0-2,3.66,5.1,5.1,0,0,0,3.91,1.22,10.91,10.91,0,0,0,1.4-.16c3.22-.63,2.83-.44,4.12,2.1.78,1.52,1.59,3,2.22,4.64.15.38.42.85.08,1.16s-.86-.07-1.21-.32a11.17,11.17,0,0,0-3.31-1.7,2,2,0,0,0-2.67,1,2.41,2.41,0,0,0,.79,2.92c1.44,1.09,3.11,1.05,4.78.9a9.88,9.88,0,0,0,1.53-.31,1.6,1.6,0,0,1,2.07,1.15,36,36,0,0,1,1.88,6.75c.07.35.19.82-.23,1s-.77-.25-.95-.6a7.5,7.5,0,0,0-3.13-3.18,5.82,5.82,0,0,0-1.13-.53,2.1,2.1,0,0,0-2.62.77,2.05,2.05,0,0,0,.37,2.71,5,5,0,0,0,3.57,1.7c.93,0,1.87,0,2.8,0a1.77,1.77,0,0,1,2.07,1.64c.28,1.79.72,3.57.89,5.38.06.64.15,1.28-.64,1.56a8.7,8.7,0,0,1-2.49.18H360.31a4.82,4.82,0,0,1-2.89-.42c-.46-.73-.12-1.53-.12-2.29q0-47.87,0-95.75c0-3.14,0-3.13,3.15-3.16a4.56,4.56,0,0,0,2.45-.27c.74-2,.3-4,.26-6,0-.6-.6-.62-1.08-.63-.84,0-1.67,0-2.5,0-1.71-.07-2.22-.56-2.24-2.29,0-4.43,0-8.86,0-13.28a6.14,6.14,0,0,0-.42-2.74,3.48,3.48,0,0,1,0-2.3c.49-2.39.73-4.82,1.12-7.23.13-.78.1-1.36-.82-1.49s-1.07.51-1.21,1.24c-.47,2.55-.75,5.14-1.25,7.68-.14.74,0,2-1,2s-.78-1.28-.79-2.07c0-2.4,0-4.79,0-7.19,0-.72.26-1.72-1-1.67s-.88,1-.88,1.63c0,2.55,0,5.1,0,7.65,0,.94,0,1.95-1.26,2.16a2,2,0,0,1-2.39-1.72c-.5-1.8-1-3.6-1.48-5.41-.16-.6-.35-1.29-1.21-1.12-.68.13-1.09.45-.9,1.3.33,1.53.85,3,1.2,4.52a2.8,2.8,0,0,1-.26,2.67c-.42.52-.26,1.21-.26,1.82,0,4.37,0,8.75,0,13.12,0,2.32-.41,2.72-2.75,2.72H279.21c-1.12,0-2.19,0-2.69-1.33-.27-.74-1-.54-1.65-.54h-15.3c-.47,0-.94,0-1.41,0a1.44,1.44,0,0,1-1.48-1.49c0-.47,0-.94,0-1.41q0-14.45,0-28.89c0-2.71.14-2.85,2.8-2.85h29.05a4.2,4.2,0,0,0,2-.2c.8-.59.49-1.37.37-2.12S290.33,175.69,290.82,175Z"/><path class="cls-2" d="M222.35,153a1,1,0,0,0,1.1.4c8.33-1.27,15.79,1.2,22.81,5.4,5.7,3.42,11,7.48,16.51,11.12.13.08.19.25.29.37a1.48,1.48,0,0,1-1.74.28,10.42,10.42,0,0,0-4-.44c-4.78-.13-9.56.23-14.33-.25-2.53-.24-6.45,2.54-7.32,5a6.49,6.49,0,0,0,1,4.25c3.72.18,7.43,0,11.15.08a7,7,0,0,1,2.45.22c.74.39.67,1.11.67,1.78q0,15.15,0,30.3c0,1.73-.3,2-2,2.06-3,0-6,0-9.06,0a3.77,3.77,0,0,1-.47,0,3,3,0,0,0-3.16,1.37,1.42,1.42,0,0,1-1.72.27c-.82-.29-1.1-.05-.86.78.06.21.17.46,0,.6-1.73,1.75-1.16,4.24-2,6.28a31.48,31.48,0,0,0-1.31,4.78c-1,4-1.88,7.95-3,11.88a42,42,0,0,0-1.52,6.68,17.94,17.94,0,0,1-1,3.57c-.71,2.23-.78,4.6-1.68,6.78a27.25,27.25,0,0,0-1,4.21c-.5,2.11-1.4,4.12-1.5,6.36a21.73,21.73,0,0,1-1.12,4.33c-.42,1.65-.87,3.31-1.29,5-.6,2.34-1.06,4.73-1.7,7.06-.48,1.75-.95,3.49-1.36,5.26-.3,1.27-.33,2.61-.72,3.78-.48,1.47-.93,2.94-1.32,4.44a54.65,54.65,0,0,0-1.7,7.71c-.16,1.47-1,2.8-1.37,4.25-.7,2.5-.87,5.11-1.9,7.54-.7,1.65-1.26,1.67-3,1.59-2.46-.1-4-2.3-6.39-2.26-.36,0-.64-.33-.91-.58a5.7,5.7,0,0,0-1.44-1.18c-1.81-.77-2.6-1.74-1.51-3.77.51-1,0-2.16-.73-3a2.67,2.67,0,0,1-.29-3.2,1.41,1.41,0,0,0-.11-1.71,3,3,0,0,1-.1-3.51,2.35,2.35,0,0,0,.38-1.63c-.49-2.52-.12-5.09-.49-7.63a24,24,0,0,1,.37-7.31c.21-1.3-.32-2.56.1-3.86,1.05-3.21,1.61-6.56,2.52-9.79.82-2.93,1.49-5.92,2.43-8.83.64-2,.93-4.15,1.51-6.18.68-2.35.74-4.81,1.53-7.12a3.34,3.34,0,0,0,0-3.16c-.08-.12-.17-.34-.1-.44,1.1-1.54-.3-3.07,0-4.61,0-1.61,0-3.22,0-4.83,0-5.19-.55-10.35-.85-15.52-.29-5-.87-10-1.38-15-.32-3.19-.72-6.38-1-9.57-.19-1.87-.61-3.82.41-5.63,2.58-1.48,2.93-3.84,2.54-6.48a2.53,2.53,0,0,1,.46-2.18c5.28-6.32,10.11-13,15-19.57,1.27-1.71,2.51-3.45,3.76-5.18C221.25,153.75,221.54,153.07,222.35,153Z"/><path class="cls-3" d="M222.35,153q-6.84,9.18-13.7,18.35c-1.94,2.57-4,5.08-6,7.57a2.42,2.42,0,0,0-.67,2.23,11.64,11.64,0,0,1,.12,2.95,3.49,3.49,0,0,1-2.48,3.41c-1.61,1.35-3.67.84-5.49,1.3-.54.14-1.13.15-1.67.34a9.78,9.78,0,0,1-2.15.37c-6.14.23-12.28.48-18.42.32a16.68,16.68,0,0,1-5.49-1.07A8.26,8.26,0,0,1,163,186c-.8-1-.63-2.16-.59-3.29.18-6.66.77-13.3,1.27-19.94.61-8.15,1.31-16.29,1.89-24.44.35-4.92,1.94-9.52,3.36-14.17,0-.84.64-.63,1.12-.67a14.71,14.71,0,0,1,1.46.34,12.24,12.24,0,0,0,3.78.82,62.15,62.15,0,0,1,8.4,2.21,8.42,8.42,0,0,0,3.28,1c.42.11.83.22,1.25.31.57.34.86-.5,1.39-.34h0c0,1.7-.32,3.43.6,5,1,3.73,2.05,7.46,3.1,11.26,1-.61,1.38-1.6,2.12-2.23.39-.19.33-.94,1-.8a8.08,8.08,0,0,1,3.25,1.8c1.18.72.58,1.62.26,2.5-1,2.26-2.07,4.53-3.14,6.77a1.87,1.87,0,0,0-.09,1.91c1.41,2.49,2.71,5,4.27,7.43.55.83,1,1,1.85.32,6.22-5.13,12.15-10.59,18.09-16a6.89,6.89,0,0,0,.8-1.1c.6-.21.65.41,1,.63a9,9,0,0,0,2,1,12.23,12.23,0,0,0,1.16.4c.36.13.71.29.35.76Z"/><path class="cls-3" d="M171.05,112.26c-2.35-5.07-6.15-9.26-8.69-14.2a27,27,0,0,1-3.46-11.21c-.27-5.77,2.27-9.88,6.94-12.89a13,13,0,0,1,7-2.2,18.22,18.22,0,0,0,7.18-1.18c1.8-.79,2.12-1.6,1.48-3.46a6.91,6.91,0,0,0-1.62-2.82c-1-1-.64-1.62.36-2.29a9.23,9.23,0,0,1,10,.35,14.64,14.64,0,0,1,5.34,7.13c.2.5.38,1,.61,1.62a1.92,1.92,0,0,0,.25-1.46c0-.62.1-1.15.75-1.4a1.53,1.53,0,0,1,1.6.31,4.26,4.26,0,0,1,1.26,1.75c1.55,3.67.72,8.77-1.84,11.22a4.11,4.11,0,0,1-1.8,1.21c-1.57.36-1.89,1.36-1.66,2.75a4.42,4.42,0,0,1,0,.63c.05,2.29.05,2.29,2.28,2.15,2.07-.13,2.51.3,2.38,2.39s-.09,4.08-1,6a.67.67,0,0,0,.29,1,5.89,5.89,0,0,1,.54.32c.82.58,2.15.87,2.12,2.06s-1.37,1.76-2.38,2.21a2,2,0,0,0-1.35,2.4c.18,2,.29,3.94.6,5.89a3.88,3.88,0,0,0,1.16,2.65,3.37,3.37,0,0,1,1,4.11c-.54,1.55-2,2-3.5,2.16a26.38,26.38,0,0,1-9.38-1.14c-2.2-.66-2.22-.61-2.57,1.09-.63.06-.59-.45-.72-.82a2,2,0,0,0-.59-1.4c-2-1.62-2.72-4-3-6.32-.41-3.41-1.69-6.52-2.82-9.7-.38-1.08-.78-2.15-1.15-3.23-.29-.83-.68-1.62-1.74-1.4s-1.16,1.11-1.12,2a10.62,10.62,0,0,0,3.29,7.19c1.51,1.5,1.55,1.81-.16,3.09a20.78,20.78,0,0,1-4.27,2.85C172,111.62,171.74,112.47,171.05,112.26Z"/><path class="cls-3" d="M161.75,262.22a81.28,81.28,0,0,1,1.14-9.58c.59-4.52,1.33-9,2-13.54.61-4,.93-8.08,1.91-12,1.6-6.4.46-12.32-2.23-18.12,0,0,0-.1,0-.15-.24-1,.39-.74.91-.62A26.73,26.73,0,0,1,174,218.59c.83,1.92.73,4.08,1,6.14,1,7.84,2,15.68,3.06,23.51a30.14,30.14,0,0,1,.46,4.34,26.83,26.83,0,0,0,.3,5.07,4,4,0,0,1-1.21,3.49,48.75,48.75,0,0,1-4.78,5.75c-2.78,3.23-5.63,6.42-8.43,9.63a14,14,0,0,1-1.81,1.72,2.55,2.55,0,0,0-.65,2c0,1.71,0,3.42,0,5.13,0,.65,0,1.33-.74,1.78C161.22,278.84,160.4,270.51,161.75,262.22Z"/><path class="cls-4" d="M451.51,59.84c1.2.28,2.87-.58,3.54.43s.22,2.41.22,3.65q0,33.81,0,67.62c0,1.48-.35,2-1.89,2q-40.14-.08-80.28,0c-1.26,0-1.81-.28-1.66-1.62a26.74,26.74,0,0,0,0-3c.4-.66,1.07-.54,1.67-.55,2,0,3.92,0,5.88,0q29.61,0,59.21,0c3.59,0,7.18,0,10.78,0,1.65,0,1.74-.09,1.75-1.79,0-3.28,0-6.56,0-9.85q0-27.1,0-54.21c0-.83-.32-1.8.57-2.45Z"/><path class="cls-5" d="M357.52,323.75l18,0H503.63a11.66,11.66,0,0,0,1.55-.26,5.65,5.65,0,0,1,2.13,0,10.85,10.85,0,0,0,1.8.26l58.85,0c.78,0,2-.39,1.38,1.25l-2,0q-260.13,0-520.24,0c-.69,0-2,.66-2-.55s1.37-.64,2.08-.64q58.68-.06,117.36-.05c1.12-.74,2.38-.37,3.58-.42,5.5,0,11-.14,16.5,0,3.36,0,6.71,0,10.07,0q22.8.06,45.6,0,57.2,0,114.4,0A5,5,0,0,1,357.52,323.75Z"/><path class="cls-3" d="M451.35,60c0,.62-.09,1.24-.09,1.86q0,32.33,0,64.64c0,2.22,0,2.22-2.22,2.23l-67.29.05c-.93,0-1.87-.07-2.8-.11-3-.14-5.92,0-8.88-.07a3.58,3.58,0,0,1-1.69-.14h0a3.12,3.12,0,0,1-.14-1.54V50a3.36,3.36,0,0,1,.13-1.54h0c.43-.23.69-.09.82.36,0,.84,0,1.68,0,2.52q0,37.15,0,74.32a5.88,5.88,0,0,0,.2,1.57.86.86,0,0,0,.74.5c2.86-.05,5.72.24,8.56-.17.47-.27.63-.9,1.2-1.06.38,0,.55.2.66.52a4.08,4.08,0,0,0,.18.42c.48.49,1.08.31,1.63.31,4,0,8,0,11.94,0a2.88,2.88,0,0,0,2.14-.64,31.3,31.3,0,0,0,6,.32c1.12,0,1.37-.49,1-1.47-.66-1.8-1.23-3.64-1.88-5.45a25.71,25.71,0,0,1-1.39-6.7c-.09-1.24-.5-1.74-1.73-1.28a1,1,0,0,1-1.08-.4c-.12-.89.68-.93,1.17-1.22,1.7-1,2-2,.59-3.42a7.68,7.68,0,0,1-2-3.62,26.23,26.23,0,0,0-.83-3,3.45,3.45,0,0,1-.12-.43c0-.59-.25-1.29.53-1.58.27-.1.29-.19.23-.41-.57-1.86.24-3.7.13-5.55.72-2.74,2.7-4.65,4.47-6.67.84-1,1.52-1.69.95-3.12a2.88,2.88,0,0,1,1.19-3.3c.38-.23.79-.39,1.16-.1s.22.75,0,1.11c-.45.68-1.2,1.28-.65,2.22A4.17,4.17,0,0,0,407,84.79a9.31,9.31,0,0,0,3.41,0,3.09,3.09,0,0,0,2.4-3.5c0-.25-.16-.49-.21-.75s-.09-.77.33-.94.79.12,1,.47a2.76,2.76,0,0,1,.42,2.25,2.48,2.48,0,0,0,1.3,2.86,12.25,12.25,0,0,1,4.82,5.38,4,4,0,0,1,.19.76,29.55,29.55,0,0,0,1.45,6.13c.45,1.09-.24,2.23-.2,3.35-.29,2.67-1.06,5.06-3.28,6.84-1,.83-.83,1.41.43,1.86,2.55.91,5.15,1.68,7.69,2.62a23.21,23.21,0,0,1,13.11,12c1.8,3.65,1.08,3.16,5.11,3.2q1.88,0,3.75,0c.57,0,1.17.07,1.54-.53a5.31,5.31,0,0,0,.17-2.17q0-31.29,0-62.59c0-.82-.51-1.92.72-2.43Z"/><path class="cls-3" d="M250.54,179.74a48.9,48.9,0,0,0-7.26-.15c-2.32,0-4.65.06-7,.1a.72.72,0,0,1-.61-.61,7.29,7.29,0,0,1,4-7.87,11.62,11.62,0,0,1,5-1c2.8.07,5.61.07,8.41,0,3.58-.08,7.15.15,10.72.32,6,0,12.06,0,18.1,0a12.6,12.6,0,0,1,4,.5,8.85,8.85,0,0,1,5,4c.24,1.44,1.14,2.84.33,4.35a3,3,0,0,1-1.68.16c-9.89,0-19.77,0-29.66,0-2.9,0-5.79.35-8.7.38A1.16,1.16,0,0,1,250.54,179.74Z"/><path class="cls-3" d="M168.11,323.76a14.31,14.31,0,0,1-3.64,0c-.79-.5-1.85-.69-2.08-1.83-.34-2.91-.08-5.82-.16-8.83,1,.34.93,1.4,1.77,1.48a19.42,19.42,0,0,0,5.59.3c1.13,0,1.36-.67,1.24-1.68a83.88,83.88,0,0,1-.48-10.27,62.49,62.49,0,0,1,3-19.33,105.63,105.63,0,0,0,4-17.32c.24-1.63.62-3.38-.32-5,2-2.09,1.06-4.57.94-7,0-.62,0-1.24,0-1.86.79.25.73,1,.77,1.55a101,101,0,0,1,.43,14.14,113.2,113.2,0,0,0,.32,17.75c.88,8.65,2.27,17.21,3.89,25.73a4.78,4.78,0,0,1,.13,2.16c-.08.14-.31.26-.31.3-.05,2.56-.7,5.17.81,7.58a1.86,1.86,0,0,0,2.2,1.05,7.77,7.77,0,0,1,4.6.18,3,3,0,0,0,2.3-.09c1.83-.95,3.5-.12,5.2.39-.27.81-.94.36-1.43.43a16.12,16.12,0,0,0-2.3.12H184.5a3,3,0,0,1-2.51-3.16c.52-8.55-2-16.72-3-25.06A130.84,130.84,0,0,1,177.54,275c0-.2,0-.4-.06-.28-.88,4.53-2.6,9.18-3.76,14a64.58,64.58,0,0,0-1.6,20.14c.26,3.35,1.12,6.7.42,10.1,0,.15,0,.31-.06.47C172,323,171.52,323.4,168.11,323.76Z"/><path class="cls-6" d="M274.29,141c-.59-.36-.33-.94-.33-1.42q0-38.75,0-77.49c0-.47.06-.93.1-1.4.62,0,1.24-.11,1.86-.11h79.33c.62,0,1.24.05,1.87.09l0,.31a100.31,100.31,0,0,0,.14,13.54c0,.51,0,1,0,1.56v61.7c0,.47,0,.94,0,1.41a1.73,1.73,0,0,1-1.94,1.92c-2.61,0-5.21,0-7.81,0-.54,0-1.2.06-1.34-.74a2.77,2.77,0,0,1,2.06-.5c2,0,4.07,0,6.1,0,1.19,0,1.71-.53,1.66-1.7,0-.47,0-.94,0-1.4v-72c0-2.94,0-2.95-2.91-2.95H276.71a7.27,7.27,0,0,0-1.4.08c-.91.44-.56,1.28-.56,1.94q0,20,0,40,0,17.42,0,34.82C274.72,139.39,275,140.27,274.29,141Z"/><path class="cls-7" d="M199.91,145.36c.05-.84.5-1.77-.6-2.3a2.59,2.59,0,0,1,1.19-1.21c3.27-1.29,5.22-4,7.31-6.61.62-.77,1.17-1.6,1.9-2.37-.71.53-1.15,1.36-2.05,1.43s-1.48-.68-2.15-1.15c-.39-.27-.68-.65-1.07-.91a2.13,2.13,0,0,1-.86-2.72c.32-1,.62-2,.86-3.12a9.38,9.38,0,0,0-1,8.93c.65,1.72-.21,3.14-1.07,4.53-.25.39-.62.81-1.15.49a.8.8,0,0,1-.16-1.13c1.39-2.27.66-4.52,0-6.77a4.67,4.67,0,0,1,0-2.62,5.53,5.53,0,0,0,.23-2.33,17.15,17.15,0,0,0-3.23,10.28c.06,1.36-.18,2.74-1.6,3.49-.5-.08-.63.54-1.07.59a20.5,20.5,0,0,0,1.74-8c.07-1.74,1-3.13,1.77-4.61.5-1,.93-2,1.39-3,.21-.47.33-1.07,1-1.09s.8.57,1,1l.32.65c.66-.53.74-1.29,1.09-1.88s.58-1.34,1.4-1.29.69.86.9,1.56c.72-1,.92-2.72,2.4-2.14s.27,1.91.37,2.92c.64,0,1-1.05,1.73-.5s.42,1.47.19,2.19c-.37,1.18-.88,2.32-1.34,3.51.33.17.43-.13.59-.28.45-.39.82-1.15,1.54-.7s.44,1.31.07,1.82c-2.87,4-5.26,8.44-10,10.58C200.27,143.22,200.77,144.66,199.91,145.36Z"/><path class="cls-8" d="M369,48.77l-.66-.36a.66.66,0,0,1,.06-.27l44.18,0q18.5,0,37,0c1.35,0,1.81.34,1.75,1.74-.14,3.27-.1,6.55-.14,9.82-.52.59-.28,1.3-.28,2q0,32.14,0,64.29c0,.62.35,1.37-.37,1.86-.66-.88-.44-1.9-.44-2.87q0-36,0-72c0-3.9.3-3.61-3.66-3.61H372C371,49.26,369.92,49.51,369,48.77Z"/><path class="cls-7" d="M226.15,147.49c-.21-.83-1.24-.26-1.56-.9,4.15-3.37,9.34-4.57,14.08-6.71a4.43,4.43,0,0,0,2.92-3.49,13.69,13.69,0,0,0,.12-5.84c-.29,2.69-1.46,4.58-4.2,5.42-1.28.39-2.23,1.5-3.32,2.29a13.06,13.06,0,0,1-2.42,1.41c-.54.23-1.17.49-1.5-.21s.3-1,.74-1.17a24.73,24.73,0,0,0,4.13-2.79,4.61,4.61,0,0,0,1.85-2.38,1.44,1.44,0,0,0-1.22.56,12.63,12.63,0,0,1-5.92,3.3c-.55.16-1.09.38-1.63.54a5.1,5.1,0,0,0-3.49,3.06,32.77,32.77,0,0,1-2.34,5.07l-.7-1q1.27-2.92,2.54-5.86c.66-1.53,2.11-1.9,3.46-2.42,1.64-.63,3.44-.87,5-1.8.8-.49,1.55-.94,1-2.21-.42-.94.44-1.69,1.5-1.44a10.55,10.55,0,0,1,1.51.65c.09-1.08-1.29-2.47.46-3s2.15,1.07,3,2.44c.17-.79.27-1.31.4-1.82s.35-.89.91-.94.83.34,1.06.77a6.36,6.36,0,0,1,.69,2.7,23.7,23.7,0,0,1-.59,5.57,4.17,4.17,0,0,1-2.85,3.37c-2.72,1-5.37,2.25-8.08,3.31C229.62,144.84,227.52,145.58,226.15,147.49Z"/><path class="cls-9" d="M164,315.06c-1.24.24-1.19-.8-1.57-1.95v8.82a3.73,3.73,0,0,1-.34-2.55c.26-5.74-.67-11.42-.78-17.14-.22-10.93-.67-21.86-.42-32.8a23.58,23.58,0,0,1,.9-7.22c-.19,2.21-.52,4.42-.54,6.64-.08,6,0,12,.22,18,0-2.32,0-4.63,0-6.94a2.2,2.2,0,0,1,1.35-2.37,30.87,30.87,0,0,0-.49,8.47c.26,8.56.38,17.13.94,25.68C163.28,312.9,163.85,313.92,164,315.06Z"/><path class="cls-10" d="M171.05,112.26c.5-.27.61-1.15,1.43-1a5.38,5.38,0,0,0,.58,2.87,7.38,7.38,0,0,1,.64,3.34c-.08.85.33,1.23,1.11,1.4,2.33.53,4.64,1.18,7,1.78,1.11.29,1.81.2,2-1.12.06-.47.11-1.08.81-1.18.13.33,0,.75.36,1-.09,2.4-.1,2.44,2.41,3.1a1.55,1.55,0,0,1,1.33,1.27c.29,1.36.62,2.7.94,4-.45.16-.29,1.52-1.26.64a13.24,13.24,0,0,0-.74-3.64c-.21-.91-.94-1.13-1.72-1.34-4.51-1.25-9.08-2.24-13.58-3.49-.69-.19-1.64-.72-2.09.23s-1.22,2-.09,3.12a.4.4,0,0,1,.08.43c-.44.07-1-.14-1.28.37-.95-.14-1.16-.69-.86-1.55a18.67,18.67,0,0,0,.78-2.51c.31-1.48.83-2.4,2.57-1.61.74.34.94-.17,1-.86C172.57,115.66,171.58,114,171.05,112.26Z"/><path class="cls-2" d="M263.66,170.67q-9.89,0-19.77.09a7.9,7.9,0,0,0-6.26,2.61,7.5,7.5,0,0,0-1.89,4.82c0,.59,0,1.15.57,1.5-.1,0-.24,0-.3,0-.56-.52-1-4.6-.65-5.25.69-1.4,1.43-2.71,3-3.31,2-.75,3.68-2.21,6.14-1.47,1.38.42,3,.09,4.49.09,3.11,0,6.23.12,9.34,0,1.66-.09,3.08.93,4.72.66h.6c.11.08.14.15.11.22S263.7,170.67,263.66,170.67Z"/><path class="cls-11" d="M59.4,248.64c-.44,0-.65-.36-.9-.61-2-1.94-3.87-3.92-5.86-5.82-.68-.65-.55-1,0-1.6,1.94-1.88,3.86-3.78,5.73-5.73.63-.66,1-.78,1.71,0,1.86,2,3.8,3.84,5.72,5.74.5.48.85.9.2,1.54-2.08,2-4.13,4.1-6.19,6.15C59.71,248.4,59.54,248.52,59.4,248.64Z"/><path class="cls-11" d="M517.3,45.74c-.28-.24-.53-.42-.75-.64-1.77-1.76-3.51-3.55-5.32-5.27-.69-.66-.51-1.06.08-1.63,1.76-1.7,3.5-3.43,5.19-5.18.6-.62,1-.71,1.62,0,1.72,1.81,3.51,3.55,5.29,5.3.45.44.8.76.17,1.37-1.91,1.84-3.77,3.74-5.66,5.6A4.59,4.59,0,0,1,517.3,45.74Z"/><path class="cls-11" d="M551.79,51.46c-.23.25-.42.49-.63.71-1.8,1.8-3.62,3.58-5.39,5.41-.51.52-.84.57-1.38,0-1.8-1.86-3.64-3.7-5.51-5.5-.55-.53-.51-.85,0-1.36,1.87-1.81,3.69-3.66,5.53-5.5.34-.34.64-.66,1.14-.16,1.93,2,3.89,3.9,5.83,5.85A5.58,5.58,0,0,1,551.79,51.46Z"/><path class="cls-8" d="M165.27,208.44c-.39-.14-.7-.13-.73.4a11.69,11.69,0,0,1-2.45-9.22c.44-3.15.89-6.29,1.56-9.39.34-1.55.68-3-.67-4.25a19.22,19.22,0,0,0,3.09,2.3,3.56,3.56,0,0,0-1.08,2,85.56,85.56,0,0,0-1.77,11.35,7.83,7.83,0,0,0,1.38,4.85C165,207.07,165.58,207.6,165.27,208.44Z"/><path class="cls-11" d="M50.51,250.81c0,.41-3.69,4.22-4,4.19a.78.78,0,0,1-.4-.21c-.19-.17-.37-.36-.55-.54-3.66-3.61-3.65-3.6.31-7,.5-.42.82-.49,1.28,0,1,1.05,2,2.06,3.07,3.09A3.73,3.73,0,0,1,50.51,250.81Z"/><path class="cls-12" d="M540.53-.1a2.71,2.71,0,0,1,2.86,2.79,2.88,2.88,0,0,1-2.84,2.89,2.85,2.85,0,0,1-2.93-2.95A2.69,2.69,0,0,1,540.53-.1Z"/><path class="cls-2" d="M263.66,170.67v-.33h19.26a4.67,4.67,0,0,1,2.94.65c-6.52-.45-13-.09-19.57-.21C265.42,170.76,264.54,170.71,263.66,170.67Z"/><path class="cls-10" d="M190.19,132.83c-1.23-1.55-.92-3.28-.6-5A22.8,22.8,0,0,0,190.19,132.83Z"/><path class="cls-3" d="M274.29,141q0-39.07,0-78.13a9.32,9.32,0,0,1,0-1.4c.08-.47.36-.42.63-.11.69.86.45,1.89.45,2.85q0,36.21,0,72.42c0,3.4-.19,3.21,3.23,3.23a5.08,5.08,0,0,1,.78,0,7.76,7.76,0,0,0,8-3.19c6.28-5.49,13.79-9,21.27-12.87a3.34,3.34,0,0,0-1.94-.72c-5.24-1.08-8.6-4.39-10.79-9.08-.26-.55-.62-1.2-.12-1.75s1.16-.26,1.75,0a7.89,7.89,0,0,0,1,.34c.82.16,1.34,0,1.25-1-.54-5.58.54-11,1.65-16.4.46-2.2.46-2.18-1.72-3A15.16,15.16,0,0,1,294,88.63c-1.22-1.22-2-2.52-1.56-4.3.43-1.62,1.89-1.73,3.29-2.06-.69-1.3-1.84-2.54-.82-4,.78-1.13,2-.87,3.15-.66a14.08,14.08,0,0,1,3.12,1.76c1.48,1.07,1.67,1.07,3.09-.13a26.39,26.39,0,0,1,8.6-5c7.23-2.43,14.12-1.8,20.17,3.13,3.92,3.2,5.37,7.75,6.05,12.64.85,6.14-.33,12.13-1.09,18.16a9.12,9.12,0,0,0,.07,3.57,2.18,2.18,0,0,0,2.2,1.82c1.48.07,1.57.34,1.32,1.87-.86,5.25-4.53,7.87-9,9.63-3.83,1.5-7.69,1.71-11.44-.35-.18-.12-.11.22,0,0,0,0,.06,0,.15,0a3.86,3.86,0,0,1,.66.42c.42.58.32.94-.43,1a5.47,5.47,0,0,1-1.87-.72,2,2,0,0,1-1.26-2.39,4.92,4.92,0,0,0,.08-2.16c-.91-3.29,0-6.37,1.14-9.4.24-.63.33-1.31.54-1.75a17.45,17.45,0,0,1-2.05,4.76,11,11,0,0,1-6,4.49c-1.07.36-1.6,1-1.4,2.08.49,2.76-.85,4.32-3.29,5.17a3.9,3.9,0,0,0-2.74,2.88.82.82,0,0,1-.73,0,1,1,0,0,0-1.24-.34,55,55,0,0,0-15.89,11.07h56.86A94.24,94.24,0,0,0,333,132.5c-2.48-1.43-5.09-2.63-7.59-4a2.17,2.17,0,0,0-2.07-.3c-.49.16-.74-.06-.84-.53a3.27,3.27,0,0,1,0-.44c.12-.57-.61-1.58.77-1.49,3.31,1.36,6.43,3.11,9.59,4.78A84.87,84.87,0,0,1,345.25,139c.41.32,1,.57.94,1.29.28.43.73.32,1.13.32,2.66,0,5.31,0,8,0,1.16,0,1.64-.42,1.53-1.56,0-.21,0-.42,0-.63q0-37.72,0-75.45c0-.67-.53-1.47.22-2.08q.06,5.51.1,11c0,.62.05,1.24.07,1.86a3.37,3.37,0,0,1,.39,2.11q0,31.39,0,62.79c0,2.65-.43,3.08-3.11,3.08q-37.56,0-75.13,0a2.89,2.89,0,0,1-2.22-.5C276.24,141,275.22,141.41,274.29,141Z"/><path class="cls-4" d="M277.18,141.29h67.35c3.59,0,7.19-.11,10.78,0,1.55,0,1.91-.51,1.9-2q-.06-31.87,0-63.76c0-.57,0-1.14.06-1.71h.16c3.75.19,3.75.19,3.75,3.93q0,34,0,68c0,1.45-.39,1.79-1.82,1.79q-40.08-.06-80.16,0c-2.05,0-2.05,0-2.05-2C277.17,144.1,277.18,142.69,277.18,141.29Z"/><path class="cls-13" d="M451.45,149.71c3.81.06,3.81.06,3.81,3.83q0,33.9.05,67.8c0,1.66-.5,1.95-2,1.95q-39.92-.06-79.83,0c-2,0-2,0-2-2v-2.34c.63-.79,1.53-.52,2.32-.52q15.93,0,31.84,0H445a7.34,7.34,0,0,0,2.47-.2c3.33-.31,3.33-.31,3.33-3.68v-62A6.92,6.92,0,0,1,451,150,.48.48,0,0,1,451.45,149.71Z"/><path class="cls-14" d="M509.11,323.76a1.09,1.09,0,0,1-1.68,0c-.08-1.44,1.05-2.43,1.37-3.72a5.93,5.93,0,0,1,.38-.86c1-2.18,1-2.19-1.05-3.45-.85-.53-1.56-1.36-2.79-.81-1,.42-1.4.89-1.13,2,.43,1.71.73,3.44,1,5.18a2.4,2.4,0,0,1-.09,1.67.92.92,0,0,1-1.5,0c-.34-2.2-.73-4.4-1-6.62-.13-1-.57-1.25-1.53-1.17-1.76.15-3.54.34-5.2-.57a6,6,0,0,1-1.62-1.19,2.63,2.63,0,0,1-.39-3.43,2.41,2.41,0,0,1,3.19-.81,9,9,0,0,1,4.88,4.61,36.39,36.39,0,0,0-2.05-7.88c-.29-.76-.75-.63-1.37-.48-1.88.47-3.77.82-5.66,0a4.48,4.48,0,0,1-1.67-1.12,2.64,2.64,0,0,1-.45-3,2.35,2.35,0,0,1,2.78-1.22,10,10,0,0,1,5,2.92c-1.15-3-2.53-5.41-3.74-7.9-.3-.62-.77-.31-1.21-.22-1.83.36-3.65.88-5.53.16a4.91,4.91,0,0,1-2.08-1.32,2.52,2.52,0,0,1-.38-3,2.42,2.42,0,0,1,2.81-1.17,10,10,0,0,1,5,2.95c-.74-2.17-1.86-3.88-2.24-5.87-.14-.28,0-.4.25-.38a68,68,0,0,0,3.25,7c.45-.48.28-1,.33-1.47a8.64,8.64,0,0,1,2.81-5.43,2.4,2.4,0,0,1,3.27-.35,2.57,2.57,0,0,1,.83,3.35c-.91,2.15-2.72,3.17-4.86,3.79s-2.12.65-1.11,2.58c1.22,2.32,2.43,4.64,3.77,7a9.41,9.41,0,0,1,2.39-5.8c1.29-1.47,2.82-1.78,4-.86s1.29,2.62.23,4.22c-1.25,1.89-3.22,2.54-5.24,3.13-.41.12-1.2,0-.84.88.54,1.4,1.13,2.8,1.6,4.23s.82,2.84,1.33,4.27a9.37,9.37,0,0,1,1.71-5.51,2.75,2.75,0,0,1,2.91-1.4c1.21.26,1.65,1.16,2,2.3.67,2.13,1.77,4.14,1.21,6.52a32.45,32.45,0,0,0,2.71-7.85c.17-.76-.46-.79-.93-1a10.32,10.32,0,0,1-3.8-2.08,6,6,0,0,1-1.52-2.33,2.65,2.65,0,0,1,1-3.3c1.2-.79,2.3-.35,3.24.56a13.36,13.36,0,0,1,2.66,4.75c.35-2.72.68-5.45,1.06-8.17.11-.77-.42-.81-.91-1-1.5-.59-3.08-1.06-4.19-2.32s-2-2.49-1.33-4.22a2.23,2.23,0,0,1,2.11-1.59c1.82-.05,2.61,1.3,3.4,2.59a12.91,12.91,0,0,1,1.25,3.41,63.93,63.93,0,0,1,1.65-7.67c.22-.7-.23-.89-.76-1.09a26.93,26.93,0,0,1-2.87-1.23,5.58,5.58,0,0,1-2.83-3.39,2.59,2.59,0,0,1,1-3.17,2.4,2.4,0,0,1,3.25.51,8.67,8.67,0,0,1,2.43,5.28c0,.4,0,.79.1,1.56a34.78,34.78,0,0,1,3.33-6.33c-.85,2.22-2.19,4.24-2.64,6.65a9.56,9.56,0,0,1,5.77-3.77c1.64-.34,2.87.25,3.33,1.55a2.8,2.8,0,0,1-1.55,3.37c-2.16,1.21-4.35.85-6.49,0-1.15-.44-1.68-.27-1.87,1s-.57,2.64-.79,4-.38,2.68-.57,4.12c.63-.13.8-.66,1.09-1a8.72,8.72,0,0,1,5.31-3,2.46,2.46,0,0,1,3,1.42,2.55,2.55,0,0,1-1.06,3.28,6.67,6.67,0,0,1-6,.61c-2.33-.68-2.36-.65-2.63,1.71-.29,2.54-.53,5.07-.83,8a9.66,9.66,0,0,1,3.59-3.18,7.56,7.56,0,0,1,3-.84,2.34,2.34,0,0,1,2.51,1.47,2.5,2.5,0,0,1-.76,3A5.71,5.71,0,0,1,519,306.9a12.5,12.5,0,0,1-1.68-.34c-2.23-.57-2.25-.58-2.75,1.78a59.7,59.7,0,0,1-1.95,6.77,10.66,10.66,0,0,1,4.16-3.44c1.8-.8,3.32-.49,4,.81s.1,2.92-1.51,3.94c-1.92,1.22-4,1.06-6.06.64-1.06-.21-1.47.1-1.81,1.05C510.69,320,509.87,321.88,509.11,323.76Z"/><path class="cls-7" d="M250.8,179.74a3.23,3.23,0,0,1,1.65-.37l38.7,0c-.51.42-1.11.2-1.65.2-10.21,0-20.42,0-30.63,0-1.36,0-1.74.33-1.73,1.73q.09,15.22,0,30.46c0,1.35.28,1.79,1.7,1.77,5.47-.09,10.94,0,16.41-.05.95,0,1.79,0,1.78,1.31,0,.7.62.57,1.06.57,1.25,0,2.5,0,3.75,0q30.15,0,60.31,0c1.45,0,1.85-.39,1.82-1.83-.09-4.68,0-9.37,0-14.06,0-.72-.28-1.56.78-2,.52-.19.14-.74,0-1.1-.49-1.86-.93-3.75-1.54-5.57-.43-1.25.29-1.36,1.15-1.64s1.47-.35,1.76.76c.51,2,1.17,4,1.66,6,.26,1.11.63,1.85,1.94,1.63s.73-1.21.75-1.85c.06-2.76.07-5.52,0-8.28,0-1.17.23-1.67,1.54-1.66s1.52.64,1.5,1.74c0,2.76,0,5.52,0,8.28,0,.48-.23,1,.44,1.56.53-3.37,1.1-6.63,1.53-9.9.18-1.45.74-1.86,2.14-1.47.81.23,1.16.53,1,1.39s-.36,1.95-.48,2.93a34.07,34.07,0,0,0-.41,9c.63,4.55.16,9.25.16,13.88,0,2.07,0,2.07,2.15,2.07,3.81,0,3.86,0,3.78,3.76,0,1.24.49,2.57-.38,3.73a51.24,51.24,0,0,1-5.68.16c-6.2.1-12.4,0-18.59,0H237.88c-4,0-4.08-.05-4-4.11a8.83,8.83,0,0,0-.17-1.7c0-1.35.32-2.36,2-2.07a1.16,1.16,0,0,0,1.21-.81c.44-1,1.2-1.09,2.18-1.07,3.33.06,6.66,0,10,0,1.28,0,1.65-.33,1.64-1.63-.05-10.09,0-20.19,0-30.28A4.87,4.87,0,0,1,250.8,179.74Z"/><path class="cls-15" d="M447.45,218.52a3.62,3.62,0,0,1-2.13.23h-72c-.62,0-1.23.08-1.85.12l-.15,0c-3.35-.55-3.35-.55-3.35-4V140.06c0-2.16,0-2.16,2.14-2.16h79.05c2.13,0,2.1,0,2.14,2.14.06,3.22-.19,6.45.14,9.67a.48.48,0,0,1-.24.07,3.21,3.21,0,0,0-.15,1.68q0,32.39,0,64.75c0,.69.35,1.77-.5,1.93-1.1.21-2.38.72-3.43-.29a1.44,1.44,0,0,1,.82-.42c2.13-.5,2.14-.5,2.14-2.72V151.29c0-3.34,0-6.67,0-10,0-1.79-.19-2-2-2-6.14,0-12.29,0-18.43,0H372.32c-3.11,0-3.11,0-3.11,3.07q0,36.07,0,72.17c0,1.2-.32,2.6,1.4,3a5.67,5.67,0,0,0,2.9.39H401.8q21.4,0,42.81,0A4,4,0,0,1,447.45,218.52Z"/><path class="cls-10" d="M357.69,222.82l5.71,0c-1.41.52-2.87.2-4.3.2-1.11,0-1.53.22-1.53,1.46q.06,48.84.05,97.68c0,.52-.07,1-.1,1.55-.37,0-.73.07-1.09.07H241l-.78,0a.43.43,0,0,1,.25-.51,7.73,7.73,0,0,1,2.79-.21q55.39,0,110.8,0c.74,0,1.71.46,2.19-.61a22.66,22.66,0,0,0,.06-3v-90c0-3,0-3-3-3H243.92c-1,0-2.1.23-3-.44-.06-.91.71-.75,1.19-.84a13.05,13.05,0,0,1,2.34-.06H353c.62,0,1.25,0,1.87,0,.93,0,1.63-.19,1.81-1.27A1.09,1.09,0,0,1,357.69,222.82Z"/><path class="cls-16" d="M522.13,275.09c2.28-1.34,4.37-2.67,7-2.63a2.29,2.29,0,0,1,2.47,1.73,2.58,2.58,0,0,1-1.19,3,5.77,5.77,0,0,1-4.67.62c-3.13-.74-5.48-2.78-7.65-5a4.91,4.91,0,0,1-1.3-3.89,2.5,2.5,0,0,1,2.05-2.42,2.29,2.29,0,0,1,2.63,1.23,8.61,8.61,0,0,1,1,6.18C522.36,274.27,522.24,274.66,522.13,275.09Z"/><path class="cls-14" d="M491.44,287l-.25.38c-.65-.61-.26-1.78-1.21-2.23a.46.46,0,0,1,0-.65c-.28-2.72-.8-5.42-.86-8.17,0-.59-.39-.61-.83-.64a5.38,5.38,0,0,1-2.15-.23c.74-.7,1.73-.45,2.6-.68,1-.07,1-1,1.18-1.58a8.66,8.66,0,0,1,3-4.1c1.29-1,2.58-1,3.54-.06a2.78,2.78,0,0,1,.27,3.57,6.54,6.54,0,0,1-5.21,3c-1.71.18-2.22.74-1.92,2.51a45.15,45.15,0,0,0,1.21,6.53c.17-.83.3-1.49.43-2.14.67.68.5,1.51.43,2.33C490.27,285.41,491.53,286.24,491.44,287Z"/><path class="cls-16" d="M527,269.36a9.09,9.09,0,0,1,3.88-6.32c1.51-1,2.87-1,3.8.07s.81,2.74-.44,4.07C532.25,269.25,529.66,269.17,527,269.36Z"/><path class="cls-16" d="M489.77,267.37a8.6,8.6,0,0,1-.15-7.58c.7-1.58,1.89-2.21,3.18-1.78a2.9,2.9,0,0,1,1.83,3.39C494.18,264.33,492,265.82,489.77,267.37Z"/><path class="cls-14" d="M490,284.45v.65a9.32,9.32,0,0,1-6.07.55,4.89,4.89,0,0,1-1.9-1,2.61,2.61,0,0,1-.84-3.21,2.39,2.39,0,0,1,3-1.32A8.69,8.69,0,0,1,490,284.45Z"/><path class="cls-14" d="M491.62,284.8c-.74-.66-.23-1.56-.43-2.33a7.53,7.53,0,0,1,2.65-4.79,2.37,2.37,0,0,1,3.27-.29,2.56,2.56,0,0,1,.82,3.22,5.85,5.85,0,0,1-3.33,3.32A9.38,9.38,0,0,1,491.62,284.8Z"/><path class="cls-14" d="M488.73,274.73c-.6,1.28-1.77.34-2.6.68a5.67,5.67,0,0,1-4.77-2.18,2.68,2.68,0,0,1-.17-3.56,2.44,2.44,0,0,1,3.38-.45A7.88,7.88,0,0,1,488.73,274.73Z"/><path class="cls-8" d="M368.36,48.41q0,13,0,26.06,0,27,0,54c-.6-.34-.38-.92-.38-1.4q0-38.71,0-77.42C368,49.23,367.78,48.7,368.36,48.41Z"/><path class="cls-8" d="M368.37,128.46c3.52.07,7.05-.19,10.57.21-2.48.27-5-.15-7.47.22C370.47,128.49,369.33,129.11,368.37,128.46Z"/><path class="cls-2" d="M250.8,179.74c0,10.67-.06,21.34,0,32,0,1.5-.46,1.81-1.84,1.77-3.28-.09-6.56,0-9.84,0-.83,0-1.52,0-1.61,1.14s-1.22.72-1.85.7c-1.44-.05-2.1.4-1.7,1.89a5.73,5.73,0,0,1-.3,2.73c-1.91,8-3.93,15.87-5.9,23.8-1.53,6.16-3.09,12.32-4.63,18.48S220,274.76,218.44,281c-2.32,9.3-4.67,18.58-7,27.88-.69,2.84-1.43,5.66-2.15,8.48-.36,1.45-.93,1.75-2.34,1.71-4.63-.13-8.53-2.09-12.17-4.75a2.28,2.28,0,0,1-.81-.93c-.41-2.35-.53-4.74-.74-7.11-.55-6.41-.94-12.84-1-19.27A57.81,57.81,0,0,1,194.46,272c1.88-7.17,3.89-14.33,5.49-21.57a73.57,73.57,0,0,0,1.71-10.75c0-.51,0-1.08.69-1.26.14.93-.26,2,.8,2.67.07,0,.12.24.08.28-1.53,1.94.55,4.58-1.26,6.48-.51.54.25,1.18,0,1.8a38.46,38.46,0,0,0-1.75,6.93c-.41,2.28-1.25,4.42-1.69,6.68-.32,1.64-.43,3.48-1.53,4.93a.87.87,0,0,0-.21.57c.25,2.51-1.29,4.68-1.33,7.14,0,.88-.85,1.45-.92,2.42-.43,6.19-.83,12.36,0,18.54a2.81,2.81,0,0,1-.59,2.45,2,2,0,0,0,.25,2.78c.74.67.94,1.22.16,2.09a1.94,1.94,0,0,0,0,2.67c1.35,1.64,1.47,2.87.4,4.91-.3.56-.32,1,.44,1.14a3.2,3.2,0,0,1,1.95,1.21c1.22,1.43,3.06,1.65,4.67,2.14,1,.29,1.57,1.59,1.85,1.38,1-.76,1.41-.13,2.21.33,1,.55,1.52-.57,1.75-1.34a82,82,0,0,0,2.3-9.65,4.15,4.15,0,0,1,.67-1.21c.16-.26.47-.54.45-.78-.3-3.66,1.8-6.86,2-10.43a2.88,2.88,0,0,1,.64-1.22c.19-.3.62-.56.52-.92-.66-2.4.69-4.54,1.18-6.69.4-1.71.9-3.62,1.45-5.38.61-2,.94-4.16,1.52-6.2s.62-4.14,1.67-6c.49-.86-.07-1.88.32-2.72a28.77,28.77,0,0,0,1.75-6.19c.4-1.86,1.1-3.67,1.37-5.61a65.66,65.66,0,0,1,1.75-6.75c.54-2.18,1-4.43,1.57-6.59s1.11-4.16,1.65-6.2.94-4.39,1.52-6.53c.49-1.8.6-3.72,1.51-5.41a2.55,2.55,0,0,0,.36-2.07c-.23-.72.25-1.4.5-2.08.31-.88,1.38-1.39.77-2.75-.4-.88.71-1,1.33-.58,1.15.73,1.62.57,1.74-.87a1.24,1.24,0,0,1,2.09-.94,2.26,2.26,0,0,0,1.47.34c3.07,0,6.14,0,9.21,0,1.23,0,1.6-.34,1.59-1.58,0-10.62,0-21.24,0-31.87A.33.33,0,0,1,250.8,179.74Z"/><path class="cls-17" d="M202.35,238.39a142.83,142.83,0,0,1-2.94,16.26c-1.88,7.73-4.19,15.35-5.8,23.15a50.78,50.78,0,0,0-.81,10.72c.06,8.34.86,16.64,1.56,24.94a.63.63,0,0,1-.79.1,2.22,2.22,0,0,1-.68-1.68c-.62-8.3-1.41-16.58-1.34-24.92a59,59,0,0,1,1.7-13.58c1.68-6.94,3.58-13.81,5.29-20.73a89.87,89.87,0,0,0,2.21-27.88c-.67-10-1.74-20-2.82-30-.14-1.25-.06-2.5-.08-3.75,0-2-.14-2.14-2.13-1.91-1,.11-2.07.39-3-.33,1.65-.78,3.48-.53,5.21-.84.58-.1,1.09-.51,1.7-.41-.6.48-.57,1.14-.59,1.84-.12,4.86.75,9.64,1.23,14.45,1.13,11.33,2.35,22.66,2,34.09A3.87,3.87,0,0,0,202.35,238.39Z"/><path class="cls-18" d="M192.71,188.8a18.91,18.91,0,0,0,4.5-.35c.75-.08,1,.09,1,.87.23,10.73,2,21.34,2.84,32a103.13,103.13,0,0,1-3.46,37.09c-1.57,5.44-2.83,11-4.26,16.46-1.79,6.86-1.53,13.85-1.17,20.81.3,5.93.89,11.83,1.35,17.75-.12,1.13-1,1.47-1.9,1.79a11.58,11.58,0,0,1-7.13.13c-.61-.16-1.16-.47-1.13-1.25-1-5.95-2.13-11.86-3-17.82a147.51,147.51,0,0,1-1.52-29.39,62.91,62.91,0,0,0-.76-14.44l-2.16-16.7q-.94-7.43-1.87-14.86c-.43-3.37-2.37-6-4.51-8.36-1.3-1.44-2.88-2.68-4.24-4.11-3.61-4.26-2.32-9.09-1.57-13.84.3-1.9.81-3.76,1.1-5.66.15-1,.6-.92,1.27-.66a14.55,14.55,0,0,0,5,1A193.26,193.26,0,0,0,192.71,188.8Z"/><path class="cls-18" d="M222.39,145.65a26.59,26.59,0,0,1,3-7.12c.44-.82,1.53-1,2.42-1.29,3.07-.89,6-2,8.33-4.33.36-.36.93-1,1.46-.49s-.1,1-.36,1.38c-1.45,2.19-3.7,3.43-5.86,4.76-.36.22-1.12.23-.9.8s.84.16,1.22,0a15.29,15.29,0,0,0,1.86-1.12c1.7-1.17,3.23-2.53,5.28-3.25,1.47-.51,2.11-2.05,2.26-3.65.06-.65-.14-1.37.52-1.92a3.47,3.47,0,0,1,.73,2.62c0,1,0,2-.11,3-.18,2.85-1.33,4.78-4.32,5.68s-5.78,2.31-8.67,3.47a5,5,0,0,0-2.87,2c-.45.81-1.17.4-1.79.47Z"/><path class="cls-18" d="M196.48,141.27c1.19-1.1,1.22-2.57,1.22-4a14.69,14.69,0,0,1,2.36-8.43,21,21,0,0,0,1.2-2.54,2.57,2.57,0,0,1,.43,2.69,6.9,6.9,0,0,0,.14,4.7c.6,1.87.95,3.74-.36,5.53-.19.26-.59.82,0,1.06s.57-.44.79-.75c1.5-2,1.1-4.19.34-6.26a5.39,5.39,0,0,1,.39-4.61c.6-1.18,1.1-2.41,1.82-3.56a12,12,0,0,1-.94,4.91,1.25,1.25,0,0,0,.53,1.69c1.11.76,2,2.3,3.2,2.3s2-1.53,3.08-2.23c-3,4.5-6,9.08-11.34,11.29C198.37,142.46,197.43,141.86,196.48,141.27Z"/><path class="cls-18" d="M170.19,123.77c-1.13-.35-1.6-1-.93-2.12a2.94,2.94,0,0,0,.16-.6c.61-2,.62-2,2.71-1.52,4.79,1.2,9.58,2.43,14.38,3.62a1.72,1.72,0,0,1,1.51,1.52,23.58,23.58,0,0,0,.75,2.86c.15.48.13.82-.44.93-.39-.24-.94.13-1.28-.31a23.57,23.57,0,0,1-3.41-.94l-8.42-2.2a35.29,35.29,0,0,1-3.77-1C171,124,170.54,124.17,170.19,123.77Z"/><path class="cls-2" d="M193.68,180.87c-4.23-.06-7.32-1.6-9.26-5.27a163.85,163.85,0,0,1-7.74-18c-.12-.33-.4-.76.07-.94s.63.4.77.74c1.6,3.95,3.15,7.92,4.79,11.84.78,1.87,1.74,3.66,2.61,5.49,2.22,4.71,6.17,5.71,10.62,5.13.77-.1,1.53-.3,2.3-.45.29-.06.65-.18.78.22s-.26.51-.55.59A17.72,17.72,0,0,1,193.68,180.87Z"/><path class="cls-19" d="M176,153.21c0,.42-.18.73-.4.61-.93-.5-.86-1.55-1.17-2.39-.09-.25.15-.63.4-.5C175.81,151.42,175.58,152.55,176,153.21Z"/><path class="cls-10" d="M171.45,124.05a13.58,13.58,0,0,1,3.77,1A6.34,6.34,0,0,1,171.45,124.05Z"/><path class="cls-10" d="M183.64,127.21a10.44,10.44,0,0,1,3.41.94A5.3,5.3,0,0,1,183.64,127.21Z"/><path class="cls-18" d="M186.73,110.62a3.67,3.67,0,0,1-2.59-2c-1.94-4.07-2.7-8.49-3.62-12.86-.14-.65.26-.8.75-.92,4-1,8.06-2,12.08-3.1.61-.17,1,0,.89.59-.31,3.21,1.7,4.77,4.18,6.07.79.41,2.11.68,2,1.67s-1.37,1.26-2.22,1.72a27.34,27.34,0,0,0-9,7.52A2.51,2.51,0,0,1,186.73,110.62Z"/><path class="cls-18" d="M184.55,118.4a5.22,5.22,0,0,0-.41,1.33c0,1.69-.83,1.89-2.31,1.44-2.53-.77-5.12-1.35-7.69-2-.5-.13-1.1-.19-.95-.94.37-2-.36-3.7-1.09-5.42a1.15,1.15,0,0,1,.38-1.49,35,35,0,0,0,4.85-3.37c.79-.57.63-1-.06-1.54a11.14,11.14,0,0,1-4-8.16c-.06-1.13.23-2.17,1.54-2.32s1.81.64,2.14,1.8c1.07,3.69,2.9,7.12,3.66,10.91.26,1.28.44,2.56.68,3.84a6.66,6.66,0,0,0,2.47,4.21A1.79,1.79,0,0,1,184.55,118.4Z"/><path class="cls-18" d="M185,82.8a18.17,18.17,0,0,0,7.68.65c1-.07,1.45.17,1.34,1.25-.08.88.35,2-1.28,1.79a2.76,2.76,0,0,0-3,1.84c-.11.25-.34.61.12.77s.45-.19.54-.41A2.46,2.46,0,0,1,193,87.2c.76,0,1.18.27,1.13,1.1a6.36,6.36,0,0,0,0,1.38c.15.79-.17,1.12-.92,1.31-3.92,1-7.84,2-11.77,3-.49.12-1.16.34-1.24-.42-.11-1-.81-2.21.4-3a34.14,34.14,0,0,1,3.13-1.74c3.22-1.65,3.43-2.36,1.56-5.53C185.18,83.15,185.09,83,185,82.8Z"/><path class="cls-20" d="M198.65,91.89a19,19,0,0,1-.67,3.83c-.31.93-.74,1.14-1.56.48s-1.94-3.5-1.35-4.5,2-1,3.07-1.1C199,90.49,198.45,91.46,198.65,91.89Z"/><path class="cls-21" d="M197.3,89c.45.09,1.11-.21,1.19.42s-.61.43-1,.56c-.58.2-1.2.31-1.8.46-.35.09-.74.24-.86-.29a.69.69,0,0,1,.62-.89C196.1,89.09,196.71,89,197.3,89Z"/><path class="cls-18" d="M164,315.06a1.62,1.62,0,0,1-1-1.41,114.54,114.54,0,0,1-.74-11.84c-.2-6.88-.3-13.75-.48-20.62a4.68,4.68,0,0,1,1-3.6c4.85-5.37,9.68-10.74,14.32-16.3.76-.67,1-.56,1,.52.21,4.44-1,8.65-1.89,12.92-1,4.85-2.73,9.5-3.87,14.3a70.79,70.79,0,0,0-1.08,24.2c.21,2,.22,2-1.74,2.13A17.81,17.81,0,0,1,164,315.06Z"/><path class="cls-2" d="M168.11,323.76a2,2,0,0,1,.41-.21c2.58-.54,3.08-1,3.42-3.68a23.45,23.45,0,0,0,.2-6,69.88,69.88,0,0,1,3.1-32.17c1-2.88,1.54-5.92,2.3-8.92.59.17.36.66.36,1-.3,11.63,1.54,23,3.66,34.39a50.16,50.16,0,0,1,.72,10.86c-.06,2,.43,3.67,2.22,4.78Z"/><path class="cls-2" d="M505.13,323.8c-.5-2.54-1-5.09-1.52-7.62-.14-.64,0-.89.59-1.19,1.34-.73,2.58-1.15,3.81.21.7.78,2.35.69,2.43,1.84.07.92-.69,1.91-1.12,2.85-.61,1.31-1.26,2.61-1.89,3.91Z"/><path class="cls-22" d="M240.25,323.49a2.93,2.93,0,0,1-.05.29c-4.68,0-9.36.05-14,0l-31.5-.06c1.18-.6,2.55.1,3.72-.55a1.68,1.68,0,0,1,1.42-.5,21.94,21.94,0,0,0,4.66-.37c2.27-.45,4.42.38,6.65.37,8.9-.07,17.8,0,26.69,0C238.65,322.71,239.73,322.31,240.25,323.49Z"/><path class="cls-18" d="M369,48.77c.62,0,1.24.11,1.86.11H448.5c2,0,2,0,2,2l0,76.85c-2.86.28-5.72,0-8.57.13a1,1,0,0,1-1.06-.72c-.18-.49-.42-1-.63-1.43a24.65,24.65,0,0,0-16.52-14.28c-1.79-.52-3.55-1.15-5.33-1.72-1.13-.35-1.49-1.33-.52-2,2.39-1.67,3.3-4,3.65-6.75,1-2.76-.07-5.55.15-8.33a47.36,47.36,0,0,0,0-5.46,8,8,0,0,1,1.56-5.13,19.74,19.74,0,0,0,3.09-5.57,7.42,7.42,0,0,0,.37-2.29c0-2-1-2.87-3-2.45-1.53.33-1.62.28-1.46-1.25a29.35,29.35,0,0,0-.17-9.76,9.51,9.51,0,0,0-7.4-7.57,22.89,22.89,0,0,0-13.8.31,8.13,8.13,0,0,0-5.59,6.15c-.91,3.71-.55,7.46-.5,11.19,0,1.29-.28,1.87-1.58,2.16-1.78.41-2.35,1.22-2.22,3a13.9,13.9,0,0,0,3.39,7.88,4.82,4.82,0,0,1,1.28,3.37c-.08,4.47.62,8.89.79,13.35h0c.43,1,.45,2.15.95,3.14a6.91,6.91,0,0,0,2.48,3.83c1,.75.64,2.58-.5,3.16-.67.35-1.35.68-2,1-1.16,1.33-2.88,1.79-4.31,2.69-1,.63-2.1,1.13-3.15,1.7a22.4,22.4,0,0,0-9,9c-.27.49-.45,1.07-1.05,1.3a2,2,0,0,0-.59,1.2c-.29.46-.75.25-1.14.25q-4,0-7.94,0c-.53,0-1.19.24-1.45-.53V126a3.65,3.65,0,0,0,.12-1.54V52.4a3.65,3.65,0,0,0-.12-1.54C368.94,50.18,368.56,49.42,369,48.77Z"/><path class="cls-23" d="M420.28,91.24c-.94-2.78-3.1-4.49-5.36-6.08-.95-.66-1.5-1.18-1-2.48a2.09,2.09,0,0,0-1-2.84.47.47,0,0,0-.11.56c1,2.72-.44,4.89-3.31,5a8.49,8.49,0,0,1-4.1-.72c-2.25-1.08-2.51-2.55-.78-4.3a5.08,5.08,0,0,0,.37-.52,2.29,2.29,0,0,0-2.07,3.4c.66,1.17.22,1.7-.51,2.49-2,2.12-4.07,4.18-5,7a24.49,24.49,0,0,1-.64,3.54,1.28,1.28,0,0,1-.74-1.3c-.33-3.88-.6-7.78-.6-11.67,0-5-.57-10-.77-14.93a32,32,0,0,1,.65-8.84,7.51,7.51,0,0,1,4.76-5.75c6.2-2.31,12.29-2.29,18.21.95a7.6,7.6,0,0,1,3.33,4.37,20.41,20.41,0,0,1,.85,9.24A71.43,71.43,0,0,0,422,76.8c.12,5.11-.24,10.2-.16,15.3a2.56,2.56,0,0,1-.13,1.23.67.67,0,0,1-.6.44c-.33,0-.34-.33-.35-.59A11.65,11.65,0,0,0,420.28,91.24Z"/><path class="cls-18" d="M422.23,112c8.63,1.91,14.33,7,17.67,14.82.17.42.66,1.07-.35,1.08-4.77,0-9.53,0-14.41,0,1.57-2.44,1.56-2.44-.75-4.06a4.82,4.82,0,0,1-.56-.49,3.38,3.38,0,0,1,2-.26c1.05,0,1.24-.37.9-1.34a39,39,0,0,0-4-8.94C422.55,112.62,422.44,112.39,422.23,112Z"/><path class="cls-23" d="M401.2,110.08c-.25-1.45.14-1.71,1.53-1.1,4.18,1.82,8.42,2.22,12.64.06.83-.42,1.28-.41,1.13.71-.22,1.65-.4,3.3-.63,5a1.62,1.62,0,0,1-.38.83c-1.77,2-3.57,4.06-5.34,6.11-.43.5-.76.54-1.28.09-2.17-1.87-4.42-3.64-6.46-5.65a2.34,2.34,0,0,1-.72-1.51C401.55,113.07,401.36,111.58,401.2,110.08Z"/><path class="cls-7" d="M420.28,91.24a9,9,0,0,1,.8,2.36c.56-.57.33-1.18.34-1.71.11-6.77-.05-13.55.3-20.31.11-2.08.5-4.13.48-6.22-.06-7.93-2.78-11.22-10.61-12.42a22.27,22.27,0,0,0-9.89.69,8.27,8.27,0,0,0-6.2,7.07,50.63,50.63,0,0,0-.14,12c.21,3.38.63,6.74.59,10.13-.06,4.37.24,8.74.63,13.43l.86-3.45c.17,2.09-.72,4.16,0,6.26.08.24.12.71-.29.75s-.2-.51-.55-.77c0,.59-.06,1.1-.1,1.62-1.1-4.48-1.1-9.08-1.31-13.64A4.29,4.29,0,0,0,394,84.14a14.93,14.93,0,0,1-3.47-7.72c-.3-2.17.6-3.46,2.72-3.84,1.18-.21,1.22-.66,1.14-1.63a45.41,45.41,0,0,1,.16-9.82c.6-4.39,2.91-7.22,7.22-8.41a23.64,23.64,0,0,1,13.26.1c5.18,1.53,7.61,5,8,11a30.25,30.25,0,0,1-.33,6.38c-.08.5-.11,1-.18,1.66.54-.24.91-.42,1.29-.55a2.47,2.47,0,0,1,3.4,2.32,9.94,9.94,0,0,1-2.3,6.81,11.7,11.7,0,0,0-2.7,8.51c.19,3,0,6,0,9.06a5.8,5.8,0,0,1-.65,3,11.44,11.44,0,0,0-.87-6.72A11.29,11.29,0,0,1,420.28,91.24Z"/><path class="cls-18" d="M419.29,127.8c-1.45,0-3.51.57-4.19-.15s.53-2.61.81-4c.42-2.13.81-4.28,1.3-6.4.41-1.78-.26-3.49-.23-5.25,0-1.22.46-1.53,1.76-1.21a5,5,0,0,1,3.42,2.6,45.79,45.79,0,0,1,3.47,7.65c.33.91.27,1.4-.83,1.34a3.29,3.29,0,0,0-.94.06c-.66.17-1.74-.39-1.92.42s1,.87,1.53,1.34c.15.14.38.2.52.34.49.53,1.87.66,1.46,1.46s-1.22,2.08-2.73,2c-1.14-.1-2.29,0-3.43,0Z"/><path class="cls-23" d="M400.65,94.89c0-1.22.76-2.8,2.79-3.87,5-2.63,5-2.69,10.06-.14.55.28,1.11.57,1.63.9,1.69,1.06,2,2,1.42,4a10.66,10.66,0,0,1-1.45,3.09,3.17,3.17,0,0,1-3.17,1.24c-1.17-.13-1.07-1.19-1.24-1.91-.37-1.57-1.53-.84-2.4-1s-1.31.11-1.48,1.11c-.35,2.1-.68,2.24-2.69,1.58C401.35,99,400.67,98.19,400.65,94.89Z"/><path class="cls-18" d="M398.43,112.23a9.07,9.07,0,0,1,1.05-.59c.47-.2.92-.27.94.49.13,5.12,2.11,9.77,3.72,14.51.39,1.18.05,1.33-1,1.3-1.56-.06-3.11-.07-4.66,0a2.17,2.17,0,0,1-1.91-.78,3.36,3.36,0,0,1-1.1-.84c-1.13-1.23-1.05-1.89.32-2.89.53-.39,1.22-.57,1.62-1.26a6.4,6.4,0,0,0-2.16-.17c-1.06,0-1.67-.47-1.66-1.58a14.23,14.23,0,0,1,1.65-6.55C395.93,112.59,397.24,112.52,398.43,112.23Z"/><path class="cls-8" d="M398.43,112.23c-4.17,1.37-3.92,5.12-4.51,8.41-.12.71.33.89.94.9.88,0,1.77,0,2.65.09.26,0,.56,0,.67.29s-.11.57-.38.75l-.26.17c-.85.59-2.14,1-2.45,1.8s1.18,1.53,1.5,2.52a1.17,1.17,0,0,1-1.32,1c-4.7-.06-9.41,0-14.12,0-.53,0-1.58.3-.88-.94a24.43,24.43,0,0,0,5.27.19c3.07,0,6.13,0,9.39,0-.44-1.53-3-2.94,0-4.32-.73-.42-1.65-.29-2-1.08a4.32,4.32,0,0,1-.16-2.31c.16-1.44.59-2.83.93-4.45-4.9,2.27-8.95,5.19-11.6,9.8-.46.8-.63,1.92-1.79,2.17-.05-.27-.1-.56-.4-.69a21.75,21.75,0,0,1,7.36-9,77.79,77.79,0,0,1,10.17-5.67C397.61,112.26,398.06,112.13,398.43,112.23Z"/><path class="cls-24" d="M409.58,127.92c-1.09,0-2.18,0-3.27,0-.8,0-1.07-.37-1.31-1s.33-.87.71-1.15c.17-.13.35-.22.53-.34,3.7-2.32,3.69-2.31,7.42-.16.6.34.85.68.6,1.36S414,128,413,127.93C411.87,127.89,410.73,127.92,409.58,127.92Z"/><path class="cls-8" d="M368.73,50.86c0,.52.13,1,.13,1.54v72.09c0,.51-.08,1-.13,1.54,0-.52-.1-1-.1-1.55V52.41C368.64,51.9,368.7,51.38,368.73,50.86Z"/><path class="cls-20" d="M416.18,116a24.33,24.33,0,0,1-1.53,8s0,.13,0,.15c-1.53.91-2.29-.81-3.5-1-.55-.1-.82-.47-.34-1Z"/><path class="cls-24" d="M401.81,116.74c2.38,2,4.43,3.77,6.49,5.5.49.41.51.73-.07,1a1.48,1.48,0,0,0-.13.08c-3.55,2-2.72,2.91-4.65-1.39a35.79,35.79,0,0,1-1.24-3.52C402.06,118,402,117.56,401.81,116.74Z"/><path class="cls-8" d="M368.74,127.44c.2.14.41.4.61.4,3.31,0,6.62.21,9.92-.12-.22.62-.76.44-1.2.44-2.71,0-5.41,0-8.12,0C369.44,128.16,368.69,128.42,368.74,127.44Z"/><path class="cls-7" d="M397.44,103.79a5.76,5.76,0,0,1-.95-3.14A6.55,6.55,0,0,1,397.44,103.79Z"/><path class="cls-3" d="M240.25,323.49c-.55-.45-1.2-.25-1.81-.25-9.45,0-18.92.3-28.36-.16-3.94-.2-7.8.34-11.7.13-1.1-.16-2.28.3-3.3-.5-.38-.3-.83,0-1.14.23a3.3,3.3,0,0,1-3.5.32,5.93,5.93,0,0,0-4.07-.05,1.73,1.73,0,0,1-2.28-.66c-.71-1.27-1.62-2.46-1.42-4.11a25.64,25.64,0,0,0,0-3.72c0-.5.06-.84.68-.6.14.21.24.49.43.61,2.32,1.39,7.78.65,9.73-1.28h.82c3.81,2.84,7.87,5,12.78,5.26,1.05,0,1.5-.16,1.75-1.16q3.74-15.15,7.54-30.28,5.73-22.92,11.47-45.86c1.91-7.67,3.79-15.34,5.69-23,.1-.39.25-.78.37-1.18.66,1.23.26,2.54.29,3.81s.44,1.64,1.58,1.53c.36,0,.73,0,1.09,0H355.74c.65,0,1.36-.26,1.95.25a1.14,1.14,0,0,0-.55,1.21c.26,1.52-.56,1.63-1.8,1.63q-56.29,0-112.6,0c-.62,0-1.37-.36-1.85.4.69.86.47,1.89.47,2.85q0,36.24,0,72.47,0,9.38,0,18.74a4.24,4.24,0,0,0,.27,2.14c.68.73,1.56.48,2.37.48H332.1c8.12,0,16.24,0,24.36,0l.31.05c.19.2.37.46,0,.59a3.54,3.54,0,0,1-1.08.08H240.25Z"/><path class="cls-18" d="M288.08,136.69c-1.07,1.05-2.16,2.09-3.21,3.17a1.74,1.74,0,0,1-1.39.53c-2.55,0-5.1,0-7.65,0-.81,0-1.15-.26-1.06-1.07a6.77,6.77,0,0,0,0-.78q0-37.61,0-75.22a4.67,4.67,0,0,1,.18-2c.78,0,1.56.06,2.34.06q38.59,0,77.2,0c1.48,0,1.93.33,1.92,1.87q-.07,37.67,0,75.33c0,1.41-.33,1.88-1.8,1.81-2.8-.12-5.62,0-8.43,0A95.82,95.82,0,0,0,323,126a8,8,0,0,1-1.24-.62l-2-1.17s0-.1,0-.22a2.74,2.74,0,0,1,1.71.55c6,3.46,14.9-.73,17.81-4.48,1.25-1.6,1.58-3.6,2.1-5.51.16-.6,0-.84-.72-.69-1.86.4-2.8-.29-3.09-2.21-.42-2.73.33-5.38.66-8.06.66-5.44,1.13-10.87-.05-16.31C335.77,76,326.51,72.82,318.67,73.38a24.21,24.21,0,0,0-14.31,6.34c-1.2,1-1.95,1.3-3.18.15a19,19,0,0,0-3.15-2c-.76-.5-1.68-.19-2.52-.51s-1.11.44-1,1.16A5.05,5.05,0,0,1,293,83.16c-1.26,1.17-1.23,2.52-.7,4a1.18,1.18,0,0,0,.3.55c2.35,1.79,4.24,4.27,7.31,5a2.23,2.23,0,0,1,1.09.58c.5.52.81,1.08.3,1.79a3.89,3.89,0,0,0-.49,3.57,2.14,2.14,0,0,1-.29,1.47c-.58,1.62-1.61,3.2-.51,5a1.43,1.43,0,0,1-.17,1.63c-1,1.08-.78,2.29-.55,3.54s-.29,1.74-1.56,1.26c-.24-.09-.46-.25-.7-.33-1.12-.36-1.55-.07-1.68,1.08a5.22,5.22,0,0,0,1.26,3.76c.66.87,1.3,1.74,1.94,2.61a4.51,4.51,0,0,0,3.08,2.22,1.43,1.43,0,0,1,1.08.56,2.42,2.42,0,0,0,3,1.26c.77-.23,1.16.57,1.29,1.26s-.36.93-1,.92c-1,0-1.59.74-2.35,1.15-2.2,1.19-4.74,1.81-6.5,3.78-.52.58-1.36.42-2,.77-2.26,1.22-4.07,3.06-6.22,4.43C288.41,135.4,288.33,136.12,288.08,136.69Z"/><path class="cls-25" d="M208.26,124.46a61.45,61.45,0,0,1-2.23,6.76.44.44,0,0,1-.76.17c-.29-.26-.78-.48-.56-1,.91-2.08,1.85-4.14,2.8-6.21A.61.61,0,0,1,208,124C208.25,124,208.31,124.23,208.26,124.46Z"/><path class="cls-2" d="M210.13,126.72a23.12,23.12,0,0,1-2.46,5.88.42.42,0,0,1-.64.21c-.27-.17-.58-.43-.42-.74,1-1.88,2-3.74,3-5.6Z"/><path class="cls-26" d="M238.12,134.41c.56-1.57.55-2.68-.61-3.59-.28-.21-.8-1-.23-1.34s1,.24,1.37.69C240,132,239.94,133.22,238.12,134.41Z"/><path class="cls-27" d="M234.79,131.62c.32,0,.65.14.73.46s-.22.57-.5.66-.58-.14-.67-.46A.49.49,0,0,1,234.79,131.62Z"/><path class="cls-18" d="M59.31,247.75c-.22-.19-.43-.34-.61-.52-1.73-1.72-3.44-3.47-5.2-5.17-.46-.45-.56-.71,0-1.21,1.76-1.7,3.48-3.44,5.19-5.18.42-.43.69-.62,1.22-.07,1.69,1.77,3.43,3.48,5.18,5.19.46.45.57.74,0,1.25-1.79,1.73-3.54,3.52-5.31,5.28C59.66,247.46,59.5,247.58,59.31,247.75Z"/><path class="cls-18" d="M517.28,44.85l-.66-.61c-1.5-1.5-3-3-4.53-4.5-.49-.48-.67-.75-.06-1.33,1.56-1.45,3.05-3,4.53-4.5.52-.53.86-.73,1.47-.07,1.46,1.55,3,3,4.5,4.53.3.3.84.55.27,1.11-1.71,1.67-3.39,3.37-5.08,5.06C517.61,44.64,517.47,44.71,517.28,44.85Z"/><path class="cls-18" d="M545.07,45.62c.23.2.47.39.68.6,1.51,1.5,3,3,4.53,4.51.49.48.66.79.07,1.35-1.59,1.5-3.12,3.05-4.64,4.62-.45.46-.75.55-1.24,0-1.56-1.6-3.15-3.16-4.74-4.74-.29-.29-.64-.52-.15-1,1.71-1.67,3.38-3.37,5.08-5C544.77,45.84,544.9,45.76,545.07,45.62Z"/><path class="cls-18" d="M50.18,251c-.84.63-1.38,1-1.82,1.37-1.91,1.85-1.9,1.86-3.73,0-1.42-1.42-1.42-1.42,0-2.82,1.84-1.84,1.83-1.82,3.74,0C48.8,250,49.33,250.31,50.18,251Z"/><path class="cls-18" d="M540.49.48a2.22,2.22,0,1,1-2.21,2.15A2.22,2.22,0,0,1,540.49.48Z"/><path class="cls-11" d="M408.67,352.5c-.29-.24-.54-.43-.75-.64-1.77-1.76-3.51-3.55-5.32-5.27-.69-.66-.51-1.07.08-1.64q2.64-2.54,5.19-5.18c.59-.61,1-.7,1.62,0,1.72,1.81,3.51,3.55,5.29,5.3.44.43.8.76.16,1.37-1.91,1.84-3.77,3.73-5.65,5.6A7.1,7.1,0,0,1,408.67,352.5Z"/><path class="cls-11" d="M443.15,358.22c-.22.25-.41.49-.63.71-1.8,1.8-3.61,3.58-5.39,5.4-.51.53-.83.58-1.37,0-1.81-1.87-3.65-3.7-5.51-5.51-.55-.53-.52-.84,0-1.36,1.87-1.8,3.69-3.65,5.52-5.49.35-.34.65-.67,1.15-.16,1.93,2,3.89,3.9,5.83,5.85A4.3,4.3,0,0,1,443.15,358.22Z"/><path class="cls-12" d="M431.9,306.65a2.71,2.71,0,0,1,2.85,2.8,2.88,2.88,0,1,1-5.76-.07A2.69,2.69,0,0,1,431.9,306.65Z"/><path class="cls-18" d="M408.65,351.61c-.23-.21-.45-.4-.66-.61-1.51-1.51-3-3-4.53-4.51-.5-.47-.68-.75-.06-1.32,1.56-1.45,3.05-3,4.53-4.51.51-.53.85-.73,1.47-.07,1.45,1.56,3,3,4.5,4.54.29.29.83.55.26,1.11-1.7,1.67-3.38,3.37-5.08,5.05A3.18,3.18,0,0,1,408.65,351.61Z"/><path class="cls-18" d="M436.44,352.38c.22.2.46.38.68.6,1.51,1.5,3,3,4.52,4.51.5.47.66.78.07,1.34-1.58,1.5-3.11,3.06-4.64,4.62-.45.47-.74.55-1.24,0-1.55-1.61-3.15-3.17-4.73-4.74-.3-.3-.64-.52-.16-1,1.71-1.67,3.39-3.37,5.08-5.06A4.51,4.51,0,0,1,436.44,352.38Z"/><path class="cls-18" d="M431.85,307.24a2.22,2.22,0,1,1-2.2,2.15A2.2,2.2,0,0,1,431.85,307.24Z"/><path class="cls-18" d="M314,92c2.35-.64,4.4-1.22,6.45-1.76.72-.19.59.24.46.71-.48,1.75-1,3.5-1.4,5.27-.35,1.51-.45,3.07.73,4.28.92,1-.7,1.38-.29,2.27,1.08-.34,1.46-1.42,2.26-2s1.49-1.66,2.52-1.16.95,1.77.86,2.8a5.36,5.36,0,0,1-3.21,4.8c-.37.17-.89.38-1.19.25-1.33-.63-1.47-.09-1.85,1.16-1,3.23-2.2,6.33-5.39,8.29-6.12,3.75-10.11.5-12.41-4.39a11,11,0,0,1-.59-5.69A112.82,112.82,0,0,1,303,93.88c.18-.87.41-1.33,1.51-1.21a29.86,29.86,0,0,0,7.77-.51c.53-.08,1.24-.57,1.27.56,0,.07.36.18.55.19a8.54,8.54,0,0,1,3.58,1.23C317,92.22,315.44,92.49,314,92Z"/><path class="cls-18" d="M323.05,128.14c.3-.44.23-1.24,1.26-.73a102.18,102.18,0,0,1,20,12.41,2.65,2.65,0,0,1,.31.47H286c-.16-.57.35-.72.61-1,4.76-4.77,10.44-8.22,16.4-11.25.77-.39.83-.3.91,1,.37,1.79-.31,3.48-.59,5.2-.33,2-.27,2.19,1.72,2.18,4.47,0,8.94-.07,13.41,0a1.78,1.78,0,0,0,2.1-1.51c.49-1.8,1.09-3.57,1.66-5.35A2.84,2.84,0,0,1,323.05,128.14Z"/><path class="cls-18" d="M304.61,129.08a2.22,2.22,0,0,1,1.69-2.7c.25-.07.46-.26.7-.34,2.68-.89,4-2.55,3.2-5.47a1.15,1.15,0,0,1,.91-1.63,11.46,11.46,0,0,0,8.25-8,18.63,18.63,0,0,1,.83-2,2.53,2.53,0,0,1,.36-.42,6,6,0,0,1-.51,2.66c-1.14,3.21-2.1,6.43-1.13,9.89a2.89,2.89,0,0,1,0,.78c-.09,2.88-.09,2.88,2.58,4.08.48.33,1.3.33,1.17,1.23h0c-.31,2.85-1.46,5.48-2.28,8.19a1.71,1.71,0,0,1-2.05,1.22c-4.3-.31-8.6-.15-12.9-.09-1.81,0-2.44-.55-2-2.31S303.69,130.65,304.61,129.08Z"/><path class="cls-18" d="M288.08,136.69c-.22-1.25.28-1.88,1.45-2.53,1.88-1,3.22-3.07,5.32-3.65s3.38-2.56,5.59-3.24a10.68,10.68,0,0,0,4.2-2.35,2.71,2.71,0,0,1,1.12-.48c.31-.09.72.45.95-.08s-.28-.74-.47-1.08-.54-.34-.9-.11a1.6,1.6,0,0,1-2.46-.79,2,2,0,0,0-1.94-1.16c-1.37-.1-2.22-1.33-2.77-2.31-.83-1.49-2.2-2.53-2.86-4.16a7.37,7.37,0,0,1-.32-3.33c0-.86.82-.79,1.44-.77a3.12,3.12,0,0,1,1.68.76.66.66,0,0,0,.86,0c.24-.23.08-.47,0-.71-.37-1.51-.9-3,.72-4.23a.82.82,0,0,0,0-1.26c-1-.79-.72-1.7-.46-2.67a8.71,8.71,0,0,1,1.16-3c.26-.35.11-.46,0-.76a3.64,3.64,0,0,1,.34-3.61c.92-1.15.29-1.71-.57-1.91a15.28,15.28,0,0,1-5.09-2.53,21.33,21.33,0,0,1-3.06-3c-1.12-1.2-.66-3.39.66-4.75s1.9-2.64,1.22-4.47c-.25-.66.43-1.11.86-1.54A.75.75,0,0,1,296,77c.52.8,1.58.09,2,.86l-.92-.17a1.83,1.83,0,0,0-1.95.67,1.74,1.74,0,0,0,0,2c.44.75,1,1.47,1.5,2.3-.48.31-1,.07-1.47.09-2.19.08-3.2,1.63-2.33,3.63a8.82,8.82,0,0,0,4.06,4,13.34,13.34,0,0,0,4.34,1.69c1.19.22,1.2.76,1,1.74a83.9,83.9,0,0,0-2.12,13.56,12.45,12.45,0,0,0,.31,4.34c.37,1.19-.44,1.4-1.28,1.29a12.24,12.24,0,0,1-2.23-.7c-.29-.1-.59-.29-.86,0s-.07.6,0,.86c2,4.83,5.23,8.35,10.59,9.44.61.12,1.23.22,1.84.36.33.07.82-.07.91.4s-.45.64-.79.82c-1.92,1-3.85,2.07-5.81,3A72,72,0,0,0,288.08,136.69Z"/><path class="cls-6" d="M304.61,129.08a42.71,42.71,0,0,1-.91,5.84c-.15.94.13,1.2,1,1.2,4.68,0,9.37,0,14.05,0,1,0,1.19-.6,1.42-1.31.84-2.56,1.43-5.2,2.51-7.68.11.33,0,.75.36,1-.56,2.75-1.63,5.34-2.37,8-.19.7-.69.81-1.31.81H303.66c-.72,0-1.23-.13-1-1.07.47-2.27.89-4.56,1.33-6.84Z"/><path class="cls-6" d="M322.68,127.17c-.1-.69-.78-.82-1.17-1.23.49,0,.47-.26.29-.59A1.93,1.93,0,0,1,323,126c-.37,0-.54.18-.23.54S323.1,127,322.68,127.17Z"/><path class="cls-3" d="M447.21,217.75c1,.85,2.06.33,3.09.31.44,0,.6-.51.6-1s0-.94,0-1.41q0-32.07,0-64.15c0-.58-.27-1.25.29-1.76q0,19.59,0,39.19v27.16c0,2.41,0,2.41-2.39,2.41l-1.41,0-45.61,0c-9.84,0-19.68,0-29.52,0-.64,0-1.54.4-1.8-.69a4.28,4.28,0,0,1,1.41-2.53,31.92,31.92,0,0,1,9.3-7.43,21.63,21.63,0,0,0,4.65-3.12c.6-.52,1.17-1.23,2.15-1,.69.71.42,1.54.3,2.35-.35,2.34.28,4.64.33,7a.77.77,0,0,0,.49.73c2.71-1.3,5.05-3.21,7.67-4.63a2.18,2.18,0,0,1,.95-.53,3,3,0,0,1,2.07,1.57c-.39,1,.51,1.4,1.05,1.95,1.5,1.32,3.32,2.38,3.79,4.57a.59.59,0,0,0,.54.49c.4,0,.53-.32.58-.62a4.24,4.24,0,0,1,2.09-2.59q2.55-1.81,5.11-3.59c1.38-.94,2-.85,3,.51s2.12,2.7,3.16,4.06c.74,1,.95.95,1.35-.23,1-2.9,1.86-5.84,2.8-8.76a31,31,0,0,1,2.32-5.43c.25-.29.46-.66.94-.54a5.26,5.26,0,0,0,1.77,1.47c4.15,2,8.16,4.3,12.18,6.55,3.64,2,5.48,5.38,6.78,9.14A.69.69,0,0,1,447.21,217.75Z"/><path class="cls-18" d="M299,216.21c14,0,28-.05,42,0,6.77,0,13.53.15,20.29-.06,1.43,0,1.84.41,1.7,1.76a22.3,22.3,0,0,0,0,3.27c0,.83-.28,1.13-1.09,1.06-.57,0-1.14,0-1.72,0q-61.85,0-123.71,0c-1.47,0-2-.42-1.77-1.83a16.23,16.23,0,0,0,0-1.71c.07-2.78-.6-2.58,2.74-2.53,13.22.2,26.44.12,39.66,0,7.29-.07,14.58,0,21.87,0Z"/><path class="cls-18" d="M251.57,196.6c0-5.21,0-10.42,0-15.62,0-1.1.32-1.41,1.41-1.41,3.45,0,3.45,0,3.45,3.4,0,9.63,0,19.26,0,28.9,0,1.29-.33,1.69-1.64,1.66-3.22-.07-3.23,0-3.23-3.18Q251.59,203.46,251.57,196.6Z"/><path class="cls-18" d="M344.74,206.77c0-2.34,0-4.68,0-7,0-.88.16-1.33,1.19-1.31,3.33.07,6.66.06,10,0,1,0,1.21.39,1.21,1.29q-.06,7.17,0,14.35c0,.9-.2,1.32-1.21,1.3q-5-.07-10,0c-1,0-1.21-.41-1.2-1.3C344.77,211.66,344.74,209.21,344.74,206.77Z"/><path class="cls-28" d="M257.32,214.32c5.83,0,11.66,0,17.49,0,.45,0,1.24-.32,1.27.45s-.8.6-1.3.6h-35c-.31,0-.62,0-.93,0a.5.5,0,0,1-.46-.54c0-.32.22-.45.49-.47.42,0,.83,0,1.25,0Z"/><path class="cls-29" d="M357.67,188q-.71,4.44-1.4,8.9c-.09.55-.38.85-.95.75s-.49-.57-.43-1q.71-4.53,1.4-9c.07-.45.17-.84.74-.78C357.79,186.88,357.75,187.4,357.67,188Z"/><path class="cls-18" d="M351.33,192c0-1.46,0-2.92,0-4.38,0-.54.1-.92.77-.89s.63.41.63.86c0,3,0,6,0,9.06,0,.48,0,1-.66,1s-.71-.47-.71-1V192Z"/><path class="cls-25" d="M344.76,190c.46,0,.62.33.72.69.58,2,1.15,4.09,1.73,6.13.11.38.21.74-.31.85a.8.8,0,0,1-1-.46c-.64-2.13-1.25-4.26-1.84-6.41C343.88,190.21,344.36,190.08,344.76,190Z"/><path class="cls-18" d="M387.66,203.73a43.7,43.7,0,0,1-7.27,5,28.74,28.74,0,0,0-9.87,9.06c-1.39.25-1.71-.34-1.71-1.7q.06-37.8,0-75.6c0-1.37.34-1.73,1.73-1.73q39.12.06,78.25,0c1.39,0,1.74.37,1.74,1.74q-.07,37.49,0,75c0,2.61.34,2.28-2.34,2.31-.32,0-.63,0-.94,0-.45-1.05-.9-2.1-1.36-3.14a13.73,13.73,0,0,0-6.12-6.61c-4-2.18-7.93-4.34-12-6.38-.7-.36-1.22-.75-1.24-1.59-1.12-.84-2-1.9-3.19-2.71a2.93,2.93,0,0,1-1-2.52c-.08-3.06,0-6.11,0-9.17a1.75,1.75,0,0,1,1.88-2,6,6,0,0,0,1.95-.48c3-1.33,4.24-4,5.32-6.81a1.28,1.28,0,0,0-1-1.89,5.77,5.77,0,0,1-1.85-.81c-1.44-1-1.51-1.57-1-3.27a16.78,16.78,0,0,0-2-13.77c-1.17-1.91-3.32-2.2-5.43-2a15.63,15.63,0,0,0-4.08,1,2.35,2.35,0,0,1-3-.88,14,14,0,0,0-1.43-1.65c-5.56-5.1-15.07-4.17-19.45,2-2,2.8-2.29,6.07-2,9.4a7.05,7.05,0,0,1-.18,3.23c-.81,2.14-2.77,2.6-4.4,1-.9-.87-1.59-.73-2.3.46a5.69,5.69,0,0,0,1.57,7,17.59,17.59,0,0,0,4,1.8,1.45,1.45,0,0,1,.53.93,6.55,6.55,0,0,0,2.53,4.64c.79.59.69,1.57.6,2.46-.36,3.55-.88,7.09-.34,10.67a2,2,0,0,1-1.05,2.11A5.38,5.38,0,0,0,388.2,203,1,1,0,0,1,387.66,203.73Z"/><path class="cls-18" d="M240.89,322.77l0-59.22q0-18.75,0-37.49c.62-.05,1.24-.14,1.86-.14q56.1,0,112.21,0c1.37,0,1.82.27,1.82,1.76q-.06,47.6,0,95.17h0c-.45.41-1,.21-1.49.21H242.35C241.86,323,241.3,323.26,240.89,322.77Z"/><path class="cls-30" d="M192.35,218.47c.28,8.26-.79,16.42-1.89,24.57-.62,4.59-1.2,9.18-1.81,13.77-.06.43.06,1.19-.52,1.13-.77-.1-.35-.83-.3-1.29,1.07-9.51,2.76-18.95,3.43-28.51a156.27,156.27,0,0,0-.49-23.4c-.05-.71-.56-2,.23-2.06s.5,1.24.58,1.92C192.09,209.21,192.17,213.85,192.35,218.47Z"/><path class="cls-31" d="M185.86,277.16c.28-3.53.61-7.78,1-12,0-.46-.08-1.33.53-1.26.81.09.36.93.32,1.41a146.65,146.65,0,0,0-.94,18.85c.28,7.39,1.47,14.7,2,22.07.09,1.09.18,2.18.23,3.27,0,.38.25,1-.28,1.05s-.52-.63-.56-1.05c-.18-1.76-.31-3.52-.48-5.28q-.83-8.39-1.67-16.78A96.54,96.54,0,0,1,185.86,277.16Z"/><path class="cls-32" d="M190.85,196.54c0,.56.11,1-.39,1.08s-.54-.42-.59-.77c-.2-1.5-.39-3-.57-4.49,0-.3-.07-.69.33-.77s.58.28.64.66C190.47,193.75,190.67,195.24,190.85,196.54Z"/><path class="cls-33" d="M377.72,55.37c-.73,0-1.46,0-2.19,0a1.78,1.78,0,0,1-1.84-1.74,1.67,1.67,0,0,1,1.56-2,29.41,29.41,0,0,1,5.14,0,1.63,1.63,0,0,1,1.44,1.92,1.74,1.74,0,0,1-1.77,1.8C379.28,55.4,378.5,55.36,377.72,55.37Z"/><path class="cls-34" d="M414.5,66.79A5,5,0,0,1,418.12,68c.42.34.84.77.46,1.32s-.9.33-1.33,0c-1.69-1.47-3.51-1.27-5.37-.39-.54.25-1.11.57-1.45-.15s.36-1,.83-1.23A6,6,0,0,1,414.5,66.79Z"/><path class="cls-3" d="M403.05,67.41a7.57,7.57,0,0,1,2.44.3c.44.15,1,.26.89.88s-.73.62-1.26.55a17.21,17.21,0,0,0-2-.29,3.37,3.37,0,0,0-2.83,1.05c-.33.38-.7.91-1.26.32s-.15-1,.19-1.38A4.41,4.41,0,0,1,403.05,67.41Z"/><path class="cls-35" d="M403.09,74.4c0,.94.06,2.21-.95,2.23-1.2,0-1.09-1.34-1.09-2.21s0-2,1-2S403,73.61,403.09,74.4Z"/><path class="cls-34" d="M416,74.29c-.07.9,0,2.14-1,2.14s-1-1.27-1-2.12-.07-2,.91-2C416,72.25,415.82,73.49,416,74.29Z"/><path class="cls-36" d="M422.53,81.73c0-2.67-.09-5.34,0-8,.05-1.22,1.15-1.73,2.23-1.72s1.62.86,1.63,1.91a10.44,10.44,0,0,1-1.37,4.73A9,9,0,0,1,422.53,81.73Z"/><path class="cls-23" d="M394.78,83.63c-1.81-2.38-3.26-4.92-3.44-8-.08-1.39,1-2,2.12-2.33.72-.2,1.11.22,1.12.91C394.63,77.36,395.14,80.45,394.78,83.63Z"/><path class="cls-10" d="M409.47,94.07c-1.76.11-3.54-.56-5.38-.88-.26,0-.55-.06-.56-.4s.3-.52.63-.5a3.35,3.35,0,0,1,.77.13,15,15,0,0,0,8.89.15c.37-.1.85-.26,1,.1.23.57-.4.62-.75.73A13.75,13.75,0,0,1,409.47,94.07Z"/><path class="cls-18" d="M380.26,127.21c.25-.39.54-.76.75-1.17,2.8-5.62,7.55-9,13.27-11.57-.34,1.83-1,3.47-1.17,5.2-.29,2.57-.32,2.56,2.24,2.77a3.35,3.35,0,0,1,.55.11c0,.12,0,.19,0,.22-.59.82-2.27.8-2.07,2,.14.85,1.14,1.56,1.75,2.33.12.15.2.33.47.76h-2.48c-4,0-8,0-12,0-.5,0-1.23.3-1.27-.65Z"/><path class="cls-10" d="M240.89,322.77c.62,0,1.24.13,1.86.13q56.16,0,112.32,0c.57,0,1.14-.06,1.71-.09-.32.63-.91.4-1.39.4H242.25C241.77,323.2,241.17,323.44,240.89,322.77Z"/><path class="cls-33" d="M283.66,67.85c-.77,0-1.55.05-2.32,0A1.74,1.74,0,0,1,279.62,66a1.68,1.68,0,0,1,1.61-1.92,31.59,31.59,0,0,1,5,0,1.68,1.68,0,0,1,1.56,2A1.74,1.74,0,0,1,286,67.84C285.22,67.9,284.44,67.85,283.66,67.85Z"/><path class="cls-30" d="M305,104.49c-1.22,0-1.68-.62-1.33-1.83a11.62,11.62,0,0,1,1.95-3.53A8.72,8.72,0,0,0,307.32,95c0-.35,0-.83.57-.72.37.09.3.5.27.8a8.29,8.29,0,0,1-1.38,3.77,19.57,19.57,0,0,0-2.25,3.73c-.39.93,0,1.15.84,1a5.62,5.62,0,0,0,2.33-1.22c.26-.19.57-.37.82,0s0,.49-.22.66A5.58,5.58,0,0,1,305,104.49Z"/><path class="cls-37" d="M307.75,107.94a5.59,5.59,0,0,1-3.73-1.07c-.25-.19-.54-.46-.35-.78s.53-.15.79,0c2,1.37,4.11,1.08,6.26.44.4-.11,1-.58,1.2.06s-.52.66-.92.79A8.26,8.26,0,0,1,307.75,107.94Z"/><path class="cls-37" d="M314.59,96.53a2.9,2.9,0,0,1-.85,2.2.44.44,0,0,1-.67-.11,2.44,2.44,0,0,1,0-2.23c.17-.54.35-1.24,1.06-1.08S314.52,96.15,314.59,96.53Z"/><path class="cls-17" d="M304.6,95.64a2.47,2.47,0,0,1,.92-2,.4.4,0,0,1,.54.15,2.21,2.21,0,0,1,.07,2.09c-.16.52-.27,1.29-1,1.21S304.69,96.18,304.6,95.64Z"/><path class="cls-18" d="M399.64,210.36l-1.81-1.61c-1.57-.5-2.16-2-3.16-3.1a14.76,14.76,0,0,1-1.66-2.44,4.25,4.25,0,0,1-.86-3.73c.33-1.24-.07-2.76-.13-4.15a63.47,63.47,0,0,1,.82-12.08,21.61,21.61,0,0,0,.11-3.11,2,2,0,0,1,1.38-2.18,8.84,8.84,0,0,0,3.66-2c.31-.28.66-.77,1-.68,1.85.46,1.34-.92,1.55-1.82a9.73,9.73,0,0,1,2.91-4.72,19.16,19.16,0,0,1,6.69-3.94c.71-.27,1.41-.25,1.79.45,1,1.81,2.32,3.46,2.8,5.53-.38.65-.93.38-1.33.12a5.84,5.84,0,0,0-3.61-.76c1.6-.43,3.46,1,5.49,1.62a26.14,26.14,0,0,1,3.76,7,7.62,7.62,0,0,1,2.35-2.58c2-1.31,3.8-.38,4,2a7.18,7.18,0,0,1-1.16,4.3c-.89,1.05-1.82,2-3.45,1.61,1.43.38,1.75,1.34,1.74,2.69,0,3.37-.17,6.75.1,10.11a5.56,5.56,0,0,1-1.73,4.43A63.58,63.58,0,0,1,411,210a20.11,20.11,0,0,1-2.68,1.59C405.14,213.23,402.24,212.88,399.64,210.36Z"/><path class="cls-18" d="M425.89,200.66c-1.91,3.64-2.85,7.63-4.12,11.5-.5,1.51-1,3-1.56,4.81-1.65-2.12-3.19-3.94-4.54-5.89-.84-1.24-1.5-1.17-2.57-.33-1.72,1.34-3.53,2.57-5.32,3.81-.85.58-1.62,1.13-1.52,2.32a.68.68,0,0,1-.72.82c-.45,0-1.14.14-1.18-.44-.15-2.54-2.29-3.53-3.77-5,.08-.88.71-.5,1-.34,3.07,1.67,5.77.47,8.35-1.11,4.7-2.88,8.4-6.91,12.16-10.87a2.37,2.37,0,0,0,.51-.95c.53-1.57.78-1.64,2.09-.54C425.4,199,426.36,199.47,425.89,200.66Z"/><path class="cls-18" d="M397.05,209.38q-3.87,2.51-7.73,5c-.57.08-.7-.29-.77-.73a42.55,42.55,0,0,1-.11-11.44,4.05,4.05,0,0,1,2.23-3c.36-.22.75-.46,1.14-.12a.78.78,0,0,1,.13,1c-.39.66-.11,1.15.22,1.72a34.63,34.63,0,0,0,4.47,6.15C397,208.36,397.64,208.7,397.05,209.38Z"/><path class="cls-38" d="M397.05,209.38c-.14-.91-1-1.3-1.48-1.92a41.82,41.82,0,0,1-3.5-5c-.59-1-1.45-2-.28-3.23-1.31.62-2.56,1-2.92,2.72a33.17,33.17,0,0,0-.16,11.46c.06.42.07.84.61,1-.66.63-.84,0-.9-.42a33.67,33.67,0,0,1-.52-7.95c.07-.79.52-1.61-.24-2.3a10.28,10.28,0,0,0,.24-1.07,4.19,4.19,0,0,1,2.51-3.78,2.17,2.17,0,0,0,1.28-2.53,50.14,50.14,0,0,1,.41-10.74,1.72,1.72,0,0,0-.76-2,4.76,4.76,0,0,1-2.21-4.24c0-.48,0-.94-.49-1.21.78.4,1.34-.29,2-.41a13.3,13.3,0,0,1,2.6,0c.5,0,1-.09,1.43.36-.51.29-1.17.32-1.21,1.2-.26,5.84-1.42,11.63-1,17.53.09,1.23.63,2.54-.24,3.77-.24.34.21.76.41,1.11a39.57,39.57,0,0,0,5.18,7Z"/><path class="cls-38" d="M425.89,200.66c-.44-1.28-1.06-1.9-2.89-2.79.29,1.62-.81,2.49-1.71,3.46a59.75,59.75,0,0,1-10.15,9.17,20.47,20.47,0,0,1-3.84,2,6.54,6.54,0,0,1-5.44-.09c-.38-.19-.77-.6-1.27-.22-.94-.31-1-1-.95-1.87a1.94,1.94,0,0,1,.56.18c3.09,2.38,6.16,2,9.27,0,4.69-2.94,8.51-6.83,12.21-10.88a2.09,2.09,0,0,0,.44-1.59c0-4.06-.09-8.13-.09-12.19,0-.79-.17-1.28-1.06-1.36a1.75,1.75,0,0,1-1.35-1,.78.78,0,0,1,.09-.56c0-.05.31-.06.39,0,1.72,1.65,2.77.21,3.9-.84.39.7,0,1-.53,1.17,1,.22,2.09-.76,3.12.14A16.82,16.82,0,0,1,425,184c-2.17.41-2.16.39-2.14,2.67,0,2.8.09,5.61.07,8.41a2.49,2.49,0,0,0,1.19,2.33c1,.68,2.18,1.25,2.45,2.63Z"/><path class="cls-33" d="M345.56,206.91c0-1.4,0-2.81,0-4.21,0-.87.27-1.21,1.16-1.19,2.56,0,5.11,0,7.66,0,.86,0,1.22.26,1.21,1.16q-.06,4.37,0,8.75c0,.8-.28,1.1-1.09,1.09-2.61,0-5.21,0-7.82,0-.94,0-1.13-.41-1.11-1.23C345.58,209.83,345.56,208.37,345.56,206.91Z"/><path class="cls-3" d="M426.59,183.5c-1.1-.31-2.15.55-3.28.19.06-.63.84-.85.69-1.5a8.62,8.62,0,0,0,1-4.2c-.15-2-1.38-2.65-3.11-1.7a7.15,7.15,0,0,0-2.72,3.14c-.17.3-.27.81-.73.59s-.14-.64,0-.93c.34-.54.1-1-.16-1.44-1-1.88-2-3.78-3.06-5.68-.37-.35-.4-.87-.67-1.27-.88-1.62-1.8-3.22-2.65-4.86-.42-.83-.81-1.11-1.79-.66-3.44,1.57-6.66,3.32-8.63,6.8a4.87,4.87,0,0,0-.65,2.93c0,.46,0,1-.49,1.22s-.54-.3-.76-.55c-.51-.59-.71.08-.94.3a7.44,7.44,0,0,1-3.95,2.3c-1.64.54-3.44-.72-5,.48-.39.29-.42-.82-1-.47-4.67-.64-7.37-4.31-6.09-8.29a3.55,3.55,0,0,1,1.53-2.1c.62-.37,1.31-.58,1.63.38a1.71,1.71,0,0,0,1.94,1.2,2.17,2.17,0,0,0,2-1.54,5.38,5.38,0,0,0,.25-2.46c-.06-.94-.13-1.87-.13-2.81.05-6.28,2.78-10.22,8.46-12.28s11.05-.82,14.9,3.88c1,1.21,1.75,1.72,3.31,1a11.13,11.13,0,0,1,5-1,5.55,5.55,0,0,1,5.19,3.13,20.91,20.91,0,0,1,1.92,11.53c0,.41-.21.8-.28,1.21-.12.76-1.18,1.36-.67,2.1a4.84,4.84,0,0,0,2.94,1.94c1.7.41,2,.83,1.36,2.43C430.75,179.32,429.55,182.09,426.59,183.5Z"/><path class="cls-39" d="M377.81,141.34a17.6,17.6,0,0,1,2.18,0,1.88,1.88,0,0,1,1.84,2.1,1.78,1.78,0,0,1-1.92,1.84,42.27,42.27,0,0,1-4.36,0,1.77,1.77,0,0,1-1.86-1.89,2,2,0,0,1,1.78-2,14,14,0,0,1,2.34,0Z"/><path class="cls-15" d="M298.68,260.12h47.19c2.08,0,2.08,0,2.08,2,0,7.29,0,14.58,0,21.88,0,1.3-.38,1.67-1.67,1.66q-47.74,0-95.49,0c-1.33,0-1.67-.44-1.66-1.71,0-7.34.05-14.69,0-22,0-1.45.42-1.85,1.86-1.84C266.9,260.14,282.79,260.12,298.68,260.12Z"/><path class="cls-30" d="M298.47,317.15H251.29c-2.1,0-2.1,0-2.1-2,0-7.18,0-14.37,0-21.55,0-1.45.32-2,1.88-2q47.58.06,95.15,0c1.32,0,1.8.29,1.79,1.72-.08,7.39-.07,14.79,0,22.18,0,1.31-.41,1.66-1.7,1.66C330.34,317.13,314.4,317.15,298.47,317.15Z"/><path class="cls-31" d="M298.52,228.66c15.83,0,31.66,0,47.48,0,1.63,0,2,.48,2,2q-.12,10.86,0,21.71c0,1.46-.42,1.84-1.85,1.84q-47.56-.06-95.14,0c-1.47,0-1.85-.45-1.84-1.87q.1-10.94,0-21.87c0-1.48.45-1.84,1.88-1.83Q274.78,228.69,298.52,228.66Z"/><path class="cls-15" d="M404.21,202.15a4.93,4.93,0,0,1-4.8-3.73c-.08-.34-.3-.79.12-1s.6.29.7.63a3.86,3.86,0,0,0,3.74,3.17,4.32,4.32,0,0,0,4.5-2.69c.15-.31.28-.84.72-.62s.18.74,0,1.11A5.41,5.41,0,0,1,404.21,202.15Z"/><path class="cls-31" d="M405.24,185.47a8.32,8.32,0,0,1-5.77-1.83c-.26-.22-.66-.5-.36-.89s.62,0,.9.21a8.69,8.69,0,0,0,10.54-.18c.34-.25.72-.91,1.13-.35s-.31.8-.65,1.06A8.54,8.54,0,0,1,405.24,185.47Z"/><path class="cls-40" d="M404.89,176.15c.15,1.13-.63,1.95-1.22,2.86-.28.45-.89.87-.46,1.51a1.76,1.76,0,0,0,1.56.55,2.63,2.63,0,0,0,1.86-.66.44.44,0,0,1,.69,0c.2.26,0,.47-.18.67a3.57,3.57,0,0,1-4.68,0,1.48,1.48,0,0,1,.14-2c1.14-1.41,1.86-2.87,1.12-4.72a.56.56,0,0,1,.17-.53c.26-.16.48,0,.6.28A4.63,4.63,0,0,1,404.89,176.15Z"/><path class="cls-41" d="M414.55,170.7a1.11,1.11,0,0,1,.67,1.27c-.36,0-.82.12-1.06-.05a6.59,6.59,0,0,0-5.75-1.13c-.26.07-.56,0-.61-.31s.27-.54.57-.62a7,7,0,0,1,4.85.42C413.64,170.48,414,171.1,414.55,170.7Z"/><path class="cls-41" d="M410.54,174.54c.06-.64,0-1.54.76-1.48s.72,1,.72,1.65,0,1.54-.7,1.52C410.33,176.2,410.64,175.18,410.54,174.54Z"/><path class="cls-42" d="M391.35,178.61c1.14-.23,1.51.28,1.34,1.37-.11.77-.14,1.55-.22,2.32,0,.29.07.7-.33.77-.19,0-.46-.18-.64-.34a4.1,4.1,0,0,1-1.51-2.64C389.84,179,390,178.29,391.35,178.61Z"/><path class="cls-18" d="M298.6,261c15.58,0,31.15,0,46.73,0,1.47,0,1.8.41,1.78,1.82q-.11,10.23,0,20.47c0,1.18-.34,1.49-1.5,1.49q-47,0-94.08,0c-1.27,0-1.56-.39-1.55-1.6q.09-10.31,0-20.63c0-1.28.39-1.55,1.58-1.54Q275.08,261.06,298.6,261Z"/><path class="cls-18" d="M298.35,316.26c-15.51,0-31,0-46.55,0-1.37,0-1.86-.26-1.84-1.77.09-6.82.07-13.64,0-20.46,0-1.24.34-1.58,1.57-1.58q47,0,94.06,0c1.14,0,1.53.28,1.52,1.48q-.09,10.38,0,20.78c0,1.26-.36,1.56-1.58,1.55C329.81,316.24,314.08,316.26,298.35,316.26Z"/><path class="cls-18" d="M298.68,229.5c15.58,0,31.15,0,46.72,0,1.41,0,1.73.39,1.71,1.75q-.09,10.23,0,20.46c0,1.33-.4,1.64-1.67,1.64q-46.87,0-93.75,0c-1.43,0-1.73-.43-1.71-1.77.06-6.82.07-13.65,0-20.47,0-1.35.43-1.61,1.68-1.61Q275.17,229.53,298.68,229.5Z"/><path class="cls-4" d="M298.58,275.15c-2.6,0-5.2,0-7.81,0-1,0-1.23-.3-1.24-1.25-.06-3.28-.1-3.28,3.25-3.28,4.48,0,9,0,13.44,0,1.08,0,1.47.31,1.44,1.42-.1,3.78.43,3-3,3.1C302.65,275.18,300.62,275.15,298.58,275.15Z"/><path class="cls-4" d="M298.52,302.12c2.6,0,5.21,0,7.81,0,1.05,0,1.35.35,1.33,1.35-.1,3.83.45,3.14-3.09,3.17-4.48,0-9,0-13.44,0-1.17,0-1.65-.21-1.62-1.52.09-3,0-3,3.07-3Z"/><path class="cls-13" d="M298.63,239.16c2.55,0,5.1,0,7.65,0,1,0,1.38.21,1.39,1.29,0,3.25.08,3.25-3.14,3.25-4.48,0-9,0-13.43,0-1.16,0-1.64-.2-1.59-1.52.1-3,0-3,3-3Z"/><path class="cls-3" d="M471.67,132.33a.94.94,0,1,1-1.47,1.17,15,15,0,0,0-2.68-2.66.94.94,0,0,1,1.13-1.5,17,17,0,0,1,3,3Zm2.21,3.35.09.13a36.15,36.15,0,0,1,1.77,3.74.94.94,0,1,1-1.74.7,34.16,34.16,0,0,0-1.67-3.53.94.94,0,0,1,1.55-1Zm-8.61-8a.91.91,0,0,1,.16.86.93.93,0,0,1-1.17.62,10.22,10.22,0,0,0-3.23-.45.94.94,0,0,1,0-1.88,12.22,12.22,0,0,1,3.82.54A.84.84,0,0,1,465.27,127.66Zm40.25,50.9a.91.91,0,0,1,.2.53.94.94,0,0,1-.89,1,26.77,26.77,0,0,1-4.16-.12.94.94,0,1,1,.19-1.87,24.31,24.31,0,0,0,3.87.11A1,1,0,0,1,505.52,178.56ZM477,143.1a1.17,1.17,0,0,1,.17.31c.38,1.25.74,2.58,1.07,4a.94.94,0,1,1-1.83.43c-.31-1.33-.66-2.61-1-3.82a1,1,0,0,1,.62-1.18A.93.93,0,0,1,477,143.1Zm1.87,7.83a1,1,0,0,1,.19.42c.23,1.32.43,2.67.6,4a.94.94,0,0,1-1.87.23c-.16-1.33-.36-2.65-.58-3.93a.94.94,0,0,1,1.66-.75Zm18.71,26.86a.93.93,0,0,1-.94,1.49,32.46,32.46,0,0,1-4-1.17.94.94,0,1,1,.65-1.76,32.35,32.35,0,0,0,3.74,1.11A.9.9,0,0,1,497.53,177.79ZM479.8,158.91a1,1,0,0,1,.21.52c0,.5.06,1,.09,1.5a15.48,15.48,0,0,0,.3,2.38.93.93,0,0,1-.73,1.1.94.94,0,0,1-1.11-.73,17.45,17.45,0,0,1-.33-2.65c0-.48-.06-1-.1-1.46a.94.94,0,0,1,1.67-.66ZM490,175a1,1,0,0,1,.09,1,.94.94,0,0,1-1.27.39,25.18,25.18,0,0,1-3.51-2.27,1,1,0,0,1-.17-1.32.94.94,0,0,1,1.32-.16,22.91,22.91,0,0,0,3.25,2.09A1.13,1.13,0,0,1,490,175Zm-8.5-8.3a.82.82,0,0,1,.11.17A15.83,15.83,0,0,0,483.7,170a1,1,0,0,1-.1,1.33,1,1,0,0,1-1.33-.11,17.25,17.25,0,0,1-2.33-3.55.94.94,0,0,1,1.57-1Z"/><rect class="cls-43" x="505.64" y="159.28" width="12.95" height="21.34" rx="0.78" transform="translate(68.49 477.1) rotate(-53.06)"/><path class="cls-44" d="M507,159l-.38.5,3.31,10.59a2.5,2.5,0,0,0,2.35,1.8l11.56.22.22-.28a.78.78,0,0,0-.16-1.1l-15.8-11.88A.79.79,0,0,0,507,159Z"/></g></svg>