<svg xmlns="http://www.w3.org/2000/svg" viewBox="0 0 620 365"><defs><style>.cls-1{opacity:0.5;}.cls-2{fill:#f1f2f2;}.cls-3{fill:#2e3a42;}.cls-4{fill:#36424a;}.cls-5{fill:#50bfa5;}.cls-6{fill:#323e46;}.cls-7{fill:#f47458;}.cls-8{fill:#eeaf08;}.cls-9{fill:#fefefe;}.cls-10{fill:#f2f3f3;}.cls-11{fill:#fbfbfc;}.cls-12{fill:#edeeef;}.cls-13{fill:#fcfdfd;}.cls-14{fill:#545e64;}.cls-15{fill:#4c575d;}.cls-16{fill:#eaebeb;}.cls-17{fill:#e8e9ea;}.cls-18{fill:#39444c;}.cls-19{fill:#414d54;}.cls-20{fill:#f0f1f1;}.cls-21{fill:#f4f7fd;}.cls-22{fill:#72797e;}.cls-23{fill:#475158;}.cls-24{fill:#5e676d;}.cls-25{fill:#4e595f;}.cls-26{opacity:0.8;}.cls-27{fill:#c0c3c5;}</style></defs><g id="Layer_4" data-name="Layer 4"><path class="cls-2" d="M387.37,23.37c.62.5.33,1.2.33,1.8q0,20.79,0,41.57c0,1.86,0,1.91,1.74,1.6a110.61,110.61,0,0,1,15.42-2c4.95-.17,9.9-.86,14.88-.15,2.32.33,4.7.11,7.07.29a158.83,158.83,0,0,1,18,2.49,140.21,140.21,0,0,1,20.71,5.62,144.87,144.87,0,0,1,30.85,15,135.28,135.28,0,0,1,17.64,13.74,124.75,124.75,0,0,1,23.38,29.41,122.06,122.06,0,0,1,9.64,21.18,92,92,0,0,1,3.75,16.91c.73,4.89,1.31,9.8,1.95,14.69.45,3.4.68,6.82,1,10.24q.62,7.25,1.16,14.5c.14,1.81.21,3.64.25,5.44.07,3.3.3,6.59.43,9.87.19,4.68,0,9.36.28,14,.55,10.69.27,21.38.16,32.07,0,4.37,0,8.76-.22,13.13-.3,5.4-.38,10.8-.61,16.2-.17,3.83-.39,7.65-.6,11.47-.17,3.28-.35,6.56-.59,9.84-.08,1.13.35,1.16,1.2,1.15q6.36,0,12.72,0c.51,0,1.1-.23,1.51.32a2.72,2.72,0,0,1-2,.46H512.17a5.1,5.1,0,0,1-1.46-.14c-.88-.3-.73-1-.49-1.57q.93-2.34,1.91-4.65a1.44,1.44,0,0,1,1.8-.91,16.06,16.06,0,0,0,3.39.16,5,5,0,0,0,2.89-1,2.39,2.39,0,0,0,1-3c-.46-1-1.58-1.39-2.94-.93a7.51,7.51,0,0,0-3,1.89c-.31.32-.59.67-.91,1s-.44.48-.76.34-.27-.6-.2-.92c.2-.91.56-1.79.84-2.68.48-1.51.81-3.05,1.14-4.59.22-1,.83-1.42,1.83-1a9.57,9.57,0,0,0,4.07.58,4.6,4.6,0,0,0,2.23-.69,2.38,2.38,0,0,0,1.16-2.78,2.28,2.28,0,0,0-2.72-1.25,8.88,8.88,0,0,0-4.36,2.37c-.45.42-.8,1.31-1.47,1s-.26-1.22-.18-1.86c.28-2.34.47-4.7.8-7,.21-1.5.37-1.62,1.9-1.23s3.12,1,4.79.53a4.35,4.35,0,0,0,2.06-1.1,2,2,0,0,0,.49-2.55,2,2,0,0,0-2.39-1.05,8.61,8.61,0,0,0-5,2.91c-.29.37-.64.9-1.19.63s-.46-.86-.36-1.34c.51-2.44.76-4.93,1.49-7.34.29-.95.78-1,1.54-.76a16.34,16.34,0,0,0,3,.74,5.39,5.39,0,0,0,3.82-.8,2.17,2.17,0,0,0,1.1-2.52,2,2,0,0,0-2.32-1.39,7.72,7.72,0,0,0-4.85,2.28c-.21.2-.37.46-.59.66s-.64.66-1,.44,0-.7.09-1a5.64,5.64,0,0,1,.92-1.93c-.79.88-.75,2-1.48,2.77-.66-.35-.59-.94-.59-1.46a7.9,7.9,0,0,0-1.65-4.51c-1-1.41-2.24-1.8-3.25-1.14-1.18.78-1.35,2.2-.43,3.67a7.61,7.61,0,0,0,4.06,3c2,.73,1.93.77,1.39,2.75a36.69,36.69,0,0,0-.92,4.76,4.88,4.88,0,0,1-.28,1.14c-.09.22-.13.51-.42.54s-.47-.31-.56-.57a15.37,15.37,0,0,0-1.05-2.6,7.39,7.39,0,0,0-.74-1.11,2.43,2.43,0,0,0-3-.84,2.49,2.49,0,0,0-.73,3.17c.75,2,2.45,2.73,4.19,3.48,2.07.9,2,.89,1.78,3.12-.2,1.71-.41,3.42-.61,5.13a5.08,5.08,0,0,1-.32,1.29c-.08.22-.19.49-.48.48s-.4-.27-.48-.5a16.22,16.22,0,0,0-1.09-2.58A5.11,5.11,0,0,0,512.2,300a2,2,0,0,0-2.46-.26,2.14,2.14,0,0,0-.93,2.58,5.46,5.46,0,0,0,3.31,3.56c3.15,1.28,3.34.83,2.21,4.9a41.78,41.78,0,0,1-1.64,4.59c-.16.36-.39.8-.83.69s-.41-.63-.34-1c.46-2.35-.68-4.35-1.47-6.39a2,2,0,0,0-3.57-.33,7.64,7.64,0,0,0-1.79,4.76c0,.45.07,1.14-.56,1.16s-.58-.6-.68-1a38.19,38.19,0,0,0-2.34-7.16c-.5-1.09,0-1.68,1-2a7.92,7.92,0,0,0,4.43-2.5,4.51,4.51,0,0,0,.87-1.36,2.12,2.12,0,0,0-.6-2.55,2,2,0,0,0-2.6.08,6.89,6.89,0,0,0-2.76,4.88c-.07.52,0,1.22-.62,1.36s-.87-.53-1.11-1c-1.14-2.24-2.26-4.49-3.44-6.72-.63-1.2-.44-1.61.9-2,.93-.31,1.87-.62,2.77-1a4.8,4.8,0,0,0,2.56-2.75,2.16,2.16,0,0,0-.65-2.78,2,2,0,0,0-2.71.31,8,8,0,0,0-2.62,4.84c-.11.57.06,1.5-.75,1.56s-.93-.78-1.17-1.37a55.52,55.52,0,0,1-2.6-6.58c-.26-.68.2-1,.65-1.32a17.59,17.59,0,0,0,3.56-1.34,5.71,5.71,0,0,0,2.34-2.57,2.17,2.17,0,0,0-.59-2.79,2.06,2.06,0,0,0-2.82.22,7.51,7.51,0,0,0-2.6,5.11c-.05.57.22,1.31-.62,1.6-.45-.18-.43-.58-.52-1a33.14,33.14,0,0,1-.9-6.5c0-1.27.29-2,1.62-2,1.76-.32,3.5-.65,4.71-2.18a5.48,5.48,0,0,0,.75-1.1,2.09,2.09,0,0,0-.52-2.68,2,2,0,0,0-2.72,0,8.11,8.11,0,0,0-3.21,4.82c-.29.37-.36,1-.94,1s-.75-.7-.92-1.19a8.53,8.53,0,0,0-2.93-3.8,3.35,3.35,0,0,0-1.73-.76,1.89,1.89,0,0,0-2,.74,2,2,0,0,0-.16,2.09,4.77,4.77,0,0,0,2.57,2.31,6.1,6.1,0,0,0,2.14.51c3.25.26,3.21.27,3.34,3.41a27.7,27.7,0,0,0,.7,4.78c.1.42.39.83-.13,1.17-.63-.08-.83-.64-1.16-1.05a8.61,8.61,0,0,0-4.36-2.89,2.22,2.22,0,0,0-2.79,1,2.25,2.25,0,0,0,.83,2.86,5.94,5.94,0,0,0,4.5,1c.88-.11,1.73-.39,2.62-.46a1.14,1.14,0,0,1,1.21.9,49.78,49.78,0,0,0,2.16,5.5c.17.38.51.87.1,1.23s-.83-.09-1.18-.31a10.06,10.06,0,0,0-3.3-1.62,2.13,2.13,0,0,0-2.56,1,2.29,2.29,0,0,0,.83,2.88,6.52,6.52,0,0,0,5.38.86c2.38-.47,2.4-.49,3.56,1.67.85,1.56,1.61,3.16,2.39,4.76.23.46.69,1.05.18,1.47s-.89-.17-1.29-.42c-.63-.39-1.22-.85-1.88-1.19a4.48,4.48,0,0,0-2.27-.54,2,2,0,0,0-1.47,3.38,5,5,0,0,0,4.28,1.59,13.89,13.89,0,0,0,2.47-.43,1.48,1.48,0,0,1,2.07,1A48.73,48.73,0,0,1,503.3,314c.08.42.25,1-.29,1.16s-.62-.39-.82-.7a9,9,0,0,0-3.58-3.43c-1.49-.73-2.69-.54-3.29.48s-.17,2.48,1.17,3.41a7.64,7.64,0,0,0,4.67,1.08c2.48,0,2.62.11,3.08,2.54.24,1.26.45,2.53.63,3.8.1.68.23,1.4-.63,1.76a8.08,8.08,0,0,1-2.35.17H447.24a7.69,7.69,0,0,1-2.34-.17,1.19,1.19,0,0,1-.74-1.17c-.27-3.28-.65-6.55-.92-9.84A17.78,17.78,0,0,0,443,311a6.14,6.14,0,0,1,.81-5.09,4.48,4.48,0,0,0,.54-3.54q-2.33-13-4.54-26.08c-.43-2.53-.42-5.1-.7-7.65a5.85,5.85,0,0,1,.62-2.86c2.32-5.55,4.77-11,7.28-16.51a37.1,37.1,0,0,0,3.53-18,12.65,12.65,0,0,0-1.11-4.28c-.87-2-1.79-3.88-1.67-6.17.11-1.91-.62-3.78-.7-5.7-.16-3.67.75-7.23,1.29-10.83a2.24,2.24,0,0,1,1.67-1.88,11.29,11.29,0,0,0,3.47-1.94,4.09,4.09,0,0,0,1.57-4.71,26.41,26.41,0,0,0-1.63-3.64,2.06,2.06,0,0,1,.72-3l.35-.26c3.77-2.77,4.22-6.58,1.22-10.31a8.09,8.09,0,0,0-3.54-2.59,2.54,2.54,0,0,1-1.76-2.17,15.22,15.22,0,0,0-.88-3.12,2.3,2.3,0,0,1,.57-2.66c4.16-4.48,7.14-9.64,7.7-15.81.66-7.35-.9-14.2-5.57-20.16-1.15-1.46-1.8-3.27-3.14-4.61-1.75-1.76-3.61-3.09-6.27-2.14a3.08,3.08,0,0,1-1.9,0,13,13,0,0,0-3.22-.39c-1.67,0-2-.39-2.2-2.11s-.52-3.32-2.19-4.28a5.12,5.12,0,0,0-7.49,2.46c-.62,1.41-.94,1.57-2.39,1.13-1.18-.35-2.36-.7-3.55-1a7.54,7.54,0,0,0-8.12,2.53,11.68,11.68,0,0,0-2.72,4.86,6.59,6.59,0,0,0,1.64,6.71c2,1.94,4.42,1.91,6.93,1.33.78-.18,1.62-1,2.33-.35s.11,1.68-.11,2.52c-.56,2.13-.51,2.29,1.24,3.57a1.89,1.89,0,0,1-.29,2.54,11.76,11.76,0,0,1-2.9,2c-1.84,1.18-1.86,2.6,0,3.71a2.39,2.39,0,0,1,1.29,2.15,38,38,0,0,0,.31,7.07,1.68,1.68,0,0,1-.34,1.4c-1.1,1.38-1.92,3-3.31,4.13s-1.78,3-2.22,4.74c-.54,2.07-1.49,4-2.18,6a2.49,2.49,0,0,1-1.41,1.45c-2.53,1.06-3.8,3.16-4.75,5.57-.81,2.06-1.75,4.07-2.54,6.14-.19.49-.41,1.17-1.06,1-.5-.12-.5-.79-.51-1.29,0-4,0-8.08,0-12.12,0-.4,0-.79,0-1.19,0-.94-.3-1.11-1.14-.65-2.25,1.23-4.4,2.63-6.64,3.86-1.47.81-2.92,1.63-4.37,2.48s-2,.54-2-1.23c0-.39,0-.78,0-1.18q0-76.47,0-152.95C387,25.07,386.74,24.15,387.37,23.37Z"/><path class="cls-2" d="M50.59,323.77c.46-.56,1.1-.31,1.66-.31,6.76,0,13.52,0,20.28,0a2.41,2.41,0,0,0,2.33-1.19,72.54,72.54,0,0,0,7.86-16.63,35.45,35.45,0,0,0,1.86-11.72c-.13-3-1-6-.86-9.06A37.84,37.84,0,0,1,86.66,272,52.09,52.09,0,0,1,99.1,254.11,58.08,58.08,0,0,1,118.65,242a35.5,35.5,0,0,1,15.47-2.25,62.07,62.07,0,0,1,15.63,3.37c6.74,2.35,13.44,4.78,20.18,7.09a22.2,22.2,0,0,0,7.5,1.34,6.91,6.91,0,0,0,7.23-6.18,51.69,51.69,0,0,0,.07-12.43c-.53-6.25-1.77-12.41-2.19-18.67a95.21,95.21,0,0,1-.53-9.7,49.8,49.8,0,0,1,4.48-20,35.46,35.46,0,0,1,4.89-7.7,3.5,3.5,0,0,0,.68-2.49V136.24a3.16,3.16,0,0,1,.63-2.48,1.48,1.48,0,0,1,.22,1.39,7.5,7.5,0,0,0-.13,2.06q0,86.31,0,172.63c0,3.89,0,7.78,0,11.68a3.72,3.72,0,0,1-.4,2.29c-.88.63-1.9.43-2.87.43H53.44C52.48,324.24,51.45,324.46,50.59,323.77Z"/><path class="cls-3" d="M420.78,142.36c-1.84-.55-2.11-1.09-1.54-2.89a6.39,6.39,0,0,0,.65-3.24c-1.63.54-3.12,1.28-4.85,1.21a6.8,6.8,0,0,1-6.52-8.45,12.84,12.84,0,0,1,4.57-7.07c2.26-1.86,4.8-1.8,7.42-1.08a21.71,21.71,0,0,1,3.36,1.12c1,.44,1.21.16,1.49-.75a4.78,4.78,0,0,1,4.72-3.75c3.66-.15,5.71,1.59,5.89,5.26.07,1.48.47,2,2,1.86a8.24,8.24,0,0,1,3.07.35,2.63,2.63,0,0,0,1.89,0c2.29-1.18,4.14.15,5.66,1.36a8.8,8.8,0,0,1,3.2,4.31,3,3,0,0,0,.67,1,27.66,27.66,0,0,1-2.24,37c-.55.54-.81.94-.36,1.61a.59.59,0,0,1,.06.14,30.32,30.32,0,0,0,5,6.79,9.27,9.27,0,0,1,3.18,7.65,4.68,4.68,0,0,1-1.95,3.51,14.19,14.19,0,0,1-1.69,1.18,1.66,1.66,0,0,0-.64,2.6,28,28,0,0,1,1.47,2.89,4.61,4.61,0,0,1-1.63,6,11.72,11.72,0,0,1-3.79,2,1.28,1.28,0,0,0-1.05,1.21c-.4,2.73-.86,5.45-1.24,8.18a15.39,15.39,0,0,0,.22,5.15,19.13,19.13,0,0,1,.44,5.28,2.27,2.27,0,0,0,.34,1.41c2.92,4.83,2.83,10,1.93,15.32-1,5.94-3.73,11.17-6.12,16.57-1.05,2.38-1.89,4.88-3.15,7.16-1.78,3.23-1.82,6.6-1.35,10,1.2,8.74,2.89,17.4,4.39,26.09a11.34,11.34,0,0,0,.36,2,6.29,6.29,0,0,1-.92,5.74,3.55,3.55,0,0,0-.44,2.39c.46,4.71.86,9.42,1.28,14.14.28.42.6.84.31,1.39a13.14,13.14,0,0,1,2.93,8.62,4.56,4.56,0,0,1-2.44,4.42c-1.7.87-3.14,0-4.52-.94a1.84,1.84,0,0,1-.46-.36c-1.43-1.88-3.05-3.42-5.59-3.6-.32,0-.68-.42-.88-.74a16.22,16.22,0,0,1-2.22-5.12,2.33,2.33,0,0,1,.54-2.23c-1.33-.41-1.88-.08-1.85,1.3a29.75,29.75,0,0,1-.26,3.38c-.1,1.15-.45,2.34.94,3.09a1.44,1.44,0,0,1,.54,1.47c-.28,1.81.3,3.51.61,5.24.64,3.56-1.54,6.12-5.17,6a15,15,0,0,1-4.35-.76c-3.45-1.15-6.9-2.31-10.32-3.54a11.64,11.64,0,0,1-4.79-3.37c-1.63-1.87-1.23-3.58,1.08-4.53a21.77,21.77,0,0,1,5.46-1.26c2.23-.28,4-1.54,6-2.37.58-.24.56-.74.54-1.25,0-1.18-.07-2.36-.1-3.54a3.1,3.1,0,0,1-.63-1.45,34.55,34.55,0,0,1-.11-4.88,2.84,2.84,0,0,0-1.67-2.87c-2.16-1-3-2.6-3.28-5q-.9-8.16-1.28-16.35c-.2-4.28-.67-8.54-1-12.81-.36-5.46-.72-10.91-1.18-16.35-.64-7.68-.59-15.37-.47-23a145.58,145.58,0,0,1,1.15-15.45,1.35,1.35,0,0,1,.56-.84c.77-.2,1.31.31,1.88.67a31.25,31.25,0,0,0,9.31,4,25.53,25.53,0,0,0,18.32-2.53c.43-.23.83-.53,1.24-.8,2.95-1.91,4.39-4.47,3.41-8-1.25-4.59-.22-9.1.47-13.62.18-1.14.09-1.75-1.23-1.88a6.6,6.6,0,0,1-4.8-2.87c-.76-1-1.51-1.12-2.45-.29-.29.26-.61.5-.92.74a2.91,2.91,0,0,1-4.14-.22,10.69,10.69,0,0,1-3.19-7.28,23.62,23.62,0,0,1,.11-6.34,17.22,17.22,0,0,1,3.75-7.13,32.21,32.21,0,0,1,6.43-5.85c2.72-2,2.74-2.31-.25-3.94a3.1,3.1,0,0,1-.61-.41,5.61,5.61,0,0,0-2.58-1.57,3.51,3.51,0,0,0-2.07-.32c-.66-.09-.73-.44-.45-1,0-.82-.91-.63-1.2-1.13a2,2,0,0,1-.24-.59c-.84-2-2.08-3.86-2.06-6.14,0-.74,0-1.48,0-2.21a3.15,3.15,0,0,1,1.09-2.59,6.49,6.49,0,0,0,.77-8.25,4.19,4.19,0,0,0-1.3-1.18c-.63-.38-1-.2-1.19.5l-.06.28c-.21.8-.22,1.83-1.22,2a2.45,2.45,0,0,1-2.54-1.41c-.71.46-.66,1.63-1.7,1.72A2.82,2.82,0,0,1,424,145l.16-.24c.87-1.34.87-1.34-.76-1.54-.14,0-.28-.06-.41-.09A4.44,4.44,0,0,1,420.78,142.36Z"/><path class="cls-3" d="M192.35,323.7c0-4.73,0-9.46,0-14.19q0-85.92,0-171.82a6.63,6.63,0,0,1,.2-2.77c.7.05.68.61.72,1.08a20.38,20.38,0,0,1,0,2.07V307.73c0,.54,0,1.09,0,1.63s.26,1.09,1,.76a90,90,0,0,1,9.23-5.56q13.4-7.72,26.78-15.45,19-10.92,37.93-21.86c.38-.23.75-.48,1.14-.69a1.47,1.47,0,0,0,.82-2c-1.74-5.38-1.4-10.79-.22-16.2.75-3.42.59-6.87.57-10.31a2.49,2.49,0,0,0-1.66-2.54,5.6,5.6,0,0,1-3.19-3.65,99.82,99.82,0,0,1-5-17.3,38.42,38.42,0,0,1-.12-11.33,2.68,2.68,0,0,1,.28-.84,17.84,17.84,0,0,0,.84-4.39c.07-.64-.06-1.5,1.06-1.27a9.62,9.62,0,0,1,2.54,2.21c4.63,4.61,10.3,6.29,16.68,5.93,2.25-.13,2.49-.47,2.49-2.69,0-1.23,0-2.46,0-3.68a2.61,2.61,0,0,0-1-2.47c-.35-.69,0-1,.65-1.07a3.32,3.32,0,0,1,1.28.22,30.84,30.84,0,0,1,3.45,1.95,3.83,3.83,0,0,0,3.1.43c2.06-.56,4.13-1.11,6.42-1.71a36.93,36.93,0,0,0-4.39-2.11c-.35-.19-.72-.33-1.06-.52s-.64-.48-.52-.94.52-.55.93-.53a9.66,9.66,0,0,1,2.29.54c-.13-.29-.51-.4-.63-.72s-.27-.71.22-.93c1.25-.06,2.64.65,2.85,1.47.37,1.44,1.41,2.27,2,3.42.48.87,0,1.62-1.14,2-.9.28-1.85.28-2.77.49s-1.57.75-1.48,1.84a3.92,3.92,0,0,1,0,.59c-.19,2.1-.14,2.11,1.84,1.55,3.86-1.1,7.26-2.83,9.32-6.49a1.28,1.28,0,0,1,.54-.49c.75-.28,1,.19,1,.77a3.61,3.61,0,0,0,.61,1.86,20.53,20.53,0,0,1,.9,8.16,119.72,119.72,0,0,1-2,15.66c-.55,2.85-1.21,5.68-1.85,8.52a3.26,3.26,0,0,1-1.75,2.25c-.82.44-1.68.83-2.46,1.34a2.76,2.76,0,0,1-2.18.91,28.22,28.22,0,0,1-8.85,3.2c-.47,0-1,0-1.21-.53.14-.75.84-.91,1.35-1.27,5.12-3.59,8.7-8.24,10-14.47,0-.19,0,.05,0-.14.32-2.62.42-5.25-2-7-2.23-1.61-4.68-1-6.87.1a21.67,21.67,0,0,0-12,16.57c-.41,2.52.22,4.93,2.72,6.38.29.17.7.37.62.75s-.59.44-1,.49-.6,0-.89,0c-2.52.2-4.86-.65-7.26-1.21-1.29-.3-1.38-.25-1.25,1a31.93,31.93,0,0,1-.42,9.56c-.45,2.32-.9,4.65-1.12,7a23.5,23.5,0,0,0,1.1,8.89c.18.61.5,1,1.16.64,4.09-2.48,8.42-4.53,12.34-7.29a.82.82,0,0,0,.19-.22c.58-1.28.14-2.62.29-3.93.07-.63-.23-1.73.55-1.73s.46,1.11.56,1.75c.16,1-.34,2.14.31,3.12,2.41-1,4.48-2.53,6.75-3.74,1.07-.57,2.12-1.19,3.17-1.81.63-.45,1.53-.39,2-1.08,2.89-2,6-3.58,9-5.34,9.2-5.37,18.46-10.63,27.68-16,4.65-2.7,9.28-5.43,14-8a3.27,3.27,0,0,0,2-3.4c-.13-2.85,0-5.72-.05-8.58a3,3,0,0,1,1.6-3.07c1-.52,1.08-1.41,1.09-2.39,0-2.61.44-3.16,3-4.07.49,0,1.08-.4,1.39.33-.07.76-.71,1-1.26,1.3a2.38,2.38,0,0,0-1.44,2.62c.06.88,0,1.77,0,2.65s.25,1,1,.64,1.57-1.23,2.65-1.15c.53.18.46.54.3.93-1,1.29-2.67,1.62-3.88,2.61a2.35,2.35,0,0,0-.37,1.69q0,24.38,0,48.75a6.52,6.52,0,0,0,.55,2.4c-.08.59-.35,1.09-1,1.05s-.81-.63-.89-1.19a12.19,12.19,0,0,1,0-1.48V245c0-1.69-.09-1.76-1.57-.89q-8.62,5-17.29,10c-12.37,7.08-24.66,14.29-37.05,21.32-1.29.73-2.53,1.54-3.84,2.22a3.32,3.32,0,0,0-1.68,2.14c-.66,2.28-1.15,4.6-1.79,6.87-.26.93.21,1.39,1,1.68,1.71.63,3.39,1.35,5.14,1.87a5.59,5.59,0,0,1,1.88.84,2.62,2.62,0,0,1,1.34,2.33,2.53,2.53,0,0,1-2,2.13,12.47,12.47,0,0,1-5.26.43,34.64,34.64,0,0,1-5.33-1.24c-.9-.3-1.27-.14-1.24,1a18.94,18.94,0,0,1-1.82,8.6,3.12,3.12,0,0,1-2.84,2.05,3.08,3.08,0,0,1-2.9-1.95c-1.38-2.74-.95-5.57-.23-8.36.37-1.48.78-3,1.24-4.41a4.72,4.72,0,0,0-.34-3.59c-.61-1.28-.74-1.34-2-.65-3.45,1.91-6.82,3.95-10.25,5.91-12.79,7.31-25.54,14.72-38.32,22.08-4.86,2.8-9.77,5.54-14.55,8.5a20.19,20.19,0,0,1-2.56,1L200,331.79c-2.21,1.26-4.44,2.52-6.62,3.84-.89.53-1.06.28-1.06-.63,0-3.35,0-6.69,0-10A1,1,0,0,1,192.35,323.7Z"/><path class="cls-4" d="M359.9,206c0-.23.27-.5-.1-.68.12-1,1-1.17,1.65-1.53,6.36-3.58,12.65-7.27,19-10.91S393,185.65,399.25,182a2,2,0,0,0,1.11-1.91c0-1,0-2.07,0-3.1s-.16-1.19-1.05-.65c-3.21,1.94-6.5,3.73-9.74,5.61-9.72,5.65-19.47,11.23-29.19,16.87-.5.28-1,.68-1.65.39-.37-.65-.85,0-1.26-.1,0-.8.65-1,1.2-1.36,8.65-4.92,17.22-10,25.89-14.89a2.5,2.5,0,0,0,1.5-2.48c0-.59,0-1.18,0-1.78q0-53.37,0-106.76,0-23.07,0-46.14a11.65,11.65,0,0,0-.08-2.21c-.67-2.19-2-2.92-4.32-2.24a19,19,0,0,0-3.92,2c-13.26,7.68-26.57,15.29-39.84,23q-17.46,10.11-35,20.17-19,11-38.05,21.93c-7.13,4.11-14.24,8.26-21.38,12.35-12.27,7-24.48,14.19-36.77,21.18-1.93,1.1-3.84,2.22-5.75,3.35a15.18,15.18,0,0,0-7.05,8.78,10.34,10.34,0,0,0-.32,2.93c0,11.83,0,23.67,0,35.5.15,44.92,0,89.85.07,134.77a8.85,8.85,0,0,1,0,1,1.52,1.52,0,0,0,1.28,1.82,1.37,1.37,0,0,1-1.69.83c-.7-.26-.37-1.05-.37-1.59q0-86.31,0-172.62c0-.6.26-1.29-.31-1.81l.07-1.16a18.2,18.2,0,0,1,8.59-10.1Q290.13,72.51,378.92,21.25a17.61,17.61,0,0,1,1.84-.93c3.29-1.41,5.59-.34,6.61,3.05q0,23.6,0,47.18,0,54.74,0,109.47c0,.47-.26,1.1.18,1.38s.9-.26,1.3-.5c3.81-2.17,7.59-4.37,11.39-6.55,1.36-.78,1.45-.73,1.44.79,0,4.48-.06,9-.08,13.45a2.3,2.3,0,0,0,.31,1.66c.29-.78.5-1.39.75-2,.89-2.14,1.84-4.25,2.67-6.41a8,8,0,0,1,4.59-4.73,1.48,1.48,0,0,0,1-1c.8-2.58,2-5,2.67-7.64a8.09,8.09,0,0,1,2.29-3.88,40.19,40.19,0,0,0,3-3.81,1.06,1.06,0,0,0,.18-1,27.14,27.14,0,0,1-.43-7.36c0-.81-.13-1.3-1-1.52a2,2,0,0,1-1.62-1.86,2.5,2.5,0,0,1,1.19-2.4c.83-.53,1.74-.93,2.56-1.47,1.32-.87,1.58-1.76.92-2.91.78.3,1.71,0,2.42.59-.76.6-1,1.55-1.6,2.28a12.9,12.9,0,0,1-3.07,2.28c-1.35.92-1.34,1.76.11,2.47a2.18,2.18,0,0,1,1.32,2.64,16.34,16.34,0,0,0,.52,7.16c.6,2.31,1.48,2.85,3.83,2.86a6,6,0,0,0,1,0c2.31-.44,2.43.16,2.43,2.38s0,2.15,2,1.33c1.29-.55,2.61-1.21,4.1-.7l0,.7c-.16.8-.88.66-1.39.78a12.19,12.19,0,0,0-5.21,2.55,31.19,31.19,0,0,1,7.1-2.37,1,1,0,0,1,1,.16c0,.23-.77.56.09.67-.17.68-.79.69-1.29.81-7.22,1.74-13.35,5.49-18.92,10.27a10.5,10.5,0,0,0-2.36,2.82c-3.19,5.67-6.84,11.06-10.15,16.67-1.62,2.74-3.49,5.38-4,8.65a5.35,5.35,0,0,0,2.69,5.59c1.92,1,3.58.55,5.42-1.27s3.48-3.91,5.37-5.7c2.1-2,1.46-4.44,1.35-6.8a16.8,16.8,0,0,1-.12-2.65c.05-.5.12-1,.78-1.07s.79.53.82,1c.22,4.17.59,8.34-.09,12.52a60.83,60.83,0,0,1-2.08,9.22c-.85,2.6-1.88,5.26.13,7.84a.83.83,0,0,0-.43.7,3,3,0,0,1-2.29-2.59,4.93,4.93,0,0,0-1.57-2.75,6.31,6.31,0,0,1-1.72-2.55,4.78,4.78,0,0,1,1.63-5.93,32,32,0,0,0,3.77-3.31,3.2,3.2,0,0,0,1-2.43,8,8,0,0,0-1.8,1.79c-1.18,1.52-2.62,2.8-3.91,4.23a5.17,5.17,0,0,1-3.94,1.74c-1.66,0-1.7.08-1.7,1.81,0,5.71,0,11.43,0,17.14a3.24,3.24,0,0,1-1.83,3.2q-15.88,9.14-31.76,18.3c-3.45,2-6.93,3.94-10.36,6-.61.36-1.2.93-2,.59-1-1.82-.61-3.8-.61-5.71q0-23.22,0-46.42c0-.71-.34-1.69.93-1.78a39.19,39.19,0,0,0-.22,6q0,22.13,0,44.24c0,2.18.09,2.24,1.93,1.17,10.3-6,20.68-11.92,31-17.92,3.15-1.83,6.26-3.76,9.51-5.42a2.85,2.85,0,0,0,1.74-2.91c-.07-5.72,0-11.44,0-17.16a3.39,3.39,0,0,0-1.15-2.72,8.2,8.2,0,0,1-2.49-7.54,45.18,45.18,0,0,1,2.66-9.69,15,15,0,0,0,1-5.92c-.07-1.78,0-3.55,0-5.33,0-1.33-.2-1.46-1.34-.81-3,1.69-5.9,3.39-8.85,5.09-9.45,5.44-18.87,10.91-28.33,16.33C361.22,205.83,360.68,206.39,359.9,206Z"/><path class="cls-5" d="M175.62,109.28c-.22,6-2.43,11.11-5.62,15.89-3.68,5.5-8.27,10-14.38,12.79a17.82,17.82,0,0,1-4.23,1.28c-6,1-10.53-2.65-10.78-8.72-.24-5.85,1.79-11,4.75-15.89,3.73-6.14,8.6-11.13,15.23-14.17a14.91,14.91,0,0,1,6-1.45,8.34,8.34,0,0,1,8.86,7.72C175.55,107.6,175.57,108.49,175.62,109.28Z"/><path d="M212.2,324.9a3.77,3.77,0,0,1,2.39-1.16,4.67,4.67,0,0,1,2.72-.48H417.08c1.05,0,2.18-.28,3.14.46.46.33.33.81.33,1.26-.74,0-1.48-.05-2.22-.05H215.16C214.17,324.94,213.19,324.92,212.2,324.9Z"/><path d="M192.35,323.7V325l-1.92,0H52.05c-.8,0-1.82.28-1.46-1.17q12.72,0,25.45,0H190.42Z"/><path d="M444.86,325.06a2.52,2.52,0,0,1-.31-1.39c.5,0,1,.05,1.48.05h58.55a1.82,1.82,0,0,0,1.73-.23,3.58,3.58,0,0,1,1.92,0,2.16,2.16,0,0,0,2,.21l57.44,0c.59,0,1.18,0,1.77,0,.28,1.22-.48,1.17-1.34,1.17q-24.48,0-49,0H446.77C446.13,324.94,445.5,325,444.86,325.06Z"/><path class="cls-6" d="M109.57,345.27c.24.22.46.39.66.59,1.84,1.82,3.65,3.68,5.51,5.47.68.65.57,1.07,0,1.67-1.82,1.76-3.63,3.55-5.39,5.38-.6.63-1,.54-1.51,0-1.81-1.85-3.66-3.66-5.49-5.5-.32-.32-.83-.6-.25-1.17,2-2,4-4,6-6C109.21,345.54,109.37,345.43,109.57,345.27Z"/><path class="cls-6" d="M240.65,29.56c.24.22.47.39.67.59,1.66,1.66,3.29,3.34,5,5,.61.58.62.92,0,1.51-1.7,1.61-3.36,3.28-5,5-.53.55-.88.59-1.42,0-1.67-1.72-3.38-3.4-5.08-5.08-.4-.39-.6-.72-.1-1.21,1.81-1.78,3.6-3.59,5.4-5.38A5.56,5.56,0,0,1,240.65,29.56Z"/><path class="cls-6" d="M266.71,41.2c.23.2.47.37.67.57,1.7,1.69,3.38,3.4,5.09,5.07.47.46.58.77,0,1.29-1.76,1.7-3.49,3.42-5.19,5.18-.5.52-.81.46-1.29,0-1.7-1.75-3.44-3.46-5.17-5.18-.32-.32-.65-.57-.16-1.06,1.85-1.81,3.67-3.65,5.51-5.47A4.45,4.45,0,0,1,266.71,41.2Z"/><path class="cls-6" d="M97.49,365c-.21-.18-.4-.32-.57-.49-1-1-1.91-1.93-2.89-2.88-.39-.37-.48-.66,0-1.07,1-.94,2-1.9,2.89-2.89.52-.55.84-.37,1.32.06,3.6,3.24,3.6,3.63-.09,6.78Z"/><path class="cls-4" d="M262.39,0a2.55,2.55,0,0,1,2.73,2.59,2.71,2.71,0,0,1-2.78,2.75,2.67,2.67,0,0,1-2.64-2.73A2.53,2.53,0,0,1,262.39,0Z"/><path class="cls-7" d="M394.25,95.3a28.33,28.33,0,0,1,4.57-13.69c3.69-5.87,8.33-10.73,14.84-13.48A12.19,12.19,0,0,1,419.84,67c5.79.7,7.86,5.23,7.36,10.14-1.12,11-7.09,19.21-16.23,25.14a14.23,14.23,0,0,1-9.77,2.54,7.16,7.16,0,0,1-6.12-4.85A12.86,12.86,0,0,1,394.25,95.3Z"/><path class="cls-8" d="M506.11,323.73c-.52,1-1,.89-1.53,0a63.21,63.21,0,0,0-1-6.71c-.12-.64-.42-.78-1-.74a26.74,26.74,0,0,1-3.1.08,5.73,5.73,0,0,1-4.16-2,2.64,2.64,0,0,1-.22-3.4,2.46,2.46,0,0,1,3.08-.68,9,9,0,0,1,4.85,4.57,36.92,36.92,0,0,0-2.1-8c-.32-.84-.89-.39-1.35-.29-1.84.4-3.66.81-5.5,0a4.2,4.2,0,0,1-2-1.49,2.53,2.53,0,0,1-.18-2.66,2.27,2.27,0,0,1,2.33-1.24c2.1.13,3.66,1.33,5.39,2.51-1.25-2.51-2.48-5-3.74-7.51-.25-.48-.69-.27-1.06-.17a14.57,14.57,0,0,1-3.34.55,5.9,5.9,0,0,1-3.86-1.26,2.64,2.64,0,0,1-.84-3.3,2.48,2.48,0,0,1,3-1.23,10.7,10.7,0,0,1,4.61,2.65c-.84-2.57-2.12-4.62-2.53-7a.2.2,0,0,1,.32,0,61.09,61.09,0,0,0,3.79,8.22,11.34,11.34,0,0,1,1-4.41,8.67,8.67,0,0,1,1.91-2.61c1-.86,2.14-1.25,3.36-.36a2.71,2.71,0,0,1,.69,3.47A6.55,6.55,0,0,1,499.2,294c-1,.41-2.65.22-2.88,1.26-.18.81.87,1.89,1.37,2.85q1.46,2.82,2.92,5.64s.08,0,.27.11a8.77,8.77,0,0,1,1.19-4.33,7.75,7.75,0,0,1,1.67-2.06,2.47,2.47,0,0,1,3.26-.3,2.55,2.55,0,0,1,.78,3.31,6.46,6.46,0,0,1-4,3.49c-.87.31-2.23.2-2.49,1s.52,1.7.87,2.56c.85,2.08,1.3,4.3,2,6.42a8.9,8.9,0,0,1,1.95-5.94,2.49,2.49,0,0,1,2.58-1.08,2.66,2.66,0,0,1,2,2.14c.27,1,.69,1.94,1,2.93a7.45,7.45,0,0,1,.18,3.81,33.15,33.15,0,0,0,2.75-8c.15-.66-.39-.7-.77-.85a11.17,11.17,0,0,1-3.78-2,5.73,5.73,0,0,1-1.69-2.56,2.59,2.59,0,0,1,1-3.14,2.39,2.39,0,0,1,3.22.45c1.38,1.3,2,3,2.67,4.79.36-2.71.7-5.42,1.08-8.13.09-.62-.28-.73-.71-.91-1-.44-2.11-.85-3.1-1.38a5.33,5.33,0,0,1-2.66-3.4,2.54,2.54,0,0,1,1.07-3,2.32,2.32,0,0,1,3.09.41c1.41,1.28,2,3,2.59,5.19.26-1.34.43-2.3.64-3.25.3-1.39.55-2.81,1-4.16.26-.8,0-1-.66-1.27-.84-.28-1.66-.63-2.47-1a6,6,0,0,1-2.54-2.19c-1.24-1.85-1.1-3.63.36-4.57s2.87-.28,4.06,1.55a9.79,9.79,0,0,1,1.72,5.64l1.6-3.52.29.1-1.5,3.86a11.39,11.39,0,0,1,4.12-3.14,10.58,10.58,0,0,1,1.39-.51c1.87-.49,3.24,0,3.72,1.43s-.37,2.93-2.17,3.66a7.69,7.69,0,0,1-5.9-.31c-1.14-.45-1.5-.1-1.74,1a57.3,57.3,0,0,0-1.28,7.95c.64-.07.79-.6,1.06-.93a8.63,8.63,0,0,1,5.15-3,2.47,2.47,0,0,1,3,1.34,2.62,2.62,0,0,1-1.08,3.35,6.45,6.45,0,0,1-5.53.66c-2.64-.73-2.68-.7-3,2.07-.27,2.37-.49,4.75-.77,7.48a9.29,9.29,0,0,1,5.26-3.85c1.91-.55,3.33,0,3.8,1.48s-.37,2.86-2.11,3.57a7.93,7.93,0,0,1-5.92-.25c-.91-.34-1.28-.25-1.43.8a46,46,0,0,1-2.13,7.95,10.41,10.41,0,0,1,4.1-3.36c1.73-.79,3.23-.46,3.92.8s.13,3-1.53,4a7.53,7.53,0,0,1-5.74.63c-1.26-.27-1.73.08-2.11,1.24-.56,1.73-1.32,3.39-2,5.08-.56.64-1.11,1.29-1.72.06a19.16,19.16,0,0,1,1.77-4.5c.85-2,.86-2.06-1-3.12-.91-.51-1.65-1.66-3-.92a1.57,1.57,0,0,0-1,2c.36,1.53.63,3.09.87,4.65A3.34,3.34,0,0,1,506.11,323.73Z"/><path class="cls-8" d="M492.17,286.47h-.32c-.25-.44-.51-.86-1.13-.67,0-.31.38-.49.28-.83.5-.84-.16-1.56-.23-2.34a32.75,32.75,0,0,1-.37-5.14c.05-.87-.25-1.25-1.17-1.22a16.19,16.19,0,0,1-2.5-.19,5.9,5.9,0,0,1-4.42-2.61,2.51,2.51,0,0,1,.12-3.16,2.44,2.44,0,0,1,3.1-.53c1.89.8,3.43,2.75,4.59,5.82l.85-1.05a17,17,0,0,1,1.6,1.58c-2,.58-2.11.59-1.82,2.85s.22,4.32,1.34,6.26a.61.61,0,0,1,.79.08C492.36,285.53,492,285.82,492.17,286.47Z"/><path class="cls-8" d="M523.26,277c-1.47-1.22-3.19-2.14-4.41-3.65a6.1,6.1,0,0,1-1.05-2.1c-.57-1.9.1-3.58,1.62-4s2.84.45,3.47,2.39a8.06,8.06,0,0,1,.24,5.33c-.13.36-.34.75.1,1.07A.68.68,0,0,1,523.26,277Z"/><path class="cls-8" d="M529.62,269.93c-2,.1-2,.11-1.49-1.52a8.39,8.39,0,0,1,3.72-4.78c1.38-.87,2.61-.76,3.49.22a2.75,2.75,0,0,1-.1,3.65A7,7,0,0,1,529.62,269.93Z"/><path class="cls-8" d="M492.88,285.33l-.79-.08a8.52,8.52,0,0,1,2.42-6.57c1.21-1.26,2.59-1.5,3.67-.71a2.9,2.9,0,0,1,.46,4C497.32,284.09,495.22,284.92,492.88,285.33Z"/><path class="cls-8" d="M491,285c.3.41,0,.61-.28.83a9.11,9.11,0,0,1-5.65.36,5.3,5.3,0,0,1-1.82-1,2.7,2.7,0,0,1-.82-3.32,2.43,2.43,0,0,1,3-1.2A8.1,8.1,0,0,1,491,285Z"/><path class="cls-8" d="M523.26,277l0-1a12.73,12.73,0,0,1,4-2.49,7.68,7.68,0,0,1,2.6-.44,2.37,2.37,0,0,1,2.52,1.85,2.55,2.55,0,0,1-1.29,2.89,5.7,5.7,0,0,1-4.29.61A9.71,9.71,0,0,1,523.26,277Z"/><path class="cls-8" d="M490.86,268.07a9.14,9.14,0,0,1-.15-7.42c.67-1.55,1.84-2.24,3.08-1.91a2.87,2.87,0,0,1,1.94,3.39C495.29,265.07,493.11,266.57,490.86,268.07Z"/><path class="cls-8" d="M492.57,276.14c-1,0-1.38-.74-1.6-1.58a7.2,7.2,0,0,1,3.68-5.23,2.2,2.2,0,0,1,2.85.36,2.5,2.5,0,0,1,.46,3.13A6.19,6.19,0,0,1,492.57,276.14Z"/><path class="cls-2" d="M420.22,323.73H215.48l-.89,0c.07-.62.64-.7,1-.92q31.27-18.06,62.53-36.12c1.08-.62,1.4-.37,1.91.64a6.45,6.45,0,0,1,.33,5.25c-1,3-2,6.07-1.65,9.37a5.91,5.91,0,0,0,.8,2.35,3,3,0,0,0,2.57,1.72,2.73,2.73,0,0,0,2.44-1.86,17.8,17.8,0,0,0,1.8-8.41c0-2-.14-2.06,1.88-1.39a21,21,0,0,0,8.43,1.12H297c1.84-.13,3.23-1,3.34-2.17s-1-2.05-2.78-2.65c-2.05-.7-4.06-1.5-6.09-2.23a1,1,0,0,1-.72-1.49c.74-2.65,1.47-5.32,2.14-8,.21-.84.85-1.16,1.48-1.52q16.76-9.68,33.51-19.33c8.61-5,17.24-9.89,25.84-14.87,1.06-.61,1.34-.59,1.33.75-.06,5.77,0,11.54,0,17.32,0,.37-.17.86.23,1.09s.61-.18.85-.42c4.17-2.12,8.14-4.6,12.19-6.92,10.69-6.14,21.34-12.32,32-18.44a2.27,2.27,0,0,0,1.35-2.31c-.05-6.12,0-12.23-.05-18.35,0-1.06.17-1.47,1.37-1.34a5.53,5.53,0,0,0,4.74-2c1.95-2.15,3.91-4.28,6.07-6.63.09,1.43.13,2.53-.78,3.46a30.93,30.93,0,0,1-3.44,3.23c-3.38,2.58-3.5,5.94-.27,8.78a3,3,0,0,1,1.29,2.44c0,1.3,1.16,2,2,2.83a215.43,215.43,0,0,0-.74,36.89c1,13.31,1.83,26.63,2.79,39.95.21,2.89.66,5.77.94,8.66a2.51,2.51,0,0,0,1.62,2.39c2.56.95,3.45,2.8,3.12,5.42C420.12,321.27,420.52,322.51,420.22,323.73Z"/><path class="cls-9" d="M413,226.05c-1.88-1.43-1.88-3.3-1.27-5.32a68.68,68.68,0,0,0,3.1-14.27c.29-3.41-.16-6.79-.15-10.19,0-.29,0-.67-.38-.69s-.48.39-.47.74c.08,2.26.15,4.53.27,6.8a2.58,2.58,0,0,1-.76,2.11c-2.09,2.23-4.11,4.53-6.2,6.76a4.94,4.94,0,0,1-5.61,1.5,5.73,5.73,0,0,1-3.29-5.34,12.91,12.91,0,0,1,2.09-6.1c3.26-5.4,6.83-10.63,9.81-16.18,4.85-9,12.85-13.66,22.09-16.78,1.07-.36,2.16-.65,3.25-1a1.84,1.84,0,0,1,1.92.29,18.77,18.77,0,0,1,2.73,1.45c.82.45,1.65.88,2.45,1.36,1.31.79,1.4,1.35.24,2.36-1.38,1.19-2.9,2.22-4.29,3.4-3.45,2.9-6.45,6.2-7.39,10.76a17.37,17.37,0,0,0,1.24,11,6.55,6.55,0,0,0,1.77,2.34,2.57,2.57,0,0,0,3.51.09c.5-.39,1-.81,1.47-1.24a1.19,1.19,0,0,1,2.07.29,6.39,6.39,0,0,0,6.06,3.26c.82-.05.86.37.73,1-.26,1.4-.46,2.82-.73,4.22a27.08,27.08,0,0,0,.1,11.16,6.57,6.57,0,0,1-3.13,7.48c-7.82,5.11-16,5.82-24.67,2.36A35.12,35.12,0,0,1,413,226.05Z"/><path class="cls-9" d="M426.59,344.65a18.76,18.76,0,0,1-4.78-1c-3.09-1.05-6.17-2.11-9.23-3.24a10.81,10.81,0,0,1-4.08-2.77c-1.55-1.62-1.29-2.76.84-3.57a17.43,17.43,0,0,1,4.14-.91,15.43,15.43,0,0,0,5.36-1.79c1.84-1,1.87-.91,2,1.1a6.53,6.53,0,0,0,.81,2.93,3.68,3.68,0,0,0,5.8,1.27,5.14,5.14,0,0,0,2.19-2.82c.06-.23,0-.52.37-.53s.39.23.5.44c0,.05.06.1,0,.14-.37,2.52.91,4.87.75,7.35C431.13,343.41,429.4,344.68,426.59,344.65Z"/><path class="cls-9" d="M433.84,165.63a13.15,13.15,0,0,0-5.42,1.78c-.71.47-.95.27-.94-.52,0-1,0-2.07,0-3.1,0-.71-.23-1-1-.91-1.08.09-2.16.07-3.25.11a2.69,2.69,0,0,1-2.67-1.7c-1.28-2.59-1.2-5.36-1.09-8.11.06-1.51.22-2.75-1.8-3.13-1.06-.19-1.08-1.71-.06-2.49a18.35,18.35,0,0,1,2.27-1.35,3.68,3.68,0,0,0,2-2.42c.15-.84.63-.85,1.23-.84h0c.56.35,1.26-.1,1.85.33a5.53,5.53,0,0,1-.71,1.7c-.52,1.37.18,2.37,1,3.31.87.57.63,1.48.62,2.28a5.08,5.08,0,0,0,1.3,3.63,3.67,3.67,0,0,0,3,1.35c1,0,1.51.4,1.42,1.5a6.76,6.76,0,0,0,.07,2.33,11.82,11.82,0,0,0,1.59,5.07C433.53,164.82,433.91,165.13,433.84,165.63Z"/><path class="cls-9" d="M421.84,314.46c.2.58.34.89.42,1.22.58,2.42.08,2.56,3.39,2.3a17.78,17.78,0,0,0,3.65-.55c1-.3,1.08,0,1,.82-.35,3.73-.67,7.46-1,11.19-.1,1.18-.2,2.36-.27,3.54a2.79,2.79,0,0,1-.67,1.76c-1.08,1.18-2.18,2.37-4,1.95-1.42-.33-2.53-2.08-2.64-4.08-.26-4.77-.47-9.55-.76-14.32A7.36,7.36,0,0,1,421.84,314.46Z"/><path class="cls-9" d="M442.36,309.59a25.59,25.59,0,0,1,.6,4.93c.4,3.62.68,7.25,1,10.87a5.85,5.85,0,0,1,0,1.62,3.24,3.24,0,0,1-2.53,2.36c-1.6,0-3.66-1.24-3.87-2.43a117.58,117.58,0,0,0-3.33-12.68c-.27-.93-.07-1.2.77-1.4C437.58,312.22,440.19,311.53,442.36,309.59Z"/><path class="cls-9" d="M445.11,326.43c1.19,3.08,2.43,5.77,1.55,8.8-.66,2.26-2.47,2.89-4.52,1.76a5.26,5.26,0,0,1-2.21-1.9,4.68,4.68,0,0,0-3.84-2.4,2.42,2.42,0,0,1-2.07-1.63,19.19,19.19,0,0,1-1.47-3.69c-.3-1.59.34-2.15,1.92-2,1.36.11,2.07.44,2.4,2,.43,2.09,2.51,2.5,4.3,2.78,1.57.24,2.51-.89,3.24-2.13C444.63,327.65,444.76,327.23,445.11,326.43Z"/><path class="cls-7" d="M431.75,159.37a5.58,5.58,0,0,1-.18-2.44c0-.73-.19-1-1-1a4.86,4.86,0,0,1-5-4.9,9.13,9.13,0,0,0-.16-2.76c.78-.68.79-1.91,1.8-2.56.48.41,0,1.13.58,1.54,1.36,1,2.16.72,2.54-1,.47-2.17,1-2.32,2.67-.79,2.32,2.12,2.62,6.73.27,9a4.49,4.49,0,0,0-1.42,4A6.36,6.36,0,0,1,431.75,159.37Z"/><path class="cls-10" d="M440.25,247.52c.73.29.36.81.22,1.23-.9,2.7-1.86,5.4-2.76,8.11q-1.87,5.67-3.71,11.37a13.63,13.63,0,0,0-.64,4.36c.07,12.13.47,24.25.82,36.37,0,.59.35,1.65-.35,1.67-.94,0-.52-1.08-.54-1.66-.3-11.14-.52-22.28-.85-33.42a27.46,27.46,0,0,1,1.42-10c2-5.62,3.81-11.29,5.7-16.94C439.7,248.19,439.74,247.71,440.25,247.52Z"/><path class="cls-11" d="M445.43,125.76c.28.15.78.28.8.46,0,.39-.39.44-.73.51-5.85,1.22-9.65,5-12.49,10a34.41,34.41,0,0,0-3.5,9.2c-.1.43-.12.95-.77.83s-.53-.5-.46-.92c1.23-8.07,4.49-14.85,12-18.88a6.84,6.84,0,0,1,2.31-.93C443.55,125.79,444.45,125.34,445.43,125.76Z"/><path class="cls-2" d="M433.25,323.68c-2.58,0-2.59,0-2.41-2.51.07-1,.26-2.06.26-3.09a2.78,2.78,0,0,1,1.36-2.42c.83-.63,1.17-.71,1.46.42.53,2.1,1.11,4.19,1.76,6.25.35,1.13.08,1.53-1.1,1.36A9.81,9.81,0,0,0,433.25,323.68Z"/><path class="cls-2" d="M435.35,167.45a55.32,55.32,0,0,0-9.36,3,13.89,13.89,0,0,1,7.89-4.09C434.47,166.59,435.53,166.21,435.35,167.45Z"/><path class="cls-12" d="M448.7,170.21l.25.1a10.69,10.69,0,0,1,1.17,3.87.51.51,0,0,1-.26.28c-.45.15-2.12-1.08-2.21-1.69a3.27,3.27,0,0,1,.91-2.53S448.65,170.22,448.7,170.21Z"/><path class="cls-4" d="M424.34,145c.49-1.65.49-1.65-1.14-2a.93.93,0,0,1,.29,0c.58.09,1.43-.35,1.68.36A1.63,1.63,0,0,1,424.34,145Z"/><path class="cls-4" d="M440.09,169.86a8.65,8.65,0,0,1-2.73-1.45A3.93,3.93,0,0,1,440.09,169.86Z"/><path class="cls-2" d="M445.43,125.76l-2.8.24C443.53,125.59,444.42,124.93,445.43,125.76Z"/><path class="cls-2" d="M195,310.11a.93.93,0,0,0-.29.05c-1.48.73-1.48.73-1.48-.91q0-59.47,0-119,0-26.4,0-52.82a7.91,7.91,0,0,1,.61-4,1.23,1.23,0,0,1,.33,1.09c-.45,8.67-.09,17.35-.19,26-.05,4.09,0,8.18,0,12.53,1.77-1.63,3.26-3.23,4.95-4.62,6.78-5.55,14.13-10.06,22.56-12.64a32.22,32.22,0,0,1,24,1.83,70.33,70.33,0,0,1,9.57,5.59,2.11,2.11,0,0,0,2.31.38c.62.56.26,1.21.11,1.79-1,4.16-2.06,8.3-3.23,12.42a1.7,1.7,0,0,0,1,2.35c2.56,1.37,5.13,2.71,7.68,4.11,1.66.91,1.75,1.23,1.05,3-.9,2.35-1.77,4.7-2.64,7.05-.14.39-.3.79,0,1.13,1.39,1.72.51,3.59.3,5.38-.06.58.07,1.28-.36,1.81-1.16,6.26-.25,12.35,1.41,18.4,1,3.51,2.23,6.93,3.38,10.38a5.89,5.89,0,0,0,3.72,4.06c.88.31,1.11.88,1.2,1.77a52,52,0,0,1-1.12,14.83,24,24,0,0,0,.81,12.26,1.78,1.78,0,0,1-1,2.56Q233,288,196.36,309.22C195.89,309.48,195.46,309.81,195,310.11Z"/><path class="cls-2" d="M386.26,23a5.15,5.15,0,0,1,.3,2.46q0,77.75,0,155.47a2.21,2.21,0,0,1-1.41,2.14q-13.43,7.73-26.85,15.48c-.29.17-.56.39-.84.59-2,.56-3,1.75-2.55,3.89a2.11,2.11,0,0,1-1.5,2.65,1.74,1.74,0,0,0-1.16,2c.06,3.36,0,6.71.06,10.06a2.4,2.4,0,0,1-1.44,2.44q-25.25,14.51-50.46,29.08c-.43.24-.82.53-1.23.8-1.18.54-1.25-.38-1.27-1.08a33,33,0,0,1,.65-9.19c.52-2.11.78-4.3,1.85-6.25,4.13-1.2,4.72-4.66,5.42-8.2,1.46-7.25,2.78-14.51,2.74-21.94a15.65,15.65,0,0,0-.77-5.68c-1-1.79-.34-3.44.46-5.05a3.58,3.58,0,0,0,.19-2.94c-2-6.09-3.88-12.2-5.82-18.3-1.05-3.31-.29-6.44.3-9.61.23-1.19.87-1.24,1.72-.19,1.45,1.8,2.87,3.63,4.37,5.39a18.55,18.55,0,0,0,8.8,6c1.57.48,2.31.12,3.21-1.26a10.72,10.72,0,0,0,1.37-4.49,22,22,0,0,0,.3-3.22c0-3.11.26-6.2.41-9.3.22-4.53.17-9.06.26-13.59a4.59,4.59,0,0,1,1.39-3.47,3.46,3.46,0,0,0,1-1.75,26.08,26.08,0,0,0,.79-6.87,2.47,2.47,0,0,0-.7-1.58,9.71,9.71,0,0,0-3.55-2.35c-.49-.22-1-.35-1.3-.9,1.81-.61,2.13-2.33,2.76-3.78a123.25,123.25,0,0,1,6.37-13c.39-.68.49-1.12-.39-1.41-.21-.07-.17-.32,0-.49,2.66-.26,4.72-1.9,6.92-3.14,7.13-4,14.3-7.94,21.39-12a6.64,6.64,0,0,1,.78-.43c.53-.2,1.07-.72,1.63-.22s.37,1.09.25,1.67c-.41,2-.59,4.06-1.12,6.15,2.63-4.12,5.25-8.1,7.85-12.1a3.91,3.91,0,0,1,1.33-1.16c.8-.48,1.6-1,2.41-1.44a5.92,5.92,0,0,0,3.08-5.5q0-12,0-23.94c0-.65-.48-1.62.7-1.89a3.11,3.11,0,0,1,.44,2.26c0,5.17,0,10.35,0,15.52,0,2,.11,2.14,2.11,1.54s4.27-1.21,6.42-1.75c1.72-.43,1.77-.51,1.77-2.47q0-20.32,0-40.64C385.77,25,385.46,23.88,386.26,23Z"/><path class="cls-9" d="M359.9,206c4.75-2.7,9.51-5.38,14.24-8.1q12.63-7.24,25.23-14.54c1.4-.81,1.4-.81,1.41.76,0,0,0,.09,0,.14.6,6.07-.67,11.81-2.76,17.47a13.93,13.93,0,0,0-.9,7,7.25,7.25,0,0,0,2.84,4.82,1.94,1.94,0,0,1,.83,1.74q0,9.4,0,18.79a1.84,1.84,0,0,1-1.05,1.88q-21.39,12.3-42.76,24.67c-.94.54-1.23.49-1.22-.69q0-25.14,0-50.3a1.78,1.78,0,0,1,.61-1.56A21,21,0,0,0,359.9,206Z"/><path class="cls-9" d="M202.66,317.67c-.93-3.24.92-4.64,3.48-6.12Q278.5,270,350.76,228.22c1.52-.88,1.53-.88,1.53.87s-.06,3.55,0,5.32a2.15,2.15,0,0,1-1.29,2.21q-30.37,17.46-60.71,35l-86.19,49.7c-1.45.84-1.46.84-1.46-.83Z"/><path class="cls-4" d="M321.07,124a39.07,39.07,0,0,1,4.29,2.27,3.58,3.58,0,0,1,1.7,3.38,40.88,40.88,0,0,1-.65,5.72,3.81,3.81,0,0,1-1.27,2.44,3.44,3.44,0,0,0-1.27,3.1c-.2,7.14-.41,14.29-.67,21.43a35.47,35.47,0,0,1-.78,7,13.51,13.51,0,0,1-.43,1.41c-1.08,2.74-2.45,3.38-5.19,2.31a19.59,19.59,0,0,1-8-5.71c-1.73-2.07-3.4-4.2-5.3-6.29-.39,3.08-1.69,6.06-.73,9.21,2,6.45,4,12.89,6.1,19.29a4.33,4.33,0,0,1-.47,3.64c-.75,1.42-1.31,2.83-.62,4.44a2,2,0,0,1-.63-1.8c0-.41.06-.83-.58-.57-.46-.87.16-1.53.51-2.17a4.44,4.44,0,0,0,.35-3.8c-2.06-6.32-4.17-12.63-5.95-19a8.55,8.55,0,0,1-.22-3.66c.71-4.62,1.46-9.24,1.84-13.91a30.31,30.31,0,0,0-.15-7.37,70,70,0,0,0-2.23-9,5.32,5.32,0,0,0-.61-1.5,2.41,2.41,0,0,0-2.56-.55c-.82.5-.24,1.14,0,1.68,1,2.73,1.84,5.52,2.94,8.21A3.4,3.4,0,0,1,300,148c-1.46,1.84-1.44,1.92.35,3.38A3.11,3.11,0,0,1,301.4,155c-1.76,6.21-3.54,12.42-5.27,18.64a27.68,27.68,0,0,0-.93,6.7c-.06,1.87,0,3.75,0,5.62a23.88,23.88,0,0,0,.25,4.85c-.37.18-.12.45-.1.69-.83.17-1.48.09-1.4-1,.69-1.29.26-2.68.39-3.87,0-.36-.34-.12-.15-.18s.12,0,.12.08c0,.88,0,1.76,0,2.65,0,.37-.09.75-.58.31a4.3,4.3,0,0,1-.31-2.45c.4-12.17.28-24.34.29-36.51,0-3.44-.07-3.49-3.41-2.68-1.19.29-2.4.54-3.6.82-1.86.44-2,.58-1.79,2.52s.49,3.91.66,5.87c.27,3.19.2,6.4.46,9.59.56,6.73.27,13.49.33,20.24,0,1.85.18,1.95,2.05,2,1.7.08,3.45-.34,5.1.43.51.37.34.87.23,1.35-1.71.13-3.42,0-5.12,0a2,2,0,0,0-2.23,1.65,28.18,28.18,0,0,0-.76,3.27c-.47-.09-.93-.2-1.4-.27s-.6.15-.41.58c-.51.4-.94.06-1.35-.17-5.11-2.85-10.32-5.53-15.44-8.37-1.69-.93-1.88-.87-2.52.9s-1.29,3.51-2,5.25c-.39,1-.56,1.87.25,2.72a.67.67,0,0,1,.09.82c-.92-.23-.61.47-.65.87a13.89,13.89,0,0,1-1,4.77,21.62,21.62,0,0,1,.36-2.91c.38-1.49.6-2.88-.69-4.07-.44-.41-.17-.9,0-1.37,1-2.58,1.88-5.19,2.93-7.73.38-.92.17-1.28-.63-1.7-2.84-1.48-5.62-3.06-8.47-4.51a1.66,1.66,0,0,1-1-2.32c1.29-4.79,2.48-9.61,3.71-14.42,0-.08,0-.15,0-.22a16.43,16.43,0,0,1,.6-3.2c1.4-5.58,2.91-11.13,4.29-16.71a2.41,2.41,0,0,1,1.43-1.73c5.13-2.5,10-5.44,15.06-8.1.82-.43,1.35-.95,1.1-2a1.49,1.49,0,0,1,.17-1.14c.33-.32.7-.21,1.07-.09.91,2.2,1,4.59,1.56,6.87.68,2.77,1,5.61,1.51,8.41.3,1.6.45,1.67,1.95,1.28,2-.5,3.94-.89,5.9-1.37a1.43,1.43,0,0,0,1.25-1.92c-.63-3.13-.7-6.34-1.38-9.46-.21-.94-.61-1.19-1.52-1.11a9,9,0,0,1-6.65-1.79c0-.34-.19-.71.11-1,.74-.22,1.34.22,2,.45,4.85,1.82,8.81.08,10.75-4.74a18.86,18.86,0,0,0,1-3.86c.08-.48-.08-1.15.71-1.25.22.31.11.68.16,1,.05-.4-.31-1,.49-1a1.54,1.54,0,0,1,.27,1.26c-.49,3.79-1.71,7.2-5,9.52a.94.94,0,0,0-.47.85c1.76-.32,3.5,0,5.22-.34a2.85,2.85,0,0,1,2.88,1.05A33.53,33.53,0,0,1,306.6,140a115,115,0,0,0,7.62,12.15.49.49,0,0,0,.56.28,42.23,42.23,0,0,0,.79-5.76c.25-2,.47-4,.78-6a14.92,14.92,0,0,0-.55-6.27,15.24,15.24,0,0,1-.43-7,2.52,2.52,0,0,1,.69-1.59,4.23,4.23,0,0,0,1.35-3.31c.08-1.19.29-2.35.43-3.53a5.91,5.91,0,0,1,.33-1.44,1.73,1.73,0,0,1,1.77-1.3c.89.1,1.18.88,1.21,1.64A32.93,32.93,0,0,1,321.07,124Z"/><path class="cls-9" d="M295.44,190.83a1.8,1.8,0,0,1-.79-1.76c.13-4.09.08-8.19.35-12.27.17-2.59,1.24-5.05,1.92-7.56q2-7.34,4.2-14.63a2.16,2.16,0,0,0-.69-2.58c-2.42-2.17-2.42-2.24-.43-4.81a2.06,2.06,0,0,0,.33-2.28c-1.24-3.32-2.37-6.68-3.63-10-.39-1-.07-1.16.83-1.22,2.7-.17,2.65-.18,3.59,2.38a42.83,42.83,0,0,1,1.77,22.71c-.44,2.47-.68,5-1.13,7.45-.56,3,.63,5.64,1.46,8.35,1.58,5.17,3.27,10.32,4.94,15.47a2.4,2.4,0,0,1-.07,1.86c-.52,1.11-1,2.24-1.49,3.36-2.34,4.54-6.52,6.27-11.14,7.41-1,.24-1.29,0-1.16-.93,0-.2,0-.4,0-.59.14-3.33.19-3.38,3.53-3.87a9.33,9.33,0,0,0,1.17-.14c1.16-.28,1.45-1.21.63-2.08a3.86,3.86,0,0,0-1-.66c-.3-.16-.63-.27-1.08-.46,1.64-1.3.63-1.85-.58-2.37C296.48,191.39,296,191.09,295.44,190.83Z"/><path class="cls-10" d="M285.87,257.45c-3.74,2.49-7.73,4.54-11.59,6.82-2.42,1.44-2.44,1.41-3.2-1.32a26,26,0,0,1-.13-12.6,40.38,40.38,0,0,0,.82-12.49c-.1-1.09,0-1.48,1.29-1.05a26,26,0,0,0,7.92,1.48c1.2.34,2.31-.28,3.48-.33.68,0,1.38-.27,1.92.38a3.28,3.28,0,0,1,.24,1.72,74.92,74.92,0,0,1-.05,7.79C286.25,251.05,286.05,254.25,285.87,257.45Z"/><path class="cls-7" d="M286.09,238.24c-1.71.07-3.4.6-5.11,0l1.49-.15c-3.24-2.13-4.26-4.42-3.43-8.23a22.11,22.11,0,0,1,12.47-16c2.29-1.1,4.81-1.5,7,.2,2.36,1.82,2.54,4.5,2,7.14a22.73,22.73,0,0,1-11.69,15.86A4.18,4.18,0,0,1,286.09,238.24Z"/><path class="cls-9" d="M358.73,199.24c4.92-2.8,9.84-5.58,14.75-8.4q13-7.47,26-15c1-.56,1.2-.66,1.41.71.6,3.82-1,5.77-4.34,7.61-11.91,6.54-23.6,13.47-35.37,20.26-.47.27-.89.6-1.34.9-1,.56-2.08,1.1-3.09,1.69-.66.39-1,.36-.95-.51a6.57,6.57,0,0,0,0-1.47C355.32,202.36,355.93,200.24,358.73,199.24Z"/><path class="cls-9" d="M262.88,197.05c-1.44-1.38-1.17-2.84-.4-4.47a44.58,44.58,0,0,0,2-5.37c.35-1.12.74-1.23,1.76-.67,5.55,3.05,11.15,6,16.73,9,.26.13.54.22.81.33,1.15.21,1.33,1,1.27,2a38.63,38.63,0,0,0,0,5.16c.13,1.43-.51,1.94-1.76,2.08a22.14,22.14,0,0,1-14.22-2.73A32.26,32.26,0,0,1,262.88,197.05Z"/><path class="cls-10" d="M290.07,237.36a34.47,34.47,0,0,0,8.84-3.28c.85.21.6.85.51,1.4-.33,2-.85,4-1.25,6a41.72,41.72,0,0,0-.3,7.33,2.76,2.76,0,0,1-.5,2.08l-10,5.92c-.93.39-.69-.38-.7-.77-.06-1.87-.11-3.74-.08-5.6.08-3.39,0-6.79.06-10.18,0-2.35.32-2.67,2.72-2.8A1.47,1.47,0,0,0,290.07,237.36Z"/><path class="cls-10" d="M285.63,195.59a1.4,1.4,0,0,1-.23-1.5c.33-1,.65-2,1-3.05.15-.45.38-.81.93-.76,2.17.2,4.38-.37,6.52.35h0a3.19,3.19,0,0,0,1.53.9c.42.54,1.23.56,1.65,1.3a10.89,10.89,0,0,1-3.2-.63c-.38-.09-.84-.34-1,.17s.4.6.72.74c1.57.71,3.16,1.36,4.74,2.05.39.18.95.34.89.86s-.7.36-1.09.46c-1.38.36-2.8.61-4.13,1.09a6.19,6.19,0,0,1-6.52-.9A13.41,13.41,0,0,0,285.63,195.59Z"/><path class="cls-2" d="M284.94,286.9a21.24,21.24,0,0,0,.27,5.34c0,.19.05.39.07.59.15,1.1.1,2.48-.75,3s-2.4.13-3.62,0c-.51-.07-.45-.56-.34-1a10.71,10.71,0,0,1,.49-1.7,6.42,6.42,0,0,0-.42-6.33c-.52-.86-.35-1.42.58-1.82,1.25-.53,2.54-2.13,3.53-1.63C285.55,283.73,284.8,285.77,284.94,286.9Z"/><path class="cls-10" d="M292.06,278.72c-.58,2.21-1,4.07-1.57,5.88a23.58,23.58,0,0,0-1,5.71c-.06.78-.45.84-1.07.8-2.42-.13-2.8-.53-2.74-2.93a12.66,12.66,0,0,0,.07-2.21c-.47-2.87.77-4.6,3.4-5.58A22.32,22.32,0,0,0,292.06,278.72Z"/><path class="cls-13" d="M279.55,300.4c.08-3.78.11-3.8,3.78-3.61l.44,0c1.82.08,1.85.08,1.53,1.82a20.67,20.67,0,0,1-1.41,4.94c-.35.78-.82,1.53-1.79,1.54s-1.48-.71-1.91-1.44A5.91,5.91,0,0,1,279.55,300.4Z"/><path class="cls-13" d="M287.11,291.77l1.46.17c1.06.13,1.84,0,1.74-1.42-.08-1.09.43-1.48,1.56-1,1.95.79,3.95,1.44,5.92,2.2.73.28,1.59.61,1.53,1.56s-1,1-1.67,1.17a12,12,0,0,1-4.95.06c-1.45-.58-3-.62-4.5-1.17h0c-.41-.35-1-.3-1.44-.5a.61.61,0,0,1-.44-.77C286.44,291.63,286.75,291.58,287.11,291.77Z"/><path class="cls-14" d="M290.07,237.36a5.58,5.58,0,0,1-.66.3c-2.23.62-2.22.62-2.27,2.9-.1,5-.24,9.92-.33,14.88,0,.49-.44,1.25.54,1.4-.81.67-.86,0-.87-.54a26.62,26.62,0,0,0-.3-4.71c0,1.5,0,3,0,4.49,0,.46.17,1-.3,1.37.11-5.82.23-11.64.33-17.47,0-.58-.07-1.16-.11-1.74a8.5,8.5,0,0,1,2.77-1.18C289.18,237.47,289.68,237.2,290.07,237.36Z"/><path class="cls-15" d="M297.37,250.92a9.82,9.82,0,0,0,.09-3.5c-.32-4.08.69-8,1.55-11.88.11-.48.54-1-.1-1.46.4-.48,1.3.36,1.51-.58-.61,3.12-1.51,6.18-1.93,9.34-.29,2.2,0,4.41-.07,6.61,0,.59.35.6.77.57C298.79,250.74,297.89,250.45,297.37,250.92Z"/><path class="cls-2" d="M288.2,293.32c1.53.27,3.12.32,4.5,1.17A13.31,13.31,0,0,1,288.2,293.32Z"/><path class="cls-2" d="M287.11,291.77c-.61.16-.87.43-.22.88.42.28,1,.17,1.34.68a3,3,0,0,1-1.68-.38.94.94,0,0,1-.43-1.25C286.33,291.29,286.79,291.51,287.11,291.77Z"/><path class="cls-9" d="M280.24,130.49c.85,2.43-.6,3.34-2.5,4.31-4.81,2.45-9.42,5.29-14.34,7.55-.55.26-.46.67-.57,1.07l-4.47,17a14.44,14.44,0,0,0-.87,3.28h0c-.55.9-1,1.11-2.05.36-5.31-3.67-10.81-7-17.21-8.5a31.32,31.32,0,0,0-16.41.63c-8.66,2.61-16.17,7.23-23.06,13-1.74,1.46-3.2,3.19-5.26,4.88.26-13.72-.34-27.16.32-40.61a14.71,14.71,0,0,1,6.85-8.38q21.75-12.57,43.53-25.11L379.06,22.17a8.15,8.15,0,0,1,4.26-1.5c1.63,0,2.41.64,2.94,2.33q0,9.24-.05,18.49c0,8.68,0,17.36,0,26,0,1.07-.13,1.6-1.38,1.87-2.78.58-5.51,1.43-8.25,2.2C375,72.05,375,72,375,70.32c0-5.77,0-11.54,0-17.32,0-.51.21-1.09-.29-1.52-1.52-1.07-2.8-.36-4.18.42q-18.15,10.23-36.27,20.5c-.51.29-1.06.53-1.56.84a6,6,0,0,0-3.16,5.32q0,12.35,0,24.68a14.27,14.27,0,0,1,.23,2.34c.33.64,1,.18,1.53.49l-3.19,6.07c-1.81,3.43-3.35,7-4.81,10.58-.47,1.15-1,1.69-2.19,1.28-.59-.31-.35-.87-.35-1.32,0-1.58.06-3.15,0-4.73,0-.69,0-1.57-.94-1.56a1.49,1.49,0,0,0-1.42,1.46c-.24,2-.53,4-.75,6-.08.8-.08,1.52-1.06,1.86-.64.22-.8.92-.86,1.6a17.2,17.2,0,0,0,.48,7,13.68,13.68,0,0,1,.49,6.67c-.66,4.12-1,8.29-1.55,12.41-.57.19-.66-.23-.84-.49-3.06-4.59-6.31-9.06-8.75-14a27,27,0,0,0-4.52-5.82,1.42,1.42,0,0,0-1.48-.41,52.32,52.32,0,0,1-5.59.39c-.4,0-.84.15-1-.37s.21-.7.56-.92c4-2.5,5.08-6.42,5.39-10.75a4.29,4.29,0,0,1,.64-3.61,21.07,21.07,0,0,0-3.52-25.71,20.06,20.06,0,0,0-14.13-5.84,20.51,20.51,0,0,0-12.79,3.81,20.91,20.91,0,0,0-3,31.62,21.3,21.3,0,0,0,12.5,6.44C280.22,128,280.54,128.53,280.24,130.49Z"/><path class="cls-9" d="M398.66,202.66a46.66,46.66,0,0,1,1.73-5.67c1.75-5.12,3.72-10.15,5.87-15.12a6.58,6.58,0,0,1,3.71-3.8,2.7,2.7,0,0,0,2-2.26c.13-.89.58-1.15,1.42-.61s2.36.6,2.53,1.49-1.28,1.29-1.95,2a15.54,15.54,0,0,0-2.49,3.27c-4,7-8.54,13.58-12.47,20.58C399,202.58,398.86,202.59,398.66,202.66Z"/><path class="cls-9" d="M419.72,161.47l.25.45a3.53,3.53,0,0,0,2.95,1.93c.66,0,.43.51.31.87a5.06,5.06,0,0,1-1.47,2.51c-.22.18-.48.45-.21.74s.53,0,.77-.14a6.08,6.08,0,0,0,1.82-3.14c.12-.35.15-.94.68-.76s.19.67,0,1c-.94,1.9-1.49,4-2.27,5.92-.11.27-.15.65-.36.8a39.87,39.87,0,0,0-4.7,4.11c-.45.46-1,0-1.49-.24-3.22-1.5-2.93-1.44-2.22-4.91.75-3.65,3.49-5.83,5.37-8.65A4.16,4.16,0,0,1,419.72,161.47Z"/><path class="cls-16" d="M413.41,210.29a27.38,27.38,0,0,1-1.25,5.94,2.72,2.72,0,0,1-.27-.44c-.13-.37.24-1.07-.45-1-.52,0-.42.71-.42,1.13,0,1.31,0,2.62,0,4.17a6.46,6.46,0,0,1-1.74-2.85c-.13-.26-.22-.64-.58-.54s-.27.55-.16.85a15.05,15.05,0,0,0,1.73,3.32c-2.32-.93-3.24-4.32-1.76-6.12a4.17,4.17,0,0,1,.63-.63A36.9,36.9,0,0,0,413.41,210.29Z"/><path class="cls-17" d="M423.4,171.37a65.71,65.71,0,0,1,2.57-7.19.56.56,0,0,1,.41-.33c.27,0,.3.31.34.56C427.26,167.51,426.29,169.59,423.4,171.37Z"/><path class="cls-3" d="M164.08,113.34l4.51-5.11.35.09v6c0,3.86,0,3.88-3.76,3.94-.93,0-1.35.22-1.3,1.24a5,5,0,0,1-3,5c-3.37,1.84-6.65,3.83-10,5.75a5.44,5.44,0,0,1-1.06.51c-1.12.38-1.76,0-1.77-1.17,0-3.06-.08-6.11,0-9.17a3.9,3.9,0,0,1,2.18-3.3c3.54-2,7.06-4.12,10.61-6.14,2.3-1.31,2.89-1,3,1.67C163.91,112.73,164,112.87,164.08,113.34Z"/><path class="cls-2" d="M506.11,323.73c-.5-2.45-1-4.9-1.49-7.35a.81.81,0,0,1,.51-1c1.27-.64,2.5-1.45,3.71.08a1.89,1.89,0,0,0,.49.32c2.26,1.39,2.29,1.41,1.21,3.79a25.73,25.73,0,0,1-2,4.23Z"/><path class="cls-9" d="M109.58,358.09c-.23-.2-.42-.34-.59-.51-1.63-1.62-3.24-3.26-4.89-4.86-.45-.44-.49-.68,0-1.14,1.65-1.59,3.29-3.21,4.87-4.88.54-.56.82-.39,1.26.07,1.53,1.58,3.08,3.14,4.67,4.67.54.52.59.84,0,1.38-1.62,1.56-3.19,3.17-4.78,4.76Z"/><path class="cls-9" d="M246.09,35.87c-.2.23-.34.41-.51.58-1.45,1.45-2.93,2.87-4.34,4.35-.5.52-.78.5-1.27,0-1.41-1.48-2.87-2.93-4.35-4.35-.45-.44-.49-.68,0-1.14,1.49-1.41,2.92-2.88,4.37-4.34.37-.37.63-.68,1.16-.12,1.48,1.55,3,3.05,4.55,4.57C245.82,35.54,245.93,35.69,246.09,35.87Z"/><path class="cls-9" d="M272.15,47.53c-.16.18-.31.37-.48.54-1.45,1.45-2.92,2.88-4.34,4.36-.5.53-.8.48-1.28,0q-2.13-2.2-4.35-4.34c-.48-.46-.44-.71,0-1.15,1.51-1.46,3-3,4.47-4.44.29-.3.52-.54.93-.12,1.57,1.61,3.17,3.19,4.76,4.78A2.84,2.84,0,0,1,272.15,47.53Z"/><path class="cls-9" d="M97.42,364.38c-.54-.67-.9-1.2-1.34-1.65-1.63-1.66-1.64-1.65,0-3.3,1.4-1.41,1.4-1.41,2.7-.11,1.76,1.77,1.76,1.77,0,3.53C98.38,363.26,98,363.71,97.42,364.38Z"/><path class="cls-9" d="M262.47,4.71a2.08,2.08,0,1,1,2-2.22A2.09,2.09,0,0,1,262.47,4.71Z"/><path class="cls-3" d="M407,83.15c0-1.57,0-3.15,0-4.72a6.76,6.76,0,0,1,3.88-6c2-1.07,3.51-.1,3.52,2.19,0,3.29,0,6.59,0,9.89a6.69,6.69,0,0,1-3.85,6c-2,1.06-3.53,0-3.56-2.21C407,86.6,407,84.87,407,83.15Z"/><path class="cls-3" d="M415.45,82c0-1.14,0-2,0-2.91,0-.53.27-1.05.85-1s.35.62.36,1c.1,3.42.23,6.84-2.06,9.74a8.85,8.85,0,0,1-1.76,2c-2.38,1.62-1.21,4-1.42,6.08-.06.57.39.39.72.2l2.3-1.33c.26-.15.57-.3.8,0s0,.69-.25.86c-1,.67-2.08,1.3-3.15,1.92-1.48.87-3,1.72-4.48,2.57-.35.19-.81.68-1.13.1s.27-.79.62-1a18.74,18.74,0,0,1,2.3-1.32,1.6,1.6,0,0,0,1-1.75c-.06-1,0-2.07,0-3.11,0-.73-.1-1-1-.83-2.81.67-4.24-.51-4.28-3.39,0-1.43,0-2.86,0-4.29,0-.58.17-1.24.78-1.24s.42.74.43,1.16c0,1.33,0,2.66,0,4,.08,2.15,1.73,3.23,3.67,2.32A9.22,9.22,0,0,0,415.45,82Z"/><path class="cls-18" d="M424.3,222.91c-.38.08-.58,0-.67-.17s.11-.46.32-.57c7.53-4,12.88-10.39,18.54-16.47.24-.26.5-.79.93-.46s0,.69-.26,1c-4.89,5.47-9.85,10.87-15.91,15.09A12,12,0,0,1,424.3,222.91Z"/><path class="cls-19" d="M419.08,221.87a1.38,1.38,0,0,1-.39-.23.36.36,0,0,1,.06-.52,4.93,4.93,0,0,1,.61-.4,42.91,42.91,0,0,0,8.77-6.68c.29-.27.62-.9,1.05-.51s-.18.84-.47,1.13a42.09,42.09,0,0,1-8.72,6.72C419.69,221.56,419.39,221.71,419.08,221.87Z"/><path class="cls-5" d="M248.46,259c-3.56,0-5.71-2.16-5.73-5.87,0-4.72,2.05-8.67,4.9-12.25a17.85,17.85,0,0,1,9.36-6.65c4.36-1.17,7.47,1.16,7.52,5.69a17.38,17.38,0,0,1-3,9.46,21.63,21.63,0,0,1-9.79,8.91A7.35,7.35,0,0,1,248.46,259Z"/><path class="cls-7" d="M329.73,105.58a3.39,3.39,0,0,1-.62-2.23q0-12.4,0-24.82a6,6,0,0,1,3.15-5.48C343.11,66.86,354,60.74,364.88,54.6c2.19-1.23,4.37-2.48,6.56-3.69,1.67-.92,2.22-.81,3.24.57,0,8.62,0,17.25,0,25.88,0,2.62-1,4.69-3.32,5.78-2.81,1.31-4.4,3.63-5.94,6.1-1.85,3-3.77,5.89-5.67,8.82-.14.23-.28.53-.7.5.41-2.37.83-4.73,1.24-7.1.1-.52.44-1.21,0-1.54s-1.08.26-1.54.51c-4.39,2.42-8.75,4.91-13.12,7.37s-8.82,5-13.23,7.46A4.07,4.07,0,0,1,329.73,105.58Z"/><path class="cls-5" d="M336.83,199.45c-.47,5.21-3.42,10-7.85,14a16,16,0,0,1-6,3.48c-4.62,1.45-8-.93-7.93-5.76,0-5.17,2.48-9.34,5.78-13.08a18,18,0,0,1,7.79-5.43C333.44,191.05,336.86,193.54,336.83,199.45Z"/><path class="cls-4" d="M396.26,205.08a5.57,5.57,0,0,1-3,4.17l-23.54,13.58-6.28,3.6c-.85.49-1.75.83-2.59.07s-.64-1.7-.32-2.61a5.56,5.56,0,0,1,2.52-3q15-8.67,30.07-17.34C394.87,202.56,396.29,203.23,396.26,205.08Z"/><path class="cls-4" d="M396.27,216.75a5.62,5.62,0,0,1-3.1,4.26L371.68,233.4,363.62,238c-.86.49-1.79,1-2.72.2s-.67-2-.23-3a5.58,5.58,0,0,1,2.44-2.68Q378,224,392.92,215.38C394.82,214.29,396.25,214.84,396.27,216.75Z"/><path class="cls-4" d="M396.27,193.33a5.76,5.76,0,0,1-3.26,4.36q-10.75,6.17-21.49,12.38-4,2.3-7.94,4.57c-.87.49-1.8,1-2.71.17s-.65-1.87-.24-2.87a5.38,5.38,0,0,1,2.39-2.72q15-8.67,30.06-17.33C394.86,190.87,396.29,191.51,396.27,193.33Z"/><path class="cls-4" d="M396.27,228.5a5.25,5.25,0,0,1-2.67,3.95q-15.08,8.73-30.19,17.41c-.85.49-1.77.81-2.6,0a2.24,2.24,0,0,1-.28-2.62,5.72,5.72,0,0,1,2.66-3.05q14.91-8.59,29.82-17.18C394.86,226,396.31,226.62,396.27,228.5Z"/><path class="cls-3" d="M280.24,130.49c0-1.67-.82-2.24-2.56-2.56a21.46,21.46,0,1,1,23.95-28.22,20.93,20.93,0,0,1-1.75,18,9.45,9.45,0,0,0-.94,3.36c-.53.23-.13.89-.56,1.21l-.1-1.29c-.48-.54-.34-1.21-.35-1.83a73.6,73.6,0,0,0-.28-8.53,2.75,2.75,0,0,0-1.11-2.12c-1.08-.77-2.19-1.5-3.23-2.33a1.31,1.31,0,0,0-2.12.29,41.56,41.56,0,0,1-6.74,7c-.37.35-.74.7-1.09,1.06a26.79,26.79,0,0,1-5.08,4,1.87,1.87,0,0,0-1,2.32c.82,3.33,2.26,6.24,5.16,8.28.53.37,1.29.59,1.39,1.41,0,.24.27.51-.11.69-.66.31-1.08-.21-1.59-.44s-.71-.77-1.26-.27C280.71,130.78,280.46,130.53,280.24,130.49Z"/><path class="cls-9" d="M285,188.16l-4.64-3.94q-5-4.25-10.05-8.48a1.78,1.78,0,0,1-.82-2,7.11,7.11,0,0,0-.38-2.6c-1-4.94-1-10-1.77-14.95-.68-4.13-1.21-8.29-2.95-12.16-.33-.73-.07-1.05.55-1.38,3-1.59,6-3.18,9-4.82.92-.51,1.15-.35,1.11.7-.15,3.54-.19,7.09-.35,10.63a2,2,0,0,0,1.14,2.14c1,.5,1.93,1.18,2.93,1.71a.89.89,0,0,1,.44,1.43,1.59,1.59,0,0,1-.12.27c-2.27,3.27-1.76,6.42-.1,9.86,2.09,4.34,3.67,8.92,5.5,13.38a6.88,6.88,0,0,1,.54,2.72C285,183.05,285,185.4,285,188.16Z"/><path class="cls-9" d="M263.54,144.26a32.58,32.58,0,0,1,2.33,8.42c.57,3.4.81,6.86,1.42,10.25a13.79,13.79,0,0,1-1.37,8.28,1.78,1.78,0,0,0,.6,2.49c6.1,5.07,12.12,10.24,18.21,15.32.84.71,1.16,1.31.67,2.35s-.4,3-1.39,3.43-2.23-.88-3.34-1.47c-8.12-4.34-16.19-8.77-24.34-13.05-1.48-.78-1.9-1.42-1.44-3.12,2.8-10.42,5.46-20.87,8.16-31.3C263.16,145.43,263.31,145,263.54,144.26Z"/><path class="cls-9" d="M315.72,156.07c.64-5.3,1.28-10.47,1.89-15.66.26-2.28.24-2.28,2.44-1.92,3.14.52,3.11.51,3,3.75-.24,6.6-.43,13.21-.67,19.81a34.84,34.84,0,0,1-.84,7.33,7.69,7.69,0,0,1-.73,1.92c-.89,1.5-1.7,1.79-3.33,1.16a19.16,19.16,0,0,1-7.91-5.52c-1.77-2.12-3.47-4.29-5.23-6.42a2.47,2.47,0,0,1-.55-2c.51-4.25,1.17-8.51.55-12.81a56.13,56.13,0,0,0-2-8.48c-.14-.46-.26-.93-.5-1.81a16.61,16.61,0,0,1,3.25,4.39c2.83,5.72,6.66,10.81,10.18,16.09C315.32,155.93,315.44,156,315.72,156.07Z"/><path class="cls-9" d="M293.84,189.61c-1.95-.41-3.92-.09-5.87-.17s-2.07-.05-2.1-2.06c-.1-6.65.07-13.3-.24-19.95-.27-5.9-.5-11.81-1.28-17.66-.14-1,.36-1.08,1-1.23,2.5-.58,5-1.13,7.48-1.75.88-.23,1.14.09,1.22.9.29,3.05.17,6.1.19,9.15,0,10.94-.14,21.88-.41,32.81Z"/><path class="cls-10" d="M284.1,113.32a61.47,61.47,0,0,0,7.34-7.79c.47-.58.84-.65,1.45-.19q2.06,1.56,4.2,3a2.25,2.25,0,0,1,.93,1.88,76.88,76.88,0,0,1,.26,10.73,45.28,45.28,0,0,1-1,4.59c-1.92,5.75-6.52,7.83-12.08,5.45-.45-.19-.9-.36-1.35-.54a14.53,14.53,0,0,1-7.07-10.22,1.33,1.33,0,0,1,.7-1.68,31.59,31.59,0,0,0,5.74-4.36c.65.17,1.26.36,1.84-.27s1.33-.55,2.28-1a4.65,4.65,0,0,0-2.15.61C284.65,113.78,284.64,113.76,284.1,113.32Z"/><path class="cls-9" d="M284.56,176.05c-1.63-4.05-3.05-8.22-5-12.13-1.53-3.12-1.59-5.83.16-8.81,1.06-1.82,1-2.14-.89-2.92-2.8-1.17-3.68-3-3.29-5.95a62.73,62.73,0,0,0,.27-8.12,1.86,1.86,0,0,1,1.18-2,25.67,25.67,0,0,0,2.74-1.46c.8-.48,1.05-.28,1.24.61a170.89,170.89,0,0,1,3,19.86c.63,6.68.73,13.39.91,20.09v.68Z"/><path class="cls-10" d="M280.88,130.42l-.17-.65a1.61,1.61,0,0,1,.66,0,13.69,13.69,0,0,0,2.36,1.34,10.07,10.07,0,0,0,7.32,1.54c.75-.16,1.12,0,1.22.77l1.5,11.23c.09.68-.08,1.08-.85,1.25-2.7.59-5.38,1.24-8.05,1.9-.62.15-.76-.06-.85-.62-.4-2.52-.82-5-1.3-7.55C282.14,136.57,281.5,133.5,280.88,130.42Z"/><path class="cls-9" d="M295.15,171.64c0-4.27-.07-8.46,0-12.64a133.59,133.59,0,0,0-1.66-23.72c-.09-.54-.33-1.1.5-1.25s1.39-.33,1.75.72c1.19,3.49,2.43,7,3.75,10.42.37,1-.18,1.48-.63,2.09-2,2.69-2,2.73.51,5a2.3,2.3,0,0,1,.72,2.82c-1.57,5.23-3,10.51-4.49,15.76C295.54,171.06,295.58,171.39,295.15,171.64Z"/><path class="cls-10" d="M316.42,129.53c.21-.94-.39-2.43.75-3.09,1.32-.77,2.33.6,3.45,1.12a.82.82,0,0,1,.25.16c.57.55,1.73,1,1.28,1.87s-1.41.2-2.15,0c-.39-.1-.95-.48-1.12.16-.12.47.47.51.82.66,1.26.54,1.57,1.52,1.09,3.21-.11.41-.67,1,0,1.23s.63-.6.8-1a3.23,3.23,0,0,0,.17-2c-.41-1.41.58-1.26,1.3-1.09a19.24,19.24,0,0,1,2.59,1.05.43.43,0,0,1,.3.45c-.2,1.79-.13,3.64-1.49,5.13-.81.88-1.73.55-2.62.5-3.87-.23-3.85-.26-4.89-3.89A16.29,16.29,0,0,1,316.42,129.53Z"/><path class="cls-20" d="M319.87,117.58c0,1.65.11,3.3,0,4.94-.13,1.43.21,2.27,1.7,2.7a13,13,0,0,1,3,1.54,5.26,5.26,0,0,1,1.31,1.18c.45.55.5,2.73.14,2.95s-2.59-.83-2.7-1.3c-.5-2-2.21-2.81-3.82-3.63a1.53,1.53,0,0,1-1-1.83c.35-2.2.34-4.46.9-6.62Z"/><path class="cls-16" d="M267.92,169.33c.25,1.37.51,2.74.74,4.11,0,.24,0,.5-.34.53-.48,0-1.93-1.59-1.78-2,.28-.87.63-1.71.95-2.57Z"/><path class="cls-3" d="M293.82,189.65c.83-1.17,0-2.57.63-4.12,0,1.64,0,2.95,0,4.26a.73.73,0,0,1-.65.83h0c-.37-.35-.26-.68,0-1Z"/><path class="cls-2" d="M257.49,163.66a4.71,4.71,0,0,1,.87-3.28A13.24,13.24,0,0,1,257.49,163.66Z"/><path class="cls-9" d="M282.28,230.06a3.6,3.6,0,0,1,2-3.56c3.53-2.14,7.12-4.17,10.71-6.21.56-.32,1.22-.77,1.92-.25s.5,1.3.38,2c-.24,1.41-2.68,3.76-4,3.83-.59,0-.6-.39-.6-.79,0-.93-.4-1-1.1-.56-1,.6-2,1.2-3.09,1.73s-1.93,1.15-1.68,2.56a1.3,1.3,0,0,1-.8,1.3c-.55.33-1.11.64-1.67.94s-1,.88-1.59.55S282.36,230.49,282.28,230.06Z"/><path class="cls-9" d="M251.36,244.6c0-1.08,0-2.17,0-3.25a4.22,4.22,0,0,1,2.51-3.72c1.07-.53,1.93-.08,2,1.1.07,2.36.09,4.72,0,7.08a4.08,4.08,0,0,1-2.28,3.41c-1.27.7-2.12.21-2.17-1.22,0-1.13,0-2.27,0-3.4Z"/><path class="cls-21" d="M249.69,247.83c0-.69,0-1.38,0-2.07a.5.5,0,0,1,.58-.51c.32.06.31.35.31.59,0,.89,0,1.78,0,2.66.07,1.6,1,2.27,2.49,1.58a5.93,5.93,0,0,0,3.54-5.23c.07-1,0-2,0-2.95,0-.32.13-.63.48-.65s.42.33.44.63c.23,3-.07,5.79-2.55,7.8-1.32,1.08-.93,2.4-.86,3.65,0,.84.61.14.95,0,.52-.13,1.13-1.06,1.48-.42s-.66.91-1.17,1.22c-1.34.82-2.72,1.59-4.07,2.39-.27.16-.56.34-.77,0s.05-.55.31-.72a5.22,5.22,0,0,1,1-.61,1.92,1.92,0,0,0,1.24-2.21c-.06-1,.21-2-1.5-1.65-1.07.2-1.82-.66-2-1.79A14.92,14.92,0,0,1,249.69,247.83Z"/><path class="cls-3" d="M337,93.57a.41.41,0,0,1-.56-.22c-.14-.28.05-.48.26-.6.85-.5,1.71-1,2.57-1.45l27.41-15.39a.56.56,0,0,1,.13-.07c.39-.12.81-.72,1.15-.17s-.36.68-.68.86c-1.92,1.12-3.85,2.2-5.78,3.28l-23.8,13.38Z"/><path class="cls-3" d="M336.91,81c-.12,0-.28-.07-.36-.16a.36.36,0,0,1,0-.52,4.91,4.91,0,0,1,.85-.58l29.4-16.51c.36-.2.77-.74,1.13-.19s-.24.65-.57.84l-30,16.87Z"/><path class="cls-3" d="M337,87.23c-.32,0-.49-.07-.54-.28s.14-.45.35-.57l3.73-2.11q13-7.3,26-14.6c.17-.1.35-.18.52-.29s.69-.4.91,0c.33.52-.23.64-.54.81l-7.72,4.34L338.05,86.65C337.66,86.87,337.27,87.07,337,87.23Z"/><path class="cls-9" d="M329.71,201l2.64-3,.36.14c0,1.78,0,3.57,0,5.36,0,.81-.69.73-1.21.68-1.29-.13-2.18,0-2,1.71.07.88-.66,1.51-1.41,1.95-2.25,1.31-4.5,2.63-6.77,3.91-1.16.65-1.59.37-1.61-1,0-1.53,0-3.06,0-4.58a3,3,0,0,1,1.71-3c2-1.14,4-2.31,6-3.45C329.16,198.7,329.3,198.76,329.71,201Z"/><path class="cls-9" d="M361.15,224.78a4.88,4.88,0,0,1,2.57-3.29l21.38-12.32c2.73-1.58,5.44-3.17,8.19-4.72.56-.31,1.2-.95,1.85-.24s.22,1.32-.05,1.94a4.74,4.74,0,0,1-2.07,2.24L363.2,225.6c-.52.29-1,.62-1.66.33C361.09,225.73,361.15,225.29,361.15,224.78Z"/><path class="cls-9" d="M361.14,236.57a4.9,4.9,0,0,1,2.72-3.47q10.83-6.21,21.64-12.46l7.8-4.5c.56-.32,1.19-.75,1.77-.27s.3,1.28.05,1.91a4.79,4.79,0,0,1-2.15,2.36l-29.69,17.12C361.82,238.1,361.17,237.91,361.14,236.57Z"/><path class="cls-9" d="M361.14,213.14a4.89,4.89,0,0,1,2.62-3.39q11.58-6.66,23.16-13.35c2.13-1.23,4.26-2.46,6.4-3.67.55-.32,1.16-.77,1.76-.26s.29,1.28,0,1.91a4.37,4.37,0,0,1-1.9,2.19q-15,8.69-30.06,17.35Q361.17,215.06,361.14,213.14Z"/><path class="cls-9" d="M361.15,248.24a4.78,4.78,0,0,1,2.6-3.36l21.38-12.33c2.73-1.57,5.45-3.16,8.2-4.71.52-.29,1.11-.85,1.75-.29s.3,1.29,0,1.92a4.54,4.54,0,0,1-2,2.29q-15,8.64-29.95,17.27C361.81,249.8,361.16,249.57,361.15,248.24Z"/><path class="cls-22" d="M284.1,113.32c.89.21,1.43-.66,2.25-.71.51,0,1.22-.45,1.39.27s-.61.65-1.08.71a2.56,2.56,0,0,0-1.68.83c-.79,1-1.29.67-1.77-.24A1.48,1.48,0,0,1,284.1,113.32Z"/><path class="cls-15" d="M293.68,120.06a1.07,1.07,0,0,0-.43-1c-.95-.56-.81-1.5-.87-2.36,0-.29,0-.65.4-.66a.49.49,0,0,1,.47.5c-.08,1,.58,1.59,1,2.34a2.26,2.26,0,0,1-.27,2.87,2.13,2.13,0,0,1-2.71.41c-.25-.12-.61-.23-.51-.61s.48-.34.84-.26C293.07,121.55,293.68,121.18,293.68,120.06Z"/><path class="cls-23" d="M291.32,126a5.31,5.31,0,0,1-2.62-.64c-.26-.12-.56-.32-.43-.67s.49-.27.75-.16c2,.9,3.82.84,5.36-.92.15-.18.4-.34.62-.07a.58.58,0,0,1-.13.79A4.39,4.39,0,0,1,291.32,126Z"/><path class="cls-24" d="M295.92,115.68c-.25.7,0,1.78-1,1.77-.7,0-.74-.92-.73-1.56s0-1.71.89-1.72C295.82,114.16,295.7,115.14,295.92,115.68Z"/><path class="cls-25" d="M285.29,117.41c.11-.61,0-1.5.83-1.49s.64.85.69,1.42v.15c-.05.67.06,1.7-.74,1.69S285.38,118.09,285.29,117.41Z"/><path class="cls-14" d="M295.51,110.83c.34,0,.69.06,1,.13a.46.46,0,0,1,.43.5.42.42,0,0,1-.52.39,2.58,2.58,0,0,0-2.84,1.05.35.35,0,0,1-.52.06.56.56,0,0,1,0-.79A2.8,2.8,0,0,1,295.51,110.83Z"/><path class="cls-3" d="M66,162.33A1.4,1.4,0,0,1,65,164.92a22.77,22.77,0,0,0-5.43-1.51,1.4,1.4,0,1,1,.38-2.77A25.49,25.49,0,0,1,66,162.33Zm5.32,2.75a1.06,1.06,0,0,1,.21.11,53.17,53.17,0,0,1,5,3.56,1.41,1.41,0,0,1,.22,2,1.39,1.39,0,0,1-2,.22,51.31,51.31,0,0,0-4.76-3.38,1.4,1.4,0,0,1,1.27-2.48Zm-17.06-4.17a1.4,1.4,0,0,1-.24,2.67,15.24,15.24,0,0,0-4.52,1.77,1.4,1.4,0,0,1-1.42-2.42,18,18,0,0,1,5.36-2.09A1.42,1.42,0,0,1,54.28,160.91Zm89.5,36.91a1.41,1.41,0,0,1,.22,2.48,40.7,40.7,0,0,1-5.51,2.89,1.4,1.4,0,1,1-1.11-2.57,39,39,0,0,0,5.12-2.68A1.39,1.39,0,0,1,143.78,197.82Zm-63-25.32a1.57,1.57,0,0,1,.44.28c1.41,1.35,2.85,2.82,4.27,4.36A1.4,1.4,0,0,1,83.39,179c-1.37-1.49-2.76-2.91-4.13-4.22a1.4,1.4,0,0,1,1.49-2.31Zm8.13,8.83a1.38,1.38,0,0,1,.56.41c1.26,1.54,2.51,3.16,3.71,4.8a1.4,1.4,0,1,1-2.25,1.66c-1.18-1.61-2.4-3.18-3.63-4.69a1.4,1.4,0,0,1,1.61-2.18Zm43.94,21.31a1.4,1.4,0,0,1-.14,2.64,49.26,49.26,0,0,1-6,1.36,1.4,1.4,0,0,1-.44-2.76,47.91,47.91,0,0,0,5.68-1.29A1.38,1.38,0,0,1,132.82,202.64ZM96,191a1.41,1.41,0,0,1,.64.53c.41.62.82,1.26,1.22,1.88a22.89,22.89,0,0,0,2.12,2.87,1.4,1.4,0,1,1-2.12,1.83,26.5,26.5,0,0,1-2.37-3.2l-1.19-1.84a1.39,1.39,0,0,1,.4-1.94A1.38,1.38,0,0,1,96,191Zm25,13.51a1.4,1.4,0,0,1-.51,2.69,37.18,37.18,0,0,1-6.22-.39,1.4,1.4,0,0,1,.42-2.77,33.71,33.71,0,0,0,5.75.36A1.47,1.47,0,0,1,121,204.51Zm-17.11-4.62a1.43,1.43,0,0,1,.27.15,23.51,23.51,0,0,0,5,2.59,1.4,1.4,0,1,1-1,2.62,26.43,26.43,0,0,1-5.62-2.9,1.4,1.4,0,0,1,1.32-2.46Z"/><g class="cls-26"><polygon class="cls-27" points="34.95 164.18 35.76 170.81 0 177.01 34.95 164.18"/><polygon class="cls-27" points="35.73 178.32 31.37 183.52 1.6 176.7 35.73 178.32"/><polygon class="cls-3" points="0 177.01 53.15 182.27 39.78 169.43 0 177.01"/><polygon class="cls-3" points="34.95 164.18 0 177.01 26.87 155.41 34.95 164.18"/></g></g></svg>