<svg xmlns="http://www.w3.org/2000/svg" viewBox="0 0 620 365"><defs><style>.cls-1{opacity:0.5;}.cls-2{fill:#f1f2f2;}.cls-3{fill:#2e3a42;}.cls-4{fill:#eeaf08;}.cls-5{fill:#030303;}.cls-6{fill:#323e46;}.cls-7{fill:#344048;}.cls-8{fill:#36424a;}.cls-9{fill:#fefefe;}.cls-10{fill:#eeb00b;}.cls-11{fill:#222d35;}.cls-12{fill:#2c3840;}.cls-13{fill:#27343c;}.cls-14{fill:#303c44;}.cls-15{fill:#29363e;}.cls-16{fill:#1f2a33;}.cls-17{fill:#273139;}.cls-18{fill:#29343c;}.cls-19{fill:#50bfa5;}.cls-20{fill:#f5f5f6;}.cls-21{fill:#3d4950;}.cls-22{fill:#c0c3c5;}.cls-23{opacity:0.8;}</style></defs><g id="Layer_4" data-name="Layer 4"><path class="cls-2" d="M75.17,89.26C87.37,89,98.43,99.55,98,113A22.84,22.84,0,1,1,75.17,89.26Z"/><path class="cls-2" d="M441.63,62.82a61.93,61.93,0,0,1,8.55,1.61A157.11,157.11,0,0,1,465.8,68.9a144.39,144.39,0,0,1,41.52,22c3.5,2.69,6.79,5.64,10,8.67a124.66,124.66,0,0,1,22.88,29.16,108.42,108.42,0,0,1,11.65,28.36,142.13,142.13,0,0,1,2.34,14.06c.5,3.62,1,7.23,1.44,10.85.29,2.34.47,4.69.68,7,.4,4.59.82,9.18,1.17,13.77.13,1.7.23,3.41.28,5.1.08,3.07.28,6.13.43,9.19.33,6.73.33,13.47.61,20.19.44,10.84.25,21.66.14,32.49-.05,4.57,0,9.16-.23,13.73-.28,5.37-.47,10.73-.62,16.11-.16,5.81-.44,11.63-1,17.43-.17,2,.12,4-.52,6a2.35,2.35,0,0,1-2,.53q-20.62,0-41.25,0a5.11,5.11,0,0,1-1.35-.13c-.74-.2-.74-.77-.52-1.32.66-1.69,1.34-3.37,2.07-5a1.52,1.52,0,0,1,1.86-.92,15.66,15.66,0,0,0,3.62.13,4.67,4.67,0,0,0,3.43-1.67,2.11,2.11,0,0,0,.25-2.54,1.86,1.86,0,0,0-2.19-.93,8.26,8.26,0,0,0-4.41,2.75c-.2.22-.33.5-.55.71s-.4.37-.66.25-.26-.41-.23-.66a8,8,0,0,1,.55-1.72,53.16,53.16,0,0,0,1.52-5.7c.37-1.77.58-1.87,2.38-1.44,1.61.39,3.2,1,4.87.27.32-.15.66-.25,1-.43a2.36,2.36,0,0,0,1.37-2.74,2.28,2.28,0,0,0-2.82-1.41,7.81,7.81,0,0,0-4,2,12.25,12.25,0,0,1-1,.92c-.28.22-.6.5-1,.29s-.27-.61-.25-1c.15-2,.44-3.9.66-5.85.42-3.61.43-3.61,3.88-2.82a6.12,6.12,0,0,0,4.68-.6,2.27,2.27,0,0,0,1.27-2.64c-.33-1.28-1.35-1.54-2.49-1.47a7.47,7.47,0,0,0-4.75,2.4c-.21.21-.4.45-.62.66s-.62,1-1.19.65-.34-.88-.25-1.38c.41-2.27.65-4.57,1.28-6.79.51-1.77.82-1.93,2.59-1.38a7.62,7.62,0,0,0,4.45.45,4.61,4.61,0,0,0,2-1c.74-.71,1.25-1.52.69-2.55A2.21,2.21,0,0,0,527,279.7a9.43,9.43,0,0,0-4.51,2.34c-.19.16-.33.37-.52.55s-.61.69-1,.46-.15-.7,0-1.08c.48-1.59,1.47-3,2-4.5,0-.2-.3-.09-.09-.08s.1.05.07.13c-.63,1.59-1.59,3-2.14,4.65-.11.33-.29.73-.73.6s-.44-.55-.44-.89a8.16,8.16,0,0,0-1.54-4.82,3.68,3.68,0,0,0-1.28-1.26,1.92,1.92,0,0,0-3,1.63,4.26,4.26,0,0,0,2.06,3.81,14.22,14.22,0,0,0,3.39,1.66c.75.28,1.18.71.89,1.61a31.77,31.77,0,0,0-1.36,6.62c0,.31-.07.66-.41.73s-.55-.19-.7-.47a8.09,8.09,0,0,1-.45-1.28,6.6,6.6,0,0,0-1.74-2.8,2.27,2.27,0,0,0-2.91-.37,2.22,2.22,0,0,0-.68,2.84,5.66,5.66,0,0,0,3.33,3.32c3.29,1.31,3.17,1,2.73,4.74-.16,1.4-.33,2.8-.54,4.19-.08.53,0,1.27-.64,1.4s-.77-.66-1-1.14a11.26,11.26,0,0,0-1.6-2.9c-.9-1.12-2.08-1.43-3-.83a2.41,2.41,0,0,0-.77,3.1,5.56,5.56,0,0,0,2.18,2.64,18.35,18.35,0,0,0,2.46,1.15c1.54.65,1.67.88,1.27,2.53a46.47,46.47,0,0,1-2,6.18c-.16.39-.29,1-.81.95s-.47-.7-.44-1.13c.17-2.2-.68-4.16-1.48-6.11s-2.49-2.08-3.81-.52a8.32,8.32,0,0,0-1.53,3.25c-.15.54-.24,1.09-.43,1.61-.08.23-.17.52-.47.51s-.38-.29-.49-.51a5.05,5.05,0,0,1-.27-.86,45.27,45.27,0,0,0-2-6c-.59-1.43-.4-1.83,1.08-2.35.71-.25,1.42-.51,2.12-.81a6.17,6.17,0,0,0,2.61-2.24c.9-1.32.81-2.8-.18-3.55s-2-.49-3.2.69a9.12,9.12,0,0,0-2.38,4.64c-.1.47,0,1.19-.54,1.29s-.81-.64-1.06-1.1c-1.17-2.23-2.23-4.52-3.44-6.73-.7-1.29-.51-1.72.92-2.21a22.88,22.88,0,0,0,2.56-.91,5.7,5.7,0,0,0,2.75-2.71,2.33,2.33,0,0,0-.47-2.91,2.15,2.15,0,0,0-2.9.2,8,8,0,0,0-2.65,4.8c-.06.3,0,.61-.08.91s0,.9-.48,1-.79-.35-1-.76a59.36,59.36,0,0,1-3-7.25c-.13-.5-.48-1,.1-1.47,1.07-.43,2.2-.67,3.27-1.09a5.15,5.15,0,0,0,3.16-3.22,2.14,2.14,0,0,0-.75-2.81,2.21,2.21,0,0,0-2.87.53,8.91,8.91,0,0,0-2.54,5.33,1.8,1.8,0,0,1-.82,1.25,22.59,22.59,0,0,1-1.05-6c-.13-3.05-.07-3.05,3-3.82a6.21,6.21,0,0,0,3.64-2.24,2.57,2.57,0,0,0,0-3.44c-.85-.76-2.13-.68-3.28.32a8.91,8.91,0,0,0-2.48,3.72c-.27.73-.36,1.59-1.15,2-.77-.22-.86-.93-1.06-1.53a8.48,8.48,0,0,0-3.68-4.24,1.94,1.94,0,0,0-2.84.28,2.18,2.18,0,0,0,.07,3,6.24,6.24,0,0,0,5.17,2.3c.83,0,1.74-.24,2.41.53.34,2.76.3,5.57,1.06,8.27.15.51,0,.81-.57.62a10.9,10.9,0,0,0-4.29-3.64c-1.88-.76-3.41-.5-4,.77s.39,2.73,2.23,3.51c2.08.89,4,.12,6-.25.89-.12,1,.58,1.21,1.17a56.62,56.62,0,0,0,2.46,6.17c.13.31.47.66.18,1s-.76,0-1.05-.24a8.26,8.26,0,0,0-4.39-2.21,1.9,1.9,0,0,0-2.12,1.1,2.26,2.26,0,0,0,.39,2.54,4.1,4.1,0,0,0,1.12.76,7.06,7.06,0,0,0,5.15.38c2.12-.43,2.15-.42,3.15,1.49s1.87,3.69,2.77,5.55c.19.4.51.9.09,1.25s-.84-.1-1.16-.37a9.24,9.24,0,0,0-3.54-2,2.18,2.18,0,0,0-2.76.92,2.34,2.34,0,0,0,.86,3.05,6.09,6.09,0,0,0,4.91.91c3.06-.59,3.24-.47,4.12,2.54.49,1.69,1,3.39,1.33,5.12.07.37.25.88-.24,1.06s-.74-.28-.91-.63a8.15,8.15,0,0,0-3.64-3.52c-1.47-.79-2.71-.6-3.35.47s-.25,2.43,1,3.4a6.29,6.29,0,0,0,4,1.13c3.73,0,3.51-.36,4.13,3.5a33,33,0,0,1,.51,3.43c0,.55.15,1.15-.6,1.37a8.85,8.85,0,0,1-2.41.16q-216.51,0-433,0c-1,0-2,.27-2.88-.52,1.67-2.91,3.49-5.73,5-8.73a56.87,56.87,0,0,0,5.51-16.35,28.49,28.49,0,0,0-.23-9.7,29.46,29.46,0,0,1,1.33-14.09,51.29,51.29,0,0,1,15.67-23.54,53.44,53.44,0,0,1,25.23-12.76c5.19-1,10.38-.38,15.54.58,3,.56,5.92,1.5,8.87,2.3,1,.43.8,1.43,1,2.2.72,3.65,1.33,7.33,1.76,11a107,107,0,0,1,1,14,43.83,43.83,0,0,1-.74,5.83,1.87,1.87,0,0,1-1.7,1.66c-2,.36-4.09.43-6.12.79-2.68.48-4.11,2-4.16,4.79,0,1.86,0,3.73,0,5.59-.07,4.48-.67,8.92-1.13,13.37-.3,3-.52,6-.94,9-.08.55.24.71.71.71q8.15.54,16.28,1.13c5,.37,10,.74,15.07,1.07s9.85.74,14.77,1.05c3.57.22,7.14.43,10.7.78,1.46.15,2.93,0,4.38.22.67.11.65-.37.77-.83.47-1.92.27-3.9.46-5.86.35-3.59.42-7.21.94-10.8.7-4.81-1.79-8.29-5.22-11.25-1.46-1.26-1.54-1.58-.78-3.37,2.08-4.86,4.63-9.51,6.15-14.61.89-3,1.68-5.95,1.2-9.18-.36-2.44.24-4.91.67-7.34,1.11-6.2,2.7-12.3,3.8-18.49a1.71,1.71,0,0,1,1.77-1.54c.75,0,1.51,0,2.26,0H437a8.85,8.85,0,0,0,4-.54,7.67,7.67,0,0,0,4.68-7.33q0-12.63,0-25.26,0-23.82,0-47.65c0-.86-.39-2.15.56-2.46s1.32,1,1.82,1.71A106.25,106.25,0,0,0,457,160c3.16,3.4,7.1,5.75,11.09,8a201.85,201.85,0,0,0,19.22,9.52c1.6.7,2.34,2.32,3.56,3.43.11.1.15.28.26.37a5,5,0,0,1,1.84,6c-.67,2.27.31,4.23,1.55,6.07,3.32,4.93,7,9.59,10.69,14.25,5.4,6.83,10.95,13.53,16.46,20.27q5.21,6.38,10.45,12.71c.13.15.19,1,.74.29,1.06-6.17,1.86-12.37,2.78-18.55q4.18-28.2,8.32-56.4c.08-.49.14-1,.27-1.48s.47-.89,0-1.37c-3.14-3-5.56-6.65-8.53-9.8s-6.44-3.88-10.46-3a12.58,12.58,0,0,0-1.46.39,1.55,1.55,0,0,1-2.16-1q-4.34-10.07-8.82-20.06c-2.89-6.44-5.85-12.83-9.33-19-2.74-4.82-5.15-9.82-7.86-14.66a59.41,59.41,0,0,0-4.61-7.44,4.6,4.6,0,0,0-2.91-2A65.11,65.11,0,0,1,476.18,83a33.25,33.25,0,0,0-8.9-1.55,130.59,130.59,0,0,1-18-2.85c-3.6-.76-3.5,0-3.48-4.37,0-1.11,0-2.22,0-3.33a8.09,8.09,0,0,0-3.38-7.06C442.05,63.57,441.56,63.4,441.63,62.82Z"/><path class="cls-3" d="M441.63,62.82a8.92,8.92,0,0,1,4.6,8.85c-.09,1.61,0,3.23,0,4.84,0,.71.15,1.07.93,1.24A159.65,159.65,0,0,0,467,81c4.78.4,9.49,1.11,13.88,3.28A20.83,20.83,0,0,0,487,85.75a6.68,6.68,0,0,1,4.76,3.09c3.51,5.19,6.16,10.86,9.24,16.28,8.06,14.18,14.34,29.18,20.81,44.1.48,1.12.92,1.31,2.06,1,5.12-1.54,9.51-.54,13,3.75a105.79,105.79,0,0,0,7.88,9.17c.59.57.26.84-.24,1.12-1.31-.54-2-1.73-2.91-2.71-2.25-2.45-4.2-5.14-6.48-7.58-3-3.17-6.44-3.8-10.48-2.75a28.07,28.07,0,0,0-10.94,5.94A69.39,69.39,0,0,0,495.22,182a27.93,27.93,0,0,0-1.48,4.59,7.34,7.34,0,0,0,1.29,6.15c2.32,3.48,4.89,6.78,7.45,10.09,8.22,10.59,16.84,20.85,25.29,31.25,1.46,1.8,3,3.57,4.4,5.38a2.92,2.92,0,0,1,.84,1.57c.15.26.3.52.46.78a.38.38,0,0,1-.06.53c-.27.24-.47.07-.64-.13-.38-.46-.73-1-1.11-1.43-9.41-11.71-19.13-23.17-28.41-35-3.14-4-6.22-8.06-9.15-12.23a8.76,8.76,0,0,1-1.33-8,2.52,2.52,0,0,0-.62-2.55,22.18,22.18,0,0,0-9.72-7.3c-4.58-1.83-8.85-4.37-13.26-6.58a52.62,52.62,0,0,1-19-16.53c-1.24-1.7-2.5-3.39-4-5.4v74.95c0,5.66-3.38,9-9.05,9q-115.76,0-231.49,0c-1.54,0-2.11.32-2.39,1.93-1.1,6.45-2.82,12.79-3.84,19.26a29.83,29.83,0,0,0-.32,7.07c.28,3.65-.93,7.06-2.17,10.42-1.6,4.31-3.69,8.39-5.57,12.57a1.55,1.55,0,0,0,.56,2.24c3.51,2.75,6.29,6.14,5.77,10.86-.69,6.16-.92,12.35-1.47,18.52,0,.33.08.78-.46.8-.3,0-.34-.32-.46-.53s0-.16-.05-.24c-.17-1.07,0-2.15-.11-3.22.5-5,.51-9.95,1.27-14.89.49-3.15-.91-5.8-3-8.1a24.63,24.63,0,0,0-8.93-6.07,73.64,73.64,0,0,0-20.76-5.18A93.32,93.32,0,0,0,140,277c-2.84.39-3.9,1.56-3.85,4.58.15,9-1.23,17.87-2.06,26.79a2.7,2.7,0,0,1-.51,1.71c-1.3.94-.89-.24-.84-.73.28-3.06.61-6.11.92-9.16.65-6.36,1.44-12.71,1.19-19.13a5.48,5.48,0,0,1,1.37-3.88,3.34,3.34,0,0,1,2.3-1.26c2.31-.25,4.6-.61,6.9-.79,1-.07,1.21-.48,1.4-1.32,1.08-4.64.74-9.31.31-14a175.58,175.58,0,0,0-2.69-18.51,4.2,4.2,0,0,0-.22-.55c-2.58-13.66-5.51-27.25-9.23-40.64a14.85,14.85,0,0,1,.64-10.4,97.07,97.07,0,0,0,6.51-21,54.29,54.29,0,0,1,3.09-9.47c3.21-8.35,9.07-14.53,16-19.85,3.64-2.79,7.23-5.64,10.89-8.4a2.36,2.36,0,0,0,1.06-2.13q0-28.76,0-57.49c0-6,3.32-9.32,9.38-9.32q35.87,0,71.72,0a6.86,6.86,0,0,0,3.17-.73A40.25,40.25,0,0,1,270,57a6.4,6.4,0,0,1,7.33,4.22c.36.86.89.8,1.54.8H298c.41,0,.81,0,1.21,0,.77-.08,1.17.5,1.63.94a24.85,24.85,0,0,0,8.32,5.33c2.25.84,2.32,1.14,1,3.18a2.08,2.08,0,0,1-1.22,1,42.19,42.19,0,0,1-5.27.11c-5.93,0-11.86,0-17.78,0-1,0-2-.09-2.08,1.32a2.52,2.52,0,0,0,0,1.28c-.11.66-.62,1.26-.31,2,.06.41-.21.75-.25,1.14a1.12,1.12,0,0,1-.68.71,1.61,1.61,0,0,1-.81.16c-1-.62-.91-2-1.71-2.7-.14-.22.13-.63-.32-.7-1.82-.37-3.6-.52-5.28.52-.61.38-1.28.48-1.72-.24a1.25,1.25,0,0,1,.53-1.81,7.87,7.87,0,0,1,5.46-1.23,44.77,44.77,0,0,0-2.19-5c-.39-.71-.85-.24-1.25,0a40.09,40.09,0,0,1-12.93,5.71,3.9,3.9,0,0,1-.59.14c-1.08.11-1.46-.34-.92-1.3.65-1.16.07-1.3-.86-1.28A8.62,8.62,0,0,0,253.85,74c-.85.86-.87,1.85.16,2.44,3.63,2.12,3.61,5.11,2.28,8.5a3.6,3.6,0,0,0-.24,1c-.08.55-.37,1.05-.41,1.61a4.5,4.5,0,0,1-.74,1.13,1.86,1.86,0,0,0,.2,2.6c.52.55,1.09,1,1.57,1.63.87,1,.63,2-.64,2.47a3.43,3.43,0,0,1-4-1,11.65,11.65,0,0,0-2.56-2.1c-.28-.38-.75-.44-1.12-.68a30.16,30.16,0,0,1-4.85-5.18A10.81,10.81,0,0,1,242.24,75c1-2.2,1.28-2.3-1.55-2.3H192c-5.24,0-8,2.77-8,8q0,26,0,51.9c0,2.16,0,2.14,2,3a6.21,6.21,0,0,1,3.78,3.47c.07.52-.07,1,0,1.55a89.47,89.47,0,0,1,.29,10.86c0,2.32-.49,2.68-2.74,2.14l-3.23-.8a19.67,19.67,0,0,0-8.83-.57c-.86.18-1.78.22-1.85-1.09a9.74,9.74,0,0,1-.61,3.35,29.15,29.15,0,0,0-1.18,8.35c0,5.39-.09,10.79,0,16.18.09,4.57-1.4,8.73-2.88,12.91-1.6,4.52-3.53,8.91-5.44,13.3-.32.74-.64,2-1.61,1.62s-.23-1.53.08-2.24c2.15-5.05,4.25-10.13,6.18-15.28a5,5,0,0,0-.42-5.09c-1.85-2.65-3-5.69-4.41-8.6a2.32,2.32,0,0,1-.13-2c2.55-5.79,3.13-12.07,4.41-18.18,0-.15,0-.3.08-.45.53-3,.39-3.27-2.49-4.54a6.54,6.54,0,0,1-1-.44c-.41-.26-1-.5-.75-1.12s.86-.45,1.35-.32a11.42,11.42,0,0,1,3.54,1.68c.73.51,1.19.34,1.81-.26a8.86,8.86,0,0,0,2.94-7.42c-.21-3.35-.05-6.73-.05-10-.48-.24-.7,0-.92.21a191,191,0,0,0-17,13.89c-4.68,4.49-7.45,10.1-9.65,16.06a56.8,56.8,0,0,0-2.87,10.65c-.88,5.43-3.06,10.43-5.09,15.48a32.88,32.88,0,0,0-1.52,4.27,9.27,9.27,0,0,0,0,4.79c2.05,7,3.62,14.07,5.21,21.15,2.26,10.08,4.58,20.16,6.17,30.38a141.74,141.74,0,0,1,1.7,17.58,33.75,33.75,0,0,1-.6,5.86c-.23,1.56,0,1.77,1.55,1.66a84.4,84.4,0,0,1,24.89,2.26,55.76,55.76,0,0,1,13.74,5c1.46.77,1.62.69,2.26-.76,1.66-3.79,3.52-7.48,5-11.34a27.71,27.71,0,0,0,2.23-11.94,3,3,0,0,1,.1-1c-1.37,4.69-3,9.28-4.64,13.88-.26.73-.45,2.05-1.53,1.64-.92-.34-.29-1.44,0-2.15a235.53,235.53,0,0,0,8.36-28.42,106.07,106.07,0,0,0,3.22-19c0-.49-.11-1.19.73-1.23a6.76,6.76,0,0,1,.12,1.65c.25-.71-.57-1.78.68-2.28a9.66,9.66,0,0,1,2.4-.14h28.33c1.1,0,2.19,0,2.18-1.54,0-.94-.23-1.92.38-2.79.21-.08.45,0,.47.19.11,1.41,0,2.82,0,3.87.3-.9-.34-2.29.23-3.54.83.39.66,1.17.71,1.84.14,1.82.22,1.91,2.08,2h54.3c1.31,0,2.62,0,3.93-.06.38,0,.75.12,1.13.11q4-.06,8,0c.37,0,.73-.09,1.09-.09q6.1.18,12.19,0c.45.21.85,0,1.26-.16a14.56,14.56,0,0,0,2.87.23c33.59,0,67.18,0,100.76.05,4.88,0,8.18-3.12,8.16-8.15-.09-26.32-.05-52.65,0-79a7.2,7.2,0,0,0-1.36-4.37,83.19,83.19,0,0,0-10-12.29c-1.61-1.53-3.46-2.73-5.31-4.25a17.3,17.3,0,0,0-.23,4.23c0,1,0,2,0,3-.1,1.5-.56,2-2,2.09-.5,0-1,0-1.51,0H352.45c-3.17,0-3.28-.12-3.28-3.35q0-19.28,0-38.57c0-3.07.14-3.21,3.26-3.22h62.49c.55,0,1.11,0,1.66,0,1,.06,1.78.52,1.85,1.61.1,1.35.81,1.25,1.75.9,3.07-1.15,6.21-2.11,9.19-3.49a33.12,33.12,0,0,0,3.55-1.41,5.5,5.5,0,0,0-3.79-1.78,17.06,17.06,0,0,0-2.26,0q-49.78,0-99.56,0c-2.08,0-4.12.38-6.19.37a3.22,3.22,0,0,0-2.13,1c-5.05,4.49-10.17,8.9-15.23,13.37a9.67,9.67,0,0,1-1.43,1.12c-.39.22-.81.52-1.25.18s-.33-.9-.14-1.38a2.93,2.93,0,0,1,.36-.65A4.35,4.35,0,0,1,302.57,85c5.3-4.49,10.42-9.19,15.71-13.69A4.13,4.13,0,0,1,321,70.28a25.7,25.7,0,0,0,18.26-7.46c.42-.42.83-.92,1.54-.8q48.27,0,96.55,0A13.26,13.26,0,0,1,441.63,62.82Z"/><path class="cls-4" d="M340.81,62a28.21,28.21,0,0,1-11.48,7.28,28.64,28.64,0,0,1-8.75,1.44,2.43,2.43,0,0,0-1.78.6q-8.46,7.5-17,15c-.07.19-.12.41-.36.43s-.35-.15-.35-.37a2.36,2.36,0,0,1,.49-1.24c2.17-3.82,4.35-7.62,6.5-11.44a4.65,4.65,0,0,1,1.24-1.51c1.64-2.63,1.65-2.66-1.18-3.85a29.7,29.7,0,0,1-8.9-6.26,36.59,36.59,0,0,1-3.46-5.64c-3.14-7.34-1.44-15.63,4.45-21.57,10.53-10.63,29.66-10.43,40,.41a19.31,19.31,0,0,1,1.18,25.89A10,10,0,0,0,340.81,62Z"/><path class="cls-5" d="M67.3,323c.45,0,.9.05,1.35.05H506a2.15,2.15,0,0,0,1.84-.28,3.55,3.55,0,0,1,1.94,0c.53.74,1.23.3,1.86.27l45,0c4.94,0,9.88,0,14.82.08.44,0,1.19-.4,1.23.59s-.72.56-1.17.65a4.79,4.79,0,0,1-.76,0q-262.72,0-525.46,0c-.63,0-1.89.63-1.85-.62s1.27-.57,1.91-.57C52.67,323,60,323,67.3,323Z"/><path class="cls-6" d="M120.12,351.71a1,1,0,0,1-.42.89c-1.92,1.92-3.86,3.83-5.76,5.76-.48.48-.81.59-1.34,0q-2.89-3-5.87-5.86c-.52-.5-.54-.82,0-1.33,2-1.93,3.92-3.9,5.88-5.86.31-.31.58-.72,1.09-.21,2.06,2.08,4.13,4.13,6.19,6.19A1.77,1.77,0,0,1,120.12,351.71Z"/><path class="cls-7" d="M476,6.27c0,.44-.3.59-.5.8-1.74,1.75-3.51,3.47-5.23,5.24-.58.6-.94.49-1.46-.05-1.69-1.73-3.39-3.45-5.14-5.12-.67-.63-.5-1,.07-1.58,1.7-1.64,3.36-3.33,5-5,.38-.38.69-.9,1.33-.25,1.83,1.88,3.7,3.71,5.55,5.56C475.78,6,475.89,6.17,476,6.27Z"/><path class="cls-6" d="M502.91,18.38c-.21.24-.39.48-.59.69-1.74,1.74-3.51,3.46-5.22,5.24-.59.62-.92.47-1.44,0q-2.58-2.66-5.23-5.23c-.5-.48-.57-.79,0-1.31,1.81-1.75,3.57-3.54,5.34-5.32.41-.41.72-.61,1.22-.09,1.83,1.87,3.69,3.71,5.54,5.56C502.65,18,502.75,18.18,502.91,18.38Z"/><path class="cls-6" d="M104.74,361a18.69,18.69,0,0,1-3.92,4,1.14,1.14,0,0,1-.49-.3,6.44,6.44,0,0,1-.64-.64c-.91-1.05-2.92-2.06-2.63-3,.42-1.4,2.12-2.42,3.26-3.61a.6.6,0,0,1,1,0l3.18,3.2A1.7,1.7,0,0,1,104.74,361Z"/><path class="cls-8" d="M511.87,54.17a2.61,2.61,0,0,1,2.75,2.71A2.79,2.79,0,1,1,509,56.8,2.6,2.6,0,0,1,511.87,54.17Z"/><path class="cls-9" d="M533,241.05c-12.17-15-24.65-29.81-36.41-45.19-3.73-4.87-4-9.38-1.51-14.66a77.26,77.26,0,0,1,16.13-22.46A33.82,33.82,0,0,1,522,151.66a18.15,18.15,0,0,1,4.51-1.22,9.26,9.26,0,0,1,8.64,2.94c3.17,3.57,6.23,7.22,9.34,10.84-.2,3.35-.92,6.63-1.37,9.95-.59,4.45-1.29,8.89-1.95,13.34l-2,13.34c-.66,4.45-1.3,8.89-2,13.34q-1.12,7.63-2.24,15.27c-.47,3.22-.95,6.43-1.38,9.64A3.39,3.39,0,0,1,533,241.05Z"/><path class="cls-9" d="M133.58,310c.54-5.67,1-11.34,1.63-17a101.11,101.11,0,0,0,.49-11.93c0-2.75,1.09-4.13,3.76-4.5,14.81-2.05,29.37-1.25,43.49,4a27.78,27.78,0,0,1,10.16,6.1,11.61,11.61,0,0,1,3.53,11.1c-.79,4.29-.74,8.73-1,13.1-.36,1.09.09,2.25-.26,3.35h0c-5.73.06-11.41-.72-17.12-1-4.19-.2-8.39-.59-12.58-.89-5.8-.41-11.59-.83-17.39-1.21-4.3-.29-8.58-.74-12.89-.88A13.6,13.6,0,0,1,133.58,310Z"/><path class="cls-4" d="M507.52,323.09c-.54,1-1.06.91-1.56,0-.36-2.24-.74-4.47-1-6.71-.1-.8-.45-1-1.19-.94a24,24,0,0,1-3.17.08,5.55,5.55,0,0,1-4.28-2.24,2.54,2.54,0,0,1-.08-3.1,2.34,2.34,0,0,1,2.95-.87,8.4,8.4,0,0,1,4.54,3.77c.2.34.25.78.78,1.06a51.78,51.78,0,0,0-2.21-8c-.32-.87-.85-.65-1.44-.52a9.07,9.07,0,0,1-5.06.19,5.5,5.5,0,0,1-2-1.06,2.63,2.63,0,0,1-.79-3.26,2.43,2.43,0,0,1,3-1.31,12.52,12.52,0,0,1,4.88,2.61q-1.86-3.76-3.71-7.53c-.25-.53-.56-.56-1.09-.42-.87.23-1.78.33-2.66.53a5.08,5.08,0,0,1-2.54-.14c-1.48-.44-2.9-1-3.29-2.75a2.27,2.27,0,0,1,.89-2.55c1.42-1,2.79-.38,4.14.24a11.62,11.62,0,0,1,3.12,2.33c-1-2.58-2.26-4.77-2.74-7.24a.22.22,0,0,1,.33,0,70.18,70.18,0,0,0,3.66,8.06c.42-.55.26-1.11.32-1.6a8.51,8.51,0,0,1,2.78-5.38,2.42,2.42,0,0,1,3.3-.4,2.61,2.61,0,0,1,.87,3.37A6.64,6.64,0,0,1,499.8,293c-2.53.82-2.52.82-1.3,3.14s2.29,4.44,3.61,7a9.75,9.75,0,0,1,1.43-5,7.09,7.09,0,0,1,1.65-2,2.43,2.43,0,0,1,3.2-.21,2.56,2.56,0,0,1,.88,3.11,6.3,6.3,0,0,1-4.2,3.82c-2.64.91-2.65.95-1.63,3.55a57.09,57.09,0,0,1,2,6.47,13.72,13.72,0,0,1,1.31-4.75,4.69,4.69,0,0,1,1.91-2.08,2.4,2.4,0,0,1,3.4,1.5c.7,2.38,2,4.65,1.41,7.32a38.36,38.36,0,0,0,2.7-7.85c.15-.69-.12-.87-.67-1.07a26.8,26.8,0,0,1-2.64-1.12A5.83,5.83,0,0,1,510,301.7a2.84,2.84,0,0,1,.87-3.52,2.65,2.65,0,0,1,3.52.69,9.82,9.82,0,0,1,2,3.55c.11.29,0,.72.58.92.34-2.71.66-5.38,1-8,.07-.58-.2-.8-.68-1-.94-.35-1.87-.74-2.79-1.16a5.54,5.54,0,0,1-2.34-2.08c-1.23-1.83-1.13-3.62.25-4.59s3-.41,4.26,1.56a11.83,11.83,0,0,1,1,1.87c.24.57.4,1.18.73,2.17a49.61,49.61,0,0,1,1.63-7.74c.23-.71-.21-.84-.71-1-1-.41-2.06-.83-3-1.33a5.58,5.58,0,0,1-2.7-3.14,2.8,2.8,0,0,1,1-3.48,2.5,2.5,0,0,1,3.37.73,8.15,8.15,0,0,1,2.25,5.31,4.61,4.61,0,0,0,.12,1.2c1.15-2,1.9-4.21,3.34-6-.84,2.16-2.15,4.14-2.56,6.52a9.76,9.76,0,0,1,4.08-3.21,8.5,8.5,0,0,1,2-.59,2.56,2.56,0,0,1,2,4.61,5.35,5.35,0,0,1-4.25,1.15,24.41,24.41,0,0,1-3.37-.84c-.64-.2-1-.23-1.21.55a62.06,62.06,0,0,0-1.56,9.11c1.29-1.56,2.29-2.81,3.78-3.51a7.78,7.78,0,0,1,3.16-.94,2.4,2.4,0,0,1,2.54,1.5,2.52,2.52,0,0,1-.88,3.1,5.56,5.56,0,0,1-4.56,1.14,15.21,15.21,0,0,1-2.91-.77c-1-.39-1.22,0-1.31.87-.27,3-.58,5.91-.87,8.89.57.06.65-.5.92-.8a8.82,8.82,0,0,1,5.22-2.81,2.47,2.47,0,0,1,2.9,1.37,2.51,2.51,0,0,1-.88,3.23,6.08,6.08,0,0,1-5.31,1c-1-.23-2.24-1.16-2.94-.6s-.56,1.94-.78,3c-.45,2.1-1.22,4.11-1.81,6.19a9.53,9.53,0,0,1,4.62-3.77c1.64-.62,3-.25,3.58.94a2.92,2.92,0,0,1-1.17,3.82c-2,1.41-4.19,1.31-6.39.87-1.08-.22-1.53,0-1.88,1-.65,1.85-1.44,3.64-2.18,5.46-.53.74-1.08,1-1.66.05.14-1.64,1.12-3,1.7-4.45.87-2.22.92-2.22-1.08-3.46-.9-.56-1.68-1.5-3-.8a1.59,1.59,0,0,0-1,2c.38,1.72.68,3.46,1,5.2A2.57,2.57,0,0,1,507.52,323.09Z"/><path class="cls-4" d="M524.5,274.36c1.79-.74,3.06-2.19,4.9-2.54a13.5,13.5,0,0,1,1.78-.3c1.7-.09,2.72.57,3,1.89a2.91,2.91,0,0,1-1.93,3.22c-2.32,1-6.35.05-8.17-1.79a23.77,23.77,0,0,0-2.51-1.92,6.4,6.4,0,0,1-2.34-3.78,2.93,2.93,0,0,1,1.72-3.6c1.39-.47,2.56.15,3.33,1.84A8.77,8.77,0,0,1,524.5,274.36Z"/><path class="cls-4" d="M493.36,285.23H493c-.27-.43-.38-1.08-1.14-.86a.71.71,0,0,1,0-1.05c.16,0,.58.4.43-.13-.79-2.81-.69-5.72-1.07-8.58a.23.23,0,0,1-.07-.22c0-.08.06-.11.08-.11.88-1.51,1.11-3.33,2.32-4.69a9,9,0,0,1,1.85-1.75,2.46,2.46,0,0,1,3.21.11,2.61,2.61,0,0,1,.49,3.33,6.58,6.58,0,0,1-5,3.31c-2.49.5-2.52.52-2.31,3.11a30,30,0,0,0,1,5.78c.49-.22.16-.77.47-1.05a1.16,1.16,0,0,1,0,1.63C493.06,284.44,493.41,284.84,493.36,285.23Z"/><path class="cls-10" d="M491,262.79a10.87,10.87,0,0,1,.83-4.11,2.68,2.68,0,0,1,3.09-1.8,2.9,2.9,0,0,1,2,3.29,7.41,7.41,0,0,1-3.15,4.92c-1.93,1.51-1.93,1.53-2.51-.83C491.17,263.73,491.1,263.18,491,262.79Z"/><path class="cls-4" d="M529.51,268.3a8.92,8.92,0,0,1,3.87-6.29c1.53-1.07,3-1,3.91.18a2.93,2.93,0,0,1-.48,3.95C534.8,268.24,532.2,268.32,529.51,268.3Z"/><path class="cls-4" d="M491.91,283.33c0,.35,0,.7,0,1.05-2,.68-4.07,1.17-6.16.28a6,6,0,0,1-1.55-.91,2.6,2.6,0,0,1-.8-3.25,2.37,2.37,0,0,1,2.92-1.31A7.76,7.76,0,0,1,491.91,283.33Z"/><path class="cls-4" d="M491.28,274.29v.33c-2.28.13-4.54.18-6.53-1.24a4.47,4.47,0,0,1-1.73-2,2.52,2.52,0,0,1,.52-2.8,2.26,2.26,0,0,1,2.77-.53,8.38,8.38,0,0,1,4.37,4.58C490.9,273.14,491.08,273.72,491.28,274.29Z"/><path class="cls-4" d="M493.4,284.07c0-.54,0-1.09,0-1.63a7.73,7.73,0,0,1,3.09-5.92,2.3,2.3,0,0,1,2.68-.23,2.39,2.39,0,0,1,1.3,2.37,4.92,4.92,0,0,1-2.77,4A9.86,9.86,0,0,1,493.4,284.07Z"/><path class="cls-9" d="M204.05,221.31a133,133,0,0,1-2,14.2,256.05,256.05,0,0,1-9.93,35,1.42,1.42,0,0,0-.1.29c-.06.44-.69,1,0,1.28.55.19.58-.55.72-.93,1.78-4.93,3.48-9.88,5-14.9.1-.33.08-.7.3-.82,1.17,6.05-.66,11.65-3.06,17.13-1.45,3.32-3,6.6-4.45,9.92-.26.6-.45.75-1.08.38-8.2-4.75-17.23-6.64-26.51-7.64a88.19,88.19,0,0,0-14.35-.34c-.65,0-1.24.14-1-.88,1.62-6.63.68-13.27-.25-19.84-2.71-19.13-7.13-37.91-12.13-56.56a8.48,8.48,0,0,1,.39-5.2c1.51-4.11,3.12-8.18,4.64-12.29s1.87-8.35,3-12.47a66.5,66.5,0,0,1,5.22-13.18c2.78-5.24,7-9.21,11.46-12.92,4.24-3.48,8.58-6.85,13-10.12.52.31.26.75.26,1.1,0,3.58-.11,7.17.05,10.74a7.23,7.23,0,0,1-2.32,6.22c-.64.56-1,1.56-1.72,1.86s-1.22-.88-2-1.22a26.47,26.47,0,0,0-3.19-1.38c-.28-.09-.62-.14-.72.27s.23.42.45.51a15,15,0,0,1,3.41,1.61,2.07,2.07,0,0,1,1,2.41c-1.05,5-1.77,10.13-3.06,15.1a28.59,28.59,0,0,1-1.55,4.42,2.84,2.84,0,0,0,0,2.67,77.8,77.8,0,0,0,5,9.49,2.65,2.65,0,0,1,.29,2.54c-1.86,5.66-4.19,11.12-6.56,16.57-.22.51-.47,1-.67,1.52-.13.34-.56.8,0,1s.61-.39.76-.73a159.67,159.67,0,0,0,8-20.69,29.64,29.64,0,0,0,.8-7.8c.07-6.2-.34-12.4.19-18.6.25-3,1.47-5.64,2-8.63,0,1.65.8,1.63,2,1.38,4.31-.87,8.4.4,12.47,1.57,1.39.4,1.62,0,1.66-1.25a102.35,102.35,0,0,0-.28-11.62c.76.08.89.72,1.1,1.27a30.61,30.61,0,0,1,1.51,7.52,119.92,119.92,0,0,1,.32,13.13c0,6,.27,12-.14,18a22.27,22.27,0,0,0,4.22,14.6,58,58,0,0,1,6.12,11.44,32.58,32.58,0,0,1,2.12,13.62A1.82,1.82,0,0,1,204.05,221.31Z"/><path class="cls-9" d="M309.33,72.17c-2.56,4.53-5.11,9-7.64,13.6,0,.07-.83.59.12.53.07.62-.44,1-.64,1.49-.11.27-.37.53,0,.79s.56,0,.78-.2c1.6-1.38,3.19-2.78,4.78-4.18,4.1-3.58,8.21-7.15,12.28-10.77a3.4,3.4,0,0,1,2.29-.9c21.27-.9,42.55-.21,63.83-.37,14.22-.11,28.44,0,42.66,0a8,8,0,0,1,6.32,2.63c-5,1.85-9.95,3.65-14.87,5.53-1,.39-1.25.19-1.22-.87.08-2.24.26-2-2-2q-32.29,0-64.6,0c-1.43,0-1.87.32-1.86,1.81q.09,20.34,0,40.69c0,1.43.4,1.74,1.77,1.74q32.46-.07,64.91,0c1.41,0,2-.29,1.89-1.8-.12-2.7,0-5.41,0-8.14a46.66,46.66,0,0,1,12.68,12.17c1.65,2.29,3.65,4.44,4.76,7s.36,5.57.36,8.37q.06,36.92,0,73.83c0,4.13-2.17,7.09-5.83,7.95a10.58,10.58,0,0,1-2.25.19q-51.45,0-102.89,0c-.62,0-1.36.21-1.56-.72a1,1,0,0,1,0-1.58,6.39,6.39,0,0,1,3-.33c3.08-.1,4.74-1.69,4.92-4.76,0-.66,0-1.32,0-2V99.51c0-5.57-1.29-6.85-6.85-6.85H290a9.92,9.92,0,0,1-2.55-.15,1.51,1.51,0,0,1-1-1.25c-.56-2.09-1.32-4.1-2-6.15-.46-1.44-.35-1.66,1.12-2.22.7-.26,1.43-.46,2.13-.73,1.41-.52,1.86-1.22,1.5-2.64a31.56,31.56,0,0,0-1.42-4.28,1.75,1.75,0,0,0-2.25-1c-.71.14-1.38.67-2.17.3,0-2.44,0-2.45,2.42-2.44Z"/><path class="cls-9" d="M409.43,100.91c1.81.85,3.31,1.51,4.78,2.24.7.35,1.06.19,1.45-.46a34.18,34.18,0,0,1,8.92-10.55c.67-.49.46-.86,0-1.33-.8-.82-1.59-1.67-2.53-2.66a81.39,81.39,0,0,1,9.78,5,29.72,29.72,0,0,1,9.78,8.6c3.32,4.81,7.41,9,11.34,13.37.25.27.53,1,1,.46s-.16-.69-.38-1a2.85,2.85,0,0,0-.41-.44,4.39,4.39,0,0,1-1.72-4.61,7.65,7.65,0,0,0-.83-4.4c-.4-1-.93-1.9-1.37-2.86-1.79-3.93-4.6-6.39-9.12-6.54a12.4,12.4,0,0,1-6.52-2.44,78.28,78.28,0,0,0-12.47-6.45c-1.29-.56-2.57-1.15-3.84-1.75A9.5,9.5,0,0,0,412,84c.24-.54.74-.5,1.14-.65,5.94-2.22,12-4.07,17.84-6.64a9.62,9.62,0,0,1,6.64-.42A178,178,0,0,0,470,82.18c.9.07,1.79.35,2.69.4,7,.45,10.45,5.29,13.44,10.76.3.57.36,1.91,1.23,1.46.64-.33-.27-1.29-.58-1.91a40.14,40.14,0,0,0-5.05-7.34c2.48.53,4.66,1,6.84,1.48a3.77,3.77,0,0,1,2,1.73,82.23,82.23,0,0,1,5.66,9.29,488.15,488.15,0,0,1,24.86,51.71c.19.45.86,1-.16,1.44-7.72,3.41-13.3,9.31-18.26,15.91a64.74,64.74,0,0,0-9.31,16.1c-1.4-1.58-2.72-3-4-4.46a6.69,6.69,0,0,0-2.52-1.85c-5.77-2.53-11.35-5.44-17-8.27a53.87,53.87,0,0,1-19.13-16.56c-4.66-6.29-8.87-12.85-13-19.48A94.85,94.85,0,0,0,426.13,117a30.19,30.19,0,0,0-4.12-3.54C417.27,110,413.44,105.61,409.43,100.91Z"/><path class="cls-4" d="M238.26,216.22l0,2.74a2.67,2.67,0,0,1-2,.49c-7.92,0-15.83,0-23.74,0-3.77,0-5.88-2.19-5.88-6q0-57.76,0-115.52c0-4.2,2-6.26,6.21-6.27q16.63,0,33.27,0a5.68,5.68,0,0,1,1.79.17c.79.35.58,1,.38,1.54-.94,2.67-.21,5.2.89,7.58a5.35,5.35,0,0,0,5.15,3.13,4.62,4.62,0,0,1,4.21,2.39,29,29,0,0,1,3.67,9.54,2.5,2.5,0,0,1-.8,2.47,12.91,12.91,0,0,0-3.57,6A4,4,0,0,1,255.9,127c-5.73,3.47-11.44,7-17.19,10.42a9.72,9.72,0,0,1-2.34,1,5.3,5.3,0,0,0-3.91,3.82c-1.84,6.08-3.48,12.21-5.1,18.34-2.28,8.61-4.67,17.2-6.32,26-.46,2.48-1.16,4.9-1.59,7.38-1.13,6.59,3.15,11.81,9.86,11.93,2.26,0,4.49-.43,6.77,0,1.24.22,1.85.64,2.07,1.92.45,2.71.07,5.44.34,8.14C238.5,216,238.36,216.12,238.26,216.22Z"/><path class="cls-9" d="M248.33,92.25c-12.2,0-24.4,0-36.6,0A4.63,4.63,0,0,0,207.08,97c0,.31,0,.61,0,.91q0,57.71,0,115.39a5.5,5.5,0,0,0,1.67,4.51,5.27,5.27,0,0,0,3.65,1.16h25.87a9.55,9.55,0,0,0,.09,1.2c.12.73-.14,1-.89,1-1.21-.06-2.42,0-3.63,0l-29.05,0c-.89-1.24-.31-2.65-.31-3.94,0-6.48-2.39-12.18-5.5-17.66-1.69-3-3.57-5.83-5.24-8.82a13.33,13.33,0,0,1-1.72-6.94c.13-7.05.23-14.09.22-21.14,0-5.87.15-11.77-1-17.59a16.42,16.42,0,0,0-1.38-4.29,2.59,2.59,0,0,1-.36-1.29,6.67,6.67,0,0,0-5-3.75c-.89-.18-1.08-.52-1.08-1.37,0-18.1,0-36.2,0-54.3,0-4.52,3.11-7.79,7.49-7.8q26.24-.06,52.48,0a3.55,3.55,0,0,1,.52.09c-.53,1.16-1.07,2.28-1.55,3.42a9.75,9.75,0,0,0,1,9.9A26.61,26.61,0,0,0,248.19,91c.29.25.74.39.71.9A.52.52,0,0,1,248.33,92.25Z"/><path class="cls-9" d="M383.85,115.8q-16,0-31.92,0c-1.08,0-1.54-.13-1.54-1.42q.09-17.4,0-34.78c0-1.09.21-1.44,1.39-1.44,21.32,0,42.65,0,64,0,.47,0,1.41-.49,1.38.56s.58,2-1,2.59c-6.5,2.3-13,4.73-19.43,7.14-1.13.42-2.24.9-3.33,1.43-1.42.69-1.75,1.61-1.19,3.1a6.84,6.84,0,0,0,2.42,3c3.39,2.53,7.14,3.94,11.43,3.4a1.8,1.8,0,0,1,1.88.82,75.26,75.26,0,0,0,7.84,8.8,4.07,4.07,0,0,1,1.44,3.39c-.12,3.3,0,3.3-3.27,3.3Z"/><path class="cls-9" d="M249.47,92.16A5,5,0,0,1,252,93.9a3.26,3.26,0,0,0,4,1.19c1.06-.46,1.22-1.11.45-2a9.74,9.74,0,0,0-1.12-1c-1.82-1.53-1.86-2.42-.22-4.2a3.38,3.38,0,0,0,.38-.6c0-.65.5-1,.91-1.3.67-.54,1.3-.51,1.68.39s.57,1.72.91,2.56c.55,1.37,1.17,1.73,2.58,1.32,3.23-1,6.44-2,9.62-3.15,1.4-.5,1.71-1.26,1.3-2.75-.3-1.12-.75-2.2-1.05-3.32a1.49,1.49,0,0,1,1.24-2.13c1.11-.27,1.6.23,1.74,1.29a6.92,6.92,0,0,0,.9,2.22c1.87,3.75,3.73,7.49,5.24,11.4.82,2.12.34,2.75-1.95,2.66-.71,0-1.39-.24-2.1-.28a12.13,12.13,0,0,0,3.12.33c1.4-.11,1.72-.51,1.3-1.84a26.93,26.93,0,0,0-1.64-4.06c-.58-1.12-1.05-2.29-1.58-3.43s-.26-1.6.79-2c1.27-.48,2.59-.84,3.87-1.28a1.41,1.41,0,0,1,2,1A46.12,46.12,0,0,1,287,94.11a30.85,30.85,0,0,1-1.39,16.07,13.6,13.6,0,0,1-3.26,5.21,4.08,4.08,0,0,1-4.72,1,15.19,15.19,0,0,0-3.07-1c-.23.57.13,1,.35,1.39,1.07,1.94,2.06,3.93,3.18,5.84a6,6,0,0,1,.86,3.16c0,2,0,4,0,6,0,.5,0,1.09-.5,1.35s-.95-.16-1.34-.47c-4-3.11-7.92-6.24-11.62-9.66a10.93,10.93,0,0,1-3.14-6.08A26.28,26.28,0,0,0,258.14,106a4,4,0,0,0-3.65-1.92,5.76,5.76,0,0,1-5.86-4.34,10.85,10.85,0,0,1-.66-5.2C248.16,93.57,248.25,92.47,249.47,92.16Z"/><path class="cls-11" d="M249.47,92.16c-2.19,2.84-1.18,5.78,0,8.53s3.59,3.22,6.22,3.08a2,2,0,0,1,1.59.67,13.46,13.46,0,0,1,3,4.47,28.24,28.24,0,0,1,2.24,7.2,12.64,12.64,0,0,0,4.73,8c3.63,3,7.23,6,11.15,9.18,0-2.13-.12-4,0-5.77a10.08,10.08,0,0,0-1.64-6.4c-1.1-1.74-2-3.62-2.95-5.44-.17-.3-.48-.62-.19-1s.65,0,1,.07a33.05,33.05,0,0,1,3.09,1.22c1.81.88,3.23.26,4.48-1a17.48,17.48,0,0,0,4.14-8.77c1.59-7.42.27-14.51-2.48-21.44-.27-.7-.58-.75-1.23-.51-1.42.53-2.85,1-4.3,1.42-.78.21-.78.45-.47,1.12,1.13,2.42,2.24,4.85,3.23,7.33.9,2.26.4,2.89-2.09,2.81-1.15,0-2.3-.24-3.45-.38-.29,0-.67-.1-.6-.51s.44-.3.72-.27c1.26.11,2.51.25,3.76.36s1.43-.34,1-1.44c-1.65-4.39-3.8-8.55-5.87-12.75a3.56,3.56,0,0,1-.68-2c.05-.53-.17-1.14-.86-.7-.51.33-1.8-.11-1.44,1.2s.82,2.49,1.22,3.73c.6,1.89.19,2.77-1.62,3.38-3.11,1-6.21,2.07-9.33,3.07-1.85.6-2.69.16-3.33-1.7-.34-1-.67-2-1-3a2.26,2.26,0,0,0-.18-.16c-.6.53-1.41.82-1.89,1.55-.58-.59.32-.75.34-1.17.73-2.3,1.7-4.27,4.44-4.86a58.1,58.1,0,0,0,6-2,10.31,10.31,0,0,1,4.41-.78,6.13,6.13,0,0,0,3.41-1.09,23.06,23.06,0,0,1,4.23-1.62,1.9,1.9,0,0,1,1.6,0c.38.17.14.43.08.65-.17,1-1.07.77-1.65,1-3.78,1.4-3.87,1.6-2.08,5.21,1,2,1.07,2.07,3.22,1.37.19-.06,0,0,.14-.05.88-.35,2.06-.31,2.6-1.07s-.39-1.75-.56-2.65c-.07-.35-.17-.69.1-1a.71.71,0,0,1,.74-.36c.78.53.9,1.44,1.18,2.22.37,1.05.94,1.22,2,.89,3.21-1,3.28-1.09,2.18-4.32-.72-2.11-.71-2.09-2.45-.73-.68.54-1.18,1.43-2.25,1.36-.76-.48.19-.66.18-1,0-1.16,1.16-1.34,1.75-2.05-.48,0-1,.39-1.41,0-.54,0-.47-.31-.31-.65,4.12-1.39,4.22-1.34,5.62,2.86s1.34,4.27-2.83,5.65c-1.82.6-1.78.59-1.18,2.38.75,2.24,1.43,4.5,2.14,6.75a1.58,1.58,0,0,1,.56,1,31.17,31.17,0,0,1-1.41,17.39c-1.12,2.79-2.52,5.42-5.5,6.73-.65.28-.65.65-.14,1.12a18.64,18.64,0,0,1,4,5.84,5,5,0,0,0,2.66,2.51c6.66,3,13.27,6.13,20,9a4.69,4.69,0,0,1,2.65,2.73,22.39,22.39,0,0,1,1.11,4.55c1.29,8.17,3.12,16.23,4.79,24.33s3,16.47,4.23,24.74a7,7,0,0,0,1.24,2.86,27,27,0,0,1,4.12,10,2,2,0,0,1-1.21,2.36c-1.5.63-1.69,1.65-1.48,3.16.32,2.29.65,4.59.79,6.91,0,.49.2,1-.13,1.46,0,.47,0,.94,0,1.41s-.2.64-.65.39c-1-1.35-.74-3-.95-4.49q-.4-2.91-.71-5.83c-.14-1.33-.35-1.43-1.65-1-3.73,1.22-7.4,2.6-11.2,3.57-1,.26-1.16.71-.69,1.6.77,1.46,1.51,2.95,2.22,4.45.24.52.68,1,.29,1.67a.66.66,0,0,1-.72.31c-.77-.51-.95-1.41-1.41-2.12a3.4,3.4,0,0,1-.27-.54,14.16,14.16,0,0,0-5.64-7.13c-.17,1.9.13,3.88-.51,5.76a22,22,0,0,0-.16,3.34,1.46,1.46,0,0,1-.29.69.68.68,0,0,1-.73-.32,3,3,0,0,1-.38-2.46c.36-2.74.17-5.52.61-7.83.13,1.55-1.09,2.55-2.69,3.3-6.57,3.07-13.34,5.32-20.68,5.77a53.43,53.43,0,0,1-12.77-.79c-2.3-.41-2.6-1.05-1.75-3.24.57-1.46,1-3,1.44-4.46.32-1,0-1.44-1.1-1.62-5.13-.84-10.32-1-15.48-1.48-2.31-.22-4.62-.42-6.91-.71-1.31-.17-1.64.37-1.55,1.48a45.74,45.74,0,0,1,.29,6.19c0,.64.1,1.32-.38,1.87v4c-.69-1.48.09-3.09-.68-4.54-.16-2.81-.39-5.63-.44-8.45,0-1.14-.48-1.45-1.51-1.52a32.42,32.42,0,0,0-4.93,0c-6.32.54-11.06-2.21-12.35-8.09a13,13,0,0,1,.31-5.85c1.46-6.07,2.52-12.23,4.09-18.28,2.71-10.48,5.47-21,8.44-31.37a6.17,6.17,0,0,1,4.9-4.78,5.07,5.07,0,0,0,1.63-.76q8.79-5.33,17.6-10.64a2.79,2.79,0,0,0,1.4-1.83,11.65,11.65,0,0,1,3.9-6.49,1.31,1.31,0,0,0,.61-1.42c-.83-3.7-1.81-7.35-4.08-10.49a3.53,3.53,0,0,0-3.13-1.65A6.51,6.51,0,0,1,248,99.14c-.54-2.32-1.07-4.65.32-6.89l.57-.38C249.21,91.73,249.5,91.63,249.47,92.16Z"/><path class="cls-9" d="M238.94,216.74c-.12-3-.19-6-.37-9.05-.06-1,.25-1.17,1.17-1.05,7.84,1.08,15.76,1.22,23.6,2.32,1.34.19,1.84.47,1.29,1.88-.72,1.83-1.18,3.75-1.93,5.56-.47,1.12-.24,1.48.9,1.71A49.44,49.44,0,0,0,288.52,217a73,73,0,0,0,9.37-3.76c1.34-.63,2.26-1.39,2.23-3a4.41,4.41,0,0,1,.56-2c.33,4.2-.35,8.38-.39,12.57a2.24,2.24,0,0,1-1.46.21q-29,0-58,0c-1.38,0-1.75-.41-1.68-1.68A16.91,16.91,0,0,0,238.94,216.74Z"/><path class="cls-9" d="M411.61,84.91a17.35,17.35,0,0,1,12,6.08c.41.45.19.64-.17.93a37,37,0,0,0-8.22,9.79c-.22.36-.33.86-1,.54-3.13-1.49-6.36-2.79-8.26-6a7.79,7.79,0,0,1,2.18-9.73A7.22,7.22,0,0,1,411.61,84.91Z"/><path class="cls-9" d="M280,75.79c-3.1.55-5.71,2.9-8.73,3-3.79.18-7,1.89-10.47,2.78-1.71.44-3.63.73-3.78,3.18,0,.47-.74.9-1.14,1.35-.54-.11-.23-.41-.15-.66.27-.86.6-1.71.81-2.59.68-2.87.16-4.1-2.31-5.72-1.89-1.24-2-2.39-.32-3.8a10,10,0,0,1,6.5-2.47c.5,0,1.11,0,1.37.47s-.27.89-.56,1.28-.64.46-.33.87.56.16.85.08c5.21-1.46,10.28-3.23,14.65-6.92,1,2.29,2,4.56,3.06,7a8.36,8.36,0,0,0-4.85.35,8.46,8.46,0,0,0-1.31.74c-.45.31-.75.73-.38,1.28s.84.48,1.29.1c1.76-1.49,3.83-.8,5.79-.83C280.2,75.28,280,75.61,280,75.79Z"/><path class="cls-9" d="M188.7,146.61c0,1.91,0,3.27,0,4.63,0,1.1-.13,1.47-1.4,1.11-3.57-1-7.19-2-11-1.55-2,.22-2,.18-2-1.88a22.26,22.26,0,0,1,1-7.3,7.44,7.44,0,0,1,10.2-4.33,5.08,5.08,0,0,1,2.84,3.85C188.82,143.13,188.47,145.16,188.7,146.61Z"/><path class="cls-9" d="M310,220.73c-1.09-2.26-2.16-4.53-3.28-6.78-.3-.61-.36-.89.47-1.11a133,133,0,0,0,13.06-4.17c.9-.34,1,0,1.06.72.45,3.8.92,7.59,1.38,11.38A89.58,89.58,0,0,1,310,220.73Z"/><path class="cls-9" d="M406.38,98.54a8.51,8.51,0,0,1-4.13,0,14.47,14.47,0,0,1-8.38-4.41c-1.68-1.91-1.46-3,.87-3.91,4.13-1.67,8.3-3.26,12.55-4.77-1.83,1.74-3.24,3.69-3.43,6.23A9.1,9.1,0,0,0,406.38,98.54Z"/><path class="cls-11" d="M189.51,139.38c2.13,3.07,2.45,6.64,2.71,10.2.78,10.31.43,20.63.11,30.94A21.5,21.5,0,0,0,196,193.9c1.59,2.31,2.93,4.8,4.31,7.26a34.2,34.2,0,0,1,4.41,19.89c-.79.67-.09,1.65-.59,2.59,0-.9-.08-1.61-.12-2.33.22-5.65-.36-11.15-2.74-16.37a56.18,56.18,0,0,0-5.2-9.36,25.24,25.24,0,0,1-4.59-16.32,247,247,0,0,0-.19-30.66c-.24-2.81-.58-5.62-2.09-8.1C189.35,140.13,189.12,139.68,189.51,139.38Z"/><path class="cls-9" d="M281.81,79.24c.37,1,.7,2,1.12,3,.29.68.3,1.06-.55,1.3-1.4.39-2.77.89-4.15,1.36-.72.25-1.21.17-1.57-.62-.62-1.38-1.31-2.71-1.8-4.15a1.48,1.48,0,0,1,1.08-2.19l4.1-1.46c.92,0,.78.87,1.09,1.35A13.62,13.62,0,0,1,281.81,79.24Z"/><path class="cls-9" d="M283.17,78.3,287.31,75c.59,1.77,1.15,3.42,1.68,5.08a1.21,1.21,0,0,1-.61,1.41,2.66,2.66,0,0,1-.55.23c-3.86,1.55-4,1.49-5.28-2.79Z"/><ellipse class="cls-9" cx="383.81" cy="118.65" rx="47.09" ry="0.2"/><path class="cls-9" d="M301,221l-.06-.44c.31-.58-.17-1.32.41-1.84a13.36,13.36,0,0,1,6.82.17L309.3,221Z"/><path class="cls-2" d="M283.69,75.23l2.71-.74-3,2.8C282.47,76.44,283.08,75.84,283.69,75.23Z"/><path class="cls-2" d="M195.33,314.3c0-1.12-.31-2.27.26-3.35A12.57,12.57,0,0,1,195.33,314.3Z"/><path class="cls-3" d="M310.9,49.36A2.86,2.86,0,1,1,308,46.5,2.85,2.85,0,0,1,310.9,49.36Z"/><path class="cls-3" d="M320.75,46.5a2.87,2.87,0,0,1,.1,5.73,2.87,2.87,0,1,1-.1-5.73Z"/><path class="cls-12" d="M336.39,49.5a2.83,2.83,0,0,1-3,2.72,2.86,2.86,0,0,1,.28-5.72A2.82,2.82,0,0,1,336.39,49.5Z"/><path class="cls-2" d="M507.52,323.09l-1.59-7.67c-.06-.26-.12-.54.13-.68.66-.36,1.38-.61,2-1,.89-.57,1.24.29,1.79.6.31.16.59.39.89.57,2.3,1.44,2.32,1.45,1.18,4-.64,1.42-1.34,2.82-2,4.22Z"/><path class="cls-9" d="M113.28,358c-.18-.15-.39-.28-.56-.45-1.72-1.7-3.42-3.42-5.15-5.11-.42-.41-.44-.65,0-1.07,1.74-1.68,3.46-3.38,5.13-5.12.51-.53.77-.35,1.19.07,1.61,1.66,3.27,3.28,4.9,4.93.3.3.77.55.24,1.08-1.8,1.77-3.57,3.56-5.35,5.34Z"/><path class="cls-9" d="M469.54.76c.25.22.48.41.69.61,1.46,1.45,2.9,2.93,4.39,4.36.52.5.53.81,0,1.31-1.52,1.46-3,3-4.48,4.47-.46.47-.73.48-1.19,0-1.5-1.55-3-3.08-4.59-4.58-.41-.4-.49-.63,0-1.07,1.57-1.49,3.08-3,4.61-4.56C469.11,1.12,469.3,1,469.54.76Z"/><path class="cls-9" d="M502,18.35c-.2.24-.38.48-.59.69-1.45,1.46-2.93,2.89-4.36,4.38-.48.49-.79.59-1.31,0-1.46-1.52-2.95-3-4.49-4.47-.59-.55-.4-.84.07-1.29,1.48-1.43,2.93-2.9,4.39-4.36.35-.35.61-.77,1.18-.18,1.53,1.6,3.11,3.14,4.68,4.71C501.74,18,501.86,18.16,502,18.35Z"/><path class="cls-9" d="M104.21,361.17c-.72.58-1.29,1-1.79,1.48-1.61,1.55-1.6,1.56-3.11.06s-1.63-1.63,0-3.29c1.49-1.49,1.48-1.48,3,0C102.87,360,103.43,360.45,104.21,361.17Z"/><path class="cls-9" d="M511.83,59A2.15,2.15,0,1,1,514,56.8,2.15,2.15,0,0,1,511.83,59Z"/><path class="cls-13" d="M178.27,158.19a30.94,30.94,0,0,1,6.28,1c.33.08.95.08.74.68-.16.44-.6.2-.93.12a25.52,25.52,0,0,0-6.84-.92c-1.78.05-3.52.26-4.77,1.76-.17.2-.39.4-.63.23s-.2-.53,0-.78a4.64,4.64,0,0,1,2.33-1.58A12.5,12.5,0,0,1,178.27,158.19Z"/><path class="cls-14" d="M180.92,163.25a21.07,21.07,0,0,1-5.71-.45c-.32-.07-.81-.1-.72-.58s.53-.32.87-.25a32.21,32.21,0,0,0,8.43.43c.37,0,1-.22,1,.32s-.62.51-1,.52C182.83,163.27,181.87,163.25,180.92,163.25Z"/><path class="cls-14" d="M155.7,174.56h2.56c.31,0,.65.07.66.45s-.29.39-.55.39a58.61,58.61,0,0,0-6.62.49c-.33,0-.64,0-.65-.43s.28-.38.54-.41l4.05-.42Z"/><path class="cls-4" d="M323.37,219c-.43-3.35-.83-6.7-1.28-10-.1-.69.19-1,.77-1.24,2.42-1.17,2.54-1.45,1.8-4.08-.66-2.39-1.32-4.92-2.84-6.8-2.24-2.75-2.41-5.92-2.89-9.09-1.79-11.76-4.18-23.4-6.66-35-.86-4-1.34-8.15-2.21-12.19a6,6,0,0,0-3.88-4.69c-6.78-2.86-13.42-6-20.12-9a3,3,0,0,1-1.5-1.58c-1.25-2.52-2.42-5.11-4.84-6.83-.66-.46-.71-.93.29-1.18a7.11,7.11,0,0,0,4.31-3.56c3-5,3.79-10.46,3.43-16.15-.11-1.76-.4-3.5-.62-5.25q19.74,0,39.48,0a4.77,4.77,0,0,1,5.12,5.11q0,58.23,0,116.47c0,3.25-1.93,5.13-5.2,5.17Z"/><path class="cls-12" d="M417.73,125.47c.48.26.27.72.28,1.08,0,13.76,0,27.51.09,41.27,0,1.34-.39,1.68-1.71,1.68q-32.58-.06-65.16-.05c-.53,0-1.23.35-1.57-.43a50.31,50.31,0,0,0,.25-7.05q.1-17.46,0-34.93c0-1.24.37-1.45,1.5-1.45q32.28,0,64.56,0c1.6,0,1.61,0,1.61,1.68v35q0-18.14,0-36.28A1.07,1.07,0,0,1,417.73,125.47Z"/><path class="cls-15" d="M418,213.51c.37,1.24-.34,2.41-.27,3.63a2.76,2.76,0,0,1-1.48.14H351.18a2.77,2.77,0,0,1-1.48-.14,11.79,11.79,0,0,1-.12-1.18q0-20.61,0-41.2a11.69,11.69,0,0,1,.12-1.19,2.76,2.76,0,0,1,1.48-.14h65c1.7,0,1.7,0,1.7,1.72v36.73A3.8,3.8,0,0,0,418,213.51Z"/><path class="cls-16" d="M417.73,125.47v38.35a2.88,2.88,0,0,1-.28-1.82c0-11.44,0-22.88,0-34.32,0-1.47-.28-2-1.88-2q-32,.09-64,0c-1.09,0-1.47.14-1.46,1.42.07,11.79.13,23.58,0,35.37,0,2.14.33,4.38-.48,6.48,0-2.06-.06-4.13-.06-6.19,0-12,0-24,0-36,0-1.16.25-1.54,1.49-1.54q32.73.06,65.48,0A11.82,11.82,0,0,1,417.73,125.47Z"/><path class="cls-12" d="M418,213.51c-.48-.52-.27-1.16-.27-1.74,0-12.14,0-24.28,0-36.41,0-1.49-.44-1.83-1.87-1.82q-33.09.06-66.19,0c.35-.57.91-.29,1.37-.29l65.49,0c.91,0,1.47,0,1.47,1.24,0,12.9,0,25.8,0,38.71A1.57,1.57,0,0,1,418,213.51Z"/><path class="cls-12" d="M349.7,217.14h68c-.37.53-.92.26-1.38.26H351.11C350.64,217.4,350.1,217.63,349.7,217.14Z"/><path class="cls-17" d="M426.48,109.13c-.55-.22-.49-.53-.18-.82a47.46,47.46,0,0,0,6.24-7.94c.18-.24.38-.52.73-.27s.13.44,0,.65a46.09,46.09,0,0,1-6.32,8.07A4.13,4.13,0,0,1,426.48,109.13Z"/><path class="cls-18" d="M429.53,100c-.24.28-.45.55-.68.81-1.94,2.16-4,4.21-5.07,7-.09.24-.21.5-.51.4s-.37-.45-.23-.75a15.6,15.6,0,0,1,.9-1.89,32.47,32.47,0,0,1,4.54-5.59c.19-.2.38-.51.73-.36C429.33,99.65,429.41,99.8,429.53,100Z"/><path class="cls-19" d="M382.57,109.14a9.94,9.94,0,1,1,10-10A9.9,9.9,0,0,1,382.57,109.14Z"/><path class="cls-12" d="M274.39,100.61a12.74,12.74,0,0,0,5.78-1.16c.33-.13.8-.51,1,.08s-.37.5-.64.68a.88.88,0,0,1-.28.12c-1.54.47-3.11.73-2.38,3.15.35,1.16-.77,1.91-2.2,1.71a8.61,8.61,0,0,1-6.32-4.21,5,5,0,0,0-1.08-1.21,1.19,1.19,0,0,0-1.9,0c-.24.25-.6.75-1,.25s.23-.68.5-.91c1-.84,2-1.65,3.06-2.46.23-.17.5-.43.77-.09s-.05.52-.24.75c-.39.47-1.43.69-1.18,1.32s1.11.79,1.73,1.1A10,10,0,0,0,274.39,100.61Z"/><path class="cls-9" d="M221.14,188c1-5.37,2.22-10.35,3.48-15.33,2.47-9.81,5.15-19.58,7.86-29.33.78-2.81,2.32-4.53,5.24-4.85.85-.09,1.21-.82,1.85-1.2q8.18-4.86,16.28-9.86c.92-.57,1.35-.57,2,.38,3.11,4.46,6.34,8.84,9.46,13.3.73,1,1.09,1,1.75,0,1.77-2.87,3.67-5.67,5.43-8.54.53-.86.88-.87,1.56-.22a25.94,25.94,0,0,0,2.24,1.8c.57.44.93.33.93-.45s0-1.5,0-2.39a18.42,18.42,0,0,1,3.45,2.15c1.65,1.06,3.26,2.19,4.9,3.28.32.22.65.66,1.05.39s.09-.73,0-1.1c-.83-2.79-1.81-5.54-2.93-8.3.59-.16.93.21,1.3.38,6.75,3,13.48,6.12,20.25,9.12a3.41,3.41,0,0,1,1.78,2.63,98.77,98.77,0,0,1,2,10.53c1.43,8.7,3.84,17.21,5.18,25.94.86,5.62,1.83,11.23,2.76,16.85.09.55.29,1.06-.68,1-2.93-.05-5.48,1.17-8,2.57q-3.09,1.76-6.2,3.47c-.31.17-.78.62-.94-.07-.32-1.39-1-2.67-.74-4.23,1.8-10.27,3.53-20.56,5.28-30.84.07-.43.38-1,0-1.28s-.83.16-1.24.3a36.57,36.57,0,0,1-6,1.33c-.76.12-1-.13-.95-.86.07-1.62.1-3.23.11-4.84,0-.4.26-1.07-.43-1.07-.54,0-.34.63-.35,1-.05,1.66-.11,3.33-.09,5,0,.77-.27,1-1,1.11-8.64.91-17.22.85-25.64-1.61-1.34-.39-1.38.11-1.43,1.16q-.62,11.25-1.89,22.45a2.4,2.4,0,0,1-1.29,2c-2.76,1.66-5.46,3.43-8.18,5.15a5.11,5.11,0,0,1-5.41.14c-2.7-1.46-5.28-3.13-8-4.66a1.72,1.72,0,0,1-1-1.64,4.57,4.57,0,0,0-1-3,2.48,2.48,0,0,1-.32-2.74c2-6.54,3.85-13.15,5.59-19.78.1-.37.58-1-.05-1.16s-.63.65-.73,1c-1.73,6.47-3.53,12.92-5.46,19.34-.32,1.08-.42,1.55-1.88,1a16.19,16.19,0,0,0-15.83,1.62C223.91,186,222.68,186.9,221.14,188Z"/><path class="cls-9" d="M275.3,203.78c1.89-.39,3.78-.78,5.67-1.19a7.45,7.45,0,0,0,2.74-.78c1-.68,1.79-1.45.82-2.72-.6-.78.31-.8.58-1.05,1.53-1.44,1.63-2.91.15-3.75a4.59,4.59,0,0,0-1.44-.4l-9.68-1.66a3.67,3.67,0,0,1-.68-.26,4,4,0,0,1,2.8-.21,23.14,23.14,0,0,0,6,.79,7.24,7.24,0,0,0,1.79-.26,1.53,1.53,0,0,0,1.26-1.34c.08-.71-.41-1.11-1-1.4a27.07,27.07,0,0,0-9.75-3,4.34,4.34,0,0,0-2.32.59l-2.81,1.36c.7-6.07,1.26-12,1.66-17.91.1-1.56.23-3.12.29-4.68,0-.79.21-1,1.06-.77,10.18,2.74,20.45,2.35,30.73.65,1.22-.2,2.41-.56,3.76-.88-.83,4.86-1.65,9.61-2.45,14.36-1.72,10.19-3.45,20.36-5.11,30.56a3.25,3.25,0,0,1-1.95,2.69c-10.38,5.18-21.22,7.13-32.71,5-1.23-.22-1.4-.55-.93-1.7a49.55,49.55,0,0,0,1.75-5.46c.22-.81.52-1.1,1.42-1.09a43.17,43.17,0,0,0,12-1.5,7,7,0,0,0,2.35-1c.44-.32,1-.69.82-1.33s-.68-.85-1.23-1a18.2,18.2,0,0,0-4.66-.38h-.86Z"/><path class="cls-9" d="M281.34,205.57a5.69,5.69,0,0,1-3.17,1.56,38.87,38.87,0,0,1-15.14,1c-6.58-1-13.25-1.13-19.86-1.91-4.6-.54-9.23-.92-13.79-1.77-2.91-.54-3.87-1.9-3.3-4.82,1-5.37,3.65-9.55,9-11.67a5.62,5.62,0,0,1,5,.18c4.42,2.33,8.69,4.89,13,7.44a6,6,0,0,0,6.77-.08c3.83-2.5,7.68-5,11.72-7.17a6.72,6.72,0,0,1,5.22-.65,34.57,34.57,0,0,1,6.43,2.19c.49.24,1.34.42,1.15,1.14s-.95.66-1.56.7a16.53,16.53,0,0,1-6-.68c-2.1-.63-4,.27-5.92.55-.24,0-.54.15-.47.47s.53.41.86.47l10.86,1.9c.75.13,1.51.2,2.23.4,1.14.3,1.43,1.18.68,2a3.63,3.63,0,0,1-3.28,1.47c-3.41-.36-6.83-.6-10.25-.84-.54,0-1.53-.42-1.55.24,0,.84,1,.51,1.59.56,3.32.29,6.64.52,9.95.77.45,0,.9.11,1.35.16s1.11.19,1.22.72-.45,1-.94,1.21a8.62,8.62,0,0,1-1.88.54c-2.61.57-5.22,1.09-7.82,1.69-.74.17-2.07.13-2,.93.09,1,1.33.42,2.06.47,1.86.13,3.73.14,5.59.21A4.94,4.94,0,0,1,281.34,205.57Z"/><path class="cls-9" d="M318,195a3,3,0,0,1,3.05,1.79,42,42,0,0,1,3.08,7.86,1.54,1.54,0,0,1-1,2.12,154.66,154.66,0,0,1-16.79,5.51,1.77,1.77,0,0,1-1.57-.2,9.06,9.06,0,0,1-3.42-8.61,1.81,1.81,0,0,1,1.12-1.45,97.14,97.14,0,0,0,8.64-4.67A15.31,15.31,0,0,1,318,195Z"/><path class="cls-9" d="M229.07,205.31c-5.67-.06-9.72-4.39-9.41-9.66a21.92,21.92,0,0,1,.85-4.75,4.22,4.22,0,0,1,1.05-2c5.1-4.72,10.84-7.32,17.92-5.23,3.05.9,4.46,2.64,4.52,5.56-1.51-.75-3-1.46-4.43-2.2a4.34,4.34,0,0,0-3.22-.32c-7,1.81-10.65,7.76-11.19,14.19C225,203.36,226.51,204.62,229.07,205.31Z"/><path class="cls-9" d="M262.22,118.52c2.08,5.43,7.08,8.07,11.15,11.59,1,.83,1,1.31.32,2.28-1.86,2.74-3.61,5.55-5.5,8.48l-7.14-9.93a40.71,40.71,0,0,0-2.39-3.3,2.79,2.79,0,0,1-.45-3A11,11,0,0,1,262.22,118.52Z"/><path class="cls-9" d="M269.44,79.65a1.25,1.25,0,0,1,1.36.95c.49,1.43.95,2.86,1.43,4.29a1.28,1.28,0,0,1-.91,1.78q-5,1.68-10,3.32a1.35,1.35,0,0,1-1.87-1c-.46-1.38-.91-2.77-1.37-4.15a1.23,1.23,0,0,1,.77-1.72c3.42-1.17,6.86-2.29,10.3-3.42A2.68,2.68,0,0,1,269.44,79.65Z"/><path class="cls-9" d="M279.65,119.2c4.37,4.58,5.89,10.59,8.15,16.68l-8-5.38a1.09,1.09,0,0,1-.6-1c0-3.41,0-6.81,0-10.21Z"/><path class="cls-4" d="M308.19,218.93l-6.94,0a3.18,3.18,0,0,1,0-2.13c.18-2.18.35-4.37.53-6.55C304.68,212.64,307.16,215.26,308.19,218.93Z"/><path class="cls-3" d="M301.22,216.83l0,2.13c-.1.55-.19,1.09-.29,1.64C301,219.34,300.61,218.05,301.22,216.83Z"/><path class="cls-12" d="M268,77.58a.85.85,0,0,1-1,.85,8.09,8.09,0,0,0-6.54,2.79c-.44.44-.9.71-1.4.19s-.19-.93.18-1.32a9.76,9.76,0,0,1,7.58-3.35C267.38,76.76,267.9,76.86,268,77.58Z"/><path class="cls-3" d="M278.51,82.48c0,.52.08,1.12-.55,1.28s-.81-.31-1.06-.68a4.4,4.4,0,0,1-.77-2.68.92.92,0,0,1,.47-.87c.38-.16.67.13.9.39A4.41,4.41,0,0,1,278.51,82.48Z"/><path class="cls-9" d="M383.76,163.78c-10.58,0-21.17,0-31.75,0-1.22,0-1.62-.25-1.62-1.55q.09-17.31,0-34.62c0-1.15.23-1.54,1.47-1.54q31.92.06,63.82,0c1.16,0,1.52.25,1.52,1.48q-.09,17.38,0,34.78c0,1.27-.42,1.45-1.54,1.44Q399.71,163.76,383.76,163.78Z"/><path class="cls-20" d="M417.11,166.77H350.52v-.32h66.6Z"/><path class="cls-12" d="M350.89,212.3h1.63q31.39,0,62.78,0c.68,0,1.95-.53,1.93.67,0,1-1.2.81-2,.81H351.71c-1.84,0-2.06-.24-1.64-2a8,8,0,0,0,.17-1.95c0-11.44,0-22.89,0-34.33,0-1.32.32-1.7,1.68-1.7q31.91.06,63.83,0c1.46,0,1.73.48,1.73,1.81q-.07,17.33,0,34.64c0,1.42-.42,1.75-1.78,1.75q-31.55-.06-63.08,0H351Z"/><path class="cls-12" d="M417,214.18c.59.29.48.63,0,.79a4.72,4.72,0,0,1-1.36.05h-65a2.76,2.76,0,0,0,1.8.29h62.47c.35,0,.71,0,1.06,0,.75,0,1.41.17,1.36,1s-.86.5-1.34.5q-32.3,0-64.59,0c-1.62,0-1.8-.38-1.09-2.24a4.92,4.92,0,0,1,2.09-.18h62.54A3.64,3.64,0,0,0,417,214.18Z"/><path class="cls-9" d="M417,214.18c.08.23.21.52-.16.58a10.1,10.1,0,0,1-1.35,0H352.08a3.25,3.25,0,0,1-1.77-.2c.42-.71,1.1-.33,1.64-.33q31.62,0,63.24,0C415.8,214.24,416.4,214.2,417,214.18Z"/><path class="cls-9" d="M388.44,99.43c-2.83,1.63-5.4,3.09-7.94,4.59-.75.44-.84.12-.83-.54,0-2.72,0-5.43,0-8.14,0-.75.18-.9.85-.5C383.06,96.34,385.63,97.8,388.44,99.43Z"/><path class="cls-15" d="M281.21,150.69c0,1.06,0,2.11,0,3.17,0,.39.12,1-.41,1s-.43-.58-.44-1a130.7,130.7,0,0,0-1-13.1c-.14-1.2-.33-2.39-.47-3.59,0-.4-.37-1,.26-1.15s.5.61.56,1c.57,3.88,1,7.79,1.21,11.71.05.65.08,1.31.11,2Z"/><path class="cls-21" d="M298.82,153.93c.27-.71-.37-2.21.45-2.17,1,.05.3,1.48.44,2.29a10.11,10.11,0,0,1,0,1.65c0,.32-.1.66-.47.64s-.41-.38-.41-.69Z"/><path class="cls-21" d="M280.29,159.25c.17-.45-.31-1.47.44-1.45.94,0,.29,1,.41,1.61a1.78,1.78,0,0,1-.06.6c-.06.32.05.83-.42.84-.62,0-.4-.55-.41-.92A6.08,6.08,0,0,1,280.29,159.25Z"/><path class="cls-12" d="M265.35,86.4c-.05.4,0,.94-.47,1.14s-.83-.24-1.09-.6a4.13,4.13,0,0,1-.8-2.39c0-.45-.07-1,.45-1.18s.91.3,1.19.72A4.66,4.66,0,0,1,265.35,86.4Z"/><path class="cls-19" d="M372.69,147.23a9.94,9.94,0,1,1,9.94,9.86A9.9,9.9,0,0,1,372.69,147.23Z"/><path class="cls-9" d="M383.83,174.11c10.63,0,21.27,0,31.91,0,1.22,0,1.46.35,1.46,1.5q-.06,17.31,0,34.63c0,1.3-.37,1.53-1.59,1.53q-31.83-.06-63.67,0c-1.28,0-1.56-.32-1.56-1.57q.09-17.31,0-34.63c0-1.24.39-1.46,1.52-1.46C362.55,174.13,373.19,174.11,383.83,174.11Z"/><path class="cls-9" d="M379.75,152.39v-10l8.69,5Z"/><path class="cls-19" d="M382.6,205a9.95,9.95,0,1,1,10-9.84A9.9,9.9,0,0,1,382.6,205Z"/><path class="cls-9" d="M388.45,195.31l-8.77,5.07v-9.25c0-1,.5-.57.94-.32Z"/><path class="cls-3" d="M16,222.58c-4.61,0-9.23-.05-13.84,0-1.47,0-2.26-.27-2-1.94s-.81-4.13.46-5.3,3.41-.3,5.17-.31c8,0-.34,0,24.12,0,1.45,0,2.05.32,1.9,1.85a21.72,21.72,0,0,0,0,3.95c.11,1.38-.35,1.82-1.75,1.8C25.4,222.53,20.72,222.58,16,222.58Z"/><path class="cls-3" d="M13.07,193.3c-3.76,0-7.52,0-11.28,0-1.18,0-1.59-.35-1.63-1.57-.19-6-.22-6,5.7-6,6.13,0,12.26,0,18.39,0,1.43,0,2.09.35,2,1.87a22.48,22.48,0,0,0,0,3.76c.16,1.63-.57,2-2.06,2C20.45,193.24,16.76,193.3,13.07,193.3Z"/><path class="cls-3" d="M11.08,202.87c-3,0-5.92-.06-8.88,0-1.48,0-2.25-.3-2-2s-.81-4.11.45-5.29,3.4-.3,5.16-.31c4.86,0,9.73,0,14.59,0,1.25,0,1.82.29,1.72,1.64a28.6,28.6,0,0,0,0,4.14c.09,1.34-.33,1.86-1.75,1.81C17.26,202.8,14.17,202.87,11.08,202.87Z"/><path class="cls-3" d="M9.19,176.18c2.37,0,4.74,0,7.11,0,1.22,0,1.84.27,1.75,1.64s-.05,3,0,4.54c0,1-.4,1.4-1.41,1.4-5,0-10,0-15,0-1.16,0-1.4-.53-1.45-1.57-.27-6-.29-6,5.66-6Z"/><path class="cls-3" d="M7.63,232.39c-2,0-3.95,0-5.92,0-1,0-1.59-.24-1.53-1.42.07-1.58.06-3.16,0-4.74,0-1,.29-1.42,1.35-1.41q6.21.06,12.43,0c1,0,1.26.39,1.24,1.29,0,1.65,0,3.29,0,4.94,0,1.07-.49,1.34-1.45,1.32C11.71,232.37,9.67,232.39,7.63,232.39Z"/><path class="cls-3" d="M5.55,205.2c5.22,0,5.16,0,5.23,5.24,0,1.73-.35,2.5-2.27,2.35a59.54,59.54,0,0,0-6.68,0c-1.33,0-1.74-.46-1.66-1.72a30,30,0,0,0,0-4.13c-.12-1.46.52-1.83,1.83-1.74S4.37,205.2,5.55,205.2Z"/><path class="cls-22" d="M315,311.65a1,1,0,1,0-1.18-1.57,16.36,16.36,0,0,1-3.43,2,1,1,0,1,0,.75,1.82,17.78,17.78,0,0,0,3.86-2.23Zm3.14-2.82a.69.69,0,0,0,.13-.11A36.68,36.68,0,0,0,321,305.4a1,1,0,0,0-.2-1.38,1,1,0,0,0-1.38.2,36,36,0,0,1-2.64,3.15,1,1,0,0,0,1.3,1.46Zm-10.89,5.87a1,1,0,0,0,.4-.84,1,1,0,0,0-1-.93,11,11,0,0,1-3.4-.4,1,1,0,1,0-.54,1.89,12.36,12.36,0,0,0,4,.47A1,1,0,0,0,307.23,314.7Zm54.46-41a1,1,0,0,0,.35-.49,1,1,0,0,0-.64-1.23,28.92,28.92,0,0,0-4.26-1,1,1,0,0,0-1.13.83,1,1,0,0,0,.82,1.12,27.57,27.57,0,0,1,4,.91A1,1,0,0,0,361.69,273.68Zm-38.47,28.43a.93.93,0,0,0,.25-.27c.72-1.17,1.44-2.42,2.13-3.72a1,1,0,0,0-.4-1.33,1,1,0,0,0-1.34.41c-.67,1.26-1.36,2.47-2.07,3.6a1,1,0,0,0,.32,1.36A1,1,0,0,0,323.22,302.11Zm4-7.45a1,1,0,0,0,.3-.38c.59-1.27,1.15-2.59,1.68-3.93a1,1,0,0,0-1.83-.72c-.52,1.3-1.07,2.59-1.64,3.83a1,1,0,0,0,.48,1.31A1,1,0,0,0,327.2,294.66Zm26.17-22.31a1,1,0,0,0-.57-1.77,36.74,36.74,0,0,0-4.34.14,1,1,0,0,0-.89,1.08,1,1,0,0,0,1.08.88,32.8,32.8,0,0,1,4.1-.13A1,1,0,0,0,353.37,272.35Zm-23.05,14.47a1,1,0,0,0,.35-.47c.17-.5.33-1,.49-1.51a17,17,0,0,1,.94-2.32,1,1,0,0,0-1.77-.87,18.1,18.1,0,0,0-1.05,2.6c-.15.48-.32,1-.48,1.46a1,1,0,0,0,.61,1.25A1,1,0,0,0,330.32,286.82ZM345,273.18a1,1,0,0,0-.83-1.74,25.79,25.79,0,0,0-4.17,1.37,1,1,0,0,0-.51,1.29,1,1,0,0,0,1.29.52,24.82,24.82,0,0,1,3.85-1.27A1,1,0,0,0,345,273.18Zm-10.85,6.18a1.07,1.07,0,0,0,.16-.14,16.06,16.06,0,0,1,3-2.66,1,1,0,1,0-1.14-1.61,18.48,18.48,0,0,0-3.31,3,1,1,0,0,0,1.33,1.43Z"/><g class="cls-23"><polygon class="cls-22" points="371.28 269.98 371.65 274.66 397.21 273.92 371.28 269.98"/><polygon class="cls-22" points="372.72 279.83 376.46 282.81 396.06 273.93 372.72 279.83"/><polygon class="cls-3" points="397.21 273.92 361.25 285 368.68 274.27 397.21 273.92"/><polygon class="cls-3" points="371.28 269.98 397.21 273.92 375.63 262.8 371.28 269.98"/></g></g></svg>