<svg xmlns="http://www.w3.org/2000/svg" viewBox="0 0 620 365"><defs><style>.cls-1{opacity:0.5;}.cls-2{fill:#f1f2f2;}.cls-3{fill:#2e3a42;}.cls-4{fill:#eeaf08;}.cls-5{fill:#080808;}.cls-6{fill:#414d54;}.cls-7{fill:#475158;}.cls-8{fill:#fefefe;}.cls-9{fill:#323e46;}.cls-10{fill:#50bfa5;}.cls-11{fill:#52c0a6;}.cls-12{fill:#6897ec;}.cls-13{fill:#86acf0;}.cls-14{fill:#eeb00b;}.cls-15{fill:#414c53;}.cls-16{fill:#efb00d;}.cls-17{fill:#55c1a8;}.cls-18{fill:#fcfdfd;}.cls-19{fill:#fbfbfc;}.cls-20{fill:#f7f8f8;}.cls-21{fill:#eaebeb;}.cls-22{fill:#e2e3e4;}.cls-23{fill:#cacdce;}.cls-24{fill:#e5e6e7;}.cls-25{fill:#d3d5d6;}.cls-26{fill:#eaf0fc;}.cls-27{fill:#36424a;}.cls-28{fill:#344048;}.cls-29{fill:#3f4b52;}.cls-30{fill:#434e55;}.cls-31{fill:#4e595f;}.cls-32{fill:#3d4950;}.cls-33{fill:#455056;}.cls-34{fill:#3b474e;}.cls-35{fill:#303c44;}</style></defs><g id="Layer_4" data-name="Layer 4"><path class="cls-2" d="M558.21,283.33c.13-11.6-2.3-20.95-2.43-31.76a14.65,14.65,0,0,0-14.29-14.49c-7.68-.05-14.58,6.49-14.48,14.29a133,133,0,0,0,1.4,15.18c-6.19-1.81-12.65,1-16.4,6.45,1.09-1.57-2.28,2.19-2.66,2.61a29.87,29.87,0,0,0-4,5.39,45,45,0,0,0-2.87,6.88c-.2.54-.34.94-.44,1.23a13.15,13.15,0,0,1-.74,1.19c-.47.53-.94,1.06-1.44,1.56-.76.77-1.56,1.5-2.39,2.2a23.12,23.12,0,0,0-2.17,1.4l-.28.14q-.76.21-1.53.45c-7.4,2.38-12.25,9.86-10.17,17.63,2,7.53,9.27,11.36,16.57,10.34,5.73,1.05,11.93.39,17.65.39s11.37.33,17-.28a39.36,39.36,0,0,0,5.89.59,17,17,0,0,0,16.13-10.62C560.53,304.67,558.11,293.3,558.21,283.33Z"/><path class="cls-2" d="M523.31,58.47c.85.45.45,1.25.45,1.87,0,16.45.1,32.89,0,49.33a10.18,10.18,0,0,0,2.66,7.36,102,102,0,0,1,11.76,17.2,118.74,118.74,0,0,1,10,23,80.69,80.69,0,0,1,2.72,13.16c.46,3.38,1,6.74,1.47,10.12s.77,6.57,1.09,9.86c.45,4.67.86,9.35,1.26,14,.14,1.65.15,3.31.3,5,.29,3.08.18,6.2.4,9.3.49,7,.41,14,.7,21,.39,9.18.12,18.35.2,27.53a3.79,3.79,0,0,1-2.5.31c-15.18-1-28.36,3.63-39.45,14.06A50.24,50.24,0,0,0,498.67,312a39.86,39.86,0,0,0-.41,10.12c.19,1.63-.19,2-1.8,2.11H378.64c-.43,0-.86,0-1.28,0a2.77,2.77,0,0,1-1.85-.88c-4.29-4.14-9.56-6.49-15.13-8.27-.87-.28-1.74-.57-2.62-.83a1.79,1.79,0,0,1-1.37-1,5.74,5.74,0,0,1-.15-2.4c.54-4.12.07-8.27.32-12.39.38-6.13,0-12.26.37-18.37.29-5.16,0-10.31.28-15.46.28-5.53.29-11.06.29-16.59a2.77,2.77,0,0,1,1.59-2.75c1.54-.77,1.74-1.92,1.49-3.59q-1.79-11.59-3.42-23.21c-.16-1.06-.24-2.13-.48-3.18a5.46,5.46,0,0,1,.22-2.86c.32-1.05.82-1.18,1.57-.34,1,1.08,1.84,2.24,2.75,3.37a11.88,11.88,0,0,0,2.16,2.15c1.75,1.26,2.26,1.17,3.56-.52A115.19,115.19,0,0,0,374,206.54q6.18-10.18,11.92-20.64c.47-.87,1.08-1.62.39-2.79-.48-.82.37-1.46,1.08-1.89,2.38-1.46,4.82-2.81,7.07-4.48a3.17,3.17,0,0,0,1.45-2.86c-.07-1.65.19-3.32-.3-5a3.88,3.88,0,0,0-.76-1.4.83.83,0,0,0-1-.15.67.67,0,0,0-.38.81,4.13,4.13,0,0,1,.13.63c0,.61.43,1.43-.36,1.71s-.78-.66-1-1.1c-.48-.86-1-.89-1.62-.21-2.87,3.09-6.21,5.84-7.34,10.19a3.74,3.74,0,0,1-1.09,1.76c-3.7,3.6-6.91,7.66-10.6,11.26-1.12,1.09-2,2.4-3.13,3.47-1.62,1.51-2.17,1.36-2.81-.72-1.8-5.84-3.49-11.72-5.22-17.59a5.33,5.33,0,0,0-3.1-3.6c-3.69-1.73-7.25-3.75-10.83-5.71-.19-.11-.38-.2-.56-.32-.38-.28-.91-.57-.73-1.11s.69-.46,1.12-.51c.64-.06,1.29,0,1.93,0h39.67c3.35,0,3.19.26,3.19-3.11q0-65.79,0-131.58c0-2.37.54-4.7.34-7.07a18.73,18.73,0,0,1-.24-4.79c1.16.15,1,1.07,1,1.84,0,3.17,0,6.33,0,9.5q0,17.88,0,35.77c0,1.32,0,1.94,1.8,1.66a103.57,103.57,0,0,1,15.93-1.46c1.8,0,3.62-.29,5.44-.25.76,0,1.08-.31,1-1.06,0-.42,0-.86,0-1.28q0-20.62,0-41.25c0-2,.5-2.31,2.25-1.53-1.23.63-1.35,1.72-1.42,3-.15,3,.31,6,.31,9q0,64.38,0,128.76c0,.8-.4,1.75.51,2.37a.87.87,0,0,0,.27.17c2.44.52,3.06,2.16,2.77,4.41-.17,1.37.59,2,1.85,2.38,6.19,1.82,12.36,3.7,18.53,5.56q21.76,6.56,43.55,13c12,3.6,24.07,7.3,36.15,10.79,1.61.46,1.76.35,1.81-1.31,0-.54,0-1.08,0-1.61q0-68.37,0-136.73A5.32,5.32,0,0,1,523.31,58.47Z"/><path class="cls-2" d="M75.13,323.82c4.92-7.37,8.7-15.24,10.21-24.05a28.41,28.41,0,0,0-.22-10c-.86-4.6-.05-9.07,1.31-13.43a50.17,50.17,0,0,1,12.13-20,57.17,57.17,0,0,1,23.37-14.57c4.85-1.63,9.84-1.69,14.91-1.2,9,.87,17.22,4.18,25.55,7.25,5,1.84,10,3.73,15.39,4.39a6.93,6.93,0,0,0,7.25-4.45A29.88,29.88,0,0,0,185.9,236c-.29-3.29-.68-6.58-1.11-9.86-.41-3.06-.86-6.12-1.17-9.19-.23-2.4-.38-4.8-.5-7.2a54.83,54.83,0,0,1,2-18.52c.23-.77-.09-.94-.74-1,.27-.83,1.08-.81,1.7-1,9.12-2.85,18.29-5.52,27.43-8.27q17.32-5.24,34.68-10.38c1.4-.41,2.13-1,2-2.57-.11-1.28.68-1.9,1.84-2.27s2.4-.19,3.17-1.3a10.26,10.26,0,0,0,.11-2.41V85a10,10,0,0,1,.16-2.73,1.13,1.13,0,0,1,.41-.48,3.4,3.4,0,0,1,1.57-.25q9.36,0,18.7,0c.67,0,1.43-.15,1.9.58-.59.89-1.52.67-2.34.67-5.58,0-11.17,0-16.75,0-2.29,0-2.37.08-2.37,2.34q0,38.36,0,76.69a4.29,4.29,0,0,0,2.11,4c4.2,2.8,8.24,5.85,12.67,8.3,1.63.9,1.66.9,1.67-1,0-.91,0-1.83,0-2.74a2.35,2.35,0,0,1,.87-2c.74.22.59.83.5,1.32-.19,1,0,2-.17,3-.27,2.16.82,3.55,2.46,4.69a60.1,60.1,0,0,0,5.62,3.46c1.75.93,1.81,1.06,1.31,3a2.14,2.14,0,0,0,.39,1.67c5.76,10.12,11.37,20.34,18,30,.43.62.92,1.19,1.39,1.77,1.33,1.64,2.09,1.71,3.71.28a35.82,35.82,0,0,0,4.39-5.13c.4-.51.81-1.18,1.5-1.06s.71,1,.89,1.58c1.26,4.25.44,8.5,0,12.76-.5,4.52-1,9-1.47,13.57a11.42,11.42,0,0,1-.19,1.76,2.56,2.56,0,0,0,.89,2.89c1.81,1.44,2.27,3.31,2.23,5.56-.16,8.6.23,17.19.39,25.77.11,6-.16,11.94.28,17.87.47,6.28-.15,12.57.5,18.83a1.92,1.92,0,0,1-.11.79c-.37.82-1.17.85-1.89,1a52.12,52.12,0,0,0-15.61,6.13,18.94,18.94,0,0,0-4.05,3.12,3.49,3.49,0,0,1-2.49,1.32,22.74,22.74,0,0,1-2.74.07h-211C77.39,324.35,76.16,324.66,75.13,323.82Z"/><path class="cls-3" d="M564,324.63H377.63c-.5,0-.81-.17-.76-.73.75,0,1.5,0,2.25,0H564"/><path class="cls-3" d="M315.89,312.92q-.31-17.81-.64-35.61c-.18-9.83-.41-19.66-.57-29.49A3.32,3.32,0,0,0,313.5,245a4.69,4.69,0,0,1-1.77-4.78c.94-6.86,1.54-13.76,2.31-20.65.32-2.83-.6-5.48-.9-8.58-1.35,1.71-2.45,3.14-3.59,4.54a15.55,15.55,0,0,1-3,2.93,2,2,0,0,1-3.09-.37,72.57,72.57,0,0,1-6.15-8.86c-4.91-7.89-9.51-16-14-24.08-.39-.71-.83-1.24.14-2s-.2-1.17-.73-1.5c-1.74-1.07-3.45-2.2-5.27-3.1-3.56-1.77-4.23-4.7-3.61-8.24.1-.63.18-1.27.28-1.9a2.05,2.05,0,0,1,2.31-1.91c1.15.27,1.35,1.1,1,2.12a10.35,10.35,0,0,0-.27,1.38,4.93,4.93,0,0,1,.2-1c.4-1.2,1.48-1.63,2.36-.78,2.47,2.38,5.23,4.51,6.79,7.68a19.65,19.65,0,0,0,1,2.59c.07.14.13.28.19.43a3.68,3.68,0,0,0,1,1.64c4.56,4.69,9,9.48,13.37,14.35.28.31.55.8,1,.72s.53-.75.62-1.19c1.2-5.34,2.43-10.67,3.54-16a6.17,6.17,0,0,1,2.76-4.14c3.66-2.43,7.32-4.87,11.09-7.11-.48-.56-1.11-.25-1.65-.26q-19,0-37.94,0a12.83,12.83,0,0,1-2.4-.1,1.47,1.47,0,0,1-.5-.25c-.55-2-.89-4.06.5-6a2,2,0,0,0,.38-1,72.54,72.54,0,0,1,2.72-8.26c.81-2.39,1.76-4.73,2.48-7.16a4.88,4.88,0,0,1,2.67-3c7-3.68,13.84-7.6,20.79-11.36a.84.84,0,0,0,.48-.51c-.36-.58-1.08-.77-1.64-1.12-3.85-2.39-4.69-6.2-4.91-10.3a9.14,9.14,0,0,1,.47-3.81c.73-1.92,2.41-2.35,4-1a5.48,5.48,0,0,1,.65.71c.54.63,1.13.88,1.74.15s1.26-1.51.25-2.36-1.83-1.32-2.68-2.07c-4.28-3.81-8.26-7.81-10.08-13.51a21.62,21.62,0,0,1-.67-8.78,93.61,93.61,0,0,1,8.21-30.51,39.87,39.87,0,0,1,5.27-8.47,13.67,13.67,0,0,1,9.54-5.06c6.08-.66,11.43,1.26,16.57,4.18.7.4,1.39.81,2.07,1.25a1.64,1.64,0,0,0,1.95.1,5.58,5.58,0,0,1,5.12-.46c7.4,2.6,14.29,6.06,19,12.68a49.21,49.21,0,0,1,8.94,24.36,53.8,53.8,0,0,1-1.83,19.44c-1.22,4.41-4,7.66-7.48,10.4-.17.14-.34.27-.49.42-.51.51-1.43,1-.93,1.81s1.5.64,2.33.33,1.73-.87,2.63-1.23c1.61-.63,2.62-.17,3.07,1.5.66,2.47-.34,4.68-1.38,6.79a14.67,14.67,0,0,1-5.66,6c-1.23.75-1.21.87.08,1.48,5.73,2.7,11.5,5.33,17.22,8.05a12.52,12.52,0,0,0,1.19.51,6.38,6.38,0,0,1,4.12,4.51c1.54,4.9,3.35,9.72,5,14.55a17.52,17.52,0,0,1-.1-2.82q0-62.79,0-125.58c0-.88.3-1.85-.47-2.6a3.44,3.44,0,0,0-1.9-.24H282c-2.4,0-2.56.15-2.56,2.55V49.48c0,.43,0,.86,0,1.29s0,1.1-.72,1-.23-.68-.22-1.05c0-7.09.22-14.19-.09-21.27a62.91,62.91,0,0,1,.25-9.42c.53-.41,1.14-.19,1.7-.19H389.2c.65,0,1.29,0,1.93-.06.76.56.48,1.37.49,2.09q0,46.11,0,92.23c0,16.93-.05,33.86,0,50.79,0,1.5-.34,2-1.93,2-14.3-.06-28.6,0-42.9,0h-1.41c.12.77.7.81,1.09,1,4.21,2.25,8.44,4.49,12.68,6.68a2.16,2.16,0,0,1,1.21,1.53c2,6.9,4.08,13.79,6.14,20.68.78,0,1-.62,1.39-1,4.29-4.6,8.5-9.27,12.88-13.78a9.85,9.85,0,0,0,2.62-4.29c.79-2.78,2.88-4.61,4.78-6.57.67-.69,1.36-1.37,2-2.07.4-.41.67-1.08,1.39-.89s1,.84,1.16,1.45a6.2,6.2,0,0,1,.15,1.12c.76-.77.1-1.42.1-2s-.26-1.6.66-1.93,1.54.3,1.94,1.05c1.2,2.26,1,4.7.72,7.1-.15,1.55-1.55,2.27-2.7,3-2,1.29-4,2.44-6,3.69-.73.46-1.89.87-.44,1.92.72.52.05,1.08-.21,1.54-3.9,7.05-7.88,14.06-12.06,20.95a121.92,121.92,0,0,1-7.26,11c-2,2.6-2.93,2.64-5.25.37a42.14,42.14,0,0,1-4.05-4.8c-.24-.32-.34-.81-.92-.86-.7,2.69,0,5.32.37,7.94,1.07,7.5,2.18,15,3.38,22.47.26,1.62-.08,2.72-1.57,3.39-1.24.56-1.51,1.48-1.54,2.82q-.54,31-1.2,61.91c0,1.12,0,2.25.05,3.38a5.13,5.13,0,0,1,.25,2.06,5.07,5.07,0,0,0,.81,3.36,4,4,0,0,1,.46,2.56c.23.31.45.2.65.16,3.05-.63,4.6,1,3.6,4a13.93,13.93,0,0,1-5.37,6.66,30.42,30.42,0,0,1-2.73,1.7c-2.28,1.3-4.32.64-5.46-1.74a9.89,9.89,0,0,1-.84-3.91,27.78,27.78,0,0,0-.82-5.07c-.77-3.29-.3-6.86-2.4-9.85a4.26,4.26,0,0,1-.4-2.2c-.37-6.43-1.18-12.82-1.78-19.22-.86-9.14-2-18.25-2.82-27.38-.31-3.26-.78-6.5-1-9.76-.14-1.76-.32-1.82-2.12-1.69-3,.22-2.92.23-3.25,3.24-1,9.55-2.06,19.1-3,28.66-.86,8.59-1.88,17.16-2.47,25.78a9.31,9.31,0,0,1-1.58,5.16,3.71,3.71,0,0,0-.68,2.43,21.21,21.21,0,0,1-1,6.67c-.47,1.68-.23,3.42-.64,5.1a7.34,7.34,0,0,1-1.08,2.83c-1.15,1.54-2.62,2.09-4.22,1.3-3.43-1.68-6.43-3.89-8.3-7.36a7.24,7.24,0,0,1-.7-1.79c-.55-2.52.72-4,3.3-3.67.76.09,1.15,0,1.09-.84a.92.92,0,0,1,0-.47C315.83,318.07,315.42,315.4,315.89,312.92Z"/><path class="cls-3" d="M523.31,58.47a4.14,4.14,0,0,1,.21,1.91q0,69.87,0,139.74c0,.21,0,.43,0,.64.12,1.22-.17,1.61-1.53,1.19-6.35-2-12.73-3.85-19.11-5.76q-40.39-12.1-80.81-24.17c-1.15-.35-1.68-.84-1.48-2,.39-2.34,0-4.23-2.71-4.84.34-.44,1-.66.92-1.39,1.13-5.09,2.63-10.09,4-15.13,1.77-6.76,3.62-13.49,5.41-20.25a4.06,4.06,0,0,1,2.69-3.07q12-4.67,24-9.45a1.49,1.49,0,0,0,.88-.58c-1.95-1.5-4-2.84-5.87-4.45-1.19-1-2.35-2-3.43-3.17A7.23,7.23,0,0,0,443,105.4a4.52,4.52,0,0,1-2.47-2.43c-1.76-3-2.37-6.32-3.33-9.56a21,21,0,0,1-.58-2.34c-.39-2.23-1.12-4-3.39-5.24-2.66-1.45-3.54-5.3-2.48-8.66a30.3,30.3,0,0,1,4.64-8.26c1.52-2.15,3.21-4.17,4.92-6.18.55-.65,1-1-.23-1.56s-1.28-1.86-.31-3.18a15.51,15.51,0,0,1,6.81-5.24,20.52,20.52,0,0,1,7.28-1.23,68.27,68.27,0,0,1,7.14.1c.05-.83-.55-1.31-.8-1.92a1.81,1.81,0,0,1,1.13-2.7,3.47,3.47,0,0,1,1.74-.27c5.75.71,11.18,2.38,15.73,6.09,3.29,2.68,5.55,6.26,7.58,9.94a2.65,2.65,0,0,0,2.69,1.75,9.11,9.11,0,0,1,5,1.52c1.51.94,1.82,1.87,1,3.45-.32.63,0,.9.35,1.2,5.63,4.38,6.87,10.64,7.42,17.2a47.89,47.89,0,0,1,.32,7.08c-.12,1.94-.43,2.32-2.4,2.59-.81.1-.72.7-.79,1.18a69.67,69.67,0,0,1-2,9.13,18.16,18.16,0,0,1-2,4.75,9.49,9.49,0,0,1-5.58,4.09c-3.39,1-6.89,1.06-10.36,1.45a1.53,1.53,0,0,0-1,.3,57.81,57.81,0,0,0,4.56,3.83c5.3,4.39,10.7,8.66,16,13a6.44,6.44,0,0,1,2.35,3.87c3.29,15.34,6.77,30.64,10.17,46,.44,2,.78,4,1.32,6a4.34,4.34,0,0,0,4.21,2.71c.5-.09.57-.44.61-.81a14.6,14.6,0,0,0,0-1.62V63.67c0-2.81,0-2.81-2.75-3.64L453.93,41.55c-11.33-3.39-22.64-6.81-34-10.16a5.7,5.7,0,0,1-1.49-.61c-.29-.23-.66-.31-1-.51a1.19,1.19,0,0,1-.52-1.73c.42-.54.85.26,1.3.44q7.32,2.2,14.66,4.38l29.63,8.86c12.1,3.61,24.18,7.26,36.27,10.87l17.76,5.3c1.7.51,1.86.41,1.87-1.35,0-4.5.29-3.71-3.42-4.84-8.43-2.55-16.89-5-25.3-7.62-.61-.19-1.45-.16-1.6-1.09,1.09-1.33,2.36-.28,3.54-.27,6.42,2,12.87,3.83,19.28,5.81.51.15,1.07.21,1.4.71a57,57,0,0,0,6.49,2.09A1.29,1.29,0,0,1,520,53.32c0,.32,0,.64,0,1C519.94,57.67,519.94,57.67,523.31,58.47Z"/><path class="cls-3" d="M255.41,165.14a10.6,10.6,0,0,1-3.18,1c-1.25.29-1.91.87-1.64,2.21.32,1.54-.44,2.13-1.85,2.55q-32,9.5-64,19.08a1.91,1.91,0,0,0-.41.24c-4,1.17-8,2.33-11.92,3.51-7.72,2.3-15.44,4.58-23.13,6.94-1.32.4-1.55.06-1.55-1.19q0-70.35,0-140.69c0-1.09.23-1.74,1.37-1.9.43-.06.82-.28,1.25-.33,1.86-.24,2.73-1.17,2.35-3.12-.18-.94.28-1.4,1.25-1.69,9.62-2.85,19.23-5.77,28.84-8.66l50.93-15.27,20.56-6.16a1.55,1.55,0,0,1,1.1,0c.49.8,0,1-.66,1.16a5.12,5.12,0,0,0-2.22.82c-3.65,1.47-7.48,2.34-11.22,3.49-11.46,3.49-22.95,6.9-34.43,10.33-10.34,3.08-20.67,6.22-31,9.27-6.7,2-13.36,4.08-20.08,6a1.77,1.77,0,0,0-1.51,2c0,.91,0,1.83,0,2.74,0,1.27.52,1.42,1.6,1.09,12.28-3.76,24.59-7.4,36.89-11.09q19-5.7,38-11.37c7.36-2.2,14.73-4.35,22.07-6.64a6.36,6.36,0,0,1,2.2-.46c.93.17.56.9.56,1.42,0,6.39,0,12.79,0,19.18a5.78,5.78,0,0,0,.08,1.44c.08.32.2.66-.27.75s-.68-.19-.72-.63,0-.86,0-1.29c0-5.8,0-11.6,0-17.41,0-.68.36-1.84-1.14-1.43-3.69,1.51-7.57,2.41-11.37,3.57-14.35,4.35-28.72,8.62-43.08,12.93q-21.15,6.35-42.32,12.64c-2.25.66-2.42.85-2.42,3.27q0,64.1,0,128.18a3.83,3.83,0,0,0,.37,2.22,25.45,25.45,0,0,0,.59-4.72c.55-7.66,1.33-15.29,2.09-22.93.57-5.62,1.32-11.2,2.08-16.79a9.56,9.56,0,0,1,4.69-7.25q10.09-6.37,20.58-12.06c3.07-1.67,6-3.51,9.23-5a2.13,2.13,0,0,0,1.35-2.16c0-2.25,0-4.51,0-6.77a4.37,4.37,0,0,0-.93-2.69,19.14,19.14,0,0,1-3.45-7.56c-.22-1-.57-1.54-1.74-1.16a2.79,2.79,0,0,1-3.19-1c-3.17-4.11-5-8.67-3.83-14,.43-2,1.4-3.62,3.63-4,.68-.13.74-.67.82-1.22a14.69,14.69,0,0,0-.2-5.61C184.33,70,188,63.44,195,58.62c6.61-4.56,14.17-6,22.16-4.87a14,14,0,0,1,7.12,3.18A23.45,23.45,0,0,1,231.72,68a7.41,7.41,0,0,1,.06,4c-.49,2.14-.87,4.32-1.52,6.43a2.76,2.76,0,0,0,.38,2.58,7.29,7.29,0,0,1,1,4.8,17.43,17.43,0,0,1-1.66,7c-1.56,2.88-1.44,6-1.81,9.09-.6,5.06-1.91,9.8-5.13,13.87-.39.5-.89,1.09-.49,1.75s1.06.39,1.64.39a145.29,145.29,0,0,1,21.65,1.63c4.56.7,5.26,1.22,5.91,5.75.79,5.53,1.21,11.1,1.58,16.67.25,3.85.56,7.71.82,11.56.2,3.06.09,6.13.53,9.15a10.92,10.92,0,0,1-.05-1.8q0-38.06,0-76.11c0-2.65,0-2.67-2.72-2.68a13,13,0,0,1-2.57-.11c-.27-.06-.59-.19-.62-.45s.34-.51.65-.58a8.81,8.81,0,0,1,1.92-.1h30.32a15.34,15.34,0,0,0,2.25-.07c1.59-.18,2.66-1.5,4.17-1.88a.62.62,0,0,1,.43.83,4.89,4.89,0,0,1-3.88,2.33c-1.19.06-2.37,0-3.55,0a1.41,1.41,0,0,0-1.6,1.57c0,.54,0,1.08,0,1.62v71.06c0,.65,0,1.29,0,1.94s.11,1.54-.64,1.55-.52-.92-.56-1.47,0-1.29,0-1.94V84.87c0-.7,0-1.4,0-2.09s-.31-1-1.06-1c-6.93,0-13.86,0-20.79,0a.72.72,0,0,0-.57.23l0,0c-.45.57-.21,1.24-.22,1.86q0,39.71,0,79.41A3.84,3.84,0,0,1,255.41,165.14Z"/><path class="cls-4" d="M345,311.53c.29,1.81.63,3.59,2,5a2,2,0,0,1,.34,1.67,19.82,19.82,0,0,0,1,7.13c.48,1.5.21,3.09.5,4.62a8.58,8.58,0,0,0,.92,2.89c.9,1.52,2.32,2.1,3.8,1.33,3.17-1.63,6.12-3.57,7.9-6.83a10.24,10.24,0,0,0,.57-1.15c.43-1.16,1-2.41,0-3.47s-2.24-.79-3.44-.3c-.19.07-.4.1-.88.23.62-1.79,0-3.1-.78-4.58-.67-1.21-.24-2.93-.05-4.42,7.4,2,14.36,4.84,20,10.28l.4.56c.4.08.66.28.66.72,1.06,2,2.21,3.92,2.3,6.27.19,4.84-2.35,8.25-5.85,11.08-5.86,4.74-12.79,7.18-20,8.69a93.35,93.35,0,0,1-40.54-.36c-1.93-.45-3.81-1.1-5.71-1.66a.34.34,0,0,1-.26-.16c-1.46-2.9-1.79-3-4.86-2a.86.86,0,0,1-.32,0,43.28,43.28,0,0,1-7.07-4.37c-6.44-5.2-7.53-10.27-3.71-17.51a1.62,1.62,0,0,1,1-1.27A39.66,39.66,0,0,1,308,315.11c2.58-.87,5.22-1.56,7.87-2.19l.12,4.34a1.62,1.62,0,0,1-.42,1.33,2.88,2.88,0,0,0-.75,3.09c.29,1-.16,1-.9.64a2.69,2.69,0,0,0-3.16.3c-1,1-.63,2.2-.17,3.31,1.69,4.15,5.06,6.56,8.94,8.34,1.39.64,2.84-.21,3.62-1.82a10.06,10.06,0,0,0,.88-4.06c.14-3.75,1.84-7.3,1.35-11.12a1.06,1.06,0,0,1,.28-.72,8.62,8.62,0,0,0,2-5.3c1.46-.84,3.11-.67,4.68-.8,3.59-.29,7.17.27,10.76.33A2.54,2.54,0,0,1,345,311.53Z"/><path class="cls-4" d="M491.65,43.55c-1.19.13-2.37-.6-3.56,0a1.2,1.2,0,0,1-1.17.38c-4.82-.37-9.65-.11-14.47-.16s-7.6-2.4-8.43-7.13a1.46,1.46,0,0,1,.32-1.1c0-1.34.09-2.68.09-4,0-6,0-12,0-18a7.15,7.15,0,0,1,7.14-7.22q25.22,0,50.44,0a7.19,7.19,0,0,1,7.18,7.18q0,11.37,0,22.72a7.12,7.12,0,0,1-5.76,7,5.93,5.93,0,0,0-2.83,1.38c-1.94,1.61-3.94,3.16-5.88,4.76-.87.73-1,.37-1-.53-.38-1,.2-2,.37-3,.32-1.79.22-2-1.58-2q-8,0-15.93,0C495,43.77,493.31,43.62,491.65,43.55Z"/><path class="cls-5" d="M292.89,323.92a2.92,2.92,0,0,1-1,1.27c-.7,0-1.39,0-2.09,0q-118.06,0-236.12,0c-.62,0-1.79.53-1.83-.51-.07-1.36,1.23-.68,1.86-.68,7.14-.09,14.28-.09,21.43-.12.58,0,1.17.07,1.76.07H291.12Z"/><path class="cls-6" d="M284.44,81c-.53.55-1.22.31-1.83.32H249v.29c1.64,0,3.29,0,4.93,0,.91,0,1.29.34,1.22,1.23a10.63,10.63,0,0,0,0,1.13q0,39.3,0,78.59c0,.66.32,1.41-.36,2a26.79,26.79,0,0,1-.42-6.86c-.11-24.08-.05-48.16-.06-72.24,0-3,0-2.93-3.05-3a7.11,7.11,0,0,0-4.09,1.19c-1.89,1.22-3.82,2.4-5.77,3.54-.59.34-1.28.8-1.9.13s-.09-1.21.2-1.77A22.81,22.81,0,0,1,241,83.31c.41-.65.42-1.18-.34-1.59-3.22-1.75-4.25-4.55-4.16-8.09.13-5.1,0-10.21.05-15.32,0-3.07,1.21-5.52,4.12-6.93a6.59,6.59,0,0,1,3-.57c2.91,0,5.81,0,8.71,0,1.65,0,1.9-.25,1.91-1.87,0-5.43,0-10.86,0-16.29a2.1,2.1,0,0,0-1.12-2,1.33,1.33,0,0,1,1.55-.56c.72.3.4,1,.4,1.58,0,6.61,0,13.22.29,19.88V49.77c0-6.43,0-12.86,0-19.29,0-.4.55-1.35-.66-1.13-.69-1-.45-2.18-.38-3.27.08-1.47-.16-2.57-1.83-2.85a3,3,0,0,1,2.27-.82c.65-.07.64-.31.63-.75.9.31.53,1.08.53,1.64,0,8.7-.05,17.4-.16,26.1,0,1.36.27,1.85,1.76,1.83q9.42-.12,18.85,0c1.39,0,1.83-.31,1.81-1.77-.07-9.24,0-18.48,0-27.71,0-.6-.29-1.32.45-1.75-.31,10.52.29,21-.08,31.82.75-.64.37-1.18.37-1.61,0-6.82.06-13.64,0-20.46,0-1.6.8-1.69,2-1.69q31.67,0,63.34,0,22.23,0,44.47,0c.6,0,1.31-.29,1.79.36-.89.7-1.95.47-2.95.47q-40.47,0-80.93,0H282.47c-2.56,0-2.66.09-2.66,2.59q0,8.38,0,16.77c0,2.33.14,2.51,2.45,2.47s4.59.24,6.32,2.16a6.32,6.32,0,0,1,1.85,4.33c0,6.23.07,12.47,0,18.7,0,1.51-.18,3.16-2.09,3.69a.68.68,0,0,0-.43-.66c1.19-6.81.38-13.68.56-20.52.11-4-1.69-5.69-5.66-5.7H244.44c-4,0-5.87,1.8-5.92,5.75-.08,5.42-.05,10.85,0,16.27a5.34,5.34,0,0,0,3.57,5.39c2.38.93,2.43,1.09,1.14,3.29a.86.86,0,0,0-.2.43c1.45-.88,2.87-1.79,4.31-2.67a5.39,5.39,0,0,1,2.93-.75h32.21A2.45,2.45,0,0,1,284.44,81Z"/><path class="cls-7" d="M464.34,35.51c0,.34,0,.68,0,1a2,2,0,0,1-1.86,0C450,32.72,437.4,29,424.86,25.21l-4.94-1.48c-1-.31-1.54,0-1.51,1.13,0,1,0,1.94,0,2.9,0,.58.06,1.21-.5,1.63l-.6-.72c-.21.94-.21.94,1.27,1.75a25.36,25.36,0,0,0-.08,2.89q0,63.91,0,127.83c0,1-.39,2.18.69,3,.1,1-.63,1-1.31,1.06s-1.07-.07-1-.84c0-.48,0-1,0-1.45q0-65.38,0-130.76c0-2.95,0-5.91-.17-8.86-.07-1.49.48-2,1.88-1.58l22.62,6.87Z"/><path class="cls-5" d="M380.18,325.16l-2.25,0-.66-.72c.5-.47,1.13-.29,1.7-.29"/><path class="cls-8" d="M491.65,43.55a2.63,2.63,0,0,1,1.56-.25c6.76,0,13.52.05,20.28,0,1.44,0,1.82.34,1.3,1.73-.44,1.2-.69,2.47-1,3.71-.37.46-.57,1.16-1.39,1A92.22,92.22,0,0,1,502.89,47C499.13,45.91,495.32,45,491.65,43.55Z"/><path class="cls-9" d="M118.18,7.61a7.07,7.07,0,0,1-.5.6c-2,2-4.05,4-6,6-.68.71-1.08.54-1.67-.07q-3-3-6-6c-.6-.58-.63-.94,0-1.54,2.08-2,4.12-4.07,6.15-6.13.47-.48.8-.73,1.41-.11,2,2.12,4.16,4.17,6.25,6.26A1,1,0,0,1,118.18,7.61Z"/><path class="cls-9" d="M586.69,352.45c-.27-.23-.52-.41-.73-.62-1.71-1.7-3.41-3.43-5.15-5.12-.53-.52-.66-.89,0-1.47,1.78-1.72,3.53-3.46,5.25-5.24.58-.61.94-.47,1.46.07,1.68,1.73,3.41,3.43,5.13,5.14.42.41.81.72.18,1.33-1.85,1.78-3.65,3.62-5.48,5.43A6.85,6.85,0,0,1,586.69,352.45Z"/><path class="cls-9" d="M613.64,351.46c.25.21.5.39.71.6,1.75,1.74,3.48,3.5,5.25,5.23.5.49.56.81,0,1.33-1.81,1.75-3.6,3.53-5.35,5.35-.54.55-.85.43-1.33-.06-1.76-1.8-3.56-3.57-5.35-5.34-.34-.34-.63-.61-.13-1.1,1.91-1.86,3.79-3.76,5.68-5.64A4.05,4.05,0,0,1,613.64,351.46Z"/><path class="cls-9" d="M101.87,17.22a6.26,6.26,0,0,1-.46.59c-1,1.06-2.13,2.1-3.16,3.19-.5.53-.89.43-1.3-.08-.1-.12-.22-.22-.33-.34-3.79-3.75-3.79-3.74.37-7.17.34-.28.64-.62,1.07-.18l3.51,3.51A2.92,2.92,0,0,1,101.87,17.22Z"/><path class="cls-10" d="M440.41,289.85c.55-1.53-.25-2.94-.48-4.38-.12-.75-.89-.56-1.49-.49-2.76.3-5.48.37-7.87-1.41a4.68,4.68,0,0,1-1.8-2.2,3.13,3.13,0,0,1,.67-3.43,2.93,2.93,0,0,1,3.25-.75c3,1,5,3.19,6.65,5.79a39,39,0,0,0-1.68-7.18c-.35-1.12-.59-2.45-1.35-3.21s-2.11.22-3.19.36a9.65,9.65,0,0,1-5.81-.67,4.46,4.46,0,0,1-2.2-2,3.19,3.19,0,0,1,.37-3.62c1.12-1.3,2.63-1.15,4-.77a10.32,10.32,0,0,1,3.55,1.85c.44.33.79.88,1.48.87.23-.69-.27-1.13-.51-1.63-1.14-2.37-2.34-4.71-3.45-7.09a1.38,1.38,0,0,0-1.89-.9,25.76,25.76,0,0,1-3.15.61,7.8,7.8,0,0,1-5.27-1c-1.82-1.1-2.56-3-1.82-4.64s2.54-2.18,4.59-1.51c.46.15.9.35,1.35.53a18.67,18.67,0,0,1,3.76,2.71c0-.62-.6-1.31-.2-2.12.81.12.6.95,1,1.3h0c.82,1.66,2,3.07,2.85,4.74,1.58,2.61,2.87,5.38,4.46,8.34.17-2.66,1.67-4.45,2.88-6.37a4.22,4.22,0,0,1,5.37-1.49c1.59.95,2.05,3.17,1.14,5.17-1.23,2.69-3.59,3.87-6.19,4.74-2,.68-2,.69-1.2,2.7a50.23,50.23,0,0,1,2.29,7.22,17.13,17.13,0,0,1,1.93-4.92c1.4-2.25,3.41-3,5.28-1.94a2.54,2.54,0,0,1,1.34,1.34c.69,2,1.82,3.9,1.87,6.12.13,2-.49,3.57-2.46,4.4a4.57,4.57,0,0,1-2.6-1.13,3.7,3.7,0,0,0-3.91.67,1.08,1.08,0,0,0-.1,1.07c.34,1.13.42,2.31.68,3.46.09,1,.84.74,1.42.67,1.2-.14,2.39-.48,3.57.07,2.09-.45,3.12,1.63,4.87,2,1.22,1.14,1.39,2.2.55,3.52a4.72,4.72,0,0,1-2.31,1.92,11.33,11.33,0,0,1-9.78-.36c-2.52-1.35-2.9-3-1.26-5.35C440,290.93,440.44,290.51,440.41,289.85Z"/><path class="cls-3" d="M440.41,289.85c.81.63.25,1.09-.17,1.59-1.89,2.18-1.58,3.75,1,5a10.69,10.69,0,0,0,9.9-.1c2.18-1.09,2.53-3,1-4.49a12.78,12.78,0,0,1-1.45-.93c-.58-.48-.72-1,.07-1.49,3.6,1.26,4.38,2.64,4,6.51s-.56,7.91-.86,11.87c-.24,3.1-1.1,4.42-4.1,5.14a14.09,14.09,0,0,1-8.54-.32,4.4,4.4,0,0,1-3.06-4.25c-.2-4.44-.65-8.87-1-13.31C437.07,292.19,437.68,291.17,440.41,289.85Z"/><path class="cls-2" d="M450.58,280.16c-.15-2.07-1.13-3.9-1.89-5.74a2.85,2.85,0,0,0-4.54-.77,9.67,9.67,0,0,0-3,5.58c-.12.51,0,1.08-.5,1.5-.69-.45-.57-1.23-.75-1.87a40.74,40.74,0,0,0-2.53-7.12c-.59-1.2-.28-1.72,1-2a12,12,0,0,0,4.57-1.9,6.46,6.46,0,0,0,2.75-4,3.17,3.17,0,0,0-5.28-3.08,11,11,0,0,0-3.65,6.81,2.71,2.71,0,0,1-.44,1.39l-4.83-9.27c-.23-.37-.42-.75-.61-1.13-.39-.81-.16-1.29.72-1.55a14.58,14.58,0,0,0,4.31-1.7,2.75,2.75,0,0,1,.59-.39,1.47,1.47,0,0,1,1.11-.14c-.22,1.28-1.81,2.48-3.51,2.64-2,.19-2.29.65-1.37,2.51q1.22,2.46,2.47,4.87c.49.93,1,.88,1.45,0,.66-1.37,1.58-2.59,2.36-3.89,1.41-2.38,5.73-2,7.05.45.38.7,1,1.27,1.67.83,1.85-1.19,2.82.35,4,1.17a19.1,19.1,0,0,1,2.19,2.13.94.94,0,0,0,1.17.24.82.82,0,0,0,.23-1.15c-.89-1.4-.22-2.5.48-3.68s0-2.41-1.93-2.57c-3.4-.29-4.89-2.94-6.29-5.36a4.32,4.32,0,0,1,.29-3.87,4.44,4.44,0,0,1,3.61-1.7,3.32,3.32,0,0,1,3.78,2.33c.23.57.69,1.09,1.36.76s1.15-.72.95-1.51c-.13-.48-.27-.86.1-1.33.79-1,.58-2.31-.58-2.64-2.59-.75-4-3.13-6.26-4.3-.93-.48-.48-1.65-.69-2.46a4,4,0,0,1,1.7-4.4c.61-.44,3.91-.32,4.7.17,1.48.94,3,4,2.72,5.41-.51.09-.7-.32-1-.61-.62-.88-1-1.9-1.67-2.75-1.24-1.56-2.83-2.07-4.05-1.29a3.44,3.44,0,0,0-.83,4.6,9,9,0,0,0,4.86,4c3.78,1.43,2.94,1.23,2.28,4.34-.41,1.93-.8,3.87-1.18,5.8-.09.46,0,1.08-.65,1.15s-.91-.46-1.08-1a14.31,14.31,0,0,0-1.13-2.49,7.28,7.28,0,0,0-1.49-2.08,2.63,2.63,0,0,0-3.39-.39,3,3,0,0,0-1.33,3.35,7.73,7.73,0,0,0,4.15,4.67c.95.49,2,.76,3,1.19a1.61,1.61,0,0,1,1.17,1.83c-.33,2.95-.67,5.9-1.13,8.84-.11.66-.07,2-1.47,1.07a12.25,12.25,0,0,0-2.69-5.22,3.27,3.27,0,0,0-3.65-.87c-1.27.67-1.31,1.89-1.18,3.08.24,2.33,1.88,3.63,3.69,4.76,1,.51,2,.83,3,1.25a1.75,1.75,0,0,1,1.17,2.18,39.43,39.43,0,0,1-2.69,8.43c-.19.42-.43,1-1,.91s-.42-.75-.35-1.24A7.11,7.11,0,0,0,450.58,280.16Z"/><path class="cls-10" d="M450.58,280.16c.57,1.17.22,2.42.32,4a19.69,19.69,0,0,0,2.06-5c.47-1.42.71-2.9,1.2-4.31s-.13-1.7-1.22-2a7.41,7.41,0,0,1-2.73-1.27,2,2,0,0,1,2.35-.05,10.16,10.16,0,0,0,1.79.73c-.25-1-.74-2.08.11-3.05,1,1.22.81-.17.85-.46.4-2.87.66-5.77,1.13-8.62.18-1.14-.11-1.72-1.11-2.07a5.79,5.79,0,0,0-.53-4.82c-.44-.86-.78-1.67.27-2.33,1,1,1,2.41,1.95,3.92.42-2.11.76-3.81,1.08-5.51.28-1.46,1.38-3,.86-4.3s-2.49-1.19-3.76-1.84a8.42,8.42,0,0,1-4.12-4.12,3.74,3.74,0,0,1,1-4.64c1.38-1,3-.68,4.45.85a10.88,10.88,0,0,1,2.07,3.42,7.07,7.07,0,0,1,.71,3.18,1.78,1.78,0,0,0,2,1.94c.38.68,1.39,1,1.21,2-2.74-.63-2.74-.63-3.37,2.23a69.35,69.35,0,0,0-1.37,8.8c.64.25.78-.37,1.17-.48.2,1.09,1,1.47,2,1.78a8.55,8.55,0,0,0,6.93-.88c1.44-.79.41-2.07.56-3.08.12-.78-.8-1.2-1.62-1.22a6.93,6.93,0,0,0-4.25,1.57,8.83,8.83,0,0,1-3.58,1.85,9.26,9.26,0,0,1,8.33-4.22,2.53,2.53,0,0,1,2.37,1.88,3.15,3.15,0,0,1-.74,3.45c-1.88,1.87-4.23,2.19-6.72,1.73a25.33,25.33,0,0,1-3.41-.94c-.94-.32-1.24,0-1.33.94-.32,3.37-.72,6.73-1,10.09-.05.48-.49,1.29.62,1.24a12.72,12.72,0,0,0,3.32,1.83,4.46,4.46,0,0,0,3.66-.47c.82-.51,1.75-1.18,2.79-.33-1.82,1.9-4.07,2.15-6.48,1.64-1.1-.23-2.17-.59-3.25-.89-.65-.18-1.17-.12-1.28.71a52.27,52.27,0,0,1-2.44,9.45c-.1.33-.64,1.11.46.62.8,1.36,0,2.2-1,3-1.71.48-1.54,2.08-2,3.32-.36.55-.44,1.05.26,1.4a2.36,2.36,0,0,1,1.12,1c-.89-.44-2.23-.14-2.47-1.64-.06-.4-.51-.22-.8-.12-.46.17-.91.31-1.29-.16.45-.49,1.17-.73,1.32-1.48.76-1.29,1.17-2.51-.57-3.39a.59.59,0,0,1-.21-.56c1.48-.35,2-1.56,2.34-2.81A6.2,6.2,0,0,0,450.58,280.16Z"/><path class="cls-11" d="M422.78,217.82a9,9,0,0,1,1.08-5,3.24,3.24,0,0,1,6.15,1.57,7.82,7.82,0,0,1-3.15,6.23,3.67,3.67,0,0,1-.61.51c-.85.44-1.54,1.83-2.33,1.44-.95-.47-.92-1.93-1.12-3A10.44,10.44,0,0,1,422.78,217.82Z"/><path class="cls-10" d="M464.07,233.54l-2.85-2.26a8.28,8.28,0,0,1-2.85-4.33c-.63-2.23.17-4.42,1.9-5,1.91-.65,3.36.21,4.39,2.6a9.94,9.94,0,0,1,.93,5.33c-.1,1.09-.39,2.15-.47,3.25a1.2,1.2,0,0,1-.29.45A.66.66,0,0,1,464.07,233.54Z"/><path class="cls-11" d="M416,232.59c-1.94-.85-3.53-2.12-3.77-4.33a3.09,3.09,0,0,1,4.49-3.17,10.3,10.3,0,0,1,5.42,5.87,2.77,2.77,0,0,1,.6,1.3c.07.77-.24,1.29-1.07,1.21A19.8,19.8,0,0,1,416,232.59Z"/><path class="cls-10" d="M452.79,286.14c.2-1,1.28-1.8,1-3a9.89,9.89,0,0,1,5.13-3.92,3.31,3.31,0,0,1,4.28,1.17,3.59,3.59,0,0,1-1.05,4.6,7.63,7.63,0,0,1-4.42,1.74A14.77,14.77,0,0,1,452.79,286.14Z"/><path class="cls-11" d="M477,233.53a6.12,6.12,0,0,1-7.4,2.72c-1.32-.4-2.59-1-3.87-1.47-.42-.35-1.42-.25-1-1.26h0c.86-1.31,2.33-1.78,3.56-2.57h0a16.82,16.82,0,0,1,4.81-1.55C475.43,229,477.94,231.14,477,233.53Z"/><path class="cls-11" d="M472.15,221.91a12.74,12.74,0,0,1,3.85-4.43c1.95-1.35,3.67-1.29,4.9.11,1,1.18.76,3.69-.57,5.09-.26.28-.53.54-.79.81-2.16,1.63-4.69,1.85-7.26,1.93-1.08,0-1.08-.75-.86-1.43S472,222.63,472.15,221.91Z"/><path class="cls-10" d="M426.64,239.29a8.6,8.6,0,0,1,2.27-3.07,3.39,3.39,0,0,1,4.13-.61,3.54,3.54,0,0,1,1.19,4.17,7.69,7.69,0,0,1-4.3,4.33c-.63.28-1.3.47-2,.7-2.7.61-2.63.62-2.45-2.09A12.55,12.55,0,0,1,426.64,239.29Z"/><path class="cls-10" d="M462.47,245.83c-.16-.84-1.49-.92-1.28-2-.2-.43.14-.66.35-.94a10.74,10.74,0,0,1,7.31-3.61,2.82,2.82,0,0,1,3,1.77,3.15,3.15,0,0,1-.64,3.6c-1.93,2-4.36,2.12-6.89,1.74A13.66,13.66,0,0,1,462.47,245.83Z"/><path class="cls-10" d="M414.43,239.35c2.86-.7,6.69,1.11,8.74,4.13.21.69.93.62,1.4.93.31.21.68.37.58.84a.68.68,0,0,1-.72.52c-1.76,0-3.38.8-5.15.85a8.86,8.86,0,0,1-4.55-1.15h0a8.67,8.67,0,0,1-1.07-.94C412,242.79,412.24,241,414.43,239.35Z"/><path class="cls-10" d="M426.37,226.44l1.87-1.69c2.07-.86,3.18-.61,4.58,1h0c1.43,2.62-.74,4.85-2.76,6.25a12.27,12.27,0,0,1-5.48,1.63c-1.35.19-1.63-.27-1.2-1.58A16.89,16.89,0,0,1,426.37,226.44Z"/><path class="cls-10" d="M466.74,271.6a4.48,4.48,0,0,0-3.22,1,2.77,2.77,0,0,1-.95.53c-1.63.31-4.64-1.08-5.6-2.61a9.51,9.51,0,0,1,7.75-4.44,3,3,0,0,1,2,5.47Z"/><path class="cls-10" d="M436.66,255.1l-.37.3a21.16,21.16,0,0,1-4.1,1.68c-1.13.47-1.58.09-1.51-1.1s-.12-2.36.49-3.44h0c.3-.93,1-1.65,1.28-2.59l.29-.35a15.53,15.53,0,0,1,2-1.9h0a3,3,0,0,1,3.51.05l.65.66c1.18,1.83.62,3.49-.53,5.07A5.37,5.37,0,0,1,436.66,255.1Z"/><path class="cls-12" d="M426.37,226.44c-1,1.91-2.29,3.68-2.69,5.9-.15.82-.27,1.34.72,1.15,2.84-.52,5.71-1,7.65-3.5a4.75,4.75,0,0,0,.77-4.22c1,1.52.78,2.9-.48,4.52-1.84,2.36-4.43,3.15-7.19,3.48-1.42.17-1.82.54-1.5,2,.43,2,.34,4.05.81,6l.46,1.9c.7-1.74.5-3.38,1.72-4.44-.18,1.42-1.08,2.65-1,4.18.08,1.1,0,2,1.51,1.33a2.34,2.34,0,0,1,.79,0c-2.44,1.22-2.39,1.2-1.46,3.94.69,2.07,1.93,3.91,2.45,6l-.89-1.06c-.16.81.65,1.29.41,2.35l-4.08-3.18c1.28.12,2,1.25,3.39,1.82-1.12-2.84-2.21-5.44-3.13-8.1-.35-1-1.4-.53-2.14-.35a10.41,10.41,0,0,1-7.09-.19,1.14,1.14,0,0,1-.7-.61c3.44,1.72,6.79.72,10.44-.29-.92-.5-2.07-.49-2-1.7.32.11.72.23.6-.32-.59-2.89-.64-5.83-1-8.74-.06-.59-.5-.6-.93-.65l-4.46-.53a2,2,0,0,1-1.42-.65l5,.6c1.16.14,1.83-.09,1.14-1.44a1.87,1.87,0,0,1,0-.79c.81.25,1.25.09,1.67-.81C424.44,228.8,425,227.33,426.37,226.44Z"/><path class="cls-13" d="M461.54,242.9l-.35.94c-.87.6-2.22.08-2.14-.9a17.8,17.8,0,0,0-.46-4.25l.65.66c.15,1,.29,2,.5,3.37a54.57,54.57,0,0,1,4.4-8.43c.11-.17,0-.49-.07-.75l.67,0c0,.69.76.76,1,1.26a1.6,1.6,0,0,0-1.5,1,59.45,59.45,0,0,0-3.15,6.41C460.9,242.57,460.56,243.17,461.54,242.9Z"/><path class="cls-13" d="M468.29,231a12.36,12.36,0,0,1-3.56,2.57,15.44,15.44,0,0,0-.07-9c1.24,1.61,1.25,3.52,1.19,5.41,0,.66-.27,1.33-.3,2.07,1.7-2.17,3.2-4.47,5.32-6.24l0,0c-.93,2-2.44,3.52-3.74,5.41Z"/><path class="cls-12" d="M431.17,252.54a28.35,28.35,0,0,0-.35,3.46c0,1,.42,1.2,1.29.89,1.39-.51,2.79-1,4.18-1.49-1.05,1.23-2.62,1.48-4,1.79-1.56.34-1.57.9-.87,2a1.4,1.4,0,0,1,.09.47,16.77,16.77,0,0,1-2.54-4.87c.66.24.5,1.15,1.2,1.49C430.87,255.09,430,253.53,431.17,252.54Z"/><path class="cls-13" d="M472.15,221.91a10.49,10.49,0,0,1-.24,1.4c-.63,1.89-.64,1.84,1.41,1.86a14.65,14.65,0,0,0,6.22-1.68c-1,1.31-2.49,1.61-3.91,1.89a37.88,37.88,0,0,1-4.78.39l0,0A8.43,8.43,0,0,1,472.15,221.91Z"/><path class="cls-13" d="M477,233.53c-.24-3.72-2.44-4.86-6.47-3.37a6.14,6.14,0,0,1-2.24.8c2.15-1.45,4.45-2.39,7-1.44C477.12,230.17,477.68,231.73,477,233.53Z"/><path class="cls-12" d="M436.66,255.1a14.79,14.79,0,0,0,2.25-2.85,4.75,4.75,0,0,0,0-3.84c1.44,1.21,1,2.66.37,4a14,14,0,0,1-1.64,2.33C437.3,254.88,437.06,255.22,436.66,255.1Z"/><path class="cls-12" d="M414.43,239.35c-2.27,2.58-2.25,3,.3,6.12a3.21,3.21,0,0,1-2.26-3.42A2.53,2.53,0,0,1,414.43,239.35Z"/><path class="cls-12" d="M432.82,225.77a4.14,4.14,0,0,0-4.58-1C430.06,223.49,431.86,223.89,432.82,225.77Z"/><path class="cls-12" d="M438.24,247.75a4.68,4.68,0,0,0-3.51-.05A2.42,2.42,0,0,1,438.24,247.75Z"/><path class="cls-12" d="M432.45,250a4.44,4.44,0,0,1-1.28,2.59A4.12,4.12,0,0,1,432.45,250Z"/><path class="cls-12" d="M434.73,247.7a5.75,5.75,0,0,1-2,1.9A2.94,2.94,0,0,1,434.73,247.7Z"/><path class="cls-8" d="M286.33,176.13c-1.74-3-4.57-5.1-6.8-7.7-.74-.86-1.37-.26-1.78.42a6.82,6.82,0,0,1-.75,1.47c.07-.68.16-1.37.2-2.06s.12-1.25-.55-1.55a1.39,1.39,0,0,0-1.71.55c-.29.36-.81.55-.82,1.12-1.28,2.32-.43,4.81-.65,7.37a48.6,48.6,0,0,1-7.18-4.13c-3.1-2-6.09-4.17-9.14-6.26a2.38,2.38,0,0,1-1.08-2.17q0-39.75,0-79.49c0-1.15.37-1.45,1.48-1.45,6.83,0,13.65,0,20.48,0l.18.24a8.48,8.48,0,0,1,.11,2.25q0,36.35,0,72.7c0,2.46,0,4.93,0,7.4,0,1.92,0,1.92,2,1.92,8,0,15.91,0,23.86,0,.67,0,1.5-.27,1.94.44s-.09,1.44-.5,2.06c-2.94,4.45-6.58,8.07-11.8,9.78a13.45,13.45,0,0,1-4.75.77,1.66,1.66,0,0,1-1.75-1.12v0A15.45,15.45,0,0,0,286.33,176.13Z"/><path class="cls-14" d="M243.16,258c0,3.76,0,7.52,0,11.28,0,1.2-.23,1.84-1.59,1.65s-3.36.66-4.32-.38-.24-2.78-.25-4.21c0-6.56,0-13.11,0-19.66,0-1.18.27-1.68,1.52-1.55a18.23,18.23,0,0,0,3.22,0c1.12-.09,1.48.28,1.46,1.43C243.12,250.4,243.16,254.22,243.16,258Z"/><path class="cls-14" d="M219.3,260.45c0,3.07,0,6.13,0,9.19,0,1-.28,1.3-1.28,1.33-4.88.16-4.88.19-4.88-4.64,0-5,0-10,0-15,0-1.17.28-1.7,1.53-1.6a18.39,18.39,0,0,0,3.06,0c1.33-.13,1.63.46,1.6,1.68C219.25,254.43,219.3,257.44,219.3,260.45Z"/><path class="cls-14" d="M227.1,262.07c0,2.42,0,4.83,0,7.24,0,1.2-.24,1.83-1.58,1.65s-3.36.65-4.31-.37-.25-2.77-.26-4.2c0-4,0-7.93,0-11.9,0-1,.24-1.48,1.34-1.4a23.69,23.69,0,0,0,3.37,0c1.09-.07,1.51.27,1.48,1.43C227.05,257,227.1,259.56,227.1,262.07Z"/><path class="cls-15" d="M232.93,288.75c1.31-1.42,2.62-2.83,3.92-4.25s1.27-1.39,2.38.2c3.44,4.93,6.93,9.83,10.27,14.83a3.37,3.37,0,0,0,3.54,1.81,1.52,1.52,0,0,1,1.76.63c-1.49,0-2.72,0-3.94,0h-1.61c-2.27,0-2.27,0-2.74,2-.1,0-.27-.07-.27-.11.11-1.72-.77-2.18-2.33-1.94a14.08,14.08,0,0,1-2.25,0c-2.2,0-2.2,0-2.54,2l-.29,0c.08-2-1.18-2.22-2.75-2a12.36,12.36,0,0,1-1.61,0c-2.37,0-2.37,0-2.85,2a1.19,1.19,0,0,1-.26-.09c.14-1.9-1-2.16-2.49-2a14,14,0,0,1-1.45,0c-1.5,0-3.5-.73-3.35,2.35.09-3.06-1.89-2.31-3.4-2.36h-1c-1.44,0-3.33-.6-2.85,2.11-.27-.12-.44-.16-.43-.19.11-1.74-.8-2.16-2.35-1.94a18.72,18.72,0,0,1-2.25,0c-1.35,0-3.19-.56-2.32,2-.37-.06-.55-.08-.54-.09.12-2-1.12-2-2.65-2-3.47.1-3.47,0-3.47-3.51V281.19h.39v19.75a5.72,5.72,0,0,0,2.35-2.59c2.26-2.62,4.46-5.28,6.82-7.81.36-.38.59-.91,1.21-.95,1-.66,1.45-2.47,2.64-2.23.93.18,1.6,1.61,2.42,2.45a30.44,30.44,0,0,0,3,3.28c1.17.37,1.58,1.54,2.37,2.31,1.32,1.27,1.47,1.3,2.7-.15,1.66-1.95,3.33-3.9,5.14-5.72A2.55,2.55,0,0,1,232.93,288.75Z"/><path class="cls-16" d="M205.34,263.61c0-1.93,0-3.86,0-5.79,0-1,.23-1.5,1.34-1.43s2.47,0,3.7,0c.82,0,1.15.32,1.14,1.15q0,6.1,0,12.22c0,1-.43,1.15-1.27,1.19-4.89.22-4.89.23-4.89-4.62Z"/><path class="cls-4" d="M251.17,264.88c0,1.61,0,3.22,0,4.83,0,.85-.2,1.3-1.16,1.25-1.29-.06-2.58,0-3.86,0-.81,0-1.16-.24-1.15-1.1,0-3.38,0-6.75,0-10.13,0-.78.33-1,1.06-1q2,.06,4,0c.88,0,1.1.41,1.08,1.19C251.14,261.56,251.17,263.22,251.17,264.88Z"/><path class="cls-10" d="M232.93,288.75c-2.28,2.6-4.57,5.19-6.84,7.8-.55.63-1,.65-1.55,0-.93-1.17-1.89-2.3-2.83-3.45,1.73-2.78,3.49-5.53,5.17-8.34.54-.89.9-1,1.65-.23C230,286,231.46,287.34,232.93,288.75Z"/><path class="cls-6" d="M255.76,82c.46-.7,1.18-.39,1.77-.39,6.29,0,12.57,0,18.86,0,2.25,0,2.25,0,2.25,2.22v75.82h.3V83.75c0-2.15,0-2.15,2.21-2.14,1.34,0,2.68,0,4,0-.54,1.06-1.56.77-2.42.8-2.95.08-2.95.06-2.95,3.06q0,35.28,0,70.57c0,1.16-.41,2.33,0,3.49-.13.74,0,1.58-1,1.94-.45.16-.22.66-.23,1,0,1.32,0,2.65-.07,4-.81-.4-.4-1.14-.4-1.7q0-34.22,0-68.41,0-6.27,0-12.55a3.19,3.19,0,0,0-.14-1.59h0c-.18-.49-.61-.36-.95-.36q-10.26,0-20.52,0A5.55,5.55,0,0,0,255.76,82Z"/><path class="cls-14" d="M229,266.58c0-4.25,0-4.2,4.27-4.26,1.41,0,2,.28,1.92,1.84a47.35,47.35,0,0,0,0,5.46c0,1.08-.38,1.41-1.4,1.35a23.69,23.69,0,0,0-3.37,0c-1.19.1-1.49-.43-1.41-1.5S229,267.55,229,266.58Z"/><path class="cls-6" d="M255.41,165.14q0-40.78,0-81.56c0-.55-.27-1.21.39-1.61q0,40.69,0,81.39C255.76,164,256.1,164.66,255.41,165.14Z"/><path class="cls-17" d="M213.61,289.58l-7,8.07c-.28.31-.52.69-1,.69l5.68-9.31c1-1.66,1-1.66,2,0C213.4,289.21,213.51,289.39,213.61,289.58Z"/><path class="cls-8" d="M279.87,159.58c-.36.24-.59.2-.59-.29,0-.81,0-1.61,0-2.42q0-36.51,0-73c0-1.53.35-2.09,1.93-2a9.83,9.83,0,0,0,4-.21,7.11,7.11,0,0,0,3.13-2A4.63,4.63,0,0,0,290,75.84c0-6.18.06-12.36,0-18.54A6.17,6.17,0,0,0,284,51.23c-1.23-.07-2.47,0-3.7,0-.75,0-1.06-.25-1.06-1q0-10.3,0-20.63c0-.73.21-1.12,1-1.07.42,0,.86,0,1.29,0H388.28c.75,0,1.5,0,2.25,0a5.41,5.41,0,0,1,.16,2.08V161.38l-.33.07c-.48-1.35-1-2.69-1.43-4-1.63-4.71-3.28-9.42-4.86-14.15-.27-.82-.89-1-1.51-1.29L360.7,131.74c0-.78.69-.79,1.1-1a15.11,15.11,0,0,0,7.48-10.2,6.13,6.13,0,0,0,.15-1.28c0-2.59-1.08-3.28-3.41-2.12-1.1.55-2.11,1.32-3.43,1.27a2,2,0,0,1-1.9-1c-.33-.73.43-1.13.84-1.58a11.34,11.34,0,0,1,1.65-1.53c4.65-3.35,6.89-8.06,7.9-13.55,2.42-13.14.64-25.51-6.28-37.08-4.83-8.07-12.35-12.31-20.9-15.16a4.35,4.35,0,0,0-4.81.89c-.7.75-1.15.1-1.64-.23a31.17,31.17,0,0,0-12.31-5.35c-8.69-1.45-13.2.91-17.21,6.76-4.59,6.71-7.15,14.27-9.2,22a112,112,0,0,0-2.5,13.61,21.76,21.76,0,0,0,6.21,18.87,35.41,35.41,0,0,0,6.69,5.78c1.34.84,1.41,1.57.55,2.76-1.41,2-1.94,1.92-3,.24a2.23,2.23,0,0,0-2.55-1.27c-1.1.33-1.35,1.4-1.4,2.35-.25,4.21-.46,8.44,3.06,11.69A15.39,15.39,0,0,0,309.7,129c-.12.6-.61.65-1,.85q-10.92,6-21.87,12a3,3,0,0,0-1.57,1.85C283.58,149.06,281.45,154.22,279.87,159.58Z"/><path class="cls-8" d="M313.74,231.47c.34-3.42.61-6.84,1-10.25a27.41,27.41,0,0,0-.09-6.4c-1-8.53-2.39-17-3.69-25.47-.57-3.77-1.13-7.53-1.75-11.29a2.09,2.09,0,0,1,1-2.3c3.73-2.65,7.63-5,11.5-7.44a3.23,3.23,0,0,1,1.87-.32c6.82,0,13.64-.05,20.46-.11a2.69,2.69,0,0,1,1.35.42c4.18,2.2,8.35,4.43,12.55,6.59a1.68,1.68,0,0,1,1.05,1.9c-.53,5.88-1,11.76-1.55,17.64-.42,4.76-1.06,9.52-1.23,14.29a74.45,74.45,0,0,0,1.2,15c1.06,6.24,1.86,12.53,2.83,18.79a1.87,1.87,0,0,1-1,2.1,45.65,45.65,0,0,1-19.41,6.88c-6.06.81-12,.61-17.73-1.81a25.47,25.47,0,0,1-9.2-6.64,2.31,2.31,0,0,1-.22-2.5,10.91,10.91,0,0,0,.57-3.92C313.39,234.92,313.71,233.21,313.74,231.47Z"/><path class="cls-8" d="M351.74,86.85a68.46,68.46,0,0,1-4,18.49,21.06,21.06,0,0,1-3.14,5.41,10.94,10.94,0,0,1-13.22,3.7c-4.4-1.77-7.78-4.64-9.49-9.27a105.64,105.64,0,0,1-5-17.46,7,7,0,0,1,1.45-6.15c5-6,10.74-11.27,16.41-16.61.54-.51.88-.37,1.33.1,5,5.25,10,10.51,14,16.64C351.23,83.55,352,85.51,351.74,86.85Z"/><path class="cls-8" d="M363.31,162.62H345.26c-.78,0-1.62.23-2.12-.72-.19-.35-.67-.23-1-.25-1.91-.09-2.66-1.59-1.55-3.29a29.59,29.59,0,0,0,2.24-3.9,2.16,2.16,0,0,1,.75-.81c3.43-2.28,4.24-4.9,2.6-8.56-.29-.67.14-1.25.12-1.88a7.93,7.93,0,0,1,3.71-7.1,19.85,19.85,0,0,0,4.58-4.95c.49-.68.89-.88,1.7-.49q12.81,6,25.66,12a1.54,1.54,0,0,1,1,1.59q.09,8.53.29,17.08c0,1.11-.38,1.32-1.39,1.32C375.66,162.6,369.48,162.62,363.31,162.62Z"/><path class="cls-8" d="M304.66,162.62c-7.59,0-13.77,0-20,0-1.25,0-1.55-.28-1.32-1.53,1-5.6,2-11.2,2.95-16.81a2,2,0,0,1,1.08-1.64q11.44-6.25,22.85-12.57c.58-.32.94-.54,1.37.28,1.47,2.79,3.88,4.7,6.45,6.39a2.47,2.47,0,0,1,1.33,2.18,13,13,0,0,0,.55,3c.41,1.52.79,2.82,0,4.54-1.1,2.46.91,6.08,3.45,7.19.24.11.62.15.7.33,1,2.2,2.87,4.07,2.45,6.8-.11.73-.51.72-1.06.87C318.17,163.67,310.66,162,304.66,162.62Z"/><path class="cls-2" d="M345,311.53a94.66,94.66,0,0,0-17.33-.28c0-4.52.68-9,1.12-13.47,1.07-10.79,2.22-21.58,3.34-32.36.4-3.85.87-7.69,1.23-11.53.09-.87.45-1.08,1.22-1.06a21.73,21.73,0,0,0,2.42-.07c2.14-.14,2.18-.15,2.42,2q1.67,15.61,3.27,31.24c.79,7.8,1.53,15.6,2.28,23.4A20.78,20.78,0,0,1,345,311.53Z"/><path class="cls-8" d="M360.08,178.34c1.9,6.4,3.7,12.47,5.51,18.53.56,1.89.68,1.93,2,.48,4.43-4.75,8.87-9.5,13.25-14.31.86-.94,1.49-1.17,2.68-.5,2.87,1.62,2.91,1.55,1.31,4.38-5.14,9.06-10.22,18.16-16,26.82-.84,1.25-1.81,2.4-2.7,3.61a1.3,1.3,0,0,1-2.17.22,39.44,39.44,0,0,1-6.64-8,1.55,1.55,0,0,1-.19-1.09q1.31-14.61,2.63-29.21A5.32,5.32,0,0,1,360.08,178.34Z"/><path class="cls-8" d="M308.6,180.36c.65,4,1.3,8,1.92,12,.83,5.25,1.63,10.51,2.46,15.76a1.93,1.93,0,0,1-.16,1.54,42.09,42.09,0,0,1-6.06,7.5c-1.49,1.34-1.85,1.33-3.08-.24a133.83,133.83,0,0,1-9.71-15c-3.22-5.46-6.28-11-9.48-16.47-.61-1.06-.48-1.51.6-2.06,3.08-1.54,3.05-1.58,5.44,1q6.08,6.55,12.17,13.11c.34.37.63,1,1.26.81s.42-.82.52-1.28q1.75-7.94,3.52-15.88A.84.84,0,0,1,308.6,180.36Z"/><path class="cls-2" d="M278,82.24a3.31,3.31,0,0,1,.18,1.89q0,38.18,0,76.34a25.3,25.3,0,0,0,.37,6h0a4.68,4.68,0,0,0,1.75.11h39.4c.37,0,.75,0,1.12,0s.82-.17.94.3-.32.62-.65.79a125.05,125.05,0,0,0-11.91,7.67,3.35,3.35,0,0,0-1.39,2.21c-1.26,6-2.62,11.95-4,17.93a1.58,1.58,0,0,1-.6,1.22c-1.34-1.43-2.67-2.88-4-4.31-3.75-3.92-7.23-8.08-11.16-11.83a2.71,2.71,0,0,1-.79-1.88c1.81,1.37,3.73.57,5.51.1,5.91-1.55,9.79-5.68,12.93-10.65.78-1.24-.35-1-1-1-4.73,0-9.46,0-14.18,0-3.66,0-7.31,0-11,0-1.12,0-1.67-.31-1.67-1.55q0-41.58,0-83.18C278,82.35,278,82.3,278,82.24Z"/><path class="cls-8" d="M319.28,136.39a22.92,22.92,0,0,1-5.77-4.78,6,6,0,0,1-.79-7.16c1.68-3.2,4.28-5.6,6.94-7.94.64-.57,1.35-1.06,2-1.63a2.15,2.15,0,0,1,2.65-.43,2.45,2.45,0,0,1,1.52,2.4c-.09,2.36,0,4.72,0,7.08,0,.27-.14.6,0,.79,1.12,1.81-.2,2.41-1.43,3.24A11,11,0,0,0,319.28,136.39Z"/><path class="cls-8" d="M344.4,112.41c0,4.11.08,7.69,0,11.27-.06,1.72-2.63,3-4.12,2.29-3.42-1.69-7-1.55-10.53-.61-2,.53-3-.22-3-2.33,0-2.85,0-5.7,0-8.55,0-.38-.26-.92.24-1.15s.67.25,1,.45a14.12,14.12,0,0,0,10,2.23A10.25,10.25,0,0,0,344.4,112.41Z"/><path class="cls-8" d="M346.8,137.65a16.46,16.46,0,0,0-2.39-7.84c-.59-.88-1.77-1.68-1.79-2.54,0-.66,1.35-1.36,2.09-2a2.18,2.18,0,0,0,.63-1.76q-.06-2.17,0-4.35c0-.48-.3-1.17.44-1.36a1.57,1.57,0,0,1,1.76.47c.4.5.83,1,1.21,1.51a61.4,61.4,0,0,1,5.39,8.39c.29.57.65,1.12.18,1.79A36.89,36.89,0,0,1,346.8,137.65Z"/><path class="cls-18" d="M333.31,167.08c-2.84,0-5.69,0-8.53,0-1,0-1.26-.18-1.1-1.26.49-3.28.43-3.29,3.67-3.29,4.5,0,9,0,13.51,0,1.26,0,1.79.3,1.91,1.64.27,2.92.34,2.91-2.55,2.91Z"/><path class="cls-8" d="M276,167.52a1.07,1.07,0,0,1,.26,1.33c-.69,1.71.17,2.57,1.57,3.3s2.14,1.94,3.21,2.91c.27.24.56.65.93.25s-.07-.67-.31-.92c-.78-.82-1.61-1.59-2.36-2.43a2.87,2.87,0,0,1-.9-2,1,1,0,0,1,.32-.68c.27-.18.45.14.63.32,3,3.09,6.4,5.94,7.44,10.45.16.7.61,1.33-.42,1.67-.74.25-1.5,1.39-2.16-.14-.22-.51-.82-.65-1.28-.91-2.06-1.15-4.06-2.4-6-3.67a4.6,4.6,0,0,1-2.3-4.59C274.7,170.69,274.62,168.93,276,167.52Z"/><path class="cls-8" d="M395.59,172.88c.32,1.67-.59,3-2.22,4.08-2,1.31-4,2.53-6,3.69-.42.23-1,.41-1.18.78-.73,1.6-1.58.6-2.42.21-1.16-.54-.28-1.24-.15-1.88.94-4.46,4.42-7.09,7.3-10.15.18-.18.3-.5.63-.33a.73.73,0,0,1,.34.84,4.25,4.25,0,0,1-1.23,2.2c-.72.72-1.45,1.44-2.16,2.17-.22.22-.55.48-.27.8s.68.07.94-.19a21.5,21.5,0,0,1,4.41-3.71c1.1-.63.57-1.7.43-2.63-.06-.35-.33-.82.1-1s.73.34.88.7A10.57,10.57,0,0,1,395.59,172.88Z"/><path class="cls-6" d="M390.49,20.73c.86,1.08.37,2.35.39,3.52.08,3.55,0,3.55-3.52,3.55H281.12c-2.18,0-2.18,0-2.18-2.18,0-1.24.05-2.48,0-3.71s.47-1.67,1.63-1.56c.26,0,.53,0,.8,0q53.61,0,107.2,0c.65,0,1.41-.34,1.95.36-1,.71-2.08.46-3.13.46q-42.15,0-84.31,0H282.44c-2.51,0-2.61.11-2.62,2.65,0,3.05,0,3.05,2.94,3.05H386.9c3.11,0,3.09,0,3.13-3.06C390.05,22.79,389.78,21.68,390.49,20.73Z"/><path class="cls-8" d="M384.39,147.13q2.5,7.26,5,14.52c.24.71.1,1-.67,1h-.16c-4.39.25-4.43.25-4.49-4.1-.05-3.79,0-7.59,0-11.38Z"/><path class="cls-19" d="M333.46,161.65c-1.61,0-3.22,0-4.82,0s-1.06-1-1.11-1.78c-.08-1.09.64-.85,1.27-.73a30.52,30.52,0,0,0,9.44.32c.63-.08,1.09-.19,1,.64,0,.62.34,1.53-.83,1.54Z"/><path class="cls-20" d="M283.84,153.25c-.46,2.68-1,5.35-1.34,8-.14,1-.48,1.39-1.51,1.37s-1.35-.19-.93-1.29c1.1-2.9,2.1-5.85,3.14-8.78.19-.2.09-.82.5-.61S284,152.81,283.84,153.25Z"/><path class="cls-6" d="M321.15,167.7c1-1,.07-.86-.55-.86l-16.25,0c-8,0-16.08,0-24.13,0-.54,0-1.18.28-1.63-.31l23.62-.06q9.41,0,18.8,0c.46,0,1.25-.36,1.31.42C322.36,167.41,321.77,167.74,321.15,167.7Z"/><path class="cls-21" d="M321.2,146c.86,2.29,1.64,4.37,2.47,6.55C321.39,151.87,320,148.41,321.2,146Z"/><path class="cls-22" d="M343.72,152.23c.53-1.72,1.07-3.45,1.6-5.18.08-.24.05-.6.41-.59s.49.39.48.7C346.18,149.21,345.64,151.05,343.72,152.23Z"/><path class="cls-2" d="M313.74,231.47c.17,3-.45,5.88-.71,8.82,0,.1-.23.19-.35.28A89.57,89.57,0,0,1,313.74,231.47Z"/><path class="cls-23" d="M283.84,153.25c-.26-.32.22-.8-.24-1.05-.05,0-.26.25-.4.39a8.55,8.55,0,0,1,1.3-3.38A12.31,12.31,0,0,1,283.84,153.25Z"/><path class="cls-2" d="M286.33,176.13a3.46,3.46,0,0,1,1,2.6A7.16,7.16,0,0,1,286.33,176.13Z"/><path class="cls-8" d="M419.21,164.11c-.7.69-1.22.74-1.34-.41a10.65,10.65,0,0,1,0-1.13q0-65.2,0-130.4c0-.59-.61-1.6.69-1.75,4.75,1.44,9.49,2.9,14.25,4.32q42.1,12.61,84.23,25.19A2.19,2.19,0,0,1,519,62.47q-.08,65.06,0,130.12c0,2.19,0,2-2,1.61-2.62-.45-3.54-1.85-4.08-4.38-3.61-16.86-7.45-33.66-11.11-50.5a6.27,6.27,0,0,0-2.43-3.91c-6.84-5.46-13.61-11-20.41-16.53a1.67,1.67,0,0,1-.81-1c1.71-.14,3.38-.31,5.06-.42a45.76,45.76,0,0,0,6.38-.89,9.68,9.68,0,0,0,7.61-6.88,70.62,70.62,0,0,0,2.79-13.06c2.44,1,2.93.72,2.92-2a73.24,73.24,0,0,0-1.31-13.45,16.7,16.7,0,0,0-5.91-9.71l-1.81-1.61c2-.88,2.2-2,.46-3.24a8.75,8.75,0,0,0-6-1.55,1.39,1.39,0,0,1-1.63-.86c-.77-1.47-1.66-2.88-2.5-4.32C479.53,52,472.33,48.4,463.63,47.26a6.17,6.17,0,0,0-1.29,0c-2.07.11-2.55,1-1.49,2.78.41.68.88,1.32,1.48,2.21-1.55-.09-2.85-.18-4.16-.22-2.42-.08-4.83,0-7.24.2-4.34.29-7.57,2.5-10.39,5.53a5.86,5.86,0,0,0-.66.91c-.88,1.51-.45,2.28,1.31,2.4l.77.06c.17.61-.33.79-.59,1.09a79.54,79.54,0,0,0-8.19,11,26.58,26.58,0,0,0-1.86,3.74c-1.55,4.05-.14,7.71,3.7,9.62a2.44,2.44,0,0,1,1.46,1.89,89.56,89.56,0,0,0,3.41,12.24,11.54,11.54,0,0,0,1.89,3.35c.39.45.81,1.08,1.37,1.07,1.84,0,2.66,1.39,3.74,2.43a50.37,50.37,0,0,0,10,7.84,4.18,4.18,0,0,1-2,1.07q-12.42,4.92-24.87,9.77a1.46,1.46,0,0,0-1.06,1q-4.8,18.06-9.62,36.1A5.47,5.47,0,0,0,419.21,164.11Z"/><path class="cls-8" d="M453.36,92.87c-.18-2.46-.32-4.93-.55-7.39a1.71,1.71,0,0,1,1-1.93c6.11-3.36,12.19-6.79,18.29-10.18.44-.24,1.05-.92,1.28.2,1.3,6.41,4.42,12.05,7.5,17.71a6.77,6.77,0,0,0,.9,1.52c3.22,3.48,2.4,7.32,1.14,11.25a8.28,8.28,0,0,1-3,4.26,63.61,63.61,0,0,1-14,8.24c-2.74,1.11-3.62.92-5.42-1.43a32.17,32.17,0,0,1-7-19.35c0-1-.11-1.93-.17-2.9Z"/><path class="cls-8" d="M477.16,119.32q-2.9,15.31-5.77,30.57c-1.69,9-3.4,17.93-5.05,26.91-.21,1.15-.53,1.4-1.68,1-2.73-1-5.51-1.78-8.29-2.58-1-.28-1.37-.68-1.33-1.77q1.15-27.87,2.22-55.73a7,7,0,0,1,.05-.8c.09-.48.38-.82.87-.77s.42.54.45.89a100.67,100.67,0,0,0,1.09,10.09,31.32,31.32,0,0,0,.94,3.91c.58,1.83,1.56,2.19,3.35,1.38a15.69,15.69,0,0,0,4.13-3,66.62,66.62,0,0,0,8-9.06C476.39,119.93,476.58,119.46,477.16,119.32Z"/><path class="cls-8" d="M417.91,29.39c0-1.77,0-3.54-.06-5.31-.06-1.19.35-1.34,1.4-1q9.54,2.91,19.1,5.74l26,7.73c1.3,5.08,3.48,6.71,8.8,6.77,5,.05,9.94-.26,14.91.22,4.17,1.56,8.49,2.64,12.75,3.94q8.31,2.55,16.66,5c1,.3,1.55.71,1.44,1.89a25.38,25.38,0,0,0,0,3.7c.06,1.13-.14,1.54-1.43,1.14-8.83-2.7-17.68-5.33-26.52-8L420.18,30C419.43,29.76,418.67,29.58,417.91,29.39Z"/><path class="cls-8" d="M459.5,115.68a7.09,7.09,0,0,1,.79.62,4.24,4.24,0,0,0,5.76,1.16c3.26-1.66,6.73-.86,10.12-1.08.68,0,.88.29.62.89a7.71,7.71,0,0,1-.71,1.44,53.93,53.93,0,0,1-10.45,11.55c-3.18,2.54-3.85,2.29-4.68-1.63A84.08,84.08,0,0,1,459.5,115.68Z"/><path class="cls-8" d="M253.16,30.68c1.22-.42,1.72-.24,1.69,1.29-.11,5.86-.09,11.72,0,17.58,0,1.38-.43,1.72-1.74,1.68-3.06-.09-6.13,0-9.19,0-4.2,0-6.79,2.67-6.8,6.9,0,5.59,0,11.17,0,16.76,0,3.28,1.35,5.58,4.45,6.72.84.31.82.57.37,1.21-.68,1-1.29,2-1.89,3-.25.43-.93.88-.45,1.38s1-.15,1.5-.42c2.17-1.29,4.37-2.55,6.44-4s4.48-.66,6.73-.83c.48,0,.55.41.55.81v1.29q0,39.42,0,78.84c0,.53,0,1.07-.07,1.61-.84-.14-.55-.81-.58-1.28-.53-10.47-1.12-20.93-2.1-31.36a89.67,89.67,0,0,0-1.2-8.94,2.76,2.76,0,0,0-2.43-2.4,97.1,97.1,0,0,0-12.91-1.71,96.47,96.47,0,0,0-12.72-.44c-1,.07-1.17-.4-1-1.25a2.57,2.57,0,0,1,.58-1.31c3.46-3.92,4.77-8.68,5.33-13.73,0-.48.12-1,.17-1.44a24.2,24.2,0,0,1,1.88-8.54A15.37,15.37,0,0,0,231,83c-.1-.59-.16-1.3-.61-1.62-1.2-.86-.83-1.88-.56-3,.52-2,.95-4.08,1.48-6.1a8.16,8.16,0,0,0-.39-5.36,24.31,24.31,0,0,0-6.41-9.15A14.48,14.48,0,0,0,215.59,54c-8.93-.5-17.17,1.32-23.75,7.76-4.73,4.62-6.68,10.27-5,16.92a19.07,19.07,0,0,1,.23,6.74c-.06.58-.09,1-.94.84-1.46-.31-2.32.62-2.9,1.79a10.54,10.54,0,0,0-.85,6.29,19.89,19.89,0,0,0,2.65,7.38c1.75,2.91,2.64,3.23,5.75,2a2.39,2.39,0,0,1,.46,1.35,18.34,18.34,0,0,0,3.78,8.44,3.2,3.2,0,0,1,.76,2.2c0,2.53,0,5.06,0,7.58a1.84,1.84,0,0,1-1.2,2c-6.61,3.34-13.08,6.93-19.48,10.65-4,2.32-7.94,4.71-11.77,7.3a7.21,7.21,0,0,0-3.23,5.1c-1.44,8.43-2.23,16.94-3.05,25.44-.62,6.52-1.16,13.06-1.7,19.59-.06.72-.32,1.17-1,1.16-.89,0-.54-.78-.55-1.23q0-13.53,0-27.08,0-51.91,0-103.82a2.1,2.1,0,0,1,1.8-2.45q40-11.89,79.9-23.89C241.36,34.29,247.26,32.47,253.16,30.68Z"/><path class="cls-24" d="M226.7,76.74a17.06,17.06,0,0,0,.5,7.2c1.33,4.57.12,9,0,13.5a39.59,39.59,0,0,1-1.49,10.18A18.67,18.67,0,0,1,212.16,121c-3.17.9-6.22,0-9-1.61-6-3.41-10.05-8.3-11.27-15.28-.12-.72.4-1.74-.26-2.07s-1.19.7-1.85,1c-1.14.56-2.16.68-3-.46-2.7-3.69-4.18-7.72-3.39-12.37a6.47,6.47,0,0,1,.48-1.53c.79-1.78,1.86-2.07,3.41-.91a14.27,14.27,0,0,1,3.17,3.62c.22.34.41.94.91.69s.08-.73-.09-1.09a3.89,3.89,0,0,1,.26-4.1,26.11,26.11,0,0,1,3.6-3.9c2-2,3-4.16,1.73-7a2.19,2.19,0,0,1,.79-2.87c2.25-1.55,4.57-2.88,7.46-1.57,4.29,1.94,8.46,1.47,12.54-.72,1.41-.76,2.86-1.48,4.35-2.1,2.15-.89,3.48-.23,4.23,2a9.09,9.09,0,0,1,.37,1.56A21.48,21.48,0,0,1,226.7,76.74Z"/><path class="cls-8" d="M228.1,158.56c0,3.09,0,7.65,0,12.22a1.67,1.67,0,0,1-1.42,1.91q-13.2,3.93-26.37,7.92c-1,.31-1.38.15-1.5-1-.92-8.37-1.92-16.73-2.88-25.09-.68-6-1.31-12.06-2-18.08-.29-2.61-.66-5.21-1-7.81a3,3,0,0,1,2.45-2.74c.49,0,.42.4.44.7.47,6,4.77,8.38,9.66,9.81s8.71-.63,11.71-4.47a20,20,0,0,0,4-10.37c0-.32,0-.64.11-1,.12-.54,0-1.23.87-1.32s1.26.44,1.44,1.17c.54,2.07,1.12,4.13,1.56,6.22C227.34,136.7,227.53,146.91,228.1,158.56Z"/><path class="cls-8" d="M284.44,81q-17.49,0-35,0a3.29,3.29,0,0,0-1.78.64,57.25,57.25,0,0,1-5.92,3.32c.53-.85,1-1.7,1.58-2.54s.71-1.25-.57-1.48a5.36,5.36,0,0,1-4.7-5.64c0-5.75,0-11.5,0-17.25,0-3.54,2.23-5.75,5.74-5.76h39.5c3.55,0,5.7,2.16,5.72,5.74,0,5.59,0,11.18,0,16.77A7.18,7.18,0,0,1,287.88,79,8.57,8.57,0,0,1,284.44,81Z"/><path class="cls-8" d="M176.8,155.6a201.64,201.64,0,0,1-2,26.77,36.06,36.06,0,0,0-.51,4.62,1.72,1.72,0,0,1-1.46,1.91c-5,1.47-10.08,3-15.1,4.54-1,.31-1.53.4-1.4-1,1.12-12.73,2.14-25.47,3.81-38.14.3-2.23.78-4.44,1.12-6.67a4.56,4.56,0,0,1,2-3.14c2.92-2.11,6-3.93,9.08-5.82.78-.48,1.07-.15,1.51.47a17.87,17.87,0,0,1,2.92,9.73C176.89,151.09,176.8,153.34,176.8,155.6Z"/><path class="cls-8" d="M252.51,23.23c2.3-.43,2.31-.43,2.29,2,0,1.38-.05,2.77-.08,4.15q-19,5.67-37.93,11.34Q186,49.92,155.13,59.18c-1.17.35-1.42,0-1.37-1.07a24,24,0,0,0,0-3.7c-.11-1.21.4-1.68,1.49-2q17.06-5,34.09-10.16l62.13-18.61C251.82,23.52,252.16,23.37,252.51,23.23Z"/><path class="cls-8" d="M252.85,155.68c.13,2.57.25,5.15.42,7.72.07.88-.1,1.38-1.08,1.6a37.79,37.79,0,0,0-3.85,1.16c-.87.3-1.14,0-1.11-.86a176,176,0,0,0-.93-18.65A76.26,76.26,0,0,0,243,129.83c-.88-2.81-1.59-5.67-2.44-8.49-.25-.82-.11-1.09.75-1,2.33.36,4.67.69,7,1.06a2,2,0,0,1,1.7,1.84,112.13,112.13,0,0,1,1.53,12.79c.53,6.53.92,13.07,1.37,19.6Z"/><path class="cls-24" d="M220.78,117.83c-.42,4.84-1.15,9.5-4.23,13.48-3.81,4.95-9.4,6-14.66,2.64a18.28,18.28,0,0,1-4-3.66,5.83,5.83,0,0,1-1.07-3.95c0-.69.42-.9,1-1A74.26,74.26,0,0,0,207,122.4a2.9,2.9,0,0,1,1.26-.2c4.55.5,8.24-1.46,11.7-4.07C220.13,118,220.27,117.7,220.78,117.83Z"/><path class="cls-8" d="M176.29,178.27a19.49,19.49,0,0,0,.39-3.77c-.25-2.79,1.13-3.82,3.67-4.51,4.91-1.34,9.72-3.05,14.55-4.68,1-.34,1.43-.28,1.5.9.11,1.6.32,3.2.59,4.79.18,1.09-.08,1.59-1.22,1.95-6,1.88-12.05,3.87-18.06,5.84C176.79,179.09,176.06,179.27,176.29,178.27Z"/><path class="cls-8" d="M229,158.17c-.18-3.78-.18-3.8,3.39-5,4-1.31,7.95-2.54,11.91-3.88.9-.31,1.27-.25,1.31.77q.12,2.73.36,5.46c.08.87-.28,1.22-1.07,1.47q-7.28,2.31-14.52,4.72c-1,.33-1.51.23-1.4-1C229.07,159.89,229,159,229,158.17Z"/><path class="cls-8" d="M193.85,144.34c.12.72-.12,1-.68,1.2q-7.2,2.31-14.38,4.67c-.82.26-1,0-1.08-.78-.09-1.45-.22-2.89-.45-4.32-.13-.83,0-1.24.88-1.52,4.65-1.46,9.29-3,13.92-4.51.81-.27,1.19-.13,1.28.77C193.48,141.4,193.69,142.94,193.85,144.34Z"/><path class="cls-8" d="M226.66,128.65c-.18-.73.36-.9.88-1.06,3.92-1.27,7.85-2.5,11.75-3.81.77-.26,1,0,1.12.62.42,1.49.8,3,1.3,4.47.25.74-.1,1-.66,1.16l-12.68,4.1c-.55.18-.91.15-1-.55C227.15,131.94,226.9,130.3,226.66,128.65Z"/><path class="cls-8" d="M177.71,161.09c.17-3.63-.32-2.85,2.67-3.84,4.38-1.45,8.78-2.82,13.15-4.31,1.11-.38,1.32-.13,1.44.95.42,3.75.46,3.73-3.08,4.86-4.14,1.32-8.27,2.67-12.4,4-1.84.59-1.84.59-1.78-1.27Z"/><path class="cls-8" d="M228.32,143.78c-.57-1.63.39-2.3,2.12-2.8,4.12-1.18,8.19-2.56,12.24-3.94.95-.33,1.22-.09,1.42.79.84,3.76.86,3.75-2.79,4.94l-11,3.57c-1.79.58-1.79.57-1.9-1.32C228.37,144.7,228.35,144.38,228.32,143.78Z"/><path class="cls-18" d="M246.32,165.66c.13.83-.06,1.28-1,1.54-5.09,1.47-10.15,3-15.23,4.54-.45.14-1,.43-1.07-.38s-.25-1.63.85-2c2.15-.65,4.29-1.35,6.42-2,2.8-.91,5.61-1.8,8.39-2.75C245.85,164.21,246.63,164.11,246.32,165.66Z"/><path class="cls-18" d="M176.86,136q7.11-3.9,14.21-7.8c.61-.34.82-.16,1,.47.61,2.22.35,2.75-1.83,3.46q-6.19,2-12.38,4c-.3.1-.61.13-.91.2Z"/><path class="cls-20" d="M198.05,180.4c0,1-.57,1.07-1.09,1.23-6.83,2-13.65,4.08-20.49,6.09-.38.11-1,.69-1.24,0s.51-.79,1-1l16.06-5.2c1.58-.51,3.17-1,4.73-1.55C197.73,179.8,198.06,179.92,198.05,180.4Z"/><path class="cls-25" d="M228.88,92.11c0-3.56,0-6.68,0-9.81,0-.25.07-.56.41-.59s.44.24.55.48a8.64,8.64,0,0,1,.4,3.64A19.57,19.57,0,0,1,228.88,92.11Z"/><path class="cls-22" d="M228.29,119.86c-.9.3-1.81.55-2.68.9s-1.05-.3-1.16-.84c-.16-.79.48-.65.94-.65h2.81Z"/><path class="cls-3" d="M496.92,21.56a3.28,3.28,0,0,1,3.26,3.27,3.33,3.33,0,1,1-6.66-.15A3.29,3.29,0,0,1,496.92,21.56Z"/><path class="cls-3" d="M513.8,21.56a3.29,3.29,0,0,1-.06,6.57,3.29,3.29,0,1,1,.06-6.57Z"/><path class="cls-3" d="M483.17,24.84A3.17,3.17,0,0,1,480,28.13a3.29,3.29,0,1,1,0-6.57A3.17,3.17,0,0,1,483.17,24.84Z"/><path class="cls-2" d="M46.47,161.82c-.91.1-1.81-.45-2.72,0a.9.9,0,0,1-.89.29c-3.67-.29-7.35-.08-11-.13s-5.79-1.83-6.42-5.43a1.12,1.12,0,0,1,.24-.84c0-1,.07-2,.07-3.06,0-4.59,0-9.18,0-13.76a5.46,5.46,0,0,1,5.45-5.51q19.22,0,38.45,0a5.49,5.49,0,0,1,5.47,5.48q0,8.66,0,17.32a5.43,5.43,0,0,1-4.39,5.33,4.49,4.49,0,0,0-2.16,1.06c-1.48,1.22-3,2.4-4.48,3.63-.67.55-.8.27-.76-.41-.28-.8.16-1.52.29-2.27.24-1.37.16-1.52-1.21-1.52q-6.07,0-12.14,0C49,162,47.73,161.88,46.47,161.82Z"/><path class="cls-3" d="M46.47,161.57a10,10,0,0,0-2.78,0,4.9,4.9,0,0,1-1.3.25c-.8,0-1.61-.09-2.4-.11-2.72-.06-5.44.08-8.16,0a6.07,6.07,0,0,1-5-2.18,5.51,5.51,0,0,1-1.13-2.72c0-.5.17-1.05.19-1.56s0-1.31.05-2c.05-2.67,0-5.35,0-8v-3.93a13.93,13.93,0,0,1,.26-4,5.27,5.27,0,0,1,5-3.69c2.81-.12,5.66,0,8.49,0h25c2.43,0,5.57-.55,7.73.79,2.38,1.47,2.49,3.9,2.5,6.43,0,2.72,0,5.44,0,8.16,0,1.32,0,2.64,0,4a20.47,20.47,0,0,1-.14,4.36,5.24,5.24,0,0,1-1.62,2.75A8.34,8.34,0,0,1,70,161.44c-1.06.37-5.85,4.88-6.39,4.33-.38-.39.18-1.71.28-2.2a3.24,3.24,0,0,0,.11-1,.8.8,0,0,0-.52-.76c-.79-.37-2.14-.11-3-.11H55.6c-3.05,0-6.08,0-9.13-.14-.32,0-.32.49,0,.5,3.05.15,6.08.14,9.13.14h4.61c.73,0,1.46,0,2.19,0s1.14.35,1,1.2c-.11.57-1,3.76.52,3.18a5.09,5.09,0,0,0,1.11-.86l1.69-1.36c1.2-1,2.38-2.23,3.92-2.62a5.88,5.88,0,0,0,4.26-3.31,6.82,6.82,0,0,0,.49-2.79c0-1.57,0-3.14,0-4.71q0-4.82,0-9.65c0-2.16.16-4.24-1.26-6a6.07,6.07,0,0,0-5-2.17c-3.16,0-6.33,0-9.49,0h-19c-3.15,0-6.33-.08-9.48,0a5.77,5.77,0,0,0-4.53,2.26c-1.33,1.77-1.18,3.85-1.19,6,0,3.11,0,6.22,0,9.33a24.67,24.67,0,0,1-.2,5.16,4.25,4.25,0,0,0,.38,2.52,5.76,5.76,0,0,0,3.59,3.48c2.58.86,5.68.37,8.35.36,1.74,0,3.54.24,5.27.16a2.76,2.76,0,0,0,.81-.15,2.85,2.85,0,0,1,1.76-.2,6,6,0,0,0,1,.08A.25.25,0,0,0,46.47,161.57Z"/><path class="cls-3" d="M50.49,145.06A2.49,2.49,0,0,1,53,147.55a2.54,2.54,0,1,1-5.08-.11A2.51,2.51,0,0,1,50.49,145.06Z"/><path class="cls-3" d="M63.36,145.06a2.51,2.51,0,0,1,0,5,2.51,2.51,0,1,1,0-5Z"/><path class="cls-3" d="M40,147.56a2.43,2.43,0,0,1-2.43,2.51,2.51,2.51,0,1,1,0-5A2.43,2.43,0,0,1,40,147.56Z"/><path class="cls-2" d="M28.51,201.25c.91.09,1.81-.46,2.72,0a.94.94,0,0,0,.89.3c3.67-.29,7.35-.09,11-.13s5.79-1.83,6.42-5.43a1.1,1.1,0,0,0-.24-.84c0-1-.07-2.05-.07-3.07,0-4.58,0-9.17,0-13.76a5.44,5.44,0,0,0-5.44-5.5q-19.23,0-38.46,0a5.48,5.48,0,0,0-5.47,5.48q0,8.65,0,17.32a5.43,5.43,0,0,0,4.39,5.33A4.56,4.56,0,0,1,6.42,202c1.48,1.23,3,2.41,4.48,3.63.67.55.8.28.76-.41.28-.8-.16-1.51-.29-2.26-.24-1.37-.16-1.52,1.21-1.53,4,0,8.09,0,12.14,0C26,201.41,27.25,201.3,28.51,201.25Z"/><path class="cls-3" d="M28.51,201.5c.62,0,1.34-.25,1.94-.19s.85.39,1.31.45a28.05,28.05,0,0,0,4.19-.15c2.8,0,5.76.34,8.54-.08a5.94,5.94,0,0,0,4-2.27,7,7,0,0,0,1-2.09,5.41,5.41,0,0,0,0-2.71c-.29-3-.05-6.06-.05-9,0-1.56,0-3.11,0-4.67a18.22,18.22,0,0,0-.16-3.69,5.71,5.71,0,0,0-3.23-4c-2.18-1-5-.5-7.32-.5H10.34c-2.34,0-5.21-.48-7.41.54a5.78,5.78,0,0,0-3.2,4.11,19.25,19.25,0,0,0-.12,3.56v4.95c0,3.13,0,6.27,0,9.4a6,6,0,0,0,2.29,5.06,10,10,0,0,0,3,1.19c1.54.57,2.89,2.06,4.15,3.08.45.35,1.74,1.84,2.43,1.71s.56-1.25.52-1.71a11.83,11.83,0,0,0-.38-1.56c-.2-1,.29-1.2,1.22-1.21h5.09c3.54,0,7.06,0,10.59-.14.32,0,.32-.52,0-.5-5.41.26-10.84-.13-16.24.16-1,.05-1.33.39-1.21,1.38.06.48.22.91.32,1.38.3,1.43-.06,1.5-1.05.9a32.48,32.48,0,0,1-3.18-2.57,7.64,7.64,0,0,0-2-1.32c-1.12-.45-2.22-.54-3.18-1.34-2.15-1.8-1.88-4.44-1.89-7,0-2.81,0-5.61,0-8.42v-4a9.79,9.79,0,0,1,.48-4.13c1-2.26,3.16-3.07,5.5-3.07l8.24,0H39.8c2.34,0,5.12-.46,7.11,1.05s2.08,4,2.1,6.43c0,2.7,0,5.4,0,8.1,0,1.51,0,3,0,4.54,0,1.11.37,2.71.08,3.74a5.52,5.52,0,0,1-4.38,4.1c-2.81.54-5.93.09-8.78.12-1.43,0-3.2.4-4.54-.06-1-.36-1.81,0-2.9-.05C28.19,201,28.19,201.49,28.51,201.5Z"/><path class="cls-3" d="M24.5,184.48a2.51,2.51,0,1,0,2.59,2.38A2.51,2.51,0,0,0,24.5,184.48Z"/><path class="cls-3" d="M11.63,184.48a2.51,2.51,0,0,0,0,5,2.51,2.51,0,1,0,0-5Z"/><path class="cls-3" d="M35,187a2.42,2.42,0,0,0,2.43,2.51A2.51,2.51,0,1,0,35,187Z"/><path class="cls-8" d="M110.88,13.91c-.24-.21-.45-.37-.63-.56-1.79-1.77-3.56-3.58-5.37-5.33-.49-.47-.56-.74,0-1.25,1.82-1.75,3.6-3.54,5.36-5.35.45-.45.73-.61,1.26,0C113.22,3.19,115,5,116.82,6.72c.49.47.56.78,0,1.29-1.82,1.75-3.58,3.55-5.37,5.33C111.31,13.53,111.11,13.69,110.88,13.91Z"/><path class="cls-8" d="M586.74,340.32c.26.24.48.44.69.65,1.43,1.42,2.83,2.87,4.3,4.26.57.53.63.86,0,1.42-1.51,1.42-3,2.89-4.4,4.38-.48.5-.77.58-1.3,0-1.46-1.54-3-3-4.48-4.5-.31-.31-.72-.53-.16-1.06,1.64-1.57,3.22-3.19,4.83-4.79A6.09,6.09,0,0,1,586.74,340.32Z"/><path class="cls-8" d="M619.27,357.92a7.35,7.35,0,0,1-.46.58c-1.53,1.54-3.09,3.05-4.59,4.61-.48.49-.77.42-1.21,0q-2.26-2.34-4.6-4.59c-.45-.44-.39-.68,0-1.08,1.56-1.51,3.1-3,4.6-4.6.46-.48.74-.46,1.2,0,1.46,1.52,3,3,4.47,4.5Z"/><path class="cls-8" d="M97.22,13.94a2,2,0,0,1,1.34.83c2.46,2.41,2.42,2.38.07,4.8-.74.77-1.15.92-2,.05-2.39-2.48-2.42-2.43.07-4.9A3.46,3.46,0,0,0,97.22,13.94Z"/><path class="cls-14" d="M308.54,349.41,302.31,347C305.26,344.75,307.87,345.77,308.54,349.41Z"/><path class="cls-26" d="M448.18,284.53c2.24,1.69,2.24,1.69,1,4.3a18.17,18.17,0,0,1-7,.15c-.28-1.25-.5-2.52-.85-3.76a1,1,0,0,1,.61-1.43c.78-.36,1.57-.69,2.33-1.1.53-.29.89-.08,1.3.23A7.87,7.87,0,0,0,448.18,284.53Z"/><path class="cls-6" d="M442.23,289a23.61,23.61,0,0,1,7-.15c-.15.89-.75,1.16-1.56,1.13a7.85,7.85,0,0,0-4.11.15C442.43,290.4,442.18,289.92,442.23,289Z"/><path class="cls-10" d="M454.46,269.21c0,1.13-.5,2.39.77,3.24a.36.36,0,0,1-.05.56c-.12.08-.38.16-.43.11-.53-.58-1.53-.42-1.89-.84-.8-.93-1.74-.63-2.65-.7a6.5,6.5,0,0,1-4-5.89A2.9,2.9,0,0,1,448,263a3,3,0,0,1,3.33.43A9,9,0,0,1,454.46,269.21Z"/><path class="cls-10" d="M455.07,250.91c-.5,1-.56,1.84.47,2.52.23.15.52.36.42.61a3,3,0,0,0,.26,2.42,1.19,1.19,0,0,1-.89,1.6c-3-.78-5.5-2.16-6.81-5.1a3.5,3.5,0,0,1,1.17-4.68c1.56-1,3.19-.53,4.6,1.26A2.49,2.49,0,0,1,455.07,250.91Z"/><path class="cls-10" d="M458.89,256.4c1.14-1.17,2.71-1.7,4-2.72a5.37,5.37,0,0,1,4.34-1.14,1.86,1.86,0,0,1,1.52,2.31,1.07,1.07,0,0,0,.05.91c.72,1.1-.22,1.71-.87,2a10.33,10.33,0,0,1-8.86.23c-1.34-.53.18-1.13-.16-1.65Z"/><path class="cls-10" d="M245.88,301.18c-.43,0-.86.1-1.29.1H205.44c-.22,0-.43,0-1-.07,3.19-3.84,6.34-7.42,9.59-10.92,1.22.64,1.53,2,2.26,3s1.21,2,1.83,3c.4.63.7.66,1.14,0,.58-.85.89-1.95,2-2.39,1,1.15,2.08,2.28,3.07,3.46.67.81,1.19.85,1.92,0,2.4-2.7,4.85-5.37,7.29-8.05.64-.13,1,.34,1.34.71,3.12,3.32,6.67,6.2,9.82,9.49C245.18,300,245.82,300.39,245.88,301.18Z"/><path class="cls-2" d="M245.88,301.18l-12.33-11.86c1.25-1.46,2.52-2.91,3.76-4.38.51-.61.87-.63,1.35.06q5.26,7.61,10.58,15.19c.64.91.24,1.07-.63,1S246.79,301.19,245.88,301.18Z"/><path class="cls-2" d="M221.27,293.87c-.6.95-1.24,1.88-1.78,2.86s-.91,1-1.5,0c-1.27-2.17-2.61-4.31-3.92-6.46,1.88-2.61,1.89-2.61,3.89-.29C219.08,291.29,220.17,292.58,221.27,293.87Z"/><path class="cls-10" d="M290.25,33a5.34,5.34,0,0,1,5.4,5.41,5.42,5.42,0,1,1-10.84,0A5.37,5.37,0,0,1,290.25,33Z"/><path class="cls-27" d="M346.66,210c-.1.14-.26.36-.43.56-4.29,5-8.73,9.92-14.15,13.8-.43.31-.89.59-1.33.89s-.72.47-1,.06.19-.67.49-.87c5.9-3.88,10.58-9.06,15.14-14.36a2.4,2.4,0,0,1,.7-.65C346.48,209.22,346.7,209.42,346.66,210Z"/><path class="cls-28" d="M339.88,222.27c-.14.15-.29.37-.48.55-4.81,4.61-9.61,9.21-15.27,12.8-.54.34-1.35,1.31-1.84.47-.4-.68.83-.89,1.36-1.24,5.4-3.49,10-7.89,14.66-12.28a5.08,5.08,0,0,1,1-.83C339.64,221.54,339.88,221.76,339.88,222.27Z"/><path class="cls-7" d="M353.47,201.19c-.18.26-.39.62-.64,1-.7.94-1.4,1.88-2.11,2.81-.2.26-.47.51-.8.27s-.22-.56,0-.84c.86-1.15,1.71-2.3,2.58-3.45a.65.65,0,0,1,.66-.34C353.4,200.65,353.47,200.83,353.47,201.19Z"/><path class="cls-29" d="M326.59,85.52a10.35,10.35,0,0,0-4.29-.63c-.31,0-.71,0-.71-.43s.35-.49.69-.5c2.71-.15,5.23.3,7.2,2.37.35.36,1,.87.51,1.31s-.81-.35-1.18-.63c-.13-.09-.27-.16-.5-.29-.08,1.16-.31,2.23-1.69,2.32A1.5,1.5,0,0,1,325,88C324.6,86.73,325.36,86.09,326.59,85.52Z"/><path class="cls-27" d="M347.33,85.06c-.15.39-.48.38-.8.39-.64,0-1.28,0-1.92.1s-1.49.19-.76,1.32c.47.73,0,1.47-.66,1.91a1.44,1.44,0,0,1-2-.27c-.45-.55-.73-1.08-1.39-.26a.38.38,0,0,1-.57,0c-.24-.25-.08-.49.05-.72.94-1.73,5.79-3.62,7.6-3C347.12,84.63,347.33,84.75,347.33,85.06Z"/><path class="cls-30" d="M334.85,104.63a14.64,14.64,0,0,1-7.19-2c-.34-.2-.93-.43-.64-.93s.74-.12,1.12.08c3.85,2,7.77,2.61,11.82.59.29-.14.65-.34.86,0s-.08.69-.42.87A11.19,11.19,0,0,1,334.85,104.63Z"/><path class="cls-15" d="M334.27,101.26a5.15,5.15,0,0,1-3.88-1.91c-.23-.24-.4-.54-.06-.82a.5.5,0,0,1,.71.13c2.58,2.73,4.95,1.53,7.29-.37.25-.2.53-.48.83-.2s.09.71-.18,1A8.23,8.23,0,0,1,334.27,101.26Z"/><path class="cls-29" d="M342.28,79.27A7.8,7.8,0,0,1,346.81,81c.28.22.71.47.44.9s-.65.15-.95-.07a6.7,6.7,0,0,0-7.11-.92c-.29.12-.66.22-.83-.16s.12-.59.43-.73A8.15,8.15,0,0,1,342.28,79.27Z"/><path class="cls-31" d="M326.5,79.1a6.78,6.78,0,0,1,2.72.46c.31.11.6.29.45.69a.51.51,0,0,1-.68.25,7.71,7.71,0,0,0-6.49.69.47.47,0,0,1-.69-.14c-.22-.37.05-.62.32-.78A7.58,7.58,0,0,1,326.5,79.1Z"/><path class="cls-8" d="M390.49,20.73a40.62,40.62,0,0,1,.17,5.94c0,.62-.28.87-.88.84-.43,0-.86,0-1.29,0q-53.62,0-107.24,0c-1.7,0-2.16-.48-2-2.07a23.37,23.37,0,0,0,0-3.55c0-.8.23-1.23,1.1-1.14.32,0,.64,0,1,0H388.41c.7,0,1.4,0,2.1-.06Z"/><path class="cls-10" d="M434.39,44.74c0,2.87-2,4.53-4.87,4a7.77,7.77,0,0,1-5.93-7.6A3.77,3.77,0,0,1,428,37.53,7.85,7.85,0,0,1,434.39,44.74Z"/><path class="cls-32" d="M463.81,92.05c-.1.75-.24,1.54-.32,2.34a1.54,1.54,0,0,1-1.26,1.6c-1,.23-1,1-.53,1.77a2.92,2.92,0,0,0,3.95,1,10.68,10.68,0,0,0,1.32-.91c.28-.21.59-.35.84,0s0,.48-.17.7a4.16,4.16,0,0,1-6.93-.57c-.41-.83-.6-1.91.27-2.32,1.73-.8,1.68-2.26,1.86-3.72.06-.4.05-1,.67-.87S463.8,91.65,463.81,92.05Z"/><path class="cls-6" d="M464.72,105.52a6.06,6.06,0,0,1-5.57-3.07c-.19-.34-.4-.72,0-1s.56.12.77.37c2.31,2.75,4.74,3.39,8.27,2.16.55-.2,1.08-.47,1.62-.72s.92-.78,1.24-.21-.43.87-.85,1.11A11.19,11.19,0,0,1,464.72,105.52Z"/><path class="cls-33" d="M469.94,85.87a11.51,11.51,0,0,1,5.35,1.57,6.13,6.13,0,0,1,1.95,2.1c.16.29.24.65-.05.87s-.59,0-.76-.32c-1.46-2.48-3.92-2.91-6.46-3.21-.49,0-1.31.23-1.3-.51S469.47,85.93,469.94,85.87Z"/><path class="cls-32" d="M458.29,90.2c.18-1.07,0-2.67,1.24-2.6s.83,1.65.79,2.61,0,2.22-1.09,2.19S458.46,91,458.29,90.2Z"/><path class="cls-6" d="M472,93.76c.18-.92,0-2.56,1.21-2.49s1,1.7.85,2.72c-.09.85-.08,2.22-1.15,2.14S472.11,94.74,472,93.76Z"/><path class="cls-31" d="M459.66,82.66a5.56,5.56,0,0,1,3.66,1.24c.3.24.64.54.38.94s-.65.15-.94-.09a4.71,4.71,0,0,0-5-.61c-.38.14-.85.49-1.08-.11s.36-.72.73-.84A7.07,7.07,0,0,1,459.66,82.66Z"/><path class="cls-10" d="M170.2,65.65c-.11,3.47-3.4,6.92-6.73,7a3.72,3.72,0,0,1-4.14-3.86,7.78,7.78,0,0,1,6.41-7.36A3.79,3.79,0,0,1,170.2,65.65Z"/><path class="cls-28" d="M218.24,93.69a6.26,6.26,0,0,1-5.19,6.19,6.46,6.46,0,0,1-7.2-3.28c-.13-.3-.32-.65,0-.87s.66.15.85.44c1.41,2.18,3.3,3.28,6,2.82a5.28,5.28,0,0,0,4.51-6.28c-.08-.43-.49-1,.19-1.19s.64.59.74,1A8.27,8.27,0,0,1,218.24,93.69Z"/><path class="cls-34" d="M208.76,106.14a9.62,9.62,0,0,1-5.36-1.4c-.26-.17-.61-.37-.43-.75s.54-.29.83-.13c4.64,2.57,8.91,1,13.1-1.18.9-.47,1.72-1.08,2.59-1.62.3-.19.65-.58,1-.17s-.15.78-.46,1C216.6,104.2,213,106.07,208.76,106.14Z"/><path class="cls-28" d="M221.93,86.38a7.14,7.14,0,0,1-.78,3.57c-.26.46-.57,1-1.21.87a1.16,1.16,0,0,1-.83-1.08,7.16,7.16,0,0,1,.6-4.71c.25-.46.55-1,1.17-1s.84.76,1,1.34C221.91,85.82,221.91,86.26,221.93,86.38Z"/><path class="cls-28" d="M201.85,91a6,6,0,0,1,1-3.51c.63-.92,1.38-.83,1.73.24a6.62,6.62,0,0,1-.5,5c-.23.48-.56,1-1.19.91s-.79-.68-.91-1.19A9.88,9.88,0,0,1,201.85,91Z"/><path class="cls-30" d="M220.89,77.85a6.65,6.65,0,0,1,3.66,1.22c.27.19.58.43.39.78a.58.58,0,0,1-.86.1c-2.33-1.56-4.56-1.23-6.74.3-.24.16-.52.25-.73,0s-.06-.61.19-.81A7.08,7.08,0,0,1,220.89,77.85Z"/><path class="cls-7" d="M204.43,81.36c.52.08,1.32-.2,1.34.52s-.81.46-1.27.51a10.27,10.27,0,0,0-5.26,1.69c-.34.26-.75.64-1.06.1s.23-.76.56-1A11.31,11.31,0,0,1,204.43,81.36Z"/><path class="cls-35" d="M277.1,64a2.67,2.67,0,1,1-2.61,2.71A2.69,2.69,0,0,1,277.1,64Z"/><path class="cls-3" d="M252.61,66.66A2.61,2.61,0,0,1,250,69.29,2.66,2.66,0,1,1,250,64,2.59,2.59,0,0,1,252.61,66.66Z"/><path class="cls-35" d="M263.52,64a2.66,2.66,0,0,1,.09,5.32,2.66,2.66,0,1,1-.09-5.32Z"/><path class="cls-3" d="M604,255c4.62,0,9.23-.05,13.84,0,1.48,0,2.26-.28,2-1.95s.81-4.12-.46-5.29-3.41-.31-5.17-.31c-8,0,.34,0-24.12,0-1.45,0-2.05.32-1.9,1.86a21.72,21.72,0,0,1,0,4c-.11,1.37.35,1.81,1.76,1.79C594.6,255,599.28,255,604,255Z"/><path class="cls-3" d="M604,235.6c4.62,0,9.23,0,13.84,0,1.48,0,2.26-.28,2-1.94s.81-4.13-.46-5.3-3.41-.31-5.17-.31c-8,0,.34-.05-24.12-.05-1.45,0-2.05.33-1.9,1.86a21.72,21.72,0,0,1,0,4c-.11,1.37.35,1.82,1.76,1.79C594.6,235.55,599.28,235.6,604,235.6Z"/><path class="cls-3" d="M612.37,264.85c2,0,4,0,5.92,0,1.05,0,1.59-.24,1.54-1.42-.08-1.58-.06-3.16,0-4.74,0-1-.29-1.41-1.34-1.4-4.15,0-8.29,0-12.43,0-1,0-1.27.39-1.25,1.3,0,1.64.05,3.29,0,4.93,0,1.08.5,1.34,1.45,1.33C608.29,264.82,610.33,264.85,612.37,264.85Z"/><path class="cls-3" d="M614.46,237.65c-5.23,0-5.17,0-5.24,5.24,0,1.73.35,2.5,2.27,2.35a57.43,57.43,0,0,1,6.69,0c1.32.05,1.73-.47,1.65-1.73a30,30,0,0,1,0-4.13c.12-1.46-.53-1.83-1.84-1.73S615.64,237.65,614.46,237.65Z"/></g></svg>