<svg xmlns="http://www.w3.org/2000/svg" viewBox="0 0 620 365"><defs><style>.cls-1{opacity:0.5;}.cls-2{fill:#f1f2f2;}.cls-3{fill:#414c53;}.cls-4{fill:#2e3a42;}.cls-5{fill:#eeaf08;}.cls-6{fill:#273139;}.cls-7{fill:#3b474e;}.cls-8{fill:#344048;}.cls-9{fill:#747a7f;}.cls-10{fill:#545e64;}.cls-11{fill:#757c81;}.cls-12{fill:#566066;}.cls-13{fill:#fefefe;}.cls-14{fill:#eeb00b;}.cls-15{fill:#010101;}.cls-16{fill:#2c3840;}.cls-17{fill:#29363e;}.cls-18{fill:#18242c;}.cls-19{fill:#ebecec;}.cls-20{fill:#c8cacc;}.cls-21{fill:#fbfbfc;}.cls-22{fill:#242f37;}.cls-23{fill:#f4f4f5;}.cls-24{fill:#d7d9da;}.cls-25{fill:#f0f1f1;}.cls-26{fill:#ecedee;}.cls-27{fill:#edeeef;}.cls-28{fill:#fafafa;}.cls-29{fill:#1b262e;}.cls-30{fill:#1f2a33;}.cls-31{fill:#29343c;}.cls-32{fill:#25323a;}.cls-33{fill:#eca506;}.cls-34{fill:#eca608;}.cls-35{fill:#475158;}.cls-36{fill:#39444c;}.cls-37{fill:#1d2831;}.cls-38{fill:#50bfa5;}.cls-39{fill:#f9f9f9;}.cls-40{fill:#fcfdfd;}.cls-41{fill:#72797e;}.cls-42{fill:#848a8e;}.cls-43{fill:#878d91;}.cls-44{fill:#6e757a;}.cls-45{fill:#b5b8bb;}.cls-46{fill:#b6b9bc;}.cls-47{fill:#868c90;}.cls-48{fill:#0c1821;}.cls-49{fill:#898e92;}.cls-50{fill:#3d4950;}.cls-51{fill:#303c44;}</style></defs><g id="Layer_4" data-name="Layer 4"><path class="cls-2" d="M143.92,289.5a43.44,43.44,0,0,0-4.24-5.9,26.6,26.6,0,0,0-15.94-8c-9.46-1.4-20.08.78-28.82-1-7.61-1.53-15.54,2-17.77,9.93-2,7,2.27,16.23,9.93,17.77,10.78,2.16,21.16.86,31.93,1.53.24.36.47.72.71,1.07,3.29,4.79,7.22,9.73,13.25,11,7.58,1.65,15.56-2.12,17.76-9.92C152.45,300,149.55,292.57,143.92,289.5Z"/><path class="cls-3" d="M619.46,53.35c-2.54,4.32-5.72,4.72-9.3,1.17-.57-.58-1.14-1.16-1.72-1.73s-1.07-.95-.73-1.73,1.08-.83,2-.6c-.93-2-1.75-3.77-2.66-5.55A1.35,1.35,0,0,1,607.5,43a1.16,1.16,0,0,1,1.89.43c1.07,3.17,3.55,2,5.46,1.6a1.68,1.68,0,0,1,2.1.89c.88,1.51,1.68,3.07,2.51,4.61Z"/><path class="cls-2" d="M325.05,107.14c.49.36.17,1,.54,1.61l2.25-3.91a74,74,0,0,1,12.43-16.45,52.72,52.72,0,0,1,9-7.27,2.11,2.11,0,0,1,.57,1.7c.05.79,0,1.58,0,2.37V216c0,3.17,0,3.18,3.11,3.18q64.71,0,129.41,0c1.17,0,2.38-.23,3.48.41a3.34,3.34,0,0,1,.47,2.42q0,12.84,0,25.68c0,2.68-.24,2.92-3.05,2.92q-25,0-50,0c-1.07,0-2.21-.15-2.63,1.23-3.27,10.93-6.6,21.85-9.88,32.79q-5.08,17-10.27,33.9c-.22.71-.21,1.85-1.18,1.83s-.79-1.2-1-1.9a67.61,67.61,0,0,0-4.56-14.25c-1.84-3.79-5.2-4.68-8.83-5.27-5.24-.84-10.53-.71-15.82-.7-2.8,0-3.25-.48-2.84-3.32a21.48,21.48,0,0,0-1-10,9.38,9.38,0,0,0-5.47-5.83,22.63,22.63,0,0,0-8.68-1.83c-1.63,0-3.22-.48-4.87-.2-.85.14-1.44-.59-1.88-1.25-2.66-4-5.26-8.12-7.86-12.2-.8-1.25-.84-2.79-1.07-4.23-.35-2.22-.75-4.43-.95-6.67a5.44,5.44,0,0,0-4.33-5.17,2.7,2.7,0,0,1-2.32-2.79,29.11,29.11,0,0,1-.19-3.36,6.63,6.63,0,0,0-1.85-4.91c-1-1.13-2-2.32-3-3.45-2.28-2.56-3.28-5.73-4.25-8.92-3.66-12-6.76-24.26-10.09-36.41a10.59,10.59,0,0,0-3.79-5.61,32.61,32.61,0,0,0-7.59-4.37c-3.27-1.4-6.3-3.24-9.41-4.93a1.59,1.59,0,0,1-.92-.93,45.11,45.11,0,0,0,7.73-11.73c2.72-5.92,5-12,7.15-18.16.68-2,1.38-3.92,2.1-5.86A21.8,21.8,0,0,0,319,126c0-.22,0,0,.06-.16,1-2.49.88-2.89-1.64-4.08l-.16-.07c-3.36-1-2.53-1.49-2-4.7.14-.81.86-1.13,1.55-1.4a22.16,22.16,0,0,0,4.54-2.21,6.54,6.54,0,0,0,3.27-5.2A1.18,1.18,0,0,1,325.05,107.14Z"/><path class="cls-2" d="M531.19,122a72.73,72.73,0,0,1,6.45,10,121.91,121.91,0,0,1,9.91,22.46,86.49,86.49,0,0,1,3.16,14.92c.85,5.91,1.79,11.82,2.31,17.77.39,4.45.89,8.9,1.15,13.37.34,5.76.77,11.51,1,17.28.22,5,.49,10,.65,14.95.44,13.1.42,26.21.24,39.32-.07,5.27-.06,10.56-.31,15.83-.26,5.55-.43,11.1-.66,16.64-.27,6.43-.75,12.86-1.2,19.28-.09,1.29.78.87,1.32.87,4.39,0,8.78,0,13.17,0,.4,0,.79,0,1.19,0,.57,0,.77.36.76.89a.74.74,0,0,1-.83.83l-1.18,0h-238c-.56,0-1.12-.05-1.69-.07.21-.69.79-.7,1.35-.76q77.53,0,155.08,0,41.28,0,82.56,0H511.54a5.09,5.09,0,0,1-1.51-.12c-1-.37-.74-1.1-.45-1.8.53-1.3,1-2.61,1.59-3.91.73-1.72,1.28-2.07,3.12-1.76a7.42,7.42,0,0,0,4.15-.26,5.46,5.46,0,0,0,1.2-.62c1.21-.92,1.63-2.06,1.11-3s-1.7-1.29-3.14-.78a8.59,8.59,0,0,0-3,2.08c-.35.33-.79.83-1.31.49s-.24-.92-.1-1.41a50,50,0,0,0,1.67-6.36,1.23,1.23,0,0,1,1.68-1.14c.88.19,1.75.43,2.63.62a5.22,5.22,0,0,0,4.19-.81,2.06,2.06,0,0,0-1.23-3.87,6.86,6.86,0,0,0-3.73,1.42,9.47,9.47,0,0,0-1,.88c-.5.43-1,1.23-1.67.9s-.33-1.21-.24-1.85c.35-2.39.55-4.79.81-7.18.13-1.17.65-1.47,1.68-1.22a16.8,16.8,0,0,0,3.29.72,5.2,5.2,0,0,0,3.4-.76c1-.65,1.59-1.54,1.09-2.72a2.14,2.14,0,0,0-2.68-1.21,8.9,8.9,0,0,0-4.63,2.61c-.38.4-.74,1.07-1.35.81s-.55-1-.43-1.65c.42-2.14.71-4.32,1.27-6.43.41-1.57.71-1.75,2.27-1.34a12.27,12.27,0,0,0,4,.56,4.72,4.72,0,0,0,2.24-.67,2.32,2.32,0,0,0,1.05-2.91,2.14,2.14,0,0,0-2.58-1.09,8.24,8.24,0,0,0-4.25,2.28c-.33.31-.61.67-1,1s-.55.47-.89.21-.08-.5,0-.75a8.25,8.25,0,0,1,.91-2.1,8.07,8.07,0,0,0-.9,1.94c-.11.27-.27.54-.59.54-.47,0-.45-.44-.45-.75a9.69,9.69,0,0,0-.81-3.6,6.4,6.4,0,0,0-1.72-2.27,1.91,1.91,0,0,0-2.47-.33,2,2,0,0,0-.88,2.51,5.88,5.88,0,0,0,3.49,3.67c2.95,1.32,3,1.34,2.22,4.49a33.39,33.39,0,0,0-.73,4c-.05.42-.05,1-.62,1.08s-.66-.5-.82-.89a9.56,9.56,0,0,0-1.78-3.23c-.79-.82-1.67-1.4-2.84-.76a2.34,2.34,0,0,0-.73,3.14,6.54,6.54,0,0,0,4,3.43c2.4.88,2.29.9,2,3.42-.2,1.73-.37,3.46-.57,5.19-.06.56,0,1.44-.77,1.49-.59,0-.77-.74-1-1.26a8.45,8.45,0,0,0-1.61-2.94,2.23,2.23,0,0,0-2.87-.7c-1.08.58-1.11,1.66-.87,2.68a4.91,4.91,0,0,0,3.22,3.44c2.94,1.17,3.58.95,2.18,5.15-.46,1.39-.89,2.79-1.41,4.16-.18.47-.42,1.09-1,1s-.48-.8-.41-1.28c.33-2.33-.83-4.27-1.68-6.26a1.83,1.83,0,0,0-3-.51,5.91,5.91,0,0,0-2.05,3.95,8.52,8.52,0,0,1-.17,1.51c-.08.26-.19.56-.52.58a.74.74,0,0,1-.65-.47,6.85,6.85,0,0,1-.51-1.78,36.77,36.77,0,0,0-1.92-5.58c-.52-1.19-.26-1.92,1-2.29a14.43,14.43,0,0,0,3-1.2,4.88,4.88,0,0,0,2.36-3,2,2,0,0,0-.81-2.38,1.87,1.87,0,0,0-2.35.14,7,7,0,0,0-2.81,4.64c-.1.68.15,1.71-.8,1.82s-1-.93-1.3-1.55c-1.07-2-2.12-4-3.11-6-.68-1.84-.63-1.95,1.13-2.54a9.41,9.41,0,0,0,3.88-2,4.1,4.1,0,0,0,1.24-2.17,2.22,2.22,0,0,0-.81-2.41,2.09,2.09,0,0,0-2.5.22c-.52.33-1,1.5-1.84.42a11,11,0,0,1,.93-3.92c3.26-10.7,6.41-21.43,9.68-32.13.65-2.13.55-2.29-1.71-2.3H489c-2.22,0-2.56-.34-2.57-2.54q0-13.25,0-26.5a2.42,2.42,0,0,1,.57-2,5.87,5.87,0,0,1,2.81-.34h26.78c2.5,0,2.52-.07,2.58-2.53,0-1.27-.3-2.6.46-3.78a3.33,3.33,0,0,1,2.12-.38c2.42,0,4.84,0,7.26,0,1.24,0,1.76-.51,1.7-1.72,0-.62,0-1.24,0-1.86q0-42,0-84C530.68,123.93,530.35,122.86,531.19,122Z"/><path class="cls-4" d="M329.73,326.13l-1.1.29c-4.76.39-9.48,1.12-14.25,1.46-9.77.68-19.56,1.06-29.35,1.4-12,.42-24,.45-35.95,1.3a346.17,346.17,0,0,1-39.32.16,113.32,113.32,0,0,1-14.1-1.39,10.9,10.9,0,0,1-6.52-3.19,1.8,1.8,0,0,1-.52-1.18c0-.11,0-.22,0-.33-.09-.82,1.14-1.51.43-2.26-.51-.54-1.48-.42-2.24-.59-3.78-.85-7.57-1.66-11.28-2.79-.5-.15-1.48-.08-1.14-1.16a3.5,3.5,0,0,1,2.43,0,6.47,6.47,0,0,0,2.8-.14,10.65,10.65,0,0,1,3.69.18c7.34.72,14.71.71,22.08.71a117.72,117.72,0,0,0,31.2-4.06c9.88-2.71,19.85-5.07,29.93-6.89,2.31-.42,2.39-.58,1.9-2.91-.06-.27-.14-.54-.18-.82-.46-2.6-1.7-4.19-4.6-4.46a20.8,20.8,0,0,1-6.11-1.89,5.36,5.36,0,0,0-4.09-.09q-15.16,5.21-30.33,10.45c-2.62.91-2.88.8-3.79-1.79a94.92,94.92,0,0,0-6.57-15c-3.75-6.64-9.2-10.63-16.86-11.46a2.25,2.25,0,0,1-1.71-.57c-.83-.1,1.51-.38,0-.52-.46,0-.19-.44-.1-.77s.78.16.41-.42c1.59-.75,2.55-2.24,3.89-3.26,3.49-2.66,7.41-2.49,11,.24,3.33,2.5,5.85,5.75,8.45,8.93,3.77,4.62,7.22,9.5,10.6,14.42,1.57,2.27,1.63,2.23,3.85.64.48-.15.72.26,1.05.46.71.32,1.32-.11,1.93-.32,4.88-1.64,9.76-3.31,14.6-5.06a3.54,3.54,0,0,1,1.63-.34c.6.6,1.37,0,2,.29a3.55,3.55,0,0,0,1.62,1.16c4.54,2.07,9.23,3.75,14.23,4a24.3,24.3,0,0,0,15.06-4.68,104.46,104.46,0,0,0,10-8.34,22.56,22.56,0,0,1,11.92-5.88c2.32-.34,2.44-.7,2.11-3.06a85.45,85.45,0,0,0-3.1-12.62c-1.41-4.69-2.31-9.52-3.37-14.29a9.26,9.26,0,0,1-.17-2.52c.34-6.57.82-13.13,1.16-19.7.29-5.66.75-11.33,1-17a6.65,6.65,0,0,1,.34-1.82c.13-.42.25-.95.84-.87s.62.6.67,1a10.18,10.18,0,0,1,0,2.7c-1.08,7-.05,13.9.8,20.81.68,5.42,1.25,10.85,1.92,16.26a4.32,4.32,0,0,0,1.11,2.58,7.35,7.35,0,0,1,1.93,3.5,8.32,8.32,0,0,0,4,5.61c1,.58,1.89,1.23,2.81,1.88a3.54,3.54,0,0,1,1.46,1.8c1,3.26,3.31,5.57,5.78,7.74a6.85,6.85,0,0,1,2.15,2.33c-.34.55.73,1,.15,1.54a1.34,1.34,0,0,1-1.35-.49c-3.35-3.07-7-5.92-8.54-10.46a2.82,2.82,0,0,0-1.26-1.32c-1.06-.73-2.14-1.44-3.19-2.2a8.56,8.56,0,0,1-3.39-4.89,10.33,10.33,0,0,0-2.5-4.51c-1.29-1.39-2.56-2.8-3.74-4.31-.67.54-.34,1.05-.26,1.5a171.25,171.25,0,0,0,4.76,19.32,39.87,39.87,0,0,1,1.76,8.58c.11,1.25.51,1.8,1.88,1.64,5-.6,9.93-1.2,14.92-1.48.56,0,1.35,0,1.25-.95.37-.57,1-.53,1.54-.59,4,4,8.33,7.55,12.46,11.37,2.77,2.55,5.62,5,8.41,7.55,3.08,2.8,6.2,5.55,9.28,8.35a6.56,6.56,0,0,1,1,.95,56.31,56.31,0,0,0,6.44,7.36c.36.76,1.18.9,1.79,1.32.38.26,1.14.35.7,1.14-1.26.35-2.16-.46-3.07-1a2.27,2.27,0,0,0-2.65-.12A142.66,142.66,0,0,1,347.89,320a3.44,3.44,0,0,0-1.1.74c-.57.45-1.42.34-1.89,1-.71,2-.39,2.51,1.81,2.51q16.19,0,32.39,0h30.36c3.22,0,3.22,0,3.73-3.07.42-1,1.31-.87,2.13-.92,2-.11,4.08.23,6.11-.18,2-1.2,4.27-1.69,6.35-2.71,5.77-2.84,10.71-6.82,15.51-11,5.65-4.92,10.65-10.5,15.87-15.86,1.21-1.25,1.21-1.25-.33-2.05a6.74,6.74,0,0,1-3.77-6.77,7,7,0,0,1,5.6-5.82A7.12,7.12,0,0,1,468,279c1,1.66,1,1.63,2.49.24,6.76-6.35,13.9-12.16,22.62-15.67a40.53,40.53,0,0,1,9.39-2.71,2.34,2.34,0,0,0,2.14-1.82c.56-2,1.14-4,1.82-6,.35-1,.09-1.51-1-1.46-.39,0-.78,0-1.18,0H434.49c-.95,0-1.91,0-2.86.06-.71-.51-.83.76-1.46.49.06-1.56.85-2,2.39-2,17.21.06,34.42,0,51.62.07,1.41,0,1.77-.34,1.76-1.75-.09-9.62-.08-19.23-.11-28.85-.86-1.15-.47-2.49-.51-3.76-.08-2.26-.15-2.39-2.4-2.39H450.69q-44.38,0-88.77,0c-1.06,0-2.4.58-3.14-.84.88-.74,1.94-.48,2.93-.48q41.73,0,83.46,0,18.76,0,37.51,0c.62,0,1.24,0,1.86,0,1.34-.06,2,.46,1.84,1.9-.12,1.26,0,2.54,0,3.82,0-1.38.07-2.77,0-4.14-.05-1.11.46-1.54,1.48-1.57H527.7c.77,0,1.59.19,2.28-.37a2.89,2.89,0,0,0,.34-1.95v-128c0-2.28,0-2.27-2.23-2.18-.9,0-1.8,0-2.7,0q-56.76,0-113.51,0c-8.15,0-7.69.48-7.63-7.74a4.12,4.12,0,0,1,.41-2.62c1-.65,2.08-.4,3.12-.4H527a8.34,8.34,0,0,0,2.68-.17c.58-.34.59-.91.59-1.48,0-2.25,0-4.5,0-6.75,0-1.31-.53-1.88-1.82-1.79-.39,0-.79,0-1.18,0H362.21c-.87,0-1.81-.25-2.6.37-.57.88-.33,1.87-.33,2.8q0,73.82,0,147.61c0,1,.29,2.15-.42,3.11-.85,0-.78-.67-.87-1.17a14.29,14.29,0,0,1-.07-2.36q0-69.7,0-139.39c0-1.17-.22-2.38.49-3.46,0-2.36.08-4.72,0-7.09,0-1,.28-1.37,1.25-1.24a7.85,7.85,0,0,0,.84,0q84.36,0,168.71,0c1.53,0,1.94.35,1.94,1.91q-.09,30.15,0,60.29c0,.67,0,1.35.06,2s-.06,1.24-.06,1.86q0,43.57,0,87.15c0,1.49-.36,1.92-1.86,1.88-3.2-.1-6.41,0-9.62,0a4.11,4.11,0,0,1-2.76.51H490.11c-2.68,0-2.66,0-2.71,2.75,0,1.15.3,2.37-.52,3.41,0,9.84,0,19.68-.1,29.52,0,1.18.67,1,1.4,1h18.56c1.92,0,1.92,0,1.37,1.85q-5.42,18.06-10.85,36.12c-.11.38-.17.77-.25,1.15.07,2.06-.83,3.88-1.49,5.75a9.25,9.25,0,0,0-.44,1.76c-.5,1.66-1,3.32-1.48,5s-1,3.34-1.53,5c-1,3.5-2.06,7-3.12,10.5a9.12,9.12,0,0,0-.36,4,7.06,7.06,0,0,1-.32,4.3c-.51.51-1.15.38-1.76.38-23.88,0-47.75.15-71.63,0-23-.18-46.05,0-69.08-.13a7.56,7.56,0,0,1-2.51-.15c-.92-.6-.47-1.51-.47-2.3s-.13-1.21-1-.82c-2.52,1.07-5.21,1.69-7.69,2.86C332.65,325.72,331.17,325.82,329.73,326.13Z"/><path class="cls-2" d="M127.73,97.35c21.89-.52,41.75,18.45,40.88,42.52a41,41,0,1,1-81.87-4.05C87.78,115.44,105,97,127.73,97.35Z"/><path class="cls-4" d="M325.05,107.14c.34,3.08-1.22,5.13-3.64,6.7a18.4,18.4,0,0,1-4.56,2.13,1.65,1.65,0,0,0-1.3,1.51c-.43,2.71-.47,2.69,2,3.93a15.21,15.21,0,0,1,2.16,1.29,1.39,1.39,0,0,1,.38,2.19,4.84,4.84,0,0,0-1,2.43,18.82,18.82,0,0,1-4.94,8.85,3.71,3.71,0,0,1-3.4,1.81,2.14,2.14,0,0,0-2,1.22,66.5,66.5,0,0,1-14.44,16.57,12.81,12.81,0,0,1-7.35,3.09c-1.49.11-2.11.67-2.28,2.08a13.33,13.33,0,0,1-.47,2.31,1.22,1.22,0,0,1-.88.48c-3.05-.82-6.09-1.69-8.63-3.67A17.39,17.39,0,0,1,268,148.78a2.12,2.12,0,0,1,.9-1.5c.68-.07,1,.47,1.32.88,1.3,1.48,2.64,2.92,3.94,4.39,4.82,5.44,14.71,6.36,20.07,1.12,4.51-4.41,9-8.8,12.36-14.2,1.05-1.69,1-1.69-.76-2.46a6.73,6.73,0,0,1-3.8-3.15c-.06-.14-.15.42-.45.4-.73-.33-.16-1-.35-1.34,0-.34-.38,0-.17-.11s.11,0,.11.09c0,.47.25,1-.27,1.35-.92-.6-.62-1.48-.56-2.31.35-.88.11-1.86.45-2.74.88-1.79.35-3.76.66-5.62.09-.53-.51-.83-1-.92a1,1,0,0,0-1.18.72,35.07,35.07,0,0,1-1.89,4c-1.46,2.65-3.4,4.83-6.44,5.59-3.53.89-6.79-.2-9.9-1.78-3.44-1.74-4.86-4.66-4.76-8.44.05-1.46.05-2.92,0-4.38a1.88,1.88,0,0,0-1.81-2c-3.28-.44-6.47-.66-9.36,1.52-.9.68-1.35,1.23-.95,2.34a5.41,5.41,0,0,1,.42,2.14.79.79,0,0,1-.47.82c-.45.17-.75-.1-1-.43a4.94,4.94,0,0,1-.56-1.59,20.65,20.65,0,0,0-2.39-5.74c-1.83-2.84-3.81-3-6-.4a1.21,1.21,0,0,1-.54.38c-.43-.1-.48-.49-.62-.82a1.8,1.8,0,0,0-.18-1.89A32.21,32.21,0,0,1,249.86,91c.09-.47.39-1-.5-1.06-3.48-.16-5.54-2.13-6.64-5.79-.33,1.53-.65,2.54-.76,3.57-.13,1.35-.7,1.18-1.67.77-3.19-1.35-4.47-4-4.85-7.15a15.38,15.38,0,0,1,9.5-16.24,26.88,26.88,0,0,1,12.75-1.72c4.37.37,6.95,2.81,8.19,6.87.22.72.23,1.33,1.39.9,13.11-4.86,25.73-3.39,37.93,3.11a48.6,48.6,0,0,1,12.09,8.81,21.62,21.62,0,0,1,3.42,4.38c2.5,4.32,2,7.47-1.77,10.84C321.6,100.8,324.19,103.38,325.05,107.14Z"/><path class="cls-2" d="M176,250.73c3-1.48,3.43-4.42,3.68-7.24.54-6.32-.38-12.57-1.21-18.83q-1-7.38-1.55-14.84a56,56,0,0,1,1.48-17.8,41.31,41.31,0,0,1,8.84-17.21,64.66,64.66,0,0,1,29.14-19.53,31.81,31.81,0,0,1,24,1.43,73.71,73.71,0,0,1,7.79,4.3,2.77,2.77,0,0,0,1.54.57c-.08.86-.81,1-1.41,1.27q-17.26,7.49-34.93,13.94c-.32.11-.63.26-.95.36-3.52,1-4.76,3.46-4.92,7.06-.26,5.71-1.15,11.39-1.77,17.08-.42,3.85-.74,7.71-1.26,11.55-.92,6.79-.4,13.71-2,20.42-1,4.11-2.15,8.16-3.47,12.17-1,2.95-1,5.59,1.17,8a3,3,0,0,1,.66,2.2,19.6,19.6,0,0,0,.12,4.05,1.24,1.24,0,0,1-1,1.62c-4,.87-8,1.22-12,0a5.14,5.14,0,0,1-2.89-1.93,3.36,3.36,0,0,0-.91-1c-2.48-1.6-4.7-3.43-5.9-6.25C177.79,251.21,176.59,251.38,176,250.73Z"/><path class="cls-5" d="M358.4,66.15c0,1.69.1,3.38.1,5.06q0,69.74,0,139.48c0,.64-.27,1.34.26,1.93h0c.53.49,1.18.24,1.77.24q61.64,0,123.28,0c1.66,0,2.33.32,2.12,2.09-.18,1.56-.07,3.15-.1,4.72q-67.2,0-134.42,0c-1.7,0-2.1-.39-2.1-2.1q.07-67.21,0-134.43c0-.67,0-1.34-.06-2,0-4.49.07-9,0-13.49,0-1.19.32-1.53,1.5-1.49C353.34,66.22,355.87,66.16,358.4,66.15Z"/><path class="cls-6" d="M176,250.73a3,3,0,0,1,3.3,2.27,6.07,6.07,0,0,0,1.69,2.49c1.78,1.52,3.8,2.7,5.33,4.6.9,1.12,2.75,1.16,4.25,1.39a27.51,27.51,0,0,0,9.39-.61c.7-.13.8-.44.6-1.05a2.75,2.75,0,0,1-.19-1.16,8.89,8.89,0,0,0-1.92-7.14c-1-1.23-.72-2.86-.32-4.38,1.41-5.44,3.34-10.73,4.39-16.27.82-4.28.56-8.64,1-13,1.22-11.3,2.64-22.59,3.46-33.92.32-4.34,2.32-6.31,6-7.59,8.61-3,17-6.47,25.47-9.88a114.71,114.71,0,0,0,11.24-4.95,44.87,44.87,0,0,0,7.3-3.82,3,3,0,0,0,1.5-2.45c.67-7,1.43-14,2.15-20.95.15-1.37-.47-2.64-.52-4,0-.55-.4-.57-.83-.57a4.64,4.64,0,0,1-3.85-2.39,16.55,16.55,0,0,1-2.79-8,11.06,11.06,0,0,1,0-3.85c0-.36-.1-.74.22-1a.94.94,0,0,1,.52.82,24.39,24.39,0,0,0,1.65,8.52,9.53,9.53,0,0,0,1.94,3.33c.93,1,2,1.69,3.43,1a1.07,1.07,0,0,1,1.27,0c.43.39.21.79.06,1.23-.57,1.78.09,3.45.61,5.09a40.34,40.34,0,0,0,5.76,10.84c.41.58,1,1.09.8,1.94l-.69,1.38c-1.52-2.13-2.89-4.37-4.26-6.6a17.26,17.26,0,0,1-2.29-4.72c-.56,6.26-1.19,12.24-1.88,18.21a5,5,0,0,1-2.54,3.6,36.3,36.3,0,0,1-4.75,2.57,1.72,1.72,0,0,0-1,2.31,19.6,19.6,0,0,0,17,15.44c3.49.45,6.62-1,9.51-2.83,3.46-2.25,6-5.37,8.44-8.65.64-.88.58-1.39-.31-2s-2.28-1.09-2.64-2.46l.8-.35c.64-.27,1.09.15,1.53.48,3.35,2.47,6.84,4.75,10.29,7.08.37.25.78.47.92.94A75.79,75.79,0,0,0,307,177.14a44.92,44.92,0,0,1,7,3.76,12.71,12.71,0,0,1,5.3,7.53c3.32,12.54,6.57,25.12,10.44,37.52.79,2.55,1.73,5.06,3.68,6.93,3.42,3.28,5.53,7,5,11.93-.16,1.37.48,1.88,1.79,2.21a5.92,5.92,0,0,1,4.86,5.7c.27,2.9.87,5.77,1.3,8.66a6.73,6.73,0,0,0,1.11,2.78q3.71,5.64,7.32,11.34a2.16,2.16,0,0,0,2.17,1.15,35.31,35.31,0,0,1,10.38,1c5.95,1.62,8.77,4.94,9.43,11.07a23.21,23.21,0,0,1,0,7.06c-.33,1.67.32,1.89,1.78,2,4.39.25,8.79-.24,13.17.26,2,.23,4,.53,6,.92a8.77,8.77,0,0,1,6.48,4.89A53.57,53.57,0,0,1,409,319.73a3.24,3.24,0,0,0,.13.49c.77-.05.63-.69.76-1.11l19.85-65.72c.13-.43.29-.85.43-1.27.5,0,.29-1,1-.64.55.71.14,1.41-.06,2.08q-4.19,13.9-8.37,27.79c-3.71,12.22-7.33,24.47-11.08,36.68-.51,1.66-.36,1.87,1.37,1.88,2.19,0,4.38,0,6.58,0a2.77,2.77,0,0,1,1.94.38c.32.65-.26.4-.46.41-1.95,0-3.91,0-5.86,0-.58,0-1.25-.23-1.69.42a3.53,3.53,0,0,1-2.27.45q-32,0-63.9,0a3,3,0,0,1-2.39-.55c.4-.64,1.35,0,1.71-.73a8.89,8.89,0,0,1,3.32-.44h30.19a3.6,3.6,0,0,0,2.08-.28,5.9,5.9,0,0,0-3.19-2.31c-2.3-.92-4.65-1.69-7-2.52-.8-.28-1.78-.41-2.15-1.41-.47-.75-1.38-.8-2-1.28-.28-.21-.94-.14-.67-.82a1,1,0,0,1,1,0c3.68,1.73,7.63,2.74,11.4,4.23a10.05,10.05,0,0,1,4.6,3.29,3.41,3.41,0,0,0,.58.62,1.33,1.33,0,0,0,1.4.35c.65-.32.33-.9.16-1.34-1.7-4.34-4.18-8-8.89-9.51-.63-.21-1.75-.24-1.42-1.24.26-.82,1.33-.7,1.94-.4,5.48,2.71,11.71,4.48,14.12,11.12a2.91,2.91,0,0,0,3.77,1.46c.77-.32.55-.9.4-1.43-1.7-5.89-4.78-10.78-10.17-14a4.91,4.91,0,0,1-.44-.25c-.44-.31-1.19-.56-.88-1.23s1.17-.52,1.77-.23A18.84,18.84,0,0,1,392,307,26.86,26.86,0,0,1,398,318.35a2,2,0,0,0,2.51,1.59c.65-.08.89-.39.76-1-1.07-5.13-1.85-10.39-6.33-14a12.69,12.69,0,0,1-1.55-1.56c-.44-.5-1.09-1.14-.54-1.75s1.22,0,1.73.43,1.19,1.2,1.82,1.76A18.89,18.89,0,0,1,402.35,316a12.58,12.58,0,0,1,.45,2.63c-1-5.33-1.32-11.13-4.48-16.18-.37-.59-1-1.45-.26-1.94s1.37.48,1.75,1.11a27.45,27.45,0,0,1,2.81,6.31c1.11,3.72,2.37,7.38,4.84,10.51-1.4-5.23-2.21-10.65-5.32-15.27a6.45,6.45,0,0,0-3.72-2.78,48.93,48.93,0,0,0-5.15-.85,70.16,70.16,0,0,0-9.61-.32c-4.79,0-9.54-.55-14.32-.7a2.7,2.7,0,0,1-2.25-1.55q-6.1-9.42-12.18-18.87c-2.84-4.4-5.74-8.76-8.51-13.2a2,2,0,0,0-2.54-1c-5.63,1.49-9.41,5.29-12.6,9.88-.44.63-.65,1.47-1.56,1.66-.35.6-.92.39-1.44.39a.37.37,0,0,1-.27-.27c.17-.43-.81-.67-.19-1.17a2.25,2.25,0,0,0,1.75-1.13c3.45-5.47,8-9.6,14.4-11.23,1-.24,1-.89.85-1.69-.4-2.45-.88-4.88-1.07-7.35-.2-2.63-1.74-4-4.1-4.76s-2.77-.93-2.53-3.58a11.54,11.54,0,0,0-3.94-9.94c-3.46-3.31-4.56-7.81-5.88-12.17-3.36-11.16-6.3-22.44-9.29-33.7a12.44,12.44,0,0,0-5.8-7.52c-3.05-1.95-6.44-3.21-9.62-4.9a134.68,134.68,0,0,1-12.42-7.5c-1.51-1-1.53-1-2.64.51-2.8,3.77-5.87,7.27-10,9.62-7.37,4.15-14.7,2.19-20.77-2.89a21.25,21.25,0,0,1-6.78-11.25c-.42-1.63-.53-1.63-2.06-1-11,4.84-22.15,9.18-33.39,13.36a15.08,15.08,0,0,0-4.4,2.09,3.69,3.69,0,0,0-1.54,2.86c-.32,6-1.2,11.86-1.8,17.79-.66,6.54-1.77,13-1.91,19.63a84.58,84.58,0,0,1-4.7,25.11c-.26.8-.4,1.64-.67,2.44a5.14,5.14,0,0,0,1,5.07,4.56,4.56,0,0,1,1.33,2.83c0,1,.62.52,1,.33a28.31,28.31,0,0,1,6.46-1.87,14.28,14.28,0,0,1,6.5.51,2.3,2.3,0,0,1,.63.25c.49.28,1.1.6.87,1.26s-.91.51-1.44.33c-3.9-1.31-7.66-.67-11.38.76a12.16,12.16,0,0,0-1.82.87,1.32,1.32,0,0,0-.72,1.56c.18.73.76.72,1.35.7a4.65,4.65,0,0,1,1.34.12,25.77,25.77,0,0,0,4.12.16c.64,0,1.35-.1,1.79.58-.22.73-.88.68-1.39.65-4.33-.27-8.51.76-12.73,1.46a19,19,0,0,1-7.37-.28c-.9-.2-1.43-.26-1.07,1a13,13,0,0,1,.22,7c-.36,1.36.11,1.85,1.4,2a7.91,7.91,0,0,1,2.09.65c1.78.7,2.39.64,3.2-1,2.44-4.92,6.82-5.95,11.69-6.13a8.71,8.71,0,0,1,1.75.48c.46.77-.24.61-.4.7a17.68,17.68,0,0,1,9.28,6.33A212.16,212.16,0,0,1,232.35,296a7.42,7.42,0,0,0,1.51,2,1.08,1.08,0,0,1,.13.75c-.16.37-.39.58-.81.37s-.55-.47-.82-.71c-1-.17-1.19-1.12-1.61-1.8A218.23,218.23,0,0,0,216.11,275c-2.77-3.48-6.24-6-10.79-6.68-3.11-.46-5.78.25-7.71,3-.94,1.34-1.76,2.75-2.64,4.12-.56.87-1.3,1.37-2.23.59-2.79-2.35-6-2.36-9.26-1.61-6.89,1.57-13.09,4.47-18,9.68a81.67,81.67,0,0,1-8.73,7.69,3.73,3.73,0,0,0-1.09,1,.65.65,0,0,0,.18.9c.27.2.53.07.75-.13a9.58,9.58,0,0,0,.67-.76,46.14,46.14,0,0,1,21-13.95,27.44,27.44,0,0,1,8.62-1.49c2.28-.06,4.57.12,6.85-.12a1,1,0,0,1,.83.21l1.17.13c-.46.48-1.23,0-1.51.66.2.53.86,0,1.12.52l-1.14.13a3.64,3.64,0,0,1-2.77.33c-7.23-.86-13.8,1.09-20.06,4.51a50.73,50.73,0,0,0-9.47,6.71c-.54.49-1.07,1-1.57,1.54-3.5,3.77-4.25,7.42-1.64,11.85,4.45,7.57,10.79,12.71,19.85,13.78.44.05.91,0,1.22.46a4.67,4.67,0,0,1-3.37.12,7.7,7.7,0,0,0-2.14-.1c-.67.47-1.32.12-1.92-.13a29.49,29.49,0,0,1-15.59-14,10.17,10.17,0,0,1-1-5.74,4,4,0,0,0-1.41-3.57c-1.53-1.45-1.46-2.07.24-3.34a161.79,161.79,0,0,0,14.46-12.77c-3.33-.56-3.92-3.43-5.29-5.74a11.53,11.53,0,0,1-2-7.31,3.22,3.22,0,0,0-.79-2.17,5.46,5.46,0,0,1-.86-3.54,3.62,3.62,0,0,1,3.63-3.67c1.06-.06,2.13,0,3.2-.08s1.45-.49.77-1.52-1.21-2-1.84-3a1.2,1.2,0,0,1-.21-.73c-1.46-3.41-3.71-6.37-5.48-9.61-.52-.95-1.81-2.08-.18-3,1.48-.82,1.88.75,2.42,1.64,2.81,4.6,5.56,9.24,8.36,13.84.26.44.32,1.23,1.07,1.11s.37-.83.57-1.23A6.29,6.29,0,0,1,176,250.73Z"/><path class="cls-2" d="M165.56,250.75l.31.26c.31,1.41-.64,1.6-1.65,1.65a4.79,4.79,0,0,1-1.63-.42c-5.31-1.68-10.49-3.74-15.72-5.62a75.4,75.4,0,0,0-20.47-4.78c-5.08-.34-9.91,1.08-14.59,3a54.68,54.68,0,0,0-18.15,11.77c-7.28,7.25-12.48,15.75-14.24,26.07a3.83,3.83,0,0,1-.77,2.19H77A44.54,44.54,0,0,1,85,263.38a58.29,58.29,0,0,1,24.86-20.21A39.5,39.5,0,0,1,129.26,240a61.89,61.89,0,0,1,13.27,2.81c7.46,2.27,14.6,5.42,22.06,7.69C164.91,250.6,165.24,250.67,165.56,250.75Z"/><path class="cls-4" d="M156.37,13.45c.06.53-.33.8-.64,1.11-3.78,3.78-7.58,7.54-11.33,11.35-.8.81-1.31.7-2.06-.05Q136.72,20.15,131,14.52c-.78-.77-.8-1.26,0-2Q136.85,6.74,142.58.9c.62-.62,1-.65,1.62,0,3.83,3.88,7.71,7.72,11.57,11.58C156,12.75,156.39,13,156.37,13.45Z"/><path class="cls-7" d="M610.21,42.79c-.79-.76-.49-1.48-.5-2.11,0-4.76-.05-9.51,0-14.26,0-1.73-.67-2.46-2.41-2.45q-14.07,0-28.12,0c-1.86,0-2.52.81-2.49,2.6.06,3.78,0,7.57,0,11.36,0,.64.23,1.34-.25,1.93-.78,0-.58-.64-.58-1.06,0-2.44-.1-4.89,0-7.33.08-1.54-.29-2.09-2-2.06-6.17.11-12.35.05-18.53,0-2.7,0-3.17-.49-3.18-3.23,0-1.63,0-3.26,0-4.89s.78-2.59,2.43-2.59q14.57,0,29.13,0a2.15,2.15,0,0,1,2.36,2.62c-.15,1.47.39,1.81,1.8,1.79,6.39-.07,12.77,0,19.15,0,2.69,0,3.48.83,3.49,3.55q0,7,0,14A3.22,3.22,0,0,1,610.21,42.79Z"/><path class="cls-8" d="M576.36,42.5c.61.69.33,1.46.33,2.15,0,9,0,18.06,0,27.08,0,2.87.32,3.21,3.09,3.21h27.08c2.46,0,2.82-.37,2.82-2.84,0-4.89,0-9.78,0-14.66,0-.6-.37-1.35.47-1.88.52.4.35,1,.36,1.44,0,5.16,0,10.32,0,15.48,0,2.41-.89,3.28-3.32,3.29q-14.06,0-28.1,0c-2.23,0-3.24-.88-3.25-3,0-9.78,0-19.55,0-29.32A.87.87,0,0,1,576.36,42.5Z"/><path class="cls-4" d="M127.62,30.57a1.2,1.2,0,0,1-.53.93c-2,2-4.08,4-6.07,6.11-.64.65-1.06.58-1.66,0q-2.94-3-6-6c-.66-.64-.78-1.11-.06-1.8,2-1.95,4-4,6-6,.48-.48.94-.84,1.56-.21,2.15,2.16,4.3,4.3,6.44,6.46A2.24,2.24,0,0,1,127.62,30.57Z"/><path class="cls-4" d="M578.1,31.35h30.22v.39H578.14Z"/><ellipse class="cls-4" cx="593.21" cy="49.51" rx="21.36" ry="0.29"/><path class="cls-4" d="M578.12,67.22h30.21v.41h-30.2Z"/><path class="cls-9" d="M608.46,40.53c-.3.73-.91.57-1.42.57-4.46,0-8.93,0-13.39,0-.5,0-1.35.22-1.38-.44,0-.86.88-.59,1.4-.6,4.46,0,8.93,0,13.39,0C607.57,40.06,608.15,40,608.46,40.53Z"/><path class="cls-10" d="M578,58.24h22.25v.46H578.08Z"/><path class="cls-11" d="M578,40.1c4.18-.05,8.36-.17,12.54.09v.65H578Z"/><path class="cls-7" d="M595.19,13a13.14,13.14,0,0,1,3,3.18,12,12,0,0,1-3.15,3,11.39,11.39,0,0,1-3-3.15A12.2,12.2,0,0,1,595.19,13Z"/><path class="cls-7" d="M566.82,38.7c.18-1.49,1-2.45,2.47-2.45a2.44,2.44,0,1,1,0,4.87A2.42,2.42,0,0,1,566.82,38.7Z"/><path class="cls-12" d="M608.37,58.49a9.84,9.84,0,0,1-5.93,0A11.91,11.91,0,0,1,608.37,58.49Z"/><path class="cls-4" d="M252.66,115.55c0,1.28,0,2.57,0,3.85A6,6,0,0,1,252.66,115.55Z"/><path class="cls-13" d="M611.52,52.76q-1.75-3.7-3.5-7.41c-.3-.64-1-1.45,0-1.88.8-.35,1,.6,1.32,1.18.76,1.54,1.51,3.09,2.43,5,.36-1.14-.31-1.65-.41-2.28-.07-.42-.86-1,.1-1.31.65-.23,1,.21,1.28.7.37.65.31,1.57,1.15,2,.44-.58-.13-.92-.21-1.35s-.86-1.18,0-1.53c.66-.27,1,.48,1.27,1s.22,1.08,1,1.28c.29-.94-.76-1.52-.59-2.36.64-.44.83.13,1,.5.66,1.17,1.31,2.35,1.89,3.56A4.3,4.3,0,0,1,611.51,55c-1-.91-1.93-1.9-2.89-2.86-.3-.3-.54-.66-.11-1s.62-.08.88.17l1.89,1.7Z"/><path class="cls-5" d="M491.74,306.58l1.44-4.68c2.09-.47,3.48.78,4.87,1.86-.86-1.68-1.74-3.48-2.62-5.27a1.46,1.46,0,0,1-.19-1.44.46.46,0,0,1,.65,0c1.35,2.52,2.69,5,4.13,7.72.46-1.18.25-2.39.8-3.42a9.1,9.1,0,0,1,2.5-3.34,2.36,2.36,0,0,1,3-.17,2.5,2.5,0,0,1,1,3c-.72,2.26-2.47,3.38-4.6,4.09-2.31.76-2.3.78-1.38,3.11a58,58,0,0,1,2.1,6.62c.23-2.26.71-4.39,2.34-6a2.48,2.48,0,0,1,4.3,1c.18.53.27,1.09.5,1.6a9.11,9.11,0,0,1,.86,5.45,32.23,32.23,0,0,0,2.74-8c.12-.63-.51-.63-.9-.79-1.57-.63-3.2-1.14-4.31-2.54a4.75,4.75,0,0,1-1.23-2.54,2.58,2.58,0,0,1,1.42-2.81,2.51,2.51,0,0,1,2.94.61c1.38,1.26,1.93,3,2.78,4.67.33-2.63.65-5.25,1-7.87.11-.76-.31-1-.87-1.19-.9-.34-1.79-.68-2.65-1.1a5.83,5.83,0,0,1-2.82-3,2.75,2.75,0,0,1,.84-3.62c1.1-.81,2.45-.53,3.57.77a10.89,10.89,0,0,1,1.35,2.12c.35.69.56,1.45,1,2.49a76.23,76.23,0,0,1,1.67-7.59c.2-.61-.29-.75-.72-.92-.89-.35-1.78-.7-2.65-1.09a6,6,0,0,1-2.68-2.49c-1-1.67-.81-3.33.48-4.24s2.68-.49,3.92,1.12a9.59,9.59,0,0,1,2.06,6.08c.47-1,.94-2.06,1.42-3.09l.3.13c-.42,1.11-.85,2.22-1.27,3.34a11.1,11.1,0,0,1,5.75-3.64c1.75-.4,3.09.13,3.54,1.41a3,3,0,0,1-1.89,3.67,7.52,7.52,0,0,1-6.08-.15c-1.33-.53-1.78-.15-2,1.14a52.72,52.72,0,0,0-1.22,8.25A9.88,9.88,0,0,1,521.2,292a9.54,9.54,0,0,1,2.1-.61,2.45,2.45,0,0,1,3,1.61,2.61,2.61,0,0,1-1.25,3.19c-1.9,1.25-3.95,1.1-6,.52s-2.23-.6-2.51,1.73c-.3,2.51-.56,5-.83,7.55.61.12.68-.47,1-.75a8.55,8.55,0,0,1,5.43-2.81,2.36,2.36,0,0,1,2.79,1.66,2.56,2.56,0,0,1-1.16,3.07,5.78,5.78,0,0,1-4.67.91c-.94-.21-1.86-.47-2.77-.75-.55-.17-.86-.08-.94.54a48.25,48.25,0,0,1-2.24,8.35,13.59,13.59,0,0,1,4.23-3.29c1.75-.73,3.21-.46,3.9.76s.2,3-1.42,4a7.11,7.11,0,0,1-5.7.74,1.77,1.77,0,0,0-2.47,1.41c-.55,1.77-1.35,3.45-2,5.17-.42.95-1.05,1-1.8.42-.33-.72.1-1.31.4-1.89.63-1.26,1.2-2.54,1.74-3.84a2,2,0,0,0,.28-1.29c-.22-.78-3.46-2.54-4.23-2.29a1.71,1.71,0,0,0-1.35,2.27c.45,2.29,1.24,4.54,1,6.94a1.2,1.2,0,0,1-1.91,0,32.42,32.42,0,0,1-.83-4.79c-.52-2.69-.49-2.76-3.21-2.69a7.06,7.06,0,0,1-5.34-2.05,2.92,2.92,0,0,1-1-2.56,2.83,2.83,0,0,1,3.64-2.52,7.65,7.65,0,0,1,4.72,3.52c-.36-1.47-.91-3.1-1.4-4.76-.37-1.26-1-1.74-2.32-1.37a7.76,7.76,0,0,1-4.81-.18A2,2,0,0,1,491.74,306.58Z"/><path class="cls-14" d="M486.88,219.63c0-1.73,0-3.48-.1-5.21-.09-1.27.33-1.6,1.59-1.59,9.26.06,18.52,0,27.78,0,1.18,0,2.36,0,3.53.08,0,1.74-.06,3.49,0,5.22.07,1.21-.37,1.49-1.52,1.49C507.76,219.62,497.32,219.63,486.88,219.63Z"/><path class="cls-15" d="M503.91,325c.52.62,1,.74,1.58,0a2,2,0,0,1,2.33,0c.6.8,1.17.47,1.74,0L568,325h1.35c.37,0,.65.07.67.53s-.29.65-.74.63H331.41c-.56,0-1.12,0-1.68-.06a12.36,12.36,0,0,1,4.48-1.07,16.94,16.94,0,0,1,8.63,0,3.47,3.47,0,0,0,2.28.4c22.28,0,44.57-.27,66.85.08,24.7.38,49.4,0,74.09.22.79,0,1.75.32,2.19-.76a2.77,2.77,0,0,1,1.77-.42c4,0,8.08,0,12.12,0A2.64,2.64,0,0,1,503.91,325Z"/><path class="cls-14" d="M522.53,276.39c2-1.17,3.81-2.51,6.05-2.83,1.83-.26,3.24.4,3.58,1.74a2.86,2.86,0,0,1-2.24,3.45c-2.95.92-5.46-.08-7.77-1.87-1-.76-2-1.47-2.93-2.28a5.58,5.58,0,0,1-2-4.12,2.59,2.59,0,0,1,2-2.93c1.45-.39,2.37.45,3,1.63a8.66,8.66,0,0,1,.75,5.75C522.84,275.37,522.69,275.79,522.53,276.39Z"/><path class="cls-14" d="M527.51,270.27a8.85,8.85,0,0,1,3.78-6.11c1.61-1.14,3.13-1.07,4.05.15s.6,2.82-.72,4.07C533,269.9,530.57,270.56,527.51,270.27Z"/><path class="cls-5" d="M495.89,297.07h-.62c-.4.11-.5-.14-.52-.46.75-2.44,1.51-4.87,2.26-7.31.33-.31.64-.63,1-.93,1.06-1,2.26-1.41,3.49-.45a2.7,2.7,0,0,1,.65,3.64c-1.08,2.25-3.15,3.17-5.38,3.66C495.39,295.52,495.18,296,495.89,297.07Z"/><path class="cls-5" d="M520.6,279.92l1.17-2,.28.14-1.13,2Z"/><path class="cls-13" d="M204.35,260.21a8.54,8.54,0,0,0-1.34.09c-.77.14-1.51.25-1.69-.79-.14-.81-.39-1.59.68-2.15,4.45-2.31,9-3.46,14-1.84.38.13.93.6,1.11-.1s-.54-.6-.92-.73c-4.6-1.58-9-.69-13.27,1.23-.26.11-.51.25-.76.38l-1.22.64c1.1-2.44-.36-3.71-1.4-5.16a4.32,4.32,0,0,1-.67-4c.41-1.28.66-2.62,1.08-3.9a90.16,90.16,0,0,0,4.39-23.64c.55-11.8,2.41-23.51,3.57-35.28a6.81,6.81,0,0,0,.12-1.34c-.37-3.39,1.6-5,4.45-6.05,12.46-4.57,24.83-9.39,37-14.77a1.47,1.47,0,0,1,.4,0,27.46,27.46,0,0,0,2.78,7.72,20.33,20.33,0,0,0,13.08,9.92c5.32,1.39,10-.26,14.22-3.49a35.66,35.66,0,0,0,7.9-8.72c.52-.77.83-.94,1.65-.33a119,119,0,0,0,15.88,9.56c2.29,1.19,4.74,2.06,7,3.43a13.39,13.39,0,0,1,6.35,8.5c3.24,12.53,6.53,25,10.4,37.39a16.71,16.71,0,0,0,4.25,7.39c3.12,2.94,4.67,6.37,4.2,10.68-.19,1.65.12,2.74,2.25,3a5,5,0,0,1,4.42,4.83c.31,2.85.79,5.69,1.26,8.52.11.68.08,1-.7,1.15-6.93,1.47-11.64,5.84-15.13,11.74-.58,1-1,1.11-1.79.3-2-2.1-4.33-3.77-6.1-6.06a9.44,9.44,0,0,1-2.22-4.11,2.43,2.43,0,0,0-1.29-1.66c-1.1-.67-2.12-1.48-3.22-2.16a8.27,8.27,0,0,1-3.86-5.87A3.68,3.68,0,0,0,310,252.3a6.56,6.56,0,0,1-2.09-4.58c-1-8.9-2.16-17.77-3.05-26.68-.27-2.71.2-5.5.34-8.26.06-1.23.18-2.47.19-3.71,0-.42.43-1.2-.34-1.24s-.46.77-.49,1.2c-.63,10.23-.88,20.5-2,30.68-1,9.38,1.49,18,4,26.81A84.22,84.22,0,0,1,309,277.37c.22,1.51-.05,2.44-1.84,2.62a22.13,22.13,0,0,0-13.1,6.39,83.94,83.94,0,0,1-8.89,7.52c-6.9,4.93-14.4,6.38-22.58,3.92a39.14,39.14,0,0,1-8.78-3.43c-.3-.18-1.19-.29-.39-1,1.56-1.32,3.6-1.49,5.4-2.19a5.27,5.27,0,0,0,2.47-1.67,1.31,1.31,0,0,0,.14-1.66c-4.24-7.8-9.9-14.21-18-18.18a39.06,39.06,0,0,0-11-3.24c-2.9-.49-2.89-.45-3.27-3.42-1-8.19-2.71-16.3-3.91-24.47-1.32-9-2-18.09-2.56-27.18-.24-3.92-.5-7.85-.53-10.22.14,5.9.74,13.34,1.26,20.79.85,12.13,3,24.07,5,36a58.53,58.53,0,0,1,.8,6.19c.07,1.19-.28,1.7-1.63,1.64-2.53-.11-5-.53-7.57-.43a2.07,2.07,0,0,1-1.83-.72c-1.87-2.52-4.52-3.6-7.5-4.09-.22,0-.42-.16-.64-.21a27.12,27.12,0,0,0-5.33-.1A.42.42,0,0,1,204.35,260.21Z"/><path class="cls-2" d="M188.72,325,148.63,325c-1.79-1.2-2.58-3-3.21-5a15.75,15.75,0,0,1,1.05-12.11c.24-.5.45-1,1.12-1.11a1.18,1.18,0,0,0,.95-1.53A1.37,1.37,0,0,0,147,304.2c-2.7,0-5.4,0-8.1,0a1.64,1.64,0,0,1-1.8-1.11,16,16,0,0,1-.14-13.86c.37-.8.61-1.65,1.68-1.91a1.08,1.08,0,0,0,.72-1.36,1.27,1.27,0,0,0-1.17-1.05c-.5,0-1,0-1.52,0H80.5c-.62,0-1.24,0-1.85-.06.89-8.13,4.16-15.29,8.9-21.86A54.64,54.64,0,0,1,109,245.58c5.36-2.54,11-4.44,17-4.22a60,60,0,0,1,14.8,2.77c7.64,2.28,15,5.46,22.55,7.89,1.16.38,2.23.63,2.59-1,.87,1.37,1.72,2.75,2.61,4.11.39.6.46.95-.43,1.1a12.63,12.63,0,0,1-3.18.32c-1.58-.13-3.11,0-4,1.55a4.19,4.19,0,0,0,.2,4.64,5.62,5.62,0,0,1,.94,3.77,7.3,7.3,0,0,0,1.49,5,20.89,20.89,0,0,1,1.92,3.91c.73,1.49,1.68,2.67,3.59,2.51a.87.87,0,0,1,.89.43c-5.23,4.3-9.74,9.44-15.32,13.34-1.15.8-1.6,1.42-.26,2.48A3.77,3.77,0,0,1,156,298.4a6.21,6.21,0,0,0,.53,3.8c3.38,8.09,9.51,13.14,17.7,15.87,4.2,1.55,8.61,2.32,12.95,3.32,1.09.25,2.18.46,3.45.72A11.19,11.19,0,0,0,188.72,325Z"/><path class="cls-13" d="M421.51,320.31c-3.15,0-6.3-.06-9.45,0-1.26,0-1.62-.11-1.19-1.51,3.69-12,7.31-24.1,10.95-36.16l9.09-30.2c.1-.32.15-.65.22-1,.36-.49.89-.39,1.39-.39h74.33a5.23,5.23,0,0,1,.56.1q-1.4,4.65-2.78,9.26c-.16.55-.63.59-1.07.66C491,263,481.23,269.9,472.2,278.21c-1.19,1.1-2.35,2.21-3.56,3.34-1.58-4-4.28-5.87-7.62-5.33a6.46,6.46,0,0,0-5.55,5.93c-.16,3.24,1.88,5.63,5.7,6.66,0,.6-.53.83-.86,1.17-5.9,6-11.64,12.25-18,17.82C436.13,313.21,429.5,317.9,421.51,320.31Z"/><path class="cls-13" d="M179.69,318.05c-8.95-.28-15.15-5.25-20.29-12a13.35,13.35,0,0,1-2.4-5.16,8.69,8.69,0,0,1,2.14-8.3c7.24-7.72,16-12.71,26.57-14,2.81-.34,5.61.22,8.42.27,1.54.3,3.08.61,4.62.9a19.3,19.3,0,0,1,13.17,9.16,73.43,73.43,0,0,1,7.9,17.46c.48,1.5.89,1.87,2.5,1.31,10.39-3.66,20.83-7.18,31.24-10.8a4.77,4.77,0,0,1,3.69,0,37.17,37.17,0,0,0,8.89,2.59,1.54,1.54,0,0,1,1.43,1,23.27,23.27,0,0,1,1.66,6c.08.69,0,1.18-.82,1.32-13.13,2.07-25.85,6-38.8,8.83s-25.91,2.93-39,2.22C187,318.64,183.33,318.31,179.69,318.05Z"/><path class="cls-13" d="M252,320.57c0-3.81.08-3.93,3.68-4.92,10.58-2.91,21.07-6.06,31.11-10.53,5.7-2.54,11-5.82,16.58-8.65,9.82-5,19.6-10.08,29.8-14.28a2.08,2.08,0,0,1,2.65.45c1.88,1.85,3.83,3.64,5.88,5.31a11.8,11.8,0,0,1,3.45,4.87,49.4,49.4,0,0,1,3.59,13.83,1.93,1.93,0,0,1-1.35,2.27c-13,6.25-26.79,9.77-40.93,12.15-16.59,2.81-33.26,5-50,7.05a2.58,2.58,0,0,1-3.13-1.69A13.58,13.58,0,0,1,252,320.57Z"/><path class="cls-13" d="M329.7,275.44a34.6,34.6,0,0,1,5.69-7.28,20.89,20.89,0,0,1,8.79-4.83,1.79,1.79,0,0,1,2.33.9c6.88,10.75,13.84,21.45,20.72,32.2a3.16,3.16,0,0,0,2.81,1.66c5.73.32,11.45.78,17.2.62A42.52,42.52,0,0,1,398,299.92a7.28,7.28,0,0,1,4.74,3.25c3.18,5.05,4.15,10.82,5.33,16.55a15,15,0,0,1-3.76-5.8c-1-2.44-1.71-5-2.59-7.49a23.56,23.56,0,0,0-2.62-5.27c-.22-.32-.47-.81-.89-.56s-.09.68.13,1c3.91,5.57,4,12.14,4.87,18.5A10.33,10.33,0,0,1,402,316a20.67,20.67,0,0,0-7.84-13.71c-.34-.29-.74-1-1.2-.49s.33.8.64,1.13c.89.93,1.86,1.8,2.74,2.74a15.27,15.27,0,0,1,4.21,7.93c.3,1.77.71,3.53,1.18,5.27.29,1.05.22,1.4-1,1.47-1.86.09-2.79-.31-3.31-2.36a23.3,23.3,0,0,0-9.9-14.2c-.75-.5-2-1.54-2.44-.83-.51.93,1.12,1,1.77,1.39,5.48,3.61,8.51,8.83,10.13,15,.17.64,0,.95-.69.92-1,0-2-.06-3,0a1.12,1.12,0,0,1-1.32-1c-1.4-5-5.11-7.6-9.6-9.43a9.62,9.62,0,0,1-1.42-.89,9,9,0,0,0-3.89-1.52c-.32,0-.74-.14-.78.36s.28.42.56.48c5.53,1.26,8.1,5.46,10.08,10.22.21.5.77,1.32.06,1.61s-1.87.54-2.36-.23c-2.4-3.74-6.45-4.45-10.18-5.79a53.62,53.62,0,0,1-7.18-2.9,47.44,47.44,0,0,1-6.12-6.7c-1.86-2.35-4.29-4.12-6.49-6.12q-11.92-10.81-23.91-21.58C330.27,276.47,329.58,276.23,329.7,275.44Z"/><path class="cls-13" d="M254.18,329.33a322.25,322.25,0,0,1-53.28-.22c-2.18-.19-4.34-.62-6.51-1a6.28,6.28,0,0,1-2.93-1.21c-.82-.65-2-1.3-1.34-2.57a2.83,2.83,0,0,1,3.25-1.78c7.42,1.35,14.87,2.57,22.45,2.09,6.7-.42,13.19-2.13,19.69-3.7,4.87-1.17,9.7-2.46,14.53-3.77,1.1-.3,1.51-.32,1.26,1A13.58,13.58,0,0,0,254.18,329.33Z"/><path class="cls-13" d="M186.27,277.77a38.55,38.55,0,0,0-18.45,6.37,45.46,45.46,0,0,0-10.95,9.7c-.25.31-.41,1-.94.73a3.44,3.44,0,0,1-1.22-1.37c-.29-.57.41-.7.72-.95,3.92-3.11,7.66-6.43,11.27-9.92,5.36-5.18,12-7.8,19.34-8.76a8.06,8.06,0,0,1,7,2.14c.66.66,1,.47,1.38-.22.8-1.35,1.67-2.67,2.47-4,2-3.31,5-4.14,8.58-3.59a16.94,16.94,0,0,1,10.82,6.66,206.65,206.65,0,0,1,15.73,23.55,1.65,1.65,0,0,0,.31.34c-.35,1.08-1.41,1.39-2.22,1.87s-.81-.57-1.08-1a209.67,209.67,0,0,0-14.13-18.9,41.38,41.38,0,0,0-6-5.91A8.12,8.12,0,0,0,197,276.13c-.73,1-1.69.91-2.55,1.3l-.61.07a53.48,53.48,0,0,1-5.8.13A5.5,5.5,0,0,0,186.27,277.77Z"/><path class="cls-2" d="M328,275.56l.27.27,1.26,1.28c-2.24.21-4.32.38-6.38.59-4,.42-8.05.87-12.07,1.3-.46.05-1,.37-1.09-.51-.41-6.87-3.16-13.19-4.61-19.82-.73-3.29-1.45-6.58-2.19-9.87a5.14,5.14,0,0,1,.2-2.7c2.23,2.57,4.32,5,6.4,7.38a1.16,1.16,0,0,1,.29.6c.4,4,2.93,6.42,6.15,8.32a5.81,5.81,0,0,1,2.85,3.46c.73,2.27,2.54,3.95,4.25,5.58C324.82,272.88,326.43,274.19,328,275.56Z"/><path class="cls-16" d="M404.75,69.31V76.4c0,2.16.54,2.7,2.68,2.7H526.84a13.43,13.43,0,0,0,1.68,0c2.08-.25,2.28-.08,2.28,2.06q0,64.68,0,129.37c0,.59.23,1.25-.33,1.75a3.79,3.79,0,0,1-1.83.15H361.09c-2.12,0-2.12,0-2.12-2V71.2c0-2.31,0-2.37,2.33-2.37q20.7,0,41.38,0C403.4,68.83,404.17,68.7,404.75,69.31Z"/><path class="cls-13" d="M344.94,321.05c.73,0,1.46.08,2.19.08l66.37,0c.16,3.59.16,3.59-3.33,3.59q-32.25,0-64.52,0c-.52,0-1.55.41-1.48-.5C344.26,323.17,343.16,321.72,344.94,321.05Z"/><path class="cls-2" d="M503.91,325H488.25c-1.19-5.81,1.31-11,2.81-16.34.19-.7.45-1.39.68-2.08,2.1,1.75,4.5,1.58,6.88.91,1.1-.3,1.47,0,1.81,1a37.73,37.73,0,0,1,1.85,7.28,10.1,10.1,0,0,0-4.08-4.16c-1.79-1-3.4-.72-4.16.62s-.2,2.92,1.4,4a7.59,7.59,0,0,0,5.67,1c1.34-.19,1.79.34,1.94,1.55A58.3,58.3,0,0,1,503.91,325Z"/><path class="cls-16" d="M359.13,58.49c.49-.56,1.16-.33,1.75-.33H528.6c2.19,0,2.2,0,2.2,2.14v7.26c0,.67.12,1.39-.67,1.75a4.66,4.66,0,0,0-2.16-.16l-166.9,0c-2.35,0-2.13.23-2.09-2A76.92,76.92,0,0,1,359.13,58.49Z"/><path class="cls-2" d="M369.92,313.36c2.9,1.35,6,2.16,9,3.28a8.47,8.47,0,0,1,4.64,3.68H346.65a1.68,1.68,0,0,1,.94-.64,151.54,151.54,0,0,0,16.82-8,1.64,1.64,0,0,1,2.21.13A7.46,7.46,0,0,0,369.92,313.36Z"/><path class="cls-17" d="M359.13,58.49c0,3,0,6.08,0,9.12,0,1,.33,1.46,1.36,1.36.5,0,1,0,1.52,0q83,0,166,0c.7,0,1.48-.28,2.1.32H404.75q-22,0-43.91,0c-1.29,0-1.74.29-1.74,1.68q.06,69.84,0,139.68c0,1.63.77,1.62,2,1.62q33.7,0,67.39,0h102c-.56.58-1.28.32-1.92.32q-19.93,0-39.86,0c-2.15,0-2.15,0-2.15,2.23a23.25,23.25,0,0,1-.34,4.85c0-1.83-.07-3.67,0-5.5.07-1.3-.42-1.63-1.65-1.6-3.49.07-7,0-10.47,0H361l-2.19,0h0q0-9.21,0-18.42,0-66.81,0-133.62C358.81,59.89,358.52,59.11,359.13,58.49Z"/><path class="cls-18" d="M210.23,260.18c3.4.25,6.39,1.34,8.42,4.26.45.64,1,.58,1.61.6a66.74,66.74,0,0,1,7.08.37c1.79.26,1.81-.49,1.6-1.79-.81-5.05-1.51-10.13-2.42-15.17a338.63,338.63,0,0,1-4.7-49.54,2.78,2.78,0,0,1,0-.5c.1-.38-.28-1.07.41-1s.38.7.39,1.09a351.66,351.66,0,0,0,2.72,36.69c1.17,8.81,2.74,17.57,4.18,26.34.22,1.37-.33,3.16.69,4s2.57.6,3.9.82c13.23,2.23,21.78,10.48,28,21.74.52.93-.46,2.6-1.92,3.13-2.22.81-4.48,1.5-6.72,2.24-.59-.22-1.18.91-1.78,0,.18-.7.85-.66,1.35-.84,2-.7,4-1.32,5.74-2-7.7,2.58-15.6,5.44-23.57,8.11-.45.15-.93.49-1.43.09v-.67c.39-.74,1.16-.85,1.84-1.08,7.81-2.68,15.61-5.42,23.41-8.15,1.74-.61,1.76-.61.83-2.16-4.6-7.73-10.52-14-19.14-17.28a46.44,46.44,0,0,0-12.15-2.68,78,78,0,0,0-18.32.25,1.91,1.91,0,0,1-1.75-.35c-.58-.17-1.27.22-1.76-.36a1.94,1.94,0,0,1,1.61-.78,44.8,44.8,0,0,1,6.53-.7,2.69,2.69,0,0,0,1.86-.41,6.94,6.94,0,0,0-4.05-2.51c-.78-.23-1.7-.21-2.23-1-1.36-.71-2.81-.19-4.21-.35-.64-.07-1.35.27-1.88-.34l.1-.08.11.05A29,29,0,0,1,210.23,260.18Z"/><path class="cls-13" d="M467.63,282.51a5.64,5.64,0,1,1-5.51-5.43A5.55,5.55,0,0,1,467.63,282.51Z"/><path class="cls-13" d="M268.32,299.89a13.13,13.13,0,0,1,5.82.84A65,65,0,0,0,287,303.87a16.92,16.92,0,0,1-4.78,1.78c-3.62.51-7.24,1-10.84,1.62-1,.17-1.28,0-1.35-1A21.51,21.51,0,0,0,268.32,299.89Z"/><path class="cls-6" d="M485.84,250.75h-54v-.29h54c.12.06.17.13.13.19S485.89,250.75,485.84,250.75Z"/><path class="cls-19" d="M342.84,325.06h-8.63c.81-1,2.08-1,3.14-1.39,1.89-.75,3.82-1.41,5.9-2.18C343.05,322.82,343.63,324,342.84,325.06Z"/><path class="cls-2" d="M494.75,296.62l.52.46c1.21,2.57,2.43,5.13,3.64,7.7a11.15,11.15,0,0,0-5.73-2.88C493.7,300.14,494.23,298.38,494.75,296.62Z"/><path class="cls-20" d="M233.77,298.8c4.08-1,7.94-2.65,11.92-4,4.5-1.51,9-3.11,13.47-4.67a1.6,1.6,0,0,1,1.63,0l-9.11,3.28c-5.7,1.93-11.4,3.87-17.12,5.77-.41.13-1,1-1.38-.05C233.43,299.12,233.67,299.09,233.77,298.8Z"/><path class="cls-17" d="M485.84,250.75a1.41,1.41,0,0,0,0-.29l10.93,0c3.42,0,6.85,0,10.28.31Z"/><path class="cls-13" d="M268.92,147.33a60.33,60.33,0,0,1-5.95-10A23.19,23.19,0,0,1,261,130.6c-.06-.48-.31-1,.26-1.37.26-.18.63-.39.29-.78s-.51-.06-.77,0c-2.26.72-3.22.43-4.59-1.46a18.58,18.58,0,0,1-2.7-6.85c-.39-1.62-.83-3.19-.13-4.82,1.77-3.55,4.71-3.74,6.94-.4a22.56,22.56,0,0,1,2.81,7c.1.4.05,1.08.65,1s.32-.71.22-1.12c-.27-1.13-1.07-2.48-.7-3.33s2-1.1,2.88-1.85c2.1-1.83,4.5-1,6.77-.87,3.13.13,3.78-.63,3.63,4,0,1.24,0,2.47,0,3.71,0,3.68,1.86,6.12,5.09,7.66a18.5,18.5,0,0,0,6.32,1.67c3.24.29,5.61-1.26,7.55-3.65a17.25,17.25,0,0,0,3.14-6.11c.29-1,.82-1.19,1.7-.88s1.8.29,1.55,1.69-.31,3-.45,4.52c0,.31.09.73-.48.65a.72.72,0,0,1-.38-.65c-.26,1.08.28,2.28,0,3.47a6.51,6.51,0,0,0,.26,2.48c.59,1.3,1,2.69,0,3.91-1.25,1.59-3,1.11-4.55.73a5.47,5.47,0,0,0,2.6.32,2.42,2.42,0,0,0,2.5-3c-.06-.7-.46-1.43.11-2.1v-1.73a7.44,7.44,0,0,0,5.83,4.59c.75.12.72.51.37,1.05-.79,1.23-1.48,2.53-2.33,3.71A82.47,82.47,0,0,1,294,154.34c-5.67,5.14-14.53,3.54-18.51,0A83.34,83.34,0,0,1,268.92,147.33Z"/><path class="cls-13" d="M283.44,163.53c.81.61,1.61,1.23,2.43,1.82,1.94,1.4,1.95,1.39.49,3.42a37.47,37.47,0,0,1-5.48,6.18c-8.44,7.51-19.23,6.4-26-2.67a23.38,23.38,0,0,1-4-9c-.2-.88.07-1.19.79-1.52a46.5,46.5,0,0,0,5.92-3.23,4,4,0,0,0,1.87-3.19c.54-5.77,1.17-11.53,1.77-17.3a5.84,5.84,0,0,1,.3-1.52,64.45,64.45,0,0,0,6.21,10.64,5.77,5.77,0,0,1,.53,1.58c1.72,7.22,5.8,12.21,13.25,14A4.24,4.24,0,0,1,283.44,163.53Z"/><path class="cls-13" d="M270.58,113.32A123,123,0,0,1,292.73,104c7.73-2.38,15.92-2.31,23.8-4.49a21.14,21.14,0,0,1-.27,4.42c-.46,4.87-.94,9.75-1.74,14.58-.18,1.11-.46,1.62-1.82,1.19a18.39,18.39,0,0,0-6.84-.78,15,15,0,0,1-7.62-1.76,34.76,34.76,0,0,0-20.53-3.1,46.67,46.67,0,0,1-7,.06Z"/><path class="cls-13" d="M292.59,117.28c1.32-.42,2.29.56,3.43.84,1.75.42,2.07,1.36,1.5,3.06-.95,2.85-2,5.61-4.18,7.79a6.22,6.22,0,0,1-5.82,1.95c-.88-.17-1.78-.28-2.64-.53-5-1.46-6.42-3.4-6.58-8.61-.05-1.83.56-3.68-.2-5.49-.19-.45.33-.48.63-.56,2-.55,8-.31,10.38.41-1.15.27-2.35-.09-3.44.41-.38.69-1.44.32-1.86,1.4,1.78.22,3.4-.58,5.07-.41a11.48,11.48,0,0,1,4.87,1.95C293.84,118.22,292.7,118.06,292.59,117.28Z"/><path class="cls-13" d="M309.65,121.1c.25-.08.31-.12.36-.11,3.75.38,3.86.59,2.4,4-1.37,3.2-3.06,6.29-3.49,9.82-.07.56-.23.71-.86.62a5.13,5.13,0,0,1-4.81-5.48,59.84,59.84,0,0,1,.78-8.23c.11-.81.49-1,1.22-1,.89,0,1.79,0,3,0-1,.56-2,.65-2.64,1.25-.4.36-.73.74-.35,1.3a.82.82,0,0,0,1.31.18c1.69-1.25,3-.75,4.15.84.34.46.78.71,1.29.32s.43-.94.07-1.47A6.31,6.31,0,0,0,309.65,121.1Z"/><path class="cls-13" d="M309.76,135a16.86,16.86,0,0,1,1.26-4.59c1-2.49,2.12-4.95,3.08-7.46.3-.77.59-1,1.31-.61a10,10,0,0,1,2.53,1.29c.77.72-.28,1.52-.41,2.31a15,15,0,0,1-4.22,8.43,4.18,4.18,0,0,1-2.44,1.4C310.18,135.88,309.6,135.74,309.76,135Z"/><path class="cls-21" d="M312,87.17A4.29,4.29,0,0,1,310,89.93a31.24,31.24,0,0,1-9.59,4.43c-7.11,2-14.44,2.82-21.65,4.29a101.81,101.81,0,0,0-10.47,2.57c-.44.14-1.13.62-1.33,0-.25-.78.67-.73,1.14-.88,6.6-2.12,13.44-3.14,20.24-4.38,6-1.1,12.11-2,17.68-4.74a15.27,15.27,0,0,0,4.35-2.84c.54-.55,1.18-1.14.53-2-.18-.26-.57-.52-.16-.83s.72.09,1,.37A1.66,1.66,0,0,1,312,87.17Z"/><path class="cls-21" d="M253.28,100.46A5,5,0,0,1,255.4,97a18.93,18.93,0,0,1,7-3.32c5.94-1.74,12.09-2.53,18.11-3.95A46.36,46.36,0,0,0,291,86.18c.34-.17.77-.54,1-.1.38.63-.31.72-.66.9-4.4,2.24-9.18,3.29-14,4.3-5.11,1.08-10.29,1.83-15.3,3.38a17.45,17.45,0,0,0-5.9,2.81c-1.5,1.18-2.56,2.58-1.71,4.64.11.28.22.55-.1.73s-.58-.1-.75-.41A3.85,3.85,0,0,1,253.28,100.46Z"/><path class="cls-16" d="M292.59,117.28a3.56,3.56,0,0,1,1.7,1.28.79.79,0,0,1,0,1.2.78.78,0,0,1-1.19,0c-2.36-2.32-5.17-2-8-1.42-.72.13-1.67.75-1.94-.42s.86-1.08,1.56-1.3a4.62,4.62,0,0,1,1-.1C288,116.77,290.36,116.27,292.59,117.28Z"/><path class="cls-22" d="M301.65,134.18c.1.72.17,1.46.31,2.17a2.55,2.55,0,0,1-1.86,3.14c-1.47.57-4.5,0-5.12-.89a.57.57,0,0,1-.09-.45c.15-.35.47-.27.71-.13a6.5,6.5,0,0,0,2.36.85c2.22.28,3.26-.72,3.08-2.9,0-.56-.06-1.12-.09-1.68l.12-1.88C301.58,133,301.07,133.75,301.65,134.18Z"/><path class="cls-23" d="M256.88,107.63c-.56-.25-.48-.57-.16-.92a15.47,15.47,0,0,1,3.62-3c.23-.13.5-.33.73,0a.46.46,0,0,1-.16.71,17.31,17.31,0,0,0-3.61,3A1.28,1.28,0,0,1,256.88,107.63Z"/><path class="cls-23" d="M298.53,79.8a9.81,9.81,0,0,1-2.27,3.58c-.15.14-.44.22-.57,0a.67.67,0,0,1,0-.6,14.07,14.07,0,0,0,2-3.27.42.42,0,0,1,.54-.27C298.45,79.29,298.56,79.48,298.53,79.8Z"/><path class="cls-22" d="M300.69,131.81c-.17-1.32-.34-2.64-.49-4-.05-.41-.29-1,.34-1.07s.41.65.47,1,0,.78.06,1.16C300.77,129.91,301.38,131,300.69,131.81Z"/><path class="cls-24" d="M299.71,119.71a3.84,3.84,0,0,1,2.55,1.17l-2.67-.68Z"/><path class="cls-13" d="M208.48,266.68A91.78,91.78,0,0,1,225.3,266a66.49,66.49,0,0,1,11.81,1.8c10.41,2.57,17.38,9.43,22.86,18.18,1.57,2.49,1.54,2.52-1.22,3.47l-25,8.65c-.68.07-.87-.41-1.17-.91a242,242,0,0,0-14.51-21.9c-3.36-4.4-5.34-5.83-11-8.16Z"/><path class="cls-13" d="M356.08,277.49c4.69-.08,9,.17,13.12,1.71,4.89,1.83,6.22,5.89,6.8,10.51a3,3,0,0,1-1.5,3.35c-1.72,1.06-3.31,2.32-4.95,3.51-.42.3-.76.62-1.19-.06C364.33,290.25,360.29,284,356.08,277.49Z"/><path class="cls-13" d="M210.44,260.9c2.2.48,4.42.92,6.16,2.5a3.16,3.16,0,0,1,1.26,1.62c-3.75.35-7.5.37-11.14,1.3-1.82.28-3.66.52-5.48.84-2.77.47-4.24,2.54-5.63,4.7-1.69,2.62-1.69,2.6-4.54,1.52a12.7,12.7,0,0,0-1.94-.56c-.6-.12-1.22-.15-1.92-.23a15.94,15.94,0,0,0-.47-11.23c5.58,2.17,10.86.81,16.14-.17A33.56,33.56,0,0,1,210.44,260.9Z"/><path class="cls-13" d="M180,256.07c6.1,3.71,8.37,8.8,6.77,15-.23.88-.38,1.78-1.66,1.69s-2.53,1.08-3.57-.86-2-3.87-1.5-6.38A29,29,0,0,0,180,256.07Z"/><path class="cls-13" d="M179.46,261.31c-.09,1.57-.14,3.15-.31,4.71-.09.88.08,2-1.37,2.11s-3.12-.71-3.43-1.88a18,18,0,0,1-.52-3c-.24-2.86-.43-5.72-.59-8.58-.08-1.3,1.5-2.9,3-3.07s2,.94,2.3,2A26.8,26.8,0,0,1,179.46,261.31Z"/><path class="cls-13" d="M170.12,267a11.82,11.82,0,0,1-7.89-4,4.08,4.08,0,0,1-1-2.3c-.11-1.23,0-2.43,1.29-3a2.59,2.59,0,0,1,3.3.75c2.08,2.27,4,4.67,6.32,6.74.87.78.68,1.33-.41,1.59C171.23,266.89,170.67,267,170.12,267Z"/><path class="cls-13" d="M162.84,265a14.57,14.57,0,0,0,8.89,2.84c1.78,0,3.61,1.14,5.12,2.35.72.57.61,1.17-.23,1.54a6.05,6.05,0,0,1-1.46.39,24.34,24.34,0,0,1-8.38-.41c-3-.62-3.77-1.5-3.93-4.55C162.81,266.55,162.84,265.94,162.84,265Z"/><path class="cls-13" d="M168.53,277.13c-1.38.15-1.86-1.27-2.5-2.41a5.38,5.38,0,0,1-1-2.41c.75.13,1.5.29,2.26.41a24.7,24.7,0,0,0,8.7.13,1.58,1.58,0,0,1,1.89,1c.37,1-.7.93-1.23,1.18A21.74,21.74,0,0,1,168.53,277.13Z"/><path class="cls-25" d="M391.29,320.32c-.88,0-1.61,0-2.33,0-.55,0-.79-.2-.9-.74-.57-2.81-2.12-5.14-3.89-7.67C388.12,313.49,390.13,316.37,391.29,320.32Z"/><path class="cls-21" d="M166.11,257.41c3.41-.52,3.41-.52,5,2.13,1.87,3.1,1.87,3.1,1.83,5.13C170.48,262.42,168.48,259.92,166.11,257.41Z"/><path class="cls-26" d="M406.76,320.16c-2.51.34-2.52.34-2.9-2-.16-1-.29-2-.43-3a3.27,3.27,0,0,1,.07-.63c.61,1.11,1.09,2,1.61,2.89S406.19,319.25,406.76,320.16Z"/><path class="cls-4" d="M186.27,277.77c2.52-.58,5.07-.2,7.61-.27C191.36,278.15,188.8,277.67,186.27,277.77Z"/><path class="cls-27" d="M179.26,273.32a1.72,1.72,0,0,1-1.52-1.22c0-.13.3-.51.37-.49C178.86,271.87,178.88,272.71,179.26,273.32Z"/><path class="cls-13" d="M143.42,2c.32.3.58.51.82.75,3.3,3.3,6.58,6.63,9.92,9.89.74.71.59,1.09-.06,1.73-3.29,3.23-6.56,6.48-9.78,9.79-.73.75-1.12.71-1.84,0-3.22-3.3-6.5-6.55-9.79-9.78-.64-.63-.81-1-.06-1.72,3.34-3.25,6.62-6.58,9.93-9.87C142.82,2.53,143.11,2.29,143.42,2Z"/><path class="cls-13" d="M569.27,19.59c4.62,0,9.24,0,13.85,0,1.55,0,2.21.52,2.21,2.13,0,1.2-.43,1.5-1.54,1.44-1.49-.08-3,0-4.48,0-2.56,0-3.53.88-3.41,3.39.09,1.68-.35,2.16-2.08,2.13-6.11-.12-12.22-.1-18.33,0-1.84,0-2.63-.54-2.47-2.45a30.45,30.45,0,0,0,0-4.48c-.09-1.63.66-2.14,2.19-2.13C559.91,19.62,564.59,19.59,569.27,19.59Z"/><path class="cls-13" d="M126,30.71l-.57.6c-1.51,1.51-3,3-4.52,4.53-.54.56-.87.66-1.46,0-1.47-1.55-3-3-4.53-4.52-.51-.49-.59-.79,0-1.32,1.59-1.51,3.11-3.08,4.66-4.63.33-.33.6-.65,1.09-.15,1.65,1.69,3.33,3.34,5,5C125.79,30.38,125.88,30.51,126,30.71Z"/><path class="cls-21" d="M597.31,16.17c-.79.75-1.48,1.9-2.13,1.88a2.33,2.33,0,0,1-1.95-2c0-.65,1.09-1.84,1.93-1.75S596.52,15.44,597.31,16.17Z"/><path class="cls-28" d="M571,38.7c-.18,1-.73,1.64-1.77,1.56a1.59,1.59,0,0,1,.06-3.17C570.28,37.06,570.8,37.71,571,38.7Z"/><path class="cls-2" d="M507.82,325l-2.33,0-1.44-7.28c-.09-.47-.48-1.08.23-1.29,1-.29,1.7-1.4,2.88-.83a8.15,8.15,0,0,1,1.09.79c2.76,1.86,2.77,1.86,1.36,5C509.06,322.64,508.42,323.82,507.82,325Z"/><path class="cls-29" d="M240.85,187.5c.68.16.56.76.63,1.21.93,5.26,2,10.5,3.21,15.69,2.49,10.45,5.24,20.82,9.9,30.57.16.34.52.85.09,1-.69.31-.76-.48-.94-.86a122.54,122.54,0,0,1-7.4-20.77c-2.31-8.41-4.17-16.92-5.67-25.51C240.59,188.43,240.25,187.91,240.85,187.5Z"/><path class="cls-29" d="M256.91,210.19c-.1.14-.18.33-.29.36a.49.49,0,0,1-.45-.11,10.46,10.46,0,0,1-.62-1.2,272.41,272.41,0,0,1-11.37-29c-.15-.43-.67-1.08,0-1.32s.64.6.79,1a283.61,283.61,0,0,0,11.62,29.48Z"/><path class="cls-22" d="M323.67,248.11c0,.41-.35.49-.65.61a29.17,29.17,0,0,0-8.32,5c-.27.23-.58.71-1,.18-.26-.36.12-.59.36-.8a28.45,28.45,0,0,1,8.61-5.19C323.41,247.65,323.61,247.72,323.67,248.11Z"/><path class="cls-30" d="M321.48,262.47c-.38-.16-.31-.5-.15-.8a27.3,27.3,0,0,1,5.95-7.64c.21-.2.47-.37.73-.14s.1.53-.1.72a28.34,28.34,0,0,0-5.87,7.51A.52.52,0,0,1,321.48,262.47Z"/><path class="cls-22" d="M258.27,213.64c1.11.6,1.28,1.8,1.87,2.69s1.29,2.1,1.93,3.15c.15.25.27.55,0,.76s-.51,0-.68-.24a41.92,41.92,0,0,1-3.32-5.83C258,214.07,258.17,213.88,258.27,213.64Z"/><path class="cls-31" d="M224.28,261.35c-.07.07-.19.26-.29.25a.85.85,0,0,1-.56-.24,22.72,22.72,0,0,0-3.45-3.62.42.42,0,0,1-.15-.57.39.39,0,0,1,.57-.17,16,16,0,0,1,3.86,4.12A.92.92,0,0,1,224.28,261.35Z"/><path class="cls-6" d="M256.56,238.94a2.2,2.2,0,0,1,.4.34c.69.95,1.38,1.91,2,2.89a.75.75,0,0,1,.08.6.33.33,0,0,1-.56.08,15.32,15.32,0,0,1-2.4-3.41C256,239.25,256.15,239,256.56,238.94Z"/><path class="cls-32" d="M329.8,246.3c.66.16,1.81-.28,1.81.36,0,1-1.15.44-1.76.49-.82.07-2.38.61-2.36-.08C327.51,245.92,329,246.67,329.8,246.3Z"/><path class="cls-32" d="M330.68,252.4a1.72,1.72,0,0,1-.43-.22.35.35,0,0,1,.09-.57c.92-.59,1.68-1.47,2.87-1.54.06,0,.23.33.19.38C332.67,251.34,331.55,251.67,330.68,252.4Z"/><path class="cls-6" d="M210.23,260.18h-5.67A13.38,13.38,0,0,1,210.23,260.18Z"/><path class="cls-13" d="M444.7,212q-41.64,0-83.29,0c-1.54,0-2.05-.24-2.05-2q.09-69.27,0-138.53c0-1.69.48-2,2-2q20.36.09,40.72,0c1.29,0,1.73.27,1.66,1.64-.12,2.41,0,4.84,0,7.26,0,.88.3,1.24,1.17,1.17.45,0,.9,0,1.35,0q61,0,122,0c1.79,0,2,.53,2,2.15q-.06,64.11,0,128.22c0,1.55-.25,2.05-2,2.05Q486.52,211.91,444.7,212Z"/><path class="cls-13" d="M445,58.7q41.72,0,83.43,0c1.48,0,1.95.32,1.84,1.84a53.5,53.5,0,0,0,0,6.58c.09,1.41-.45,1.79-1.7,1.59-.11,0-.22,0-.34,0q-83.43,0-166.87,0c-1.61,0-2.13-.34-2-2a51.59,51.59,0,0,0,0-6.58c-.05-1.23.39-1.47,1.53-1.46,6.07.06,12.16,0,18.24,0Z"/><path class="cls-30" d="M294.52,143.77a14.7,14.7,0,0,1-9.69-4.54c-.31-.31-1.05-.69-.49-1.18s.82.34,1.14.64a14.46,14.46,0,0,0,9.11,4.26c.5,0,1.19-.34,1.48.38C296.22,143.71,295.8,143.84,294.52,143.77Z"/><path class="cls-16" d="M289.55,122.56a6.46,6.46,0,0,1-.73,3.36c-.27.5-.6,1.06-1.24,1s-.78-.73-.88-1.29a5.71,5.71,0,0,1,.31-3.14c.31-.8.56-2,1.67-1.76C289.64,120.9,289.5,122,289.55,122.56Z"/><path class="cls-16" d="M306.28,129.4a5.6,5.6,0,0,1,1-3.08c.29-.41.61-.88,1.21-.66s.56.65.6,1.1a5.35,5.35,0,0,1-.66,3.07c-.33.62-.67,1.5-1.55,1.23S306.33,129.94,306.28,129.4Z"/><path class="cls-33" d="M215.68,269.15a14.1,14.1,0,0,1,6.8,2.46c5.48,3.57,9.19,8.7,12.46,14.2,1.31,2.22,2.44,4.55,3.63,6.85.2.39.72,1,.06,1.26s-.63-.51-.81-.88a72.29,72.29,0,0,0-8.2-13.53,29.08,29.08,0,0,0-8.73-7.83,11.66,11.66,0,0,0-5.26-1.66c-.35,0-.93.12-.87-.46S215.36,269.18,215.68,269.15Z"/><path class="cls-34" d="M249.12,292c-.81-.09-.82-.85-1.07-1.35-3.08-6.22-6.51-12.21-11.56-17.07-3-2.88-6.27-5.33-10.66-5.57-.34,0-.73,0-.67-.51.05-.32.38-.38.67-.37a11.45,11.45,0,0,1,4.56,1.1c4.7,2.13,8.11,5.77,11.15,9.79A70.64,70.64,0,0,1,249,290.61C249.16,291,249.61,291.45,249.12,292Z"/><path class="cls-33" d="M244.38,292.89c-.84-.14-.87-.94-1.14-1.49-3.18-6.36-6.7-12.49-12-17.39-2.87-2.67-6-4.91-10.17-5.12-.32,0-.76,0-.7-.47s.49-.4.83-.39a12.45,12.45,0,0,1,5.75,1.74c4.43,2.46,7.69,6.15,10.6,10.2a75.27,75.27,0,0,1,6.63,11.52C244.4,291.9,244.86,292.33,244.38,292.89Z"/><path class="cls-35" d="M575,24.16H558.39v-.43H575Z"/><path class="cls-4" d="M471.63,158.51v2c-.75-.09-.39-.62-.41-.86a1.45,1.45,0,0,1-.73,1.12,3.61,3.61,0,0,1-.32-1.94,3.77,3.77,0,0,0-.1-.88.87.87,0,0,0-.8-.51,11.6,11.6,0,0,0-1.86-.1H370.2c-.92,0-1.92-.25-2.7.52a2.92,2.92,0,0,0-.12.83c0,.68-.15,1.41.47,2a9.22,9.22,0,0,0,2,.06q49.14,0,98.27,0c1,0,2.15-.4,2.84.79-.62,0-1.24.07-1.85.07q-50.55,0-101.09,0c-.62,0-1.35.32-1.88-.33a23.74,23.74,0,0,0,.06-2.53V96.61c0-2.63,0-2.64,2.6-2.64h99.64c.95,0,1.91,0,2.87,0,.56.28.31.79.31,1.19q0,30.18.05,60.35c0,.22-.05.44-.07.67-.28.59-.7.27-1.08.16q-51.33,0-102.67,0,51.3,0,102.6,0C471.8,156.56,471,157.9,471.63,158.51Z"/><path class="cls-4" d="M501.4,208.24c-6.58,0-13.17,0-19.76,0-1.16,0-1.53-.3-1.52-1.51q.08-12.15,0-24.32c0-1.28.39-1.59,1.63-1.59q19.51.06,39,0c1.19,0,1.67.22,1.66,1.55q-.06,12.07.06,24.15c0,1.29-.28,1.74-1.67,1.73C514.35,208.2,507.88,208.24,501.4,208.24Z"/><path class="cls-4" d="M501.35,93.77c6.47,0,12.94,0,19.41,0,1.16,0,1.69.16,1.69,1.54q-.08,12.08,0,24.14c0,1.29-.28,1.73-1.67,1.72q-19.5-.08-39,0c-1.3,0-1.72-.3-1.71-1.67q.11-12.08,0-24.15c0-1.3.41-1.59,1.64-1.58C488.29,93.8,494.82,93.77,501.35,93.77Z"/><path class="cls-4" d="M501.4,179.2c-6.58,0-13.17,0-19.76,0-1.16,0-1.53-.29-1.52-1.5q.08-12.15,0-24.32c0-1.29.4-1.6,1.63-1.59q19.51.06,39,0c1.2,0,1.68.22,1.67,1.56q-.06,12.07.06,24.15c0,1.29-.29,1.73-1.67,1.71C514.35,179.15,507.88,179.2,501.4,179.2Z"/><path class="cls-4" d="M501.23,122.8c6.52,0,13,0,19.58,0,1.25,0,1.64.31,1.63,1.6q-.06,12.07.06,24.15c0,1.37-.41,1.67-1.72,1.67q-19.5-.08-39,0c-1.39,0-1.66-.42-1.65-1.72q.09-12,0-24c0-1.31.3-1.74,1.68-1.72C488.28,122.84,494.75,122.8,501.23,122.8Z"/><path class="cls-20" d="M528.4,136.85c0,.61.11,1.23.11,1.85q0,34.11,0,68.24c0,.61.4,1.56-.46,1.77a7.39,7.39,0,0,1-3.34,0c-.13,0-.23-.36-.27-.56a4.72,4.72,0,0,1,0-.84q0-35.39,0-70.77C525.81,135.9,527.17,135.62,528.4,136.85Z"/><path class="cls-20" d="M524.46,122.09q0-13.32-.07-26.64c0-.88.3-1.15,1.17-1.19,3-.12,3-.16,3,2.77q0,12.48,0,25A4,4,0,0,1,524.46,122.09Z"/><path class="cls-36" d="M407.56,167.75h38.33c.45,0,.9,0,1.35,0s.64.11.66.41-.36.49-.71.5-.79,0-1.18,0q-38.58,0-77.16,0c-.65,0-1.85.45-1.84-.45s1.22-.43,1.89-.43Q388.24,167.73,407.56,167.75Z"/><path class="cls-29" d="M366.85,174.36c.55-.58,1.15-.38,1.67-.38h98.94c.34,0,.68,0,1,0s.47.06.5.33-.26.44-.54.45-.79,0-1.18,0q-49.31,0-98.6,0C368.08,174.77,367.42,175,366.85,174.36Z"/><path class="cls-16" d="M524.46,122.09l4-.1a141.66,141.66,0,0,1-.06,14.86c-1.29-.48-2.67.07-4-.34Z"/><path class="cls-30" d="M471.34,94c-.6.66-1.38.35-2.08.35q-50.26,0-100.53,0c-2.16,0-2.16,0-2.16,2.21q0,31.35,0,62.69c0,.69.29,1.48-.39,2.06h0a3.57,3.57,0,0,1-.1-1.34q0-32.15,0-64.3a4.5,4.5,0,0,1,.11-1.51l.21-.21a6,6,0,0,1,1.84-.11H469.51a3.92,3.92,0,0,1,1.83.15Z"/><path class="cls-7" d="M448,187.59H424.53c-.33,0-.77,0-.8-.4s.5-.49.87-.52.67,0,1,0H470.2c.28,0,.57,0,.85,0s1.07-.14,1,.5-.7.41-1.11.41Z"/><path class="cls-7" d="M391.08,187.59H367.6c-.27,0-.61,0-.66-.38s.35-.5.67-.53a11.61,11.61,0,0,1,1.18,0h44.76a4.34,4.34,0,0,1,.51,0c.47.05,1.24-.2,1.23.48s-.79.43-1.24.43Z"/><path class="cls-30" d="M471,161.55c-.63-.58-1.4-.31-2.1-.31l-100,0c-.54,0-1.08-.08-1.61-.13a.36.36,0,0,1,0-.15.45.45,0,0,1,.11-.13,3.22,3.22,0,0,1,2.26-.47q49.32,0,98.63,0a3.27,3.27,0,0,1,2.26.46c.9-.25.25-1.06.66-1.59.34.37,0,1,.46,1.33C471.71,161.06,471.8,161.59,471,161.55Z"/><path class="cls-4" d="M471.34,94c-.67,0-1.35,0-2,0H368.58c-.73,0-1.46,0-2.19-.08.55,0,1.11-.14,1.66-.14q50.91,0,101.82,0C470.36,93.78,470.89,93.61,471.34,94Z"/><path class="cls-37" d="M391.06,202.51H368.78c-.39,0-.79,0-1.18,0s-.61,0-.64-.37.32-.41.58-.44.67,0,1,0q22.54,0,45.07,0c.55,0,1.54-.35,1.56.37s-1,.42-1.5.42C406.14,202.52,398.6,202.51,391.06,202.51Z"/><path class="cls-37" d="M448,202.51H425.57c-.4,0-.79,0-1.19,0s-.6,0-.63-.38.33-.4.59-.43.67,0,1,0q22.53,0,45.07,0c.55,0,1.54-.35,1.55.38s-1,.41-1.5.41C463,202.52,455.5,202.51,448,202.51Z"/><path class="cls-30" d="M423.58,194.61a2.18,2.18,0,0,1,1.77-.4q22.51,0,45,0c.54,0,1.54-.34,1.56.37s-1,.42-1.5.42q-22.53,0-45,0C424.84,195,424.2,195.21,423.58,194.61Z"/><path class="cls-30" d="M391.24,194.21h22.28c.28,0,.56,0,.84,0s.89-.16.87.45-.48.35-.79.37-.68,0-1,0H368.71c-.58-.17-1.66.39-1.65-.46,0-.68,1.13-.34,1.74-.35C376.28,194.2,383.76,194.21,391.24,194.21Z"/><path class="cls-4" d="M366.18,94.13c0,.56.08,1.12.08,1.68q0,32,0,63.95c0,.51,0,1-.07,1.52a29.13,29.13,0,0,1-.19-6.19q0-29.57,0-59.13A3.92,3.92,0,0,1,366.18,94.13Z"/><path class="cls-30" d="M471,156.49l.64-.33v2.35c-.9-.46-.52-1.32-.64-2Z"/><path class="cls-38" d="M416.92,142.71a15.24,15.24,0,0,1-15.27-15.56,15.41,15.41,0,1,1,15.27,15.56Z"/><path class="cls-39" d="M470.51,160.8c-.44,0-.89-.05-1.34-.05H368.7c-.45,0-.89,0-1.34.06-.81-.46-.32-1.22-.42-1.84a1.4,1.4,0,0,1,1.17-.56c.45,0,.9,0,1.35,0h98.61c.88,0,1.82-.2,2.56.52A2.19,2.19,0,0,1,470.51,160.8Z"/><path class="cls-40" d="M418.76,155.88H368.94c-.4,0-.79,0-1.19,0-.68.05-.84-.27-.85-.9s.31-.89.92-.85c.34,0,.68,0,1,0H470.18c.69,0,.55.56.58,1s-.12.75-.65.74-.9,0-1.35,0Z"/><path class="cls-28" d="M366.94,158.05c-.15-.87,0-1.45,1.09-1.28a5.14,5.14,0,0,0,.68,0H469c.86,0,2.16-.41,1.59,1.34-.5.51-1.15.39-1.75.39q-50.11,0-100.24,0C368.05,158.51,367.38,158.67,366.94,158.05Z"/><path class="cls-30" d="M366.94,158.05c.67,0,1.35,0,2,0l101.67,0v.78l-101.67,0c-.67,0-1.35,0-2,.05Z"/><path class="cls-30" d="M471,156.49l-103.51,0c-.05,0-.1-.05-.22-.11a2.34,2.34,0,0,1,1.5-.18H469.23c.59,0,1.25-.22,1.76.32Z"/><path class="cls-38" d="M500.52,200.47a5.89,5.89,0,0,1-6-6.15,6,6,0,0,1,6-6,6.26,6.26,0,0,1,6.15,6.13A6.09,6.09,0,0,1,500.52,200.47Z"/><ellipse class="cls-41" cx="501.34" cy="207.24" rx="28.33" ry="0.22"/><ellipse class="cls-42" cx="501.23" cy="205.34" rx="28.07" ry="0.13"/><path class="cls-38" d="M500.59,113.32a5.84,5.84,0,0,1-6-6,6.06,6.06,0,0,1,5.94-6.08,6.25,6.25,0,0,1,6.22,6.06A6.06,6.06,0,0,1,500.59,113.32Z"/><path class="cls-11" d="M481.3,118.08h40.08v.32H481.31Z"/><path class="cls-43" d="M521.29,120.25H481.38v-.18h39.88Z"/><path class="cls-38" d="M500.56,171.42a5.87,5.87,0,0,1-6-6.1,6.06,6.06,0,0,1,6-6,6.27,6.27,0,0,1,6.18,6.1A6.09,6.09,0,0,1,500.56,171.42Z"/><path class="cls-44" d="M481.33,176.16h40.05v.33H481.32Z"/><ellipse class="cls-45" cx="501.32" cy="178.25" rx="28.2" ry="0.1"/><path class="cls-38" d="M500.53,142.37a5.85,5.85,0,0,1-6-6.12,6.08,6.08,0,0,1,6-6,6.28,6.28,0,0,1,6.16,6.14A6.07,6.07,0,0,1,500.53,142.37Z"/><ellipse class="cls-41" cx="501.34" cy="147.3" rx="28.34" ry="0.21"/><ellipse class="cls-46" cx="501.31" cy="149.2" rx="28.23" ry="0.11"/><path class="cls-13" d="M412.61,135.42V120L426,127.69Z"/><path class="cls-21" d="M498.76,191.45l5.37,3.1c-1.66,1-3.16,1.87-4.68,2.72-.74.41-.69-.19-.69-.64Z"/><path class="cls-21" d="M498.88,104.42l5.26,3-5.26,3.07Z"/><path class="cls-21" d="M504.17,165.52l-5.3,3v-6.08Z"/><path class="cls-21" d="M504.18,136.48l-5.33,3v-6.06Z"/><path class="cls-5" d="M18.09,235.55c.41,3.86.72,7.73,2.07,11.46a14.69,14.69,0,0,1,2.59-8.26,10.37,10.37,0,0,1,2.4-2.59,3.76,3.76,0,0,1,4.6-.23,4.11,4.11,0,0,1,1.53,4.53,8.77,8.77,0,0,1-4.64,5.32,23.29,23.29,0,0,1-5.39,1.82c-.78.18-1,.42-.7,1.25a93.47,93.47,0,0,0,5.77,13c.09-.77.16-1.18.18-1.59a13.43,13.43,0,0,1,4.14-9.21c1.69-1.66,3.76-1.92,5.32-.79a4.22,4.22,0,0,1,1.12,5.54,9,9,0,0,1-5,4.62c-1.77.69-3.6,1.22-5.52,1.86l7.27,14a27.19,27.19,0,0,1,.38-3.12,13.68,13.68,0,0,1,4-7c1.7-1.57,3.65-1.79,5.21-.68A4.32,4.32,0,0,1,44.62,271a9.07,9.07,0,0,1-4.35,4.42c-1,.47-2,.79-3,1.18s-2.39.23-2.74,1c-.28.62.57,1.76,1,2.65a85.05,85.05,0,0,1,3.6,11.28A14.69,14.69,0,0,1,41,284a7.82,7.82,0,0,1,2-2.53,3.67,3.67,0,0,1,5.95,1.56c.55,1.82,1.39,3.53,1.88,5.36a14.33,14.33,0,0,1,.27,6.25,62,62,0,0,0,3.83-10.86c.6-2.45.6-2.46-1.7-3.32-2.49-.93-4.86-2-6.41-4.33a8.45,8.45,0,0,1-1.26-2.64,4.22,4.22,0,0,1,1.83-4.69,3.75,3.75,0,0,1,4.68.68,14.22,14.22,0,0,1,4,8.31,87.72,87.72,0,0,0,1.31-8.69c.22-1.52.33-3.07.59-4.59.13-.78-.09-1.11-.82-1.33a24,24,0,0,1-5-2.11,9,9,0,0,1-4.12-5,4.25,4.25,0,0,1,1.63-5c1.59-1,3.43-.71,5,.9,2.1,2.12,3.1,4.8,3.79,8.06a79,79,0,0,1,2.61-12.32c.21-.67-.07-.89-.67-1.08a28.74,28.74,0,0,1-5.12-2.15,9.05,9.05,0,0,1-4.12-4.83,4.27,4.27,0,0,1,1.58-5.31c1.67-1,3.55-.68,5.13,1.07a12.87,12.87,0,0,1,3.51,8.36,15.21,15.21,0,0,0,.12,2,82.29,82.29,0,0,1,3.78-7.86c.77-1.33,2.27-2.74,2.12-4S65.17,232,64,231.07c-2.4-1.94-4-4.27-4.12-7.44a4.14,4.14,0,0,1,3-4.33c1.72-.48,3.42.3,4.47,2.22a13,13,0,0,1,1.33,9c-.17.84-.43,1.68-.76,3l2.27-3.22.27.17-1.23,2a14.73,14.73,0,0,1,7.49-3.79,10.18,10.18,0,0,1,2-.2,3.87,3.87,0,0,1,4,2.73,4.16,4.16,0,0,1-2,4.64,8.71,8.71,0,0,1-6.25,1.08,25.27,25.27,0,0,1-5.65-2c-.4-.18-.81-.61-1.19,0a46.92,46.92,0,0,0-5.32,11.73,14.7,14.7,0,0,1,7.29-5.72,9.32,9.32,0,0,1,3-.65,3.82,3.82,0,0,1,3.86,2.28,4,4,0,0,1-1,4.52,8.74,8.74,0,0,1-7.35,2,25.54,25.54,0,0,1-5.2-1.43c-.68-.25-1-.16-1.18.6a91,91,0,0,0-2.43,14.23c.69-.86,1.12-1.41,1.55-2a13.26,13.26,0,0,1,7.76-4.72c2.5-.58,4.45.34,5.16,2.25s-.21,4.18-2.44,5.39c-2.77,1.5-5.64,1.35-8.54.45l-3.51-1.08c-.29,2.68-.56,5.29-.85,7.89s-.57,5.11-.86,7.73c.57-.16.77-.71,1.08-1.1a13.3,13.3,0,0,1,8.22-4.79,4,4,0,0,1,4.57,2A4.17,4.17,0,0,1,70,279.62a8.84,8.84,0,0,1-7.19,1.54c-1.56-.31-3.08-.82-4.61-1.26-.47-.14-.91-.33-1,.41a78.29,78.29,0,0,1-3.47,13.29,15.55,15.55,0,0,1,6.76-5.31c1.41-.55,2.86-.91,4.25.09-.26.4-.69.39-1.09.45-4.54.67-7.28,3.28-8.34,7.7a1.44,1.44,0,0,1-.26.56c-2.22-.38-2.87,1-3.49,2.8a24.88,24.88,0,0,1-2.89,6.37,2.91,2.91,0,0,1-2.17,0c-.63-.52-.17-1,0-1.52.93-2.35,2-4.62,3-6.93.41-.93.31-1.49-.64-2A21.78,21.78,0,0,1,45,293.35a1.93,1.93,0,0,0-2.39-.2c-2.61,1.27-2.64,1.25-2,4,.58,2.51,1,5.05,1.43,7.58.1.53.33,1.13-.32,1.53a1.82,1.82,0,0,1-2-.28c-.55-3.29-1.13-6.59-1.65-9.9-.14-.89-.45-1.1-1.41-1-2.65.22-5.35.62-7.94-.46a8.69,8.69,0,0,1-3.61-2.57,4.28,4.28,0,0,1-.22-5,3.8,3.8,0,0,1,4.58-1.22,13.07,13.07,0,0,1,6.94,5.84c.26.43.31,1,1,1.42A70,70,0,0,0,35,283.57c-.38-1.17-.57-2.66-1.4-3.36s-2.29.24-3.46.46a11.12,11.12,0,0,1-7.67-.87,5.54,5.54,0,0,1-2.26-2,3.87,3.87,0,0,1,0-4.37,3.72,3.72,0,0,1,3.93-1.56c2.5.39,5.07,1.87,7.7,4.41.26-.39-.06-.65-.18-.91-1.75-3.61-3.54-7.2-5.28-10.82-.36-.75-.74-.87-1.56-.67-2.44.57-4.88,1.35-7.45.78a8.75,8.75,0,0,1-4.27-2,4.16,4.16,0,0,1-1.07-4.92,4,4,0,0,1,4.61-2c2.11.42,3.84,1.4,7.47,4.3-1.39-3.13-2.7-6-3.71-9s-1-3-4.13-2.33c-2.66.6-5.29.82-7.86-.4a6.25,6.25,0,0,1-2.74-2.18,3.93,3.93,0,0,1-.13-4.38,3.57,3.57,0,0,1,3.87-1.68,12.86,12.86,0,0,1,8.05,4.78c.51.63.93,1.33,1.64,2.36-.69-3.89-1.48-7.36-1.37-10.93C17.69,235.94,17.48,235.57,18.09,235.55Z"/><path class="cls-4" d="M54.8,296.93c1-5.29,4.37-8.18,9.91-8.55H86.47a2.35,2.35,0,0,1,1.61-.39c17.71-.06,35.43,0,53.14,0a4.94,4.94,0,0,1,1.38.13,1.49,1.49,0,0,1,.82,2.6c-3.73,4.14-3.48,8.75-1.68,13.56a1.88,1.88,0,0,0,2,1.33c2.06,0,4.12,0,6.18,0,1,0,1.91.15,2.29,1.21s-.34,1.63-1.05,2.18a3.32,3.32,0,0,0-1,1.38,13.79,13.79,0,0,0-.33,11,5.06,5.06,0,0,0,1.69,2.52,1.71,1.71,0,0,1,.75,1.13,1.13,1.13,0,0,1-.59,1.2c-.48.42-1.07.28-1.63.28H24.59c-5.78,0-9.86-4.23-9.86-10.17s4.09-10.15,9.86-10.19L39.73,306h2.14a4.94,4.94,0,0,1,4.43,0h2.3c1.35-.74,2.81-.3,4.22-.41,1.07-.08,2.56.46,3.12-.19.74-.83-.79-1.72-1-2.73C54.64,300.78,53.58,298.89,54.8,296.93Z"/><path class="cls-5" d="M18.09,235.55a.84.84,0,0,0-.31.71c-.5-.88.36-2.27-.66-2.77-.8-.39-1.92-.11-2.89-.15-2.72-.12-5.31-.63-7.46-2.48a6,6,0,0,1-2.08-3,3.85,3.85,0,0,1,1.1-4.09,3.42,3.42,0,0,1,3.87-.68,12.63,12.63,0,0,1,6.9,7.08c.29.69.5,1.41.9,2.54.17-2.79.32-5.11.47-7.43h.16c0,1.58,0,3.16,0,4.74,0,.48-.22,1,.32,1.42.45.73,1.62.87,1.6,2C18.81,233.63,17.72,233.92,18.09,235.55Z"/><path class="cls-5" d="M75.46,223.8a14.29,14.29,0,0,1,5-8.92,11.48,11.48,0,0,1,2-1.37,3.77,3.77,0,0,1,4.81.58,4.11,4.11,0,0,1,.35,5.13,8.91,8.91,0,0,1-5.84,3.94A35.62,35.62,0,0,1,75.46,223.8Z"/><path class="cls-5" d="M18.5,220.83a14.24,14.24,0,0,1-.36-11.42c1-2.54,2.92-3.69,5-3.1,2.23.64,3.4,2.91,2.87,5.57a9.56,9.56,0,0,1-2.89,5.32A42.82,42.82,0,0,1,18.5,220.83Z"/><path class="cls-5" d="M20,233.45c-.28-.87-1.91-.64-1.6-2a11.75,11.75,0,0,1,5.93-8.86,3.62,3.62,0,0,1,4.3.43,4.13,4.13,0,0,1,1,4.66,8.48,8.48,0,0,1-4.73,4.6A13.32,13.32,0,0,1,20,233.45Z"/><path d="M151.73,326.18l.34-1.07a3.35,3.35,0,0,1,2.08-.38h32.39a3.27,3.27,0,0,1,2.22.43c.4.24.41.63.39,1Z"/><path class="cls-13" d="M46.3,306H41.87c-.69-3.58-1.35-7.17-2.1-10.73-.18-.88.1-1.17.82-1.63,2.22-1.41,4.22-1.72,6.14.43a3.51,3.51,0,0,0,.91.57c2.93,1.69,2.93,1.7,1.53,4.89C48.23,301.72,47.26,303.87,46.3,306Z"/><path class="cls-13" d="M54.8,296.93c-.26,3.29.2,6.36,2.89,9.1H48.6c1.17-2.85,2.38-5.69,3.49-8.57C52.76,295.71,53.9,297.11,54.8,296.93Z"/><path class="cls-13" d="M116,291.08a15.7,15.7,0,0,0,0,15.1,2.15,2.15,0,0,1-1.38.19H65.37c-2.94,0-2.85,0-3-2.88-.07-1.49.32-1.91,1.84-1.86,3.45.13,6.9.05,10.35,0,.45,0,1.24.28,1.23-.45,0-.55-.75-.36-1.18-.36-3.61,0-7.22,0-10.82,0-1,0-1.49-.19-1.41-1.33a24.53,24.53,0,0,0,0-4c-.09-1.2.25-1.57,1.51-1.55,6.18.07,12.36,0,18.55,0,1.7,0,3.4,0,5.1,0,.37,0,1,.16.93-.45,0-.43-.55-.36-.9-.36H63.78c-.61,0-1.35.28-1.39-.87s.38-1.4,1.32-1.41l1.23,0h49.78A1.8,1.8,0,0,1,116,291.08Z"/><path class="cls-13" d="M96.94,308.8c-2,7.67-2,7.67.18,15.2H59.42a19.22,19.22,0,0,1-2,0c-2.7-.28-3.62-1.25-3.56-3.85,0-1.42-.66-3.31.31-4.12s2.65-.23,4-.23H81.69c.36,0,.72,0,1.08,0s.57,0,.59-.34S83,315,82.72,315s-.73,0-1.09,0q-13.22,0-26.43,0c-.85,0-1.44,0-1.41-1.17s.36-1.27,1.33-1.26q9.2.06,18.4,0c.61,0,1.76.32,1.74-.33,0-.89-1.15-.45-1.78-.46-6,0-12.05,0-18.08,0-.52,0-1.31.43-1.55-.47s.33-1.39,1.07-1.8c2.42-1.32,5-.87,7.57-.82.92,0,1.84.18,2.77.18q15.06,0,30.13,0Z"/><path class="cls-13" d="M124.15,308.93c-2.17,8.16-2.16,8.71.24,14.91-.19.35-.54.19-.81.19q-12,0-24,0a6.44,6.44,0,0,1-1.08,0,1.31,1.31,0,0,1-.9-1.31c0-.8.69-.38,1-.39,2.83,0,5.67,0,8.5,0,.37,0,1,.19,1-.33,0-.72-.69-.43-1.08-.44-3,0-6,0-9,0-.8,0-1.21-.22-1.42-1a15.46,15.46,0,0,1-.65-5.19c0-.53-.1-1.18.76-1.27.25,0,.53-.34.27-.54-.43-.33-.76-.54-.49-1.18A20,20,0,0,1,98,309c.19-.3.55-.23.85-.23l25,0C124,308.82,124.06,308.89,124.15,308.93Z"/><path class="cls-13" d="M141.15,291a15.89,15.89,0,0,0,.13,15.39H124.09c-2,0-3.91-.05-5.87,0a1.51,1.51,0,0,1-1.65-1,15,15,0,0,1,0-13.55,1.46,1.46,0,0,1,1.5-1c7.52,0,15,0,22.56,0A2.9,2.9,0,0,1,141.15,291Z"/><path class="cls-13" d="M149.69,324H126.77c-.72,0-1.31,0-1.73-.86a15,15,0,0,1-.28-13.27,1.58,1.58,0,0,1,1.72-1.13c1.59.08,3.19,0,4.79,0,5.55.05,11.11,0,16.65-.28.5,0,1,0,1.73,0A15.86,15.86,0,0,0,149.69,324Z"/><path class="cls-13" d="M61.51,305.75a7.32,7.32,0,0,1-4.34-6.45,7.57,7.57,0,0,1,4.34-7.83Z"/><path class="cls-28" d="M52.93,321.45a8.24,8.24,0,0,1,0-10.33Z"/><path class="cls-47" d="M77.88,295.56h9.87c.39,0,1-.15,1,.4s-.55.45-.94.45H67.93c-.38,0-1,.11-.93-.47s.63-.38,1-.38Z"/><path class="cls-37" d="M91.44,304.57H84c-.33,0-.87.13-.89-.32,0-.62.57-.43.93-.43q7.41,0,14.83,0c.33,0,.86-.14.89.32,0,.64-.58.43-.92.43C96.38,304.58,93.91,304.57,91.44,304.57Z"/><path class="cls-37" d="M72.86,304.57H67.78c-.29,0-.72.06-.75-.32,0-.56.46-.43.78-.43q5.16,0,10.32,0c.33,0,.84-.1.82.39s-.52.37-.85.37Z"/><path class="cls-7" d="M94,295.56c.6.34,2-.64,2,.49,0,.7-1.39.26-2.16.35a12.56,12.56,0,0,1-1.84,0c-.28,0-.55-.16-.56-.43s.26-.42.55-.42Z"/><path class="cls-29" d="M103.19,304.57a3.2,3.2,0,0,1-.62,0c-.35-.07-1,.23-.95-.41s.55-.31.87-.33a16.07,16.07,0,0,1,1.7,0c.32,0,.86-.17.87.33,0,.65-.6.35-1,.41A5.64,5.64,0,0,1,103.19,304.57Z"/><path class="cls-48" d="M80.39,321.38c-.35.59-.92.37-1.4.37H58.17a5.62,5.62,0,0,1-.92,0c-.13,0-.34-.23-.32-.28s.2-.38.34-.41a4.66,4.66,0,0,1,.92,0H79C79.48,321,80.06,320.77,80.39,321.38Z"/><path class="cls-49" d="M66.53,319.38H63.31c-.36,0-.82,0-.82-.44,0-.33.37-.43.7-.43H70.1c.31,0,.68.08.66.46s-.4.39-.7.39Z"/><path class="cls-50" d="M102.26,314.08h-1.55c-.37,0-.81,0-.81-.46s.39-.41.73-.41c1.08,0,2.16,0,3.23,0,.33,0,.73.06.73.4s-.43.47-.79.47Z"/><path class="cls-30" d="M111.77,321.41c.65.23,1.65-.27,1.66.43s-1,.37-1.5.36-1.84.39-1.83-.32C110.11,321,111.29,321.8,111.77,321.41Z"/><path class="cls-51" d="M545.88,365.21l-.45-.4c-1.9-1.9-3.79-3.81-5.72-5.69-.47-.46-.42-.74,0-1.18,1.87-1.82,3.71-3.66,5.54-5.53.44-.45.73-.47,1.18,0q2.74,2.79,5.54,5.52c.45.44.47.77,0,1.21-1.92,1.89-3.81,3.8-5.72,5.7C546.18,365,546.06,365.05,545.88,365.21Z"/><path class="cls-51" d="M525.12,346.49c-.14.16-.31.38-.51.58-1.78,1.78-3.58,3.54-5.34,5.35-.52.54-.83.55-1.36,0-1.75-1.82-3.54-3.59-5.35-5.35-.52-.51-.58-.85,0-1.39,1.84-1.78,3.65-3.6,5.45-5.42.41-.42.7-.56,1.18-.07,1.84,1.89,3.73,3.74,5.6,5.62C524.92,346,525.16,346.12,525.12,346.49Z"/><path class="cls-8" d="M544.23,311.6a2.85,2.85,0,0,1-5.69,0,2.85,2.85,0,1,1,5.69,0Z"/><path class="cls-13" d="M545.87,352.81c.19.17.38.32.54.48,1.59,1.58,3.16,3.18,4.76,4.73.44.42.42.65,0,1.06-1.61,1.55-3.2,3.12-4.75,4.74-.48.5-.74.36-1.14-.06-1.54-1.57-3.1-3.11-4.65-4.66-.28-.27-.67-.48-.18-1,1.69-1.65,3.35-3.33,5-5C545.58,353.05,545.7,353,545.87,352.81Z"/><path class="cls-13" d="M518.61,352.1a6.44,6.44,0,0,1-.55-.47c-1.59-1.58-3.16-3.17-4.76-4.73-.42-.4-.46-.62,0-1q2.43-2.33,4.75-4.74c.47-.48.73-.39,1.15,0,1.53,1.57,3.1,3.11,4.65,4.66.27.27.69.46.19.95-1.7,1.64-3.35,3.32-5,5C518.89,351.87,518.76,352,518.61,352.1Z"/><path class="cls-13" d="M543.56,311.59a2.17,2.17,0,0,1-2.13,2.21,2.2,2.2,0,1,1,0-4.39A2.19,2.19,0,0,1,543.56,311.59Z"/></g></svg>