<svg xmlns="http://www.w3.org/2000/svg" width="19.901" height="22.22" viewBox="0 0 19.901 22.22">
  <g id="Group_219" data-name="Group 219" transform="translate(-9.263 -4.481)">
    <path id="Path_769" data-name="Path 769" d="M17.158,16.63q3.606,0,7.2,0c.98,0,.725-.754.728-1.284.019-3.125.049-6.251-.013-9.373-.023-1.055.155-1.517,1.372-1.491,2.695.061,2.695-.01,2.695,2.756,0,4.041-.029,8.082.019,12.119.013,1.039-.281,1.381-1.359,1.359-3.585-.068-7.173-.026-11.236-.026,1.223,1.2,2.1,2.116,3.041,2.967.563.511.56.828,0,1.394-2.132,2.171-2.106,2.194-4.206.094-1.831-1.828-3.624-3.691-5.5-5.468-.78-.738-.909-1.178-.049-2,2.378-2.265,4.665-4.626,6.953-6.985.489-.5.754-.683,1.381-.1,2.339,2.164,2.556,2.132.162,4.251-.809.715-1.647,1.414-2.1,1.786Z" transform="translate(0 0)" fill="#2e2e2e"/>
  </g>
</svg>